<svg width="42" height="42" viewBox="0 0 42 42" fill="none" xmlns="http://www.w3.org/2000/svg">
<g clip-path="url(#clip0)">
<path d="M7.34219 27.5986V9.9652L20.9988 23.625L34.6455 9.97176V27.5921H40.9356C41.976 24.4374 42.2532 21.0809 41.7444 17.7982C41.2356 14.5156 39.9553 11.4005 38.0087 8.70881C36.0621 6.01711 33.5047 3.82559 30.5466 2.31426C27.5885 0.802922 24.314 0.0148926 20.9922 0.0148926C17.6704 0.0148926 14.3959 0.802922 11.4378 2.31426C8.4797 3.82559 5.92232 6.01711 3.97572 8.70881C2.02911 11.4005 0.748823 14.5156 0.240006 17.7982C-0.268811 21.0809 0.00835951 24.4374 1.04875 27.5921L7.34219 27.5986ZM30.0484 31.8643V20.708L20.8019 29.8955L11.6144 20.79V31.8643H2.755C4.65781 34.9615 7.32268 37.5194 10.4953 39.2938C13.6679 41.0682 17.2423 41.9999 20.8773 41.9999C24.5124 41.9999 28.0868 41.0682 31.2594 39.2938C34.432 37.5194 37.0969 34.9615 38.9997 31.8643H30.0484Z" fill="#F2B124"/>
</g>
<defs>
<clipPath id="clip0">
<rect width="42" height="42" fill="white"/>
</clipPath>
</defs>
</svg>
