<svg width="42" height="47" viewBox="0 0 42 47" fill="none" xmlns="http://www.w3.org/2000/svg">
<path d="M9.8 20.0437H9.82121L10.1606 20.1701L10.5212 20.2966L10.8606 20.423L11.2212 20.5706L11.5606 20.697L11.9212 20.8024L12.2606 20.9289L12.6 21.0764L13.2788 21.3293L13.6394 21.4347L13.9788 21.5822L14.3394 21.7087L14.6788 21.8351L15.0394 21.9616L15.3788 22.088L15.7394 22.2145L16.0788 22.341L16.4394 22.4674L16.7788 22.615L17.1394 22.7203V17.8096H9.31212L8.97273 17.9782L8.16667 18.3997L7.33939 18.8212L6.53333 19.2428L5.72727 19.6643L4.9 20.0858L4.07273 20.5073L3.26667 20.9289L2.46061 21.3504L1.63333 21.7719L0.827273 22.1934L0.0848485 22.5939L0 34.6706L0.827273 35.2396L1.63333 35.8087L2.46061 36.3567L4.07273 37.4948L4.9 38.0638L5.26061 38.3378L5.72727 37.7688L6.53333 36.7149L6.59697 36.6096L6.53333 36.5463L5.72727 35.9773L4.9 35.3871L4.07273 34.8181L3.26667 34.249L2.46061 33.68L2.22727 33.5324L2.29091 23.7741L2.46061 23.6898L3.26667 23.2894L4.07273 22.8679L4.9 22.4885L5.72727 22.067L6.53333 21.6665L7.33939 21.2661L8.16667 20.8656L8.97273 20.4652L9.8 20.0437Z" fill="#F2B124"/>
<path d="M23.843 43.1012L23.143 43.3752L22.3793 43.6703L21.6157 43.9864L20.8521 44.2815L20.5127 44.429L20.1096 44.2182L19.346 43.8389L18.6036 43.4595L17.8399 43.0801L17.0763 42.7008L16.3127 42.3214L15.549 41.942L14.7854 41.5416L14.0218 41.1833L13.2793 40.7828L12.5157 40.4034L11.7733 40.0451L11.0096 39.6447L10.9248 39.6025V29.7599H8.71873V40.9514L11.7733 42.4689L12.5157 42.8483L13.2793 43.2487L14.0218 43.607L14.7854 44.0075L15.549 44.3869L16.3127 44.7451L17.0763 45.1456L18.6036 45.9043L19.346 46.2837L20.4066 46.8106L20.8521 46.6209L21.6157 46.3259L22.3793 46.0308L23.143 45.7147L23.9066 45.3985L24.6702 45.1245L23.9066 43.2277L23.843 43.1012ZM37.3975 29.3806L37.4399 34.0384L37.2278 34.186L35.9339 35.0922L34.6612 36.0196L33.3672 36.9259L32.0733 37.8532L30.7581 38.7384L29.4854 39.6658L28.1915 40.5931L27.4278 41.1411L26.8975 40.7196L25.6248 39.7501L24.3308 38.7595L23.0369 37.79L21.7642 36.7994L21.5308 36.6519V31.6357L21.7642 31.425L23.0369 30.0761L24.3308 28.7483L25.6248 27.3994L26.8975 26.0716L28.149 24.7649H12.7278L14.0218 26.1138L15.2945 27.4416L16.6096 28.7694L17.9036 30.1182L19.1763 31.446L19.346 31.6357V37.7057L20.4702 38.5698L21.7642 39.5393L23.0369 40.5299L24.3308 41.4994L25.6248 42.49L26.8975 43.4595L27.3854 43.8389L28.1915 43.2487L29.4854 42.3425L30.7581 41.4151L32.0733 40.5088L33.3672 39.6025L34.6612 38.6963L35.9339 37.7689L37.2278 36.8626L38.5218 35.9564L39.5824 35.1765L39.7945 29.4649L38.5218 29.4227L37.3975 29.3806ZM2.10054 18.6106H2.24903L2.27024 12.4142L3.11873 11.8873L4.13691 11.2761L5.1763 10.6649L6.17327 10.0115L7.21267 9.4003L8.23085 8.76802L9.24903 8.15681L10.2672 7.54559L11.2854 6.91331L12.3248 6.3021L12.346 6.28102L13.3218 6.85008L14.3612 7.41914L16.3975 8.59941L17.4157 9.16846L18.4551 9.73752L19.4521 10.3277L20.449 10.8756L20.4915 10.7913L21.5096 8.97878L20.4915 8.38864L19.4521 7.81959L18.4551 7.25053L17.4157 6.68147L16.3975 6.07026L15.3793 5.5012L14.3612 4.93214L13.3218 4.36308L12.3248 3.79403L12.2824 3.77295L11.2854 4.36308L10.2672 4.99537L9.24903 5.60658L8.23085 6.23887L7.21267 6.85008L6.17327 7.46129L5.1763 8.09358L4.13691 8.70479L3.11873 9.33707L2.10054 9.96936L1.08236 10.5806L0.085393 11.1918L0.0429688 18.5895H1.08236L2.10054 18.6106Z" fill="#F2B124"/>
<path d="M41.9778 12.9197L41.4687 12.5193L40.9172 12.0767L40.3869 11.6552L39.8566 11.2336L39.3263 10.791L38.796 10.3906L38.2445 9.96906L37.7142 9.52646L37.1627 9.10493L36.7808 8.78879L36.6324 8.9574L36.1021 9.61076L35.5506 10.2852L35.4233 10.4749L35.5506 10.6224L36.1021 11.065L36.6324 11.4865L37.1627 11.9502L37.7142 12.3928L38.2445 12.8354L38.796 13.2991L39.3263 13.7417L39.5809 13.9525L39.6021 23.9215L39.3263 24.0901L38.796 24.4484L38.2445 24.7646L37.7142 25.1229L37.1627 25.439L36.6324 25.7973L36.1021 26.1135L35.5506 26.4717L35.0202 26.7879L34.4899 27.1462L33.9596 27.4623L33.4293 27.8206L32.8778 28.1368L32.3475 28.4951L31.8172 28.8112L31.2869 29.1695L30.7354 29.4856L31.2869 30.3287L31.8172 31.1928L31.9233 31.3404L32.3475 31.0664L32.8778 30.7291L33.4293 30.413L33.9596 30.0758L34.4899 29.7386L35.0202 29.4013L35.5506 29.0852L36.1021 28.748L36.6324 28.4318L37.1627 28.0946L37.7142 27.7574L38.2445 27.4202L38.796 27.104L39.3263 26.7668L39.8566 26.4507L40.3869 26.1135L40.9172 25.7762L41.4687 25.439L41.999 25.1229L41.9778 12.9197ZM24.499 18.8632V23.1839L24.6687 23.1206L25.3687 22.8256L26.0899 22.5516L26.7899 22.2565L27.5112 21.9825L28.2324 21.6874L28.9324 21.3924L29.6536 21.1184L30.3748 20.8233L31.0748 20.5493L31.796 20.2543L32.496 19.9803V6.913L31.6899 6.42825L30.8627 5.96457L30.0566 5.47982L29.2293 4.99507L28.4021 4.53139L27.5748 4.04664L26.7687 3.56188L25.9627 3.09821L25.1354 2.61345L24.3081 2.1287L23.4808 1.66502L22.6748 1.18027L21.8687 0.695516L21.0415 0.231839L20.6172 0L20.2142 0.189686L19.3869 0.653363L18.5808 1.07489L17.7748 1.51749L16.9475 1.98117L16.1202 2.40269L15.293 2.84529L16.1202 3.33004L16.9475 3.79372L17.4566 4.08879L17.7748 3.94126L18.5808 3.49865L19.3869 3.07713L20.2142 2.65561L20.5536 2.487L21.0415 2.76099L21.8687 3.24574L23.4808 4.17309L25.1354 5.1426L25.9627 5.60628L27.5748 6.57578L28.4021 7.03946L30.0566 8.00897L30.3112 8.13543V17.7673H24.5202" fill="#F2B124"/>
<path d="M24.4991 23.1837L32.4961 19.9801L24.4779 17.7671L24.4991 23.1837ZM17.1385 23.1837V17.8514L9.82031 20.0222L17.1385 23.1626" fill="#F2B124"/>
</svg>
