<svg width="42" height="42" viewBox="0 0 42 42" fill="none" xmlns="http://www.w3.org/2000/svg">
<path d="M21 42C32.6376 42 42 32.6376 42 21C42 9.36243 32.6376 0 21 0C9.36243 0 0 9.36243 0 21C0 32.6376 9.36243 42 21 42Z" fill="#F2B124"/>
<path d="M26.7757 24.3248C26.7757 21.2624 24.9382 20.2124 21.2632 19.775C18.6382 19.4249 18.1132 18.725 18.1132 17.4998C18.1132 16.2747 18.9883 15.4874 20.7382 15.4874C22.3132 15.4874 23.1883 16.0124 23.6257 17.3249C23.7133 17.5874 23.9758 17.7623 24.2383 17.7623H25.6381C25.9882 17.7623 26.2507 17.4998 26.2507 17.15V17.0624C25.9006 15.1373 24.3256 13.6499 22.3132 13.4749V11.3749C22.3132 11.0249 22.0507 10.7624 21.6133 10.6748H20.3008C19.9507 10.6748 19.6882 10.9373 19.6006 11.3749V13.3874C16.9756 13.7374 15.3133 15.4874 15.3133 17.675C15.3133 20.5625 17.0632 21.6998 20.7382 22.1375C23.1883 22.5749 23.9758 23.0999 23.9758 24.5C23.9758 25.9 22.7506 26.8625 21.0883 26.8625C18.8131 26.8625 18.0256 25.8998 17.7631 24.5873C17.6758 24.2375 17.4133 24.0623 17.1508 24.0623H15.6631C15.3133 24.0623 15.0508 24.3248 15.0508 24.6749V24.7625C15.4006 26.9498 16.8007 28.5248 19.6882 28.9625V31.0625C19.6882 31.4123 19.9507 31.6748 20.3881 31.7624H21.7006C22.0507 31.7624 22.3132 31.4999 22.4008 31.0625V28.9625C25.0258 28.5248 26.7757 26.6873 26.7757 24.3248Z" fill="white"/>
<path d="M16.5373 33.5124C9.71226 31.0625 6.21219 23.45 8.74983 16.7124C10.0623 13.0374 12.9498 10.2374 16.5373 8.92493C16.8873 8.75 17.0623 8.4875 17.0623 8.04986V6.82493C17.0623 6.47486 16.8873 6.21236 16.5373 6.125C16.4497 6.125 16.2748 6.125 16.1872 6.21236C7.87476 8.83736 3.32468 17.675 5.94968 25.9874C7.52469 30.8874 11.2873 34.6499 16.1872 36.2249C16.5373 36.3999 16.8873 36.2249 16.9747 35.8749C17.0623 35.7875 17.0623 35.6999 17.0623 35.525V34.2999C17.0623 34.0374 16.7998 33.6875 16.5373 33.5124ZM25.8124 6.21236C25.4623 6.03743 25.1122 6.21236 25.0249 6.56243C24.9373 6.65 24.9373 6.73736 24.9373 6.9125V8.13743C24.9373 8.4875 25.1998 8.83736 25.4623 9.0125C32.2873 11.4624 35.7874 19.0749 33.2497 25.8125C31.9372 29.4875 29.0497 32.2874 25.4623 33.5999C25.1122 33.7749 24.9373 34.0374 24.9373 34.475V35.6999C24.9373 36.05 25.1122 36.3125 25.4623 36.3999C25.5499 36.3999 25.7248 36.3999 25.8124 36.3125C34.1248 33.6875 38.6749 24.8499 36.0499 16.5374C34.4749 11.5499 30.6247 7.78736 25.8124 6.21236Z" fill="white"/>
</svg>
