<svg width="42" height="42" viewBox="0 0 42 42" fill="none" xmlns="http://www.w3.org/2000/svg">
<path d="M21 0.492188C9.67394 0.492188 0.492188 9.67394 0.492188 21C0.492188 32.3261 9.67394 41.5078 21 41.5078C32.3261 41.5078 41.5078 32.3261 41.5078 21C41.5078 9.67394 32.3261 0.492188 21 0.492188ZM12.454 29.2031C9.79453 26.5478 9.27527 23.2288 9.40078 19.2486H9.39586V10.3745L28.4271 29.3729C24.0056 33.7698 16.8705 33.6008 12.454 29.2031ZM13.6114 13.6615C17.9903 9.2482 25.1409 9.36305 29.5173 13.7796C32.153 16.4448 32.9364 19.7613 32.6394 23.7284H32.6484L32.705 32.6435L13.6114 13.6615Z" fill="#F2B124"/>
</svg>
