<svg width="42" height="42" viewBox="0 0 42 42" fill="none" xmlns="http://www.w3.org/2000/svg">
<g clip-path="url(#clip0)">
<path d="M21 0C16.8466 0 12.7865 1.23163 9.33303 3.53914C5.8796 5.84665 3.18798 9.1264 1.59854 12.9636C0.0090989 16.8009 -0.406771 21.0233 0.403518 25.0969C1.21381 29.1705 3.21386 32.9123 6.15077 35.8492C9.08767 38.7861 12.8295 40.7862 16.9031 41.5965C20.9767 42.4068 25.1991 41.9909 29.0364 40.4015C32.8736 38.812 36.1534 36.1204 38.4609 32.667C40.7684 29.2135 42 25.1534 42 21C42 15.4305 39.7875 10.089 35.8493 6.15076C31.911 2.21249 26.5696 0 21 0V0ZM9.34501 21.3642C9.56157 20.4717 9.88313 18.9952 12.1505 18.9952H21C21 18.9952 20.9081 19.4677 20.6259 20.6358C20.4127 21.5283 20.0878 23.0048 17.8238 23.0048H8.96438C8.96438 23.0048 9.0661 22.5323 9.34501 21.3642ZM32.3892 21.3281C31.6641 25.2656 29.8594 28.2516 26.8177 29.6559C25.4461 30.2892 24.1533 30.6403 21.1116 30.6403H12.4884L13.2038 26.6339H20.7867C25.3477 26.6339 26.565 24.6652 27.1556 22.9327C27.5565 21.6859 27.8087 20.3962 27.907 19.0903C27.9399 16.7934 26.8045 15.3792 22.9622 15.3825H15.1627L15.878 11.3794H24.5241C32.1234 11.3728 33.4688 15.517 32.3892 21.3281Z" fill="#F2B124"/>
</g>
<defs>
<clipPath id="clip0">
<rect width="42" height="42" fill="white"/>
</clipPath>
</defs>
</svg>
