<svg width="42" height="42" viewBox="0 0 42 42" fill="none" xmlns="http://www.w3.org/2000/svg">
<path d="M30.2278 24.1467C30.2093 23.1988 29.8773 22.2838 29.2836 21.5447C28.69 20.8056 27.8681 20.284 26.9466 20.0615C27.6702 19.6518 28.2509 19.0303 28.6105 18.2805C28.9701 17.5308 29.0914 16.6888 28.958 15.8681C28.6069 13.2759 23.2978 12.0848 23.2978 12.0848V8.20307H20.6728V12.1406H19.0322V8.20307H16.7353V12.1406H11.8134V14.7656H13.6214C14.4155 14.7656 14.7666 15.0018 14.7666 15.6417V26.0957C14.7666 26.9653 14.3466 27.2343 13.8839 27.2343H12.1416V29.8593H16.7353V33.7968H19.0322V29.8593H20.6728V33.7968H22.9697V29.8593H23.6259C28.5478 29.8593 30.2278 27.4509 30.2278 24.1467ZM41.9681 20.9999C41.9666 25.849 40.2839 30.5476 37.2066 34.2951C34.1294 38.0426 29.848 40.6073 25.0919 41.5522C20.3358 42.4971 15.3992 41.7637 11.1231 39.4771C6.84706 37.1904 3.49611 33.4919 1.64115 29.0116C-0.213801 24.5314 -0.458002 19.5466 0.950155 14.9065C2.35831 10.2664 5.33171 6.25802 9.36378 3.56433C13.3958 0.870652 18.2371 -0.341723 23.0628 0.13376C27.8885 0.609243 32.4001 2.74317 35.8289 6.17198C37.7758 8.11935 39.32 10.4311 40.3734 12.9753C41.4267 15.5195 41.9686 18.2463 41.9681 20.9999ZM21.9853 21.9843H19.0322V27.2343H21.5784C24.0427 27.2343 25.2666 26.1318 25.2666 24.1696C25.2666 22.2074 22.6744 21.9515 21.9853 21.9515V21.9843ZM22.1264 19.3593H19.0322V14.7656H20.7023C21.8738 14.7656 24.1805 14.9624 24.1805 16.8656C24.2204 17.4647 24.03 18.0565 23.6482 18.52C23.2665 18.9835 22.7221 19.2837 22.1264 19.3593Z" fill="#F2B124"/>
</svg>
