<svg width="42" height="42" viewBox="0 0 42 42" fill="none" xmlns="http://www.w3.org/2000/svg">
<path d="M21 42C9.40144 42 0 32.5986 0 21C0 9.40144 9.40144 0 21 0C32.5986 0 42 9.40144 42 21C42 32.5986 32.5986 42 21 42ZM29.0719 19.1231C29.05 19.1233 29.0286 19.1295 29.0101 19.1411C28.9916 19.1527 28.9766 19.1692 28.9669 19.1887V18.6112L28.8225 18.69C28.7306 18.7819 28.7306 18.795 28.7306 18.9394V20.0156C28.7125 20.1198 28.7125 20.2264 28.7306 20.3306C28.743 20.5134 28.7019 20.6958 28.6125 20.8556L28.3763 21.0131H28.2581C28.2481 20.9744 28.2481 20.9337 28.2581 20.895V20.4619H28.1662C28.1167 20.5159 28.0767 20.5781 28.0481 20.6456C27.927 20.8622 27.8637 21.1063 27.8644 21.3544C27.8329 21.5513 27.8329 21.7481 27.8644 21.945C27.9026 22.0729 27.9082 22.2084 27.8807 22.3391C27.8532 22.4697 27.7934 22.5915 27.7069 22.6931C27.667 22.7416 27.6112 22.7742 27.5494 22.785C27.4972 22.7849 27.446 22.7997 27.4018 22.8276C27.3577 22.8555 27.3224 22.8953 27.3 22.9425L27.2213 23.1131C27.1676 22.982 27.128 22.8457 27.1031 22.7062V22.2075C27.0222 22.2603 26.9474 22.322 26.88 22.3912C26.5189 22.9722 26.3153 23.6371 26.2894 24.3206C26.2631 24.4781 26.2631 24.6619 26.0138 24.6356C25.7644 24.6094 25.6462 24.8325 25.5806 24.9506C25.515 25.0688 25.4494 25.0688 25.3575 24.9506C25.2877 24.8383 25.2507 24.7088 25.2507 24.5766C25.2507 24.4444 25.2877 24.3148 25.3575 24.2025L25.4494 24.0187C25.3749 24.0007 25.2973 23.9995 25.2224 24.0154C25.1474 24.0313 25.077 24.0639 25.0162 24.1106C24.6502 24.3223 24.3327 24.6085 24.0844 24.9506L23.52 25.8563C23.3395 26.1987 23.1096 26.5127 22.8375 26.7881C22.6236 26.9856 22.3649 27.1282 22.0837 27.2037C21.8025 27.2791 21.5072 27.2851 21.2231 27.2213C20.7556 27.091 20.3273 26.8476 19.9762 26.5125C19.5864 26.1217 19.2509 25.6802 18.9788 25.2C18.7659 24.7882 18.6197 24.3452 18.5456 23.8875C18.5194 23.7956 18.48 23.8875 18.3619 23.8875C18.0338 24.0844 17.6505 24.1631 17.2725 24.1106C17.0304 24.0727 16.8037 23.9678 16.6181 23.8078C16.4326 23.6477 16.2955 23.4389 16.2225 23.205C16.201 23.1412 16.1596 23.086 16.1044 23.0475C16.0125 22.9556 15.8812 22.89 15.7894 22.7981C15.6342 22.5953 15.5553 22.3445 15.5662 22.0894C15.5085 22.1073 15.4478 22.1133 15.3877 22.107C15.3275 22.1007 15.2693 22.0823 15.2166 22.0528C15.1638 22.0234 15.1175 21.9835 15.0806 21.9356C15.0437 21.8878 15.0169 21.8329 15.0019 21.7744C14.9027 21.6052 14.8503 21.4127 14.8503 21.2166C14.8503 21.0205 14.9027 20.8279 15.0019 20.6588C15.0149 20.6204 15.0149 20.5789 15.0019 20.5406C14.7788 20.2913 14.3456 19.8581 14.3456 19.8581V19.74C14.5425 19.3988 14.7945 19.0916 15.0938 18.8344C15.1163 18.8016 15.1284 18.7627 15.1284 18.7228C15.1284 18.683 15.1163 18.6441 15.0938 18.6112C15.0534 18.532 15.0324 18.4443 15.0324 18.3553C15.0324 18.2664 15.0534 18.1787 15.0938 18.0994C15.1777 17.9408 15.2837 17.7949 15.4087 17.6663L14.9494 17.5481L13.6369 17.2725C13.5476 17.2415 13.4505 17.2415 13.3612 17.2725C12.9775 17.5329 12.6328 17.8467 12.3375 18.2044C12.2383 18.3349 12.1463 18.4708 12.0619 18.6112V18.7031L12.2194 18.6112L12.4425 18.375C12.3183 18.5338 12.2043 18.7004 12.1013 18.8738C11.8519 19.3594 11.5762 19.8581 11.3531 20.3569C11.2034 20.6112 11.1262 20.9017 11.13 21.1969V21.3544L11.2481 21.2362C11.2964 21.1717 11.3361 21.1011 11.3663 21.0263C11.2778 21.2489 11.2033 21.4769 11.1431 21.7088C10.9452 22.3412 10.8521 23.0018 10.8675 23.6644C10.8898 23.9466 10.9738 24.2209 11.1169 24.465C11.1431 24.5831 11.3006 24.6488 11.3006 24.5831V23.8612C11.3991 24.1146 11.4818 24.3731 11.55 24.6356C11.6064 24.8588 11.6458 25.0884 11.6681 25.3181C11.76 25.7775 11.8256 26.25 11.9438 26.7094C12.0278 26.9023 12.1432 27.0795 12.285 27.2344H12.5344V27.0112L12.4425 26.8275C12.3796 26.6672 12.3796 26.489 12.4425 26.3287L13.2825 27.2606C13.2886 27.2752 13.2918 27.2908 13.2918 27.3066C13.2918 27.3223 13.2886 27.338 13.2825 27.3525C13.314 27.7856 13.4308 28.2096 13.6237 28.5994C13.7037 28.7971 13.8419 28.9659 14.0201 29.0831C14.1983 29.2003 14.408 29.2605 14.6213 29.2556H14.7788C14.6606 29.19 14.7262 29.2031 14.6606 29.0981C14.595 28.9931 14.5031 28.98 14.4375 28.875C14.3719 28.77 14.5031 28.6519 14.595 28.6519C14.7144 28.6725 14.8297 28.7124 14.9362 28.77C15.5451 29.2126 16.201 29.5868 16.8919 29.8856L17.7975 30.2531L18.1125 30.3713C17.9025 30.9619 17.6794 31.5263 17.4956 32.0513C17.3644 31.7756 17.2463 31.4606 17.0888 31.185L16.905 30.8175C16.867 30.7365 16.8103 30.6657 16.7396 30.6109C16.6688 30.5562 16.5861 30.519 16.4981 30.5025C16.236 30.5175 15.9754 30.4535 15.75 30.3188C15.5006 30.2925 15.1331 30.3844 15.0413 30.6338C15.1728 30.5894 15.3136 30.5807 15.4496 30.6083C15.5856 30.636 15.7119 30.6991 15.8156 30.7912C15.6581 31.1325 15.75 31.3556 16.065 31.4475C16.167 31.4752 16.2576 31.5347 16.3237 31.6172C16.3897 31.6998 16.4279 31.8012 16.4325 31.9069C16.5113 32.1339 16.5414 32.3754 16.5244 32.6156C16.426 32.5908 16.334 32.5452 16.2548 32.4818C16.1755 32.4184 16.1108 32.3387 16.065 32.2481C15.8642 31.8995 15.5621 31.6203 15.1987 31.4475C14.9494 31.3162 14.6737 31.2638 14.49 31.5394H14.3719C14.2367 31.5236 14.1002 31.5236 13.965 31.5394C13.6631 31.5919 13.5319 31.8806 13.44 32.1562C13.6231 32.0357 13.8377 31.9718 14.0569 31.9725C14.1225 31.9725 14.175 32.025 14.175 32.0906C14.1879 32.1686 14.2309 32.2384 14.2947 32.285C14.3585 32.3316 14.438 32.3514 14.5163 32.34L15.225 32.6156C15.3635 32.6654 15.4899 32.7436 15.5962 32.8454C15.7025 32.9471 15.7862 33.0701 15.8419 33.2062H15.6581C15.409 33.1906 15.1591 33.1906 14.91 33.2062C14.5776 33.2301 14.2568 33.3386 13.9781 33.5213C13.7254 33.6312 13.5237 33.8329 13.4138 34.0856C13.3837 34.175 13.3837 34.2718 13.4138 34.3613V34.545C13.3977 34.6494 13.3977 34.7556 13.4138 34.86C13.4544 35.0498 13.5503 35.2233 13.6894 35.3587C13.6467 35.069 13.7021 34.7733 13.8469 34.5187C14.2144 34.7025 14.3456 34.6763 14.6213 34.3613L14.805 34.125C14.9067 34.0646 15.0196 34.0253 15.1369 34.0095C15.2542 33.9937 15.3734 34.0017 15.4875 34.0331L16.4194 34.1512C16.4285 34.1812 16.4285 34.2132 16.4194 34.2431C16.2423 34.5073 16.0201 34.7383 15.7631 34.9256C15.596 35.036 15.4755 35.2042 15.4246 35.3979C15.3738 35.5917 15.3962 35.7974 15.4875 35.9756C15.5035 36.0491 15.5035 36.1252 15.4875 36.1987C15.4677 36.2694 15.4623 36.3433 15.4714 36.4162C15.4806 36.489 15.5042 36.5592 15.5409 36.6228C15.5775 36.6864 15.6265 36.742 15.685 36.7864C15.7434 36.8307 15.8102 36.863 15.8813 36.8813V36.3825C16.0258 36.434 16.1848 36.4271 16.3244 36.3634C16.4641 36.2997 16.5735 36.1842 16.6294 36.0412C16.7324 35.8333 16.8075 35.6126 16.8525 35.385C16.9641 34.9834 17.2463 34.6513 17.6269 34.4794C17.9036 34.4164 18.1469 34.2526 18.3094 34.02L18.4013 34.1381C18.4863 34.303 18.6168 34.44 18.7773 34.5331C18.9378 34.6261 19.1215 34.6712 19.3069 34.6631C19.3725 34.6631 19.425 34.7156 19.425 34.7812L19.5169 35.4113C19.5825 35.3194 19.74 35.2275 19.74 35.1356C19.8203 34.9958 19.872 34.8414 19.8923 34.6815C19.9126 34.5216 19.901 34.3592 19.8581 34.2038C19.8429 34.1803 19.8348 34.153 19.8348 34.125C19.8348 34.097 19.8429 34.0697 19.8581 34.0462C19.9114 33.974 19.9402 33.8866 19.9402 33.7969C19.9402 33.7071 19.9114 33.6197 19.8581 33.5475C19.7289 33.2776 19.5112 33.0599 19.2412 32.9306L18.7425 32.7075L18.9263 32.6156L19.4906 32.34C19.5562 32.34 19.6087 32.2481 19.6744 32.34C19.74 32.4319 19.8319 32.5238 19.8319 32.6156C19.8119 32.732 19.7811 32.8462 19.74 32.9569H19.8975C20.0532 32.888 20.189 32.7809 20.2922 32.6455C20.3955 32.5101 20.4629 32.3509 20.4881 32.1825C20.5144 31.9988 20.6194 31.8412 20.7375 31.8412C20.8556 31.8412 20.9869 31.7494 21.0787 31.8412C21.1226 31.8851 21.1541 31.9397 21.1703 31.9996C21.1864 32.0595 21.1865 32.1226 21.1706 32.1825L21.0787 32.4581C21.2625 32.34 21.4462 32.235 21.6037 32.1169C21.9621 31.8832 22.2075 31.5131 22.2862 31.0931C22.3136 31.0069 22.3612 30.9285 22.4252 30.8646C22.4891 30.8006 22.5675 30.753 22.6537 30.7256C22.9357 30.7015 23.2161 30.6621 23.4937 30.6075C23.9944 30.5231 24.4897 30.4091 24.9769 30.2662C25.6992 30.0518 26.3882 29.7381 27.0244 29.3344C27.4969 29.0456 27.93 28.77 28.3369 28.4287C28.7081 28.1285 29.0509 27.7946 29.3606 27.4312C29.6666 27.1029 29.9474 26.7519 30.2006 26.3813C30.4972 25.935 30.765 25.4704 31.0013 24.99C31.2836 24.457 31.5038 23.8933 31.6575 23.31C31.87 22.5526 31.9933 21.7729 32.025 20.9869C32.0562 20.458 32.0562 19.9277 32.025 19.3988C32.0399 19.2548 32.0399 19.1096 32.025 18.9656L32.9569 19.215C32.9014 19.3322 32.8259 19.4388 32.7337 19.53C32.6429 19.5949 32.5757 19.6878 32.5426 19.7944C32.5094 19.9011 32.512 20.0156 32.55 20.1206C32.6484 20.3464 32.781 20.5538 32.9438 20.7375C33.0082 20.8126 33.0891 20.8718 33.1802 20.9105C33.2712 20.9492 33.37 20.9663 33.4688 20.9606C33.4031 20.8556 33.495 20.9606 33.3112 20.7375C33.1275 20.5144 33.1275 20.4881 33.3112 20.3306C33.3725 20.2774 33.4255 20.2155 33.4688 20.1469C33.5264 20.0403 33.5663 19.925 33.5869 19.8056L33.8625 19.9237C34.1763 20.0587 34.4321 20.3005 34.5844 20.6062C34.5978 20.6496 34.6197 20.6898 34.6488 20.7246C34.678 20.7594 34.7138 20.788 34.7541 20.8087C34.7944 20.8295 34.8385 20.842 34.8837 20.8456C34.9289 20.8491 34.9744 20.8436 35.0175 20.8294C35.175 20.8031 35.2669 20.8294 35.2669 20.9869V21.0525H35.3325C35.4104 21.0155 35.4706 20.9493 35.5001 20.8682C35.5296 20.7872 35.5259 20.6978 35.49 20.6194C35.3981 20.4225 35.2669 20.2388 35.175 20.055C35.0907 19.903 34.972 19.7728 34.8284 19.6749C34.6849 19.5769 34.5204 19.5138 34.3481 19.4906C34.4973 19.4161 34.6419 19.3328 34.7812 19.2412C34.8706 19.1881 34.9726 19.16 35.0766 19.16C35.1805 19.16 35.2825 19.1881 35.3719 19.2412C35.4159 19.2838 35.4747 19.3075 35.5359 19.3075C35.5971 19.3075 35.656 19.2838 35.7 19.2412C35.7318 19.2108 35.7741 19.1937 35.8181 19.1937C35.8622 19.1937 35.9045 19.2108 35.9362 19.2412L36.1856 19.425C36.1956 19.3863 36.1956 19.3456 36.1856 19.3069C36.1696 19.1392 36.0897 18.9841 35.9625 18.8738C35.8945 18.8277 35.8401 18.7642 35.805 18.69C35.7588 18.5847 35.6767 18.4991 35.5734 18.4487C35.47 18.3982 35.3521 18.386 35.2406 18.4144C35.0768 18.4632 34.9102 18.5027 34.7419 18.5325C34.8163 18.4331 34.8998 18.3408 34.9912 18.2569C35.175 18.1388 35.2669 18.0731 35.175 17.8894L35.6081 17.6794C35.57 17.5912 35.5052 17.5171 35.4228 17.4677C35.3404 17.4182 35.2445 17.3959 35.1488 17.4037C34.9971 17.4338 34.841 17.4338 34.6894 17.4037C34.6384 17.3857 34.5828 17.3857 34.5319 17.4037C34.3744 17.4694 34.3481 17.6794 34.2825 17.8106C34.204 17.9347 34.1505 18.0729 34.125 18.2175C34.0069 17.9681 33.9019 17.9419 34.125 17.6925C34.3481 17.4431 34.3088 17.325 34.125 17.1019C34.1711 17.0221 34.1953 16.9315 34.1953 16.8394C34.1953 16.7472 34.1711 16.6567 34.125 16.5769C34.017 16.6023 33.9203 16.6622 33.8492 16.7474C33.7782 16.8326 33.7368 16.9386 33.7313 17.0494H33.6131C33.3638 17.01 33.2456 17.2594 33.2456 17.5088C33.2614 17.7975 33.2614 18.0863 33.2456 18.375H33.1538C33.1251 18.3075 33.0852 18.2453 33.0356 18.1912C32.7497 17.8739 32.4474 17.5716 32.13 17.2856C31.8535 17.0067 31.51 16.8034 31.1325 16.695C31.0406 16.695 31.0406 16.5769 31.0406 16.5769C30.9176 16.1902 30.7166 15.8328 30.45 15.5269C30.2096 15.2839 30.0651 14.9623 30.0431 14.6213C30.0431 14.5294 29.925 14.4637 29.925 14.3719C29.7195 14.8443 29.6869 15.3741 29.8331 15.8681C29.9119 16.0952 29.9421 16.3367 29.925 16.5769C29.8317 16.619 29.7436 16.6718 29.6625 16.7344C29.5969 16.8 29.4394 16.9837 29.4394 16.8919V16.8C29.4539 16.7396 29.4539 16.6766 29.4394 16.6162C29.4158 16.5718 29.3847 16.5319 29.3475 16.4981L29.2556 16.59C29.2701 16.6504 29.2701 16.7134 29.2556 16.7738C29.129 17.2478 29.1613 17.7504 29.3475 18.2044C29.3918 18.3229 29.3918 18.4534 29.3475 18.5719C29.3617 18.6544 29.3617 18.7387 29.3475 18.8213C29.1638 18.7556 29.1637 18.8475 29.1637 18.9394L29.0719 19.1231ZM12.9412 13.1381C13.0146 13.1954 13.0694 13.273 13.0987 13.3612C13.5266 13.6343 13.9965 13.8337 14.49 13.9519C15.0413 14.1225 15.6975 14.2144 16.3538 14.3456C16.6779 14.3653 16.9982 14.4178 17.3119 14.5031C17.9773 14.679 18.6126 14.9494 19.2019 15.3038C19.2302 15.3187 19.2617 15.3265 19.2937 15.3265C19.3258 15.3265 19.3573 15.3187 19.3856 15.3038C19.6613 15.2119 19.9106 15.0806 20.1863 14.9888C20.6773 14.8255 21.1912 14.7413 21.7088 14.7394H22.5094C22.8795 14.7984 23.2444 14.8903 23.5987 15.015C24.2156 15.2421 24.7761 15.6004 25.2394 16.065V15.6056C25.2394 15.1988 25.4822 14.8313 25.8563 14.6737C25.9972 14.6146 26.1527 14.5992 26.3025 14.6296C26.4524 14.66 26.5896 14.7349 26.6963 14.8444C26.9041 15.0742 27.0167 15.3745 27.0112 15.6844C27.0442 16.1213 27.0442 16.56 27.0112 16.9969C26.9789 17.2889 26.8495 17.5615 26.6437 17.7712V17.9944C26.8813 18.564 26.9981 19.1756 26.985 19.7925C27.0023 20.2103 26.9715 20.6287 26.8931 21.0394V21.2887C26.9587 21.2231 26.9719 21.2887 27.0769 21.105C27.1819 20.9212 27.2081 20.6981 27.3 20.5144C27.3573 20.3302 27.4631 20.1648 27.6062 20.0355C27.7494 19.9062 27.9247 19.8177 28.1138 19.7794V19.0969C28.1149 18.8807 28.1694 18.6681 28.2724 18.4781C28.3754 18.288 28.5238 18.1264 28.7044 18.0075V17.9156C28.642 17.5243 28.642 17.1257 28.7044 16.7344C28.7173 16.5847 28.7599 16.4391 28.8297 16.3062C28.8996 16.1732 28.9953 16.0555 29.1112 15.96C29.1243 15.9217 29.1243 15.8802 29.1112 15.8419C29.0954 15.5533 29.0954 15.2642 29.1112 14.9756C29.2512 14.5528 29.3135 14.1081 29.295 13.6631C29.2675 13.4656 29.2053 13.2746 29.1112 13.0987C28.9958 12.953 28.8906 12.7996 28.7963 12.6394C28.6472 12.4204 28.4804 12.2141 28.2975 12.0225C28.2326 11.9462 28.1522 11.8845 28.0617 11.8415C27.9712 11.7985 27.8727 11.7752 27.7725 11.7731C27.8644 12.0225 28.14 12.2063 28.0219 12.5475C27.9379 12.456 27.8456 12.3726 27.7463 12.2981C27.7 12.2783 27.6592 12.2477 27.6273 12.2089C27.5953 12.1701 27.5731 12.1242 27.5625 12.075C27.4618 11.7736 27.2802 11.5057 27.0375 11.3006C26.9376 11.1926 26.811 11.1127 26.6705 11.0689C26.53 11.0251 26.3805 11.019 26.2369 11.0513L26.355 11.1431C26.4416 11.1839 26.5175 11.2443 26.5767 11.3194C26.6359 11.3946 26.6769 11.4825 26.6963 11.5763V11.8519H26.5125C26.355 11.76 26.2106 11.6288 25.9875 11.5106C25.9243 11.2702 25.8061 11.0478 25.642 10.861C25.478 10.6741 25.2728 10.5281 25.0425 10.4344C24.8652 10.3487 24.6741 10.2954 24.4781 10.2769C24.36 10.185 24.255 10.2769 24.1369 10.2769H24.2287C24.3259 10.3092 24.4108 10.3706 24.4718 10.4528C24.5329 10.5349 24.5671 10.6339 24.57 10.7362C24.5198 10.7601 24.4669 10.7777 24.4125 10.7888H24.3206C24.2526 10.6992 24.1622 10.629 24.0586 10.5852C23.955 10.5415 23.8417 10.5257 23.73 10.5394C23.6748 10.3652 23.6 10.1978 23.5069 10.0406C23.3902 9.87067 23.2384 9.72768 23.0618 9.62127C22.8852 9.51487 22.6879 9.44752 22.4831 9.42375C22.3401 9.39579 22.193 9.39579 22.05 9.42375V9.62062H22.3125C22.3548 9.64036 22.3928 9.66826 22.4243 9.70271C22.4558 9.73717 22.4801 9.77751 22.496 9.82142C22.5119 9.86532 22.5189 9.91193 22.5167 9.95856C22.5145 10.0052 22.5031 10.0509 22.4831 10.0931C22.4569 9.975 22.5225 10.0669 22.365 9.975C22.1981 9.90879 22.0194 9.87752 21.84 9.88313C21.7611 9.86478 21.6858 9.83375 21.6169 9.79125C21.4406 9.55815 21.2049 9.3768 20.9344 9.26625C20.7509 9.19249 20.5513 9.16821 20.3555 9.19585C20.1597 9.22349 19.9746 9.30208 19.8188 9.42375H19.9106C19.9941 9.42111 20.0759 9.44697 20.1427 9.49707C20.2095 9.54716 20.2573 9.61852 20.2781 9.69938V9.8175H20.1863C20.1109 9.7724 20.0247 9.74858 19.9369 9.74858C19.849 9.74858 19.7629 9.7724 19.6875 9.8175C19.6213 9.83383 19.5519 9.83144 19.487 9.81057C19.4221 9.78971 19.3643 9.75121 19.32 9.69938H19.2281C19.0243 9.53957 18.7776 9.44367 18.5194 9.42375C18.2353 9.38569 17.9476 9.46114 17.7188 9.63375C17.6938 9.66048 17.68 9.69565 17.68 9.73219C17.68 9.76872 17.6938 9.8039 17.7188 9.83062C17.8369 9.83062 17.7188 9.9225 17.8369 9.83062C17.955 9.73875 17.9944 9.85687 18.1125 9.9225C18.2306 9.98812 18.2306 10.08 18.1125 10.08L17.6531 10.2375C17.43 10.3556 17.1544 10.2375 17.0625 10.2375H17.01C16.6551 10.1282 16.2755 10.1282 15.9206 10.2375C15.7106 10.3294 15.4875 10.5131 15.4875 10.7362C15.5262 10.7463 15.5669 10.7463 15.6056 10.7362C15.7238 10.5788 15.855 10.6706 15.9469 10.7362C16.0387 10.8019 16.065 10.92 15.9469 10.92L15.1987 11.3269C15.1701 11.3408 15.1387 11.348 15.1069 11.348C15.075 11.348 15.0436 11.3408 15.015 11.3269C14.6757 11.2046 14.3043 11.2046 13.965 11.3269C13.8619 11.3715 13.7697 11.4381 13.695 11.522C13.6202 11.6058 13.5645 11.705 13.5319 11.8125V11.97H13.65C13.755 11.97 13.8731 11.8781 13.8731 11.97C13.8731 12.0619 13.965 12.1537 13.8731 12.2456C13.8138 12.275 13.7604 12.315 13.7156 12.3638L12.9412 13.1381ZM25.3444 19.3069L25.0556 19.32C24.8963 19.3081 24.7454 19.2436 24.6267 19.1367C24.5079 19.0298 24.428 18.8866 24.3994 18.7294C24.3934 18.6583 24.3625 18.5916 24.312 18.5411C24.2616 18.4907 24.1949 18.4597 24.1237 18.4538C23.8481 18.48 23.7825 18.3225 23.6906 18.1388C23.6761 18.0784 23.6761 18.0154 23.6906 17.955C23.7219 17.8069 23.8054 17.675 23.9259 17.5834C24.0464 17.4918 24.1958 17.4467 24.3469 17.4563H25.4625C25.6501 17.4787 25.8391 17.4266 25.9888 17.3113C26.1385 17.196 26.237 17.0265 26.2631 16.8394C26.3577 16.407 26.3577 15.9593 26.2631 15.5269C26.2631 15.4219 26.3025 15.3038 26.145 15.3038C25.9875 15.3038 25.9875 15.3956 25.9875 15.4875V16.3275C25.9607 16.4668 25.8903 16.594 25.7865 16.6907C25.6827 16.7875 25.5509 16.8487 25.41 16.8656C25.1865 16.9258 24.951 16.9258 24.7275 16.8656C24.4517 16.8042 24.17 16.7734 23.8875 16.7738C23.6871 16.7446 23.4826 16.7797 23.3034 16.874C23.1242 16.9684 22.9794 17.1171 22.89 17.2987C22.8244 17.4169 22.9556 17.4825 22.7062 17.64C22.4654 17.7907 22.2155 17.9266 21.9581 18.0469C21.9095 18.0852 21.8494 18.106 21.7875 18.106C21.7256 18.106 21.6655 18.0852 21.6169 18.0469C21.4616 17.924 21.2765 17.8446 21.0804 17.8169C20.8843 17.7893 20.6845 17.8143 20.5012 17.8894H20.3438C20.2755 17.8481 20.2214 17.7871 20.1886 17.7145C20.1558 17.6418 20.1458 17.5609 20.16 17.4825C20.3168 17.059 20.3168 16.5935 20.16 16.17C20.1082 16.0694 20.0253 15.9882 19.9236 15.9385C19.8219 15.8888 19.7068 15.8733 19.5956 15.8944C19.3856 15.9862 19.2019 16.0781 18.9788 15.8944C18.4421 15.4273 17.789 15.1143 17.0888 14.9888C16.4981 14.8575 15.8812 14.7656 15.2906 14.6737C14.9231 14.6081 14.5425 14.5425 14.175 14.4506C13.535 14.2869 12.9361 13.9919 12.4163 13.5844C12.2133 13.4027 12.0163 13.2145 11.8256 13.02L11.4844 12.6525C11.449 12.6377 11.4111 12.6301 11.3728 12.6301C11.3345 12.6301 11.2966 12.6377 11.2612 12.6525V12.9281C11.3925 13.3232 11.6406 13.671 11.97 13.9256C12.3621 14.2474 12.8059 14.5003 13.2825 14.6737C13.7419 14.8142 14.2117 14.9231 14.6869 15.0019L15.5531 15.0938C16.1922 15.1463 16.8201 15.2922 17.4169 15.5269C17.7345 15.6647 18.0469 15.8169 18.3487 15.9862V16.1306C18.1873 16.1973 18.0205 16.25 17.85 16.2881C17.8266 16.3034 17.7992 16.3115 17.7712 16.3115C17.7433 16.3115 17.7159 16.3034 17.6925 16.2881C17.2856 16.1306 16.8787 15.9469 16.4456 15.7894C16.1728 15.704 15.8908 15.6512 15.6056 15.6319L14.8575 15.54C14.5162 15.4481 14.2406 15.5138 13.8337 15.4481C13.4269 15.3825 13.0331 15.2906 12.6263 15.1987C12.1255 15.069 11.6536 14.8464 11.235 14.5425C10.8938 14.2931 10.5788 13.9519 10.2375 13.6763L10.0275 13.5581H9.87V13.7156C9.91244 13.8673 9.97419 14.0128 10.0538 14.1487C10.395 14.6737 10.8412 15.12 11.3663 15.4612C11.8742 15.7815 12.4268 16.0256 13.0069 16.1831C13.4871 16.3568 13.9842 16.48 14.49 16.5506C14.8523 16.5952 15.2066 16.6924 15.54 16.8394C15.9075 16.9575 16.2881 17.1413 16.6556 17.2987C16.7996 17.3777 16.9358 17.47 17.0625 17.5744C16.8664 17.7423 16.632 17.8595 16.38 17.9156L15.6712 18.0469C15.5903 18.0616 15.5153 18.099 15.4548 18.1548C15.3944 18.2106 15.3511 18.2824 15.33 18.3619C15.7566 18.3776 16.1766 18.4629 16.5769 18.6112C17.031 18.7688 17.3854 19.1271 17.535 19.5825L17.4431 19.4906C17.1979 19.2523 16.9017 19.0728 16.5769 18.9656C16.2245 18.8405 15.8398 18.8405 15.4875 18.9656C15.3038 19.0969 15.0806 19.3069 14.9625 19.3988C14.8444 19.4906 14.8706 19.5562 14.9625 19.6481C15.2434 19.9369 15.5833 20.16 15.96 20.3044H15.8025C15.6678 20.3426 15.5469 20.4185 15.4539 20.5231C15.3609 20.6278 15.2997 20.7568 15.2775 20.895C15.2807 20.9475 15.2807 21 15.2775 21.0525H15.435C15.5269 21.0525 15.6319 20.9606 15.75 21.0525C15.912 21.1305 16.0519 21.2478 16.1569 21.3937C16.1718 21.4221 16.1796 21.4536 16.1796 21.4856C16.1796 21.5176 16.1718 21.5492 16.1569 21.5775C16.0902 21.7389 16.0375 21.9058 15.9994 22.0763C15.9075 22.1025 15.9337 22.26 15.9994 22.26C16.0575 22.2288 16.1106 22.1889 16.1569 22.1419L16.2488 22.3256C16.3011 22.4857 16.386 22.6331 16.4981 22.7588C16.654 22.9132 16.855 23.0143 17.0719 23.0473C17.2889 23.0803 17.5108 23.0436 17.7056 22.9425C17.9448 22.8075 18.173 22.6539 18.3881 22.4831C18.4535 22.4139 18.5425 22.3718 18.6375 22.365C18.7595 22.3499 18.883 22.3499 19.005 22.365C19.0312 22.3681 19.0561 22.3782 19.0769 22.3944C19.0977 22.4106 19.1137 22.4322 19.1231 22.4569C19.1421 22.5331 19.1413 22.613 19.1206 22.6889C19.0999 22.7647 19.0601 22.8339 19.005 22.89C18.8749 22.9858 18.7521 23.0911 18.6375 23.205C18.8359 23.2819 19.0559 23.2819 19.2544 23.205C19.4965 23.1082 19.7092 22.9499 19.8713 22.7456C19.9144 22.6953 19.947 22.6369 19.9673 22.5738C19.9876 22.5107 19.9951 22.4442 19.9894 22.3781C19.8839 22.0739 19.8005 21.7625 19.74 21.4463C19.7138 21.1969 19.6219 21.0394 19.3725 21.0394C19.3852 21.1 19.3852 21.1625 19.3725 21.2231C19.2806 21.3412 19.3069 21.3412 19.1231 21.2231L18.5981 20.8556C18.4852 20.783 18.394 20.6812 18.3339 20.5612C18.2739 20.4411 18.2473 20.307 18.2569 20.1731C18.2569 20.107 18.2831 20.0436 18.3299 19.9968C18.3767 19.95 18.4401 19.9237 18.5063 19.9237C18.6118 19.9815 18.6995 20.0671 18.7596 20.1712C18.8198 20.2754 18.8502 20.3941 18.8475 20.5144C18.8599 20.575 18.8599 20.6375 18.8475 20.6981L19.1231 20.5144L19.7138 20.6719C19.9106 20.6876 20.1075 20.6876 20.3044 20.6719C20.2889 20.8158 20.2889 20.961 20.3044 21.105C20.4067 21.6943 20.6063 22.2613 20.895 22.785C21.1444 23.2706 21.42 23.7694 21.6431 24.2681C21.7273 24.4187 21.779 24.5853 21.7949 24.7571C21.8107 24.9289 21.7903 25.1022 21.735 25.2656V25.3575C21.6963 25.4498 21.6397 25.5335 21.5686 25.6039C21.4975 25.6743 21.4132 25.7299 21.3206 25.7677C21.228 25.8055 21.1288 25.8247 21.0287 25.8241C20.9287 25.8235 20.8297 25.8032 20.7375 25.7644C20.4587 25.5749 20.2328 25.3174 20.0813 25.0162C19.8975 24.7669 19.6219 24.3469 19.5562 24.2419C19.531 24.1729 19.4841 24.1139 19.4226 24.0737C19.3611 24.0335 19.2883 24.0143 19.215 24.0187V24.2025C19.2754 24.3954 19.3502 24.5844 19.4381 24.7669C19.5956 25.0163 19.7794 25.2656 19.9631 25.515C20.1744 25.7972 20.4369 26.0374 20.7375 26.2237C20.9201 26.3622 21.139 26.4446 21.3676 26.4608C21.5962 26.477 21.8246 26.4264 22.0249 26.3151C22.2253 26.2038 22.3889 26.0367 22.4959 25.834C22.6029 25.6314 22.6486 25.4019 22.6275 25.1737C22.6487 24.7253 22.5726 24.2775 22.4044 23.8612C22.2206 23.4544 21.9975 23.0081 21.8138 22.5487C21.5492 22.0456 21.4012 21.4894 21.3806 20.9212C21.395 20.6375 21.517 20.37 21.7219 20.1731C21.7219 20.265 21.8137 20.1075 21.7219 20.265C21.6451 20.4193 21.6132 20.5922 21.63 20.7638C22.0894 20.6719 22.2731 20.3306 22.4306 19.9237C22.4172 20.0151 22.4172 20.108 22.4306 20.1994C22.4619 20.2575 22.5017 20.3106 22.5487 20.3569C22.584 20.3547 22.6184 20.3454 22.65 20.3297C22.6816 20.3139 22.7096 20.2919 22.7325 20.265C22.8319 20.1575 22.9239 20.0435 23.0081 19.9237C23.0882 19.9762 23.163 20.0392 23.2313 20.1075C23.415 20.3831 23.5462 20.3569 23.6381 20.1075C23.6592 20.0263 23.6985 19.951 23.7531 19.8873C23.8077 19.8236 23.8761 19.7733 23.9531 19.74C24.0673 19.8621 24.1894 19.9762 24.3206 20.0813H24.5044C24.511 20.029 24.511 19.976 24.5044 19.9237V19.4644C24.9375 19.5825 25.3444 19.53 25.3444 19.3069ZM18.0338 18.4013L18.1781 18.2437C18.4016 18.3039 18.6371 18.3039 18.8606 18.2437L19.0837 18.1519C19.1956 18.1224 19.3132 18.1224 19.425 18.1519C19.48 18.1788 19.5285 18.2174 19.5671 18.265C19.6056 18.3126 19.6333 18.3681 19.6481 18.4275V18.5194C19.4893 18.6436 19.3227 18.7576 19.1494 18.8606C19.0605 18.9277 18.9523 18.964 18.8409 18.964C18.7296 18.964 18.6213 18.9277 18.5325 18.8606C18.3582 18.7164 18.1918 18.5631 18.0338 18.4013ZM22.3125 18.8344C22.7189 18.7121 23.1551 18.7353 23.5463 18.9C23.6381 18.9748 23.7208 19.0575 23.7956 19.1494C23.7037 19.1756 23.6381 19.2675 23.5463 19.2675C23.3935 19.2823 23.2396 19.2823 23.0869 19.2675C22.9341 19.0904 22.726 18.9701 22.4963 18.9263C22.4288 18.9099 22.366 18.8785 22.3125 18.8344ZM5.95875 22.8769C5.99406 22.9643 6.00318 23.06 5.985 23.1525C6.04277 23.3457 6.15773 23.5168 6.31472 23.6433C6.4717 23.7698 6.66334 23.8458 6.86438 23.8612C7.11375 23.8927 7.36313 23.8927 7.6125 23.8612C7.86328 23.8411 8.1081 23.7744 8.33437 23.6644C8.71955 23.4598 9.02468 23.1316 9.20063 22.7325C9.31875 22.4569 9.45 22.2075 9.54187 21.9319L9.90938 20.8819C10.0669 20.4225 10.2506 19.8975 10.4344 19.4906C10.6181 19.0837 10.8281 18.7162 11.0513 18.3094C11.3371 17.7806 11.69 17.2909 12.1013 16.8525L12.285 16.695L11.8519 16.5112L11.1694 16.1438C11.1038 16.1438 10.9856 16.0519 10.9856 16.1438C10.7706 16.4832 10.5735 16.8337 10.395 17.1938C10.1194 17.7844 9.93563 18.4013 9.68625 18.9919C9.59064 19.2469 9.44315 19.4793 9.25313 19.6744C9.08041 19.8386 8.87212 19.9608 8.64447 20.0313C8.41682 20.1019 8.17595 20.119 7.94063 20.0813C7.72458 20.0396 7.51642 19.9644 7.32375 19.8581C7.22683 19.804 7.14342 19.7287 7.07977 19.6378C7.01612 19.5469 6.97389 19.4427 6.95625 19.3331C6.80813 19.4463 6.68924 19.5932 6.60952 19.7617C6.52979 19.9302 6.49154 20.1153 6.49796 20.3016C6.50439 20.4879 6.5553 20.67 6.64644 20.8325C6.73758 20.9951 6.86631 21.1336 7.02187 21.2362C7.59544 21.63 8.35144 21.63 8.925 21.2362C9.04976 21.1152 9.18122 21.0013 9.31875 20.895C9.14333 21.2541 8.85326 21.5446 8.49436 21.7205C8.13545 21.8964 7.72818 21.9476 7.33687 21.8662H7.15312C6.71812 21.7303 6.35488 21.4272 6.14323 21.0236C5.93157 20.62 5.88883 20.1489 6.02437 19.7138C5.72055 19.9124 5.488 20.2028 5.36054 20.5427C5.23308 20.8826 5.21734 21.2543 5.31563 21.6037C5.42063 22.0854 5.72644 22.5015 6.15562 22.7456C6.60402 22.9779 7.12046 23.0431 7.6125 22.9294C7.58359 23.0045 7.53777 23.072 7.4786 23.1267C7.41943 23.1813 7.34848 23.2216 7.27125 23.2444C7.0398 23.3092 6.795 23.3092 6.56356 23.2444C6.33211 23.1795 6.1229 23.0524 5.95875 22.8769ZM24.4256 21.8269C24.5175 21.8269 24.5175 21.8269 24.8456 21.9319H24.9375V21.8138C24.9411 21.7191 24.9229 21.6248 24.8842 21.5383C24.8455 21.4518 24.7874 21.3754 24.7144 21.315C24.4742 21.1434 24.254 20.9452 24.0581 20.7244C24.0196 20.6692 23.9644 20.6278 23.9006 20.6062L23.6775 20.5144V20.79C23.6775 20.8556 23.7956 21.0394 23.6775 21.0394L23.3363 21.2231C22.8638 20.6588 22.8638 20.8162 22.68 20.8162C22.7063 20.9081 22.7981 20.9737 22.7981 21.0656C22.8298 21.1334 22.8462 21.2074 22.8462 21.2822C22.8462 21.357 22.8298 21.4309 22.7981 21.4987C22.6906 21.5807 22.5592 21.6251 22.4241 21.6251C22.2889 21.6251 22.1575 21.5807 22.05 21.4987L21.9188 21.3412C21.9791 21.8269 22.1248 22.2994 22.3519 22.7325H22.5356C22.6399 22.6615 22.7552 22.6083 22.8769 22.575C22.95 22.5442 23.0324 22.5435 23.1061 22.573C23.1798 22.6024 23.2389 22.6598 23.2706 22.7325L23.3625 23.0081H23.5069C23.5621 22.9696 23.6035 22.9144 23.625 22.8506C23.6781 22.7447 23.7058 22.6279 23.7058 22.5094C23.7058 22.3909 23.6781 22.274 23.625 22.1681H23.7825L24.15 22.3519C24.3075 22.4438 24.4256 22.4437 24.4256 22.26C24.4411 22.116 24.4411 21.9708 24.4256 21.8269ZM8.925 19.74C8.97595 19.5635 8.97847 19.3765 8.93228 19.1987C8.88609 19.0209 8.79291 18.8588 8.6625 18.7294C8.5837 18.6585 8.48729 18.6101 8.38338 18.5894C8.27946 18.5686 8.17187 18.5761 8.07188 18.6112C8.00198 18.6429 7.94327 18.6949 7.90346 18.7605C7.86364 18.8261 7.84457 18.9021 7.84875 18.9788C7.84875 19.0706 7.80938 19.1362 7.69125 19.0706C7.57313 19.005 7.46812 18.8475 7.35 18.8475C7.31633 18.9173 7.29938 18.9939 7.3005 19.0714C7.30161 19.1489 7.32076 19.225 7.35643 19.2938C7.39209 19.3626 7.44329 19.4221 7.50597 19.4677C7.56864 19.5132 7.64107 19.5436 7.7175 19.5562C7.83956 19.572 7.96294 19.572 8.085 19.5562C8.37743 19.5263 8.67176 19.5907 8.925 19.74Z" fill="#F2B124"/>
</svg>
