<svg width="42" height="42" viewBox="0 0 42 42" fill="none" xmlns="http://www.w3.org/2000/svg">
<g clip-path="url(#clip0)">
<path d="M20.9993 17.64V7.54688L29.3993 21L20.9993 17.64ZM20.9993 26.88V18.48L29.3993 21.84L20.9993 26.88ZM20.9993 36.12V29.4L29.3993 24.36L20.9993 36.12ZM20.1593 17.64L11.7593 21L20.1593 7.54688V17.64ZM20.1593 26.88L11.7593 21.84L20.1593 18.48V26.88ZM20.1593 36.12L11.7593 24.36L20.1593 29.4V36.12ZM20.9993 2.39824e-07C16.1408 -0.000733713 11.4324 1.68319 7.67623 4.76484C3.92011 7.8465 1.34872 12.1352 0.40021 16.9002C-0.548304 21.6652 0.184744 26.6117 2.47445 30.8968C4.76415 35.182 8.46884 38.5406 12.9573 40.4004C17.4457 42.2603 22.4402 42.5063 27.0896 41.0965C31.7391 39.6867 35.7559 36.7084 38.4556 32.669C41.1553 28.6297 42.3709 23.7791 41.8952 18.944C41.4196 14.1088 39.2821 9.58819 35.847 6.15234C31.9093 2.21389 26.5685 0.000841559 20.9993 2.39824e-07Z" fill="#F2B124"/>
</g>
<defs>
<clipPath id="clip0">
<rect width="42" height="42" fill="white"/>
</clipPath>
</defs>
</svg>
