<svg width="42" height="42" viewBox="0 0 42 42" fill="none" xmlns="http://www.w3.org/2000/svg">
<g clip-path="url(#clip0)">
<path d="M21.0195 0C9.41077 0 0 9.41077 0 21.0195C0 32.6283 9.41077 42.0391 21.0195 42.0391C32.6283 42.0391 42.0391 32.6283 42.0391 21.0195C42.0391 9.41077 32.6283 0 21.0195 0ZM10.4138 20.3202C10.3409 20.0257 10.2737 19.7298 10.2123 19.4327C9.94232 18.1136 9.78599 16.7738 9.74506 15.428C9.74265 15.3447 9.75025 15.3278 9.7771 15.2817C9.78932 15.2601 9.80025 15.2415 9.95971 15.1567C13.3508 13.3508 17.1747 12.3963 21.0175 12.3963C21.8452 12.3963 22.6834 12.4418 23.5202 12.5324C21.4553 13.7284 20.1691 15.9259 20.1691 18.3885L20.1693 18.402C20.1615 20.1909 19.2395 21.8091 17.6975 22.7345C16.9116 23.2031 16.0136 23.4504 15.0986 23.4503C13.0743 23.4503 11.1947 22.1934 10.4138 20.3202ZM25.0492 31.7065C24.829 31.9187 24.6046 32.1265 24.3762 32.3298C23.4416 33.1583 22.4424 33.911 21.3883 34.5809C21.2875 34.6444 21.2379 34.665 21.0332 34.665C20.8071 34.665 20.743 34.6391 20.6502 34.58C16.776 32.121 13.6518 28.4842 11.7675 24.2639C12.7839 24.8399 13.936 25.15 15.0987 25.15C16.2489 25.15 17.3847 24.8562 18.3806 24.3023C18.448 24.266 18.5156 24.2267 18.5667 24.1949C19.3092 23.7815 20.1572 23.5629 21.0197 23.5629C21.8774 23.5629 22.7253 23.7815 23.4548 24.1849L23.5014 24.2119C23.5398 24.2334 23.5785 24.2556 23.6207 24.2817C25.1433 25.1931 26.0889 26.8609 26.0889 28.634C26.0887 29.7345 25.7198 30.8246 25.0492 31.7065ZM27.7882 28.566C27.7643 26.2239 26.5084 24.0293 24.5004 22.8269C24.4476 22.7947 24.3939 22.7639 24.3395 22.7343L24.3175 22.7206C22.7853 21.7933 21.8702 20.1715 21.8696 18.3824V18.3176C21.9033 15.5506 24.1645 13.31 26.9388 13.31C27.195 13.31 27.4556 13.3301 27.7145 13.3697C28.0026 13.4549 28.2858 13.5445 28.5564 13.6358C29.7702 14.0458 30.9484 14.5545 32.0792 15.1567C32.239 15.2417 32.2501 15.261 32.2621 15.2815C32.2894 15.329 32.296 15.3434 32.2936 15.4264C32.152 20.1204 30.5598 24.7469 27.7882 28.566Z" fill="#F2B124"/>
</g>
<defs>
<clipPath id="clip0">
<rect width="42" height="42" fill="white"/>
</clipPath>
</defs>
</svg>
