<svg width="42" height="42" viewBox="0 0 42 42" fill="none" xmlns="http://www.w3.org/2000/svg">
<path d="M21 0.492188C9.67394 0.492188 0.492188 9.67394 0.492188 21C0.492188 32.3261 9.67394 41.5078 21 41.5078C32.3261 41.5078 41.5078 32.3261 41.5078 21C41.5078 9.67394 32.3261 0.492188 21 0.492188ZM21.2067 25.9219H21.1928C21.1928 25.9432 21.2051 25.9612 21.2051 25.9826C21.209 26.1261 21.1842 26.269 21.132 26.4028C21.0798 26.5366 21.0013 26.6586 20.9012 26.7616C20.801 26.8645 20.6813 26.9463 20.549 27.0022C20.4167 27.0581 20.2745 27.0869 20.1309 27.0869C19.9873 27.0869 19.8451 27.0581 19.7128 27.0022C19.5805 26.9463 19.4607 26.8645 19.3606 26.7616C19.2605 26.6586 19.182 26.5366 19.1298 26.4028C19.0776 26.269 19.0527 26.1261 19.0567 25.9826C19.0567 25.9612 19.0682 25.9432 19.069 25.9219H19.0575V20.5898C19.0566 20.556 19.0468 20.5231 19.0291 20.4942C19.0114 20.4654 18.9864 20.4418 18.9566 20.4258L12.1644 16.4563V25.9219H12.1496C12.1496 25.9432 12.162 25.9612 12.162 25.9826C12.1659 26.1261 12.1411 26.269 12.0889 26.4028C12.0367 26.5366 11.9582 26.6586 11.858 26.7616C11.7579 26.8645 11.6381 26.9463 11.5058 27.0022C11.3735 27.0581 11.2314 27.0869 11.0878 27.0869C10.9441 27.0869 10.802 27.0581 10.6697 27.0022C10.5374 26.9463 10.4176 26.8645 10.3175 26.7616C10.2173 26.6586 10.1388 26.5366 10.0866 26.4028C10.0344 26.269 10.0096 26.1261 10.0136 25.9826C10.0136 25.9612 10.025 25.9432 10.0259 25.9219H10.0152V15.7049C10.0145 15.4044 10.094 15.1092 10.2454 14.8497C10.3968 14.5901 10.6146 14.3756 10.8765 14.2283C11.1425 14.0763 11.4438 13.997 11.7502 13.9981C12.0566 13.9993 12.3573 14.0809 12.6221 14.2349L20.0402 18.5702C20.3932 18.7761 20.6864 19.0704 20.891 19.4241C21.0955 19.7779 21.2043 20.1788 21.2067 20.5874V25.9219ZM31.8888 27.0572C31.7477 27.0572 31.608 27.0294 31.4776 26.9754C31.3472 26.9214 31.2288 26.8422 31.129 26.7424C31.0292 26.6427 30.95 26.5242 30.896 26.3938C30.842 26.2634 30.8142 26.1237 30.8142 25.9826C30.8142 25.9612 30.8257 25.9432 30.8265 25.9219H30.8134V16.4522L24.0204 20.4258C23.9906 20.442 23.9655 20.4656 23.9476 20.4943C23.9296 20.5231 23.9194 20.556 23.9179 20.5898V25.9219H23.9072C23.9072 25.9432 23.9203 25.9612 23.9203 25.9826C23.9203 26.2676 23.8071 26.5409 23.6056 26.7424C23.404 26.944 23.1307 27.0572 22.8457 27.0572C22.5607 27.0572 22.2874 26.944 22.0858 26.7424C21.8843 26.5409 21.7711 26.2676 21.7711 25.9826C21.7711 25.9612 21.7826 25.9432 21.7842 25.9219H21.7703V20.5898C21.7724 20.1813 21.881 19.7803 22.0855 19.4266C22.2899 19.0729 22.583 18.7785 22.9359 18.5727L30.3516 14.2324C30.6168 14.0782 30.918 13.9965 31.2248 13.9955C31.5317 13.9945 31.8334 14.0742 32.0996 14.2267C32.361 14.3744 32.5783 14.589 32.7293 14.8485C32.8802 15.108 32.9593 15.403 32.9585 15.7032V25.9219H32.9478C32.9478 25.9432 32.9602 25.9612 32.9602 25.9826C32.9597 26.2667 32.8467 26.539 32.6459 26.7399C32.4451 26.9409 32.1729 27.0541 31.8888 27.0547V27.0572Z" fill="#F2B124"/>
</svg>
