<svg width="67" height="18" viewBox="0 0 67 18" fill="none" xmlns="http://www.w3.org/2000/svg">
<path d="M12.576 0.319999V2.552H8.136V17H5.4V2.552H0.936V0.319999H12.576ZM27.4669 10.064C27.4669 10.56 27.4349 11.008 27.3709 11.408H17.2669C17.3469 12.464 17.7389 13.312 18.4429 13.952C19.1469 14.592 20.0109 14.912 21.0349 14.912C22.5069 14.912 23.5469 14.296 24.1549 13.064H27.1069C26.7069 14.28 25.9789 15.28 24.9229 16.064C23.8829 16.832 22.5869 17.216 21.0349 17.216C19.7709 17.216 18.6349 16.936 17.6269 16.376C16.6349 15.8 15.8509 15 15.2749 13.976C14.7149 12.936 14.4349 11.736 14.4349 10.376C14.4349 9.016 14.7069 7.824 15.2509 6.8C15.8109 5.76 16.5869 4.96 17.5789 4.4C18.5869 3.84 19.7389 3.56 21.0349 3.56C22.2829 3.56 23.3949 3.832 24.3709 4.376C25.3469 4.92 26.1069 5.688 26.6509 6.68C27.1949 7.656 27.4669 8.784 27.4669 10.064ZM24.6109 9.2C24.5949 8.192 24.2349 7.384 23.5309 6.776C22.8269 6.168 21.9549 5.864 20.9149 5.864C19.9709 5.864 19.1629 6.168 18.4909 6.776C17.8189 7.368 17.4189 8.176 17.2909 9.2H24.6109ZM32.5834 14.768H38.5834V17H29.4154V14.768L35.4394 6.008H29.4154V3.776H38.5834V6.008L32.5834 14.768ZM47.1923 17.216C45.9443 17.216 44.8163 16.936 43.8083 16.376C42.8003 15.8 42.0083 15 41.4323 13.976C40.8563 12.936 40.5683 11.736 40.5683 10.376C40.5683 9.032 40.8643 7.84 41.4563 6.8C42.0483 5.76 42.8563 4.96 43.8803 4.4C44.9043 3.84 46.0483 3.56 47.3123 3.56C48.5763 3.56 49.7203 3.84 50.7443 4.4C51.7683 4.96 52.5763 5.76 53.1683 6.8C53.7603 7.84 54.0563 9.032 54.0563 10.376C54.0563 11.72 53.7523 12.912 53.1443 13.952C52.5363 14.992 51.7043 15.8 50.6483 16.376C49.6083 16.936 48.4563 17.216 47.1923 17.216ZM47.1923 14.84C47.8963 14.84 48.5523 14.672 49.1603 14.336C49.7843 14 50.2883 13.496 50.6723 12.824C51.0563 12.152 51.2483 11.336 51.2483 10.376C51.2483 9.416 51.0643 8.608 50.6963 7.952C50.3283 7.28 49.8403 6.776 49.2323 6.44C48.6243 6.104 47.9683 5.936 47.2643 5.936C46.5603 5.936 45.9043 6.104 45.2963 6.44C44.7043 6.776 44.2323 7.28 43.8803 7.952C43.5283 8.608 43.3523 9.416 43.3523 10.376C43.3523 11.8 43.7123 12.904 44.4323 13.688C45.1683 14.456 46.0883 14.84 47.1923 14.84ZM61.5609 17.216C60.5209 17.216 59.5849 17.032 58.7529 16.664C57.9369 16.28 57.2889 15.768 56.8089 15.128C56.3289 14.472 56.0729 13.744 56.0409 12.944H58.8729C58.9209 13.504 59.1849 13.976 59.6649 14.36C60.1609 14.728 60.7769 14.912 61.5129 14.912C62.2809 14.912 62.8729 14.768 63.2889 14.48C63.7209 14.176 63.9369 13.792 63.9369 13.328C63.9369 12.832 63.6969 12.464 63.2169 12.224C62.7529 11.984 62.0089 11.72 60.9849 11.432C59.9929 11.16 59.1849 10.896 58.5609 10.64C57.9369 10.384 57.3929 9.992 56.9289 9.464C56.4809 8.936 56.2569 8.24 56.2569 7.376C56.2569 6.672 56.4649 6.032 56.8809 5.456C57.2969 4.864 57.8889 4.4 58.6569 4.064C59.4409 3.728 60.3369 3.56 61.3449 3.56C62.8489 3.56 64.0569 3.944 64.9689 4.712C65.8969 5.464 66.3929 6.496 66.4569 7.808H63.7209C63.6729 7.216 63.4329 6.744 63.0009 6.392C62.5689 6.04 61.9849 5.864 61.2489 5.864C60.5289 5.864 59.9769 6 59.5929 6.272C59.2089 6.544 59.0169 6.904 59.0169 7.352C59.0169 7.704 59.1449 8 59.4009 8.24C59.6569 8.48 59.9689 8.672 60.3369 8.816C60.7049 8.944 61.2489 9.112 61.9689 9.32C62.9289 9.576 63.7129 9.84 64.3209 10.112C64.9449 10.368 65.4809 10.752 65.9289 11.264C66.3769 11.776 66.6089 12.456 66.6249 13.304C66.6249 14.056 66.4169 14.728 66.0009 15.32C65.5849 15.912 64.9929 16.376 64.2249 16.712C63.4729 17.048 62.5849 17.216 61.5609 17.216Z" fill="#373F47"/>
</svg>
