<svg width="42" height="42" viewBox="0 0 42 42" fill="none" xmlns="http://www.w3.org/2000/svg">
<g clip-path="url(#clip0)">
<path d="M21 0C16.8466 0 12.7865 1.23163 9.33303 3.53914C5.8796 5.84665 3.18798 9.1264 1.59854 12.9636C0.0090989 16.8009 -0.406771 21.0233 0.403518 25.0969C1.21381 29.1705 3.21386 32.9123 6.15077 35.8492C9.08767 38.7861 12.8295 40.7862 16.9031 41.5965C20.9767 42.4068 25.1991 41.9909 29.0364 40.4015C32.8736 38.812 36.1534 36.1204 38.4609 32.667C40.7684 29.2135 42 25.1534 42 21C42 15.4305 39.7875 10.089 35.8493 6.15076C31.911 2.21249 26.5696 0 21 0V0ZM18.7031 34.8239L9.39095 30.4303V12.3605L18.7031 16.7606V34.8239ZM18.9427 16.3636L9.75516 12.0291L22.8342 7.33359L22.9458 7.29094L23.1886 7.20562L23.2739 7.17609L32.4614 11.5106L32.3761 11.5402L32.2252 11.5959L23.0574 14.8772L22.8309 14.9592L18.9427 16.3636ZM32.6091 30.0956L23.0606 25.5938V15.3759L32.6091 11.9438V30.0956Z" fill="#F2B124"/>
</g>
<defs>
<clipPath id="clip0">
<rect width="42" height="42" fill="white"/>
</clipPath>
</defs>
</svg>
