<svg width="42" height="42" viewBox="0 0 42 42" fill="none" xmlns="http://www.w3.org/2000/svg">
<path fill-rule="evenodd" clip-rule="evenodd" d="M42 21C42 32.598 32.598 42 21 42C9.40201 42 0 32.598 0 21C0 9.40201 9.40201 0 21 0C32.598 0 42 9.40201 42 21ZM28.0783 26.0479H19.8135C20.502 25.2911 21.1665 24.5129 21.8059 23.7143C23.4435 21.7205 25.0684 19.7162 26.6805 17.7017C26.8131 17.5379 26.9632 17.3739 27.1147 17.2083C27.5434 16.7399 27.9842 16.2581 28.0783 15.7277C28.2594 14.7697 28.2261 13.7666 28.1917 12.7344C28.1777 12.3156 28.1636 11.892 28.1636 11.4647H23.0344V7.875H18.9236V11.5553H14.217V15.9521H22.1445C21.8278 16.3266 21.5275 16.6751 21.2363 17.0131C20.8652 17.444 20.5089 17.8576 20.1521 18.2857C18.5145 20.2795 16.8896 22.2838 15.2775 24.2983C15.1411 24.482 14.9793 24.6657 14.8154 24.8519C14.4195 25.3014 14.0118 25.7645 13.9217 26.2723C13.7401 27.2327 13.7741 28.2385 13.8086 29.2569C13.8224 29.6664 13.8364 30.0779 13.8364 30.4894H18.9236V34.125H23.2037C23.1617 33.4964 23.1298 32.8901 23.0979 32.2836C23.0661 31.6783 23.0343 31.0729 22.9924 30.4447H28.0783V26.0479Z" fill="#F2B124"/>
</svg>
