<svg width="42" height="48" viewBox="0 0 42 48" fill="none" xmlns="http://www.w3.org/2000/svg">
<g clip-path="url(#clip0)">
<path d="M21.0266 0L0 12.0132V36.0395L21.0266 48.0527L42.0532 36.0395V12.0132L21.0266 0Z" fill="#F2B124"/>
<path d="M21.0266 0L0 12.0132V36.0395L21.0266 48.0527V0Z" fill="#F2B124"/>
<path d="M29.2224 10.3799H12.7205L10.8042 18.7048H31.2453L29.2224 10.3799ZM15.6483 30.1384V24.606L10.751 21.55L5.21484 25.6071L12.7738 38.6214H15.808L19.3745 35.3019V33.6686L15.6483 30.1384Z" fill="white"/>
<path d="M26.3495 19.9692H15.7031L17.4598 24.6059L16.9275 29.8221H25.1252L24.5929 24.6059L26.3495 19.9692Z" fill="white"/>
<path d="M31.2476 21.4971L26.4035 24.6057V30.1381L22.7305 33.6683V35.3017L26.297 38.5684H29.278L36.7837 25.6068L31.2476 21.4971Z" fill="white"/>
</g>
<defs>
<clipPath id="clip0">
<rect width="42" height="48" fill="white"/>
</clipPath>
</defs>
</svg>
