<svg width="42" height="42" viewBox="0 0 42 42" fill="none" xmlns="http://www.w3.org/2000/svg">
<path d="M21 0.492188C9.67394 0.492188 0.492188 9.67394 0.492188 21C0.492188 32.3261 9.67394 41.5078 21 41.5078C32.3261 41.5078 41.5078 32.3261 41.5078 21C41.5078 9.67394 32.3261 0.492188 21 0.492188ZM20.2806 9.28102L26.9932 15.9961L24.5273 18.462L20.283 14.2177L16.0388 18.457L13.5704 15.9887L20.2806 9.28102ZM9.35977 20.2018L11.8273 17.7343L14.2956 20.2018L11.8273 22.6702L9.35977 20.2018ZM26.9965 24.4117L20.2839 31.1235L13.5737 24.4133L16.0453 21.9483L20.2871 26.1901L24.5273 21.9434L26.9965 24.41V24.4117ZM28.7372 22.6718L26.2689 20.2035L28.7372 17.7352L31.2055 20.2035L28.7372 22.6718Z" fill="#F2B124"/>
</svg>
