<svg width="42" height="42" viewBox="0 0 42 42" fill="none" xmlns="http://www.w3.org/2000/svg">
<path d="M20.4835 1.70951C21.399 1.23373 22.5146 2.33951 22.029 3.25498C21.952 3.42856 21.8344 3.58108 21.6861 3.6997C21.5378 3.81831 21.3632 3.89954 21.1769 3.93653C20.9907 3.97352 20.7983 3.96519 20.6159 3.91225C20.4336 3.85931 20.2666 3.7633 20.1291 3.63233C19.9954 3.49519 19.8966 3.32799 19.8409 3.14475C19.7852 2.96152 19.7742 2.76759 19.8089 2.57925C19.8436 2.3909 19.923 2.21363 20.0404 2.06229C20.1577 1.91096 20.3097 1.78999 20.4835 1.70951ZM10.6398 2.77264C10.7826 2.72741 10.9343 2.71768 11.0818 2.74428C11.2292 2.77088 11.368 2.83301 11.486 2.9253C11.604 3.01759 11.6978 3.13725 11.7592 3.27393C11.8206 3.41061 11.8477 3.56019 11.8383 3.70973C11.8288 3.85926 11.7831 4.00424 11.705 4.13212C11.6269 4.26 11.5189 4.36693 11.3902 4.44365C11.2615 4.52037 11.116 4.56457 10.9664 4.57243C10.8168 4.58028 10.6675 4.55156 10.5315 4.48873C9.78006 4.1967 9.87522 2.97936 10.6398 2.77264ZM30.8063 4.50514C29.9368 4.40014 29.799 3.03514 30.6357 2.75951C31.2919 2.43139 31.8793 3.03842 31.9744 3.65201C31.8399 4.17701 31.4002 4.65936 30.8063 4.50514ZM12.8776 6.9628C13.8062 6.37545 15.1351 7.25155 14.9907 8.33108C14.9415 9.42045 13.4944 10.0537 12.6938 9.31545C12.513 9.16873 12.3708 8.98 12.2797 8.76573C12.1886 8.55145 12.1513 8.31814 12.171 8.08613C12.1907 7.85412 12.2669 7.63047 12.393 7.43467C12.519 7.23886 12.691 7.07687 12.894 6.9628H12.8776ZM27.0854 7.58623C27.5021 6.51655 29.1821 6.48373 29.6546 7.52717C30.1205 8.33436 29.5463 9.33842 28.7162 9.61405C27.6137 9.82076 26.5669 8.62967 27.0755 7.58623H27.0854ZM19.3055 9.55498C19.3055 8.63623 20.1324 7.95373 21.0052 7.89139C21.586 8.00623 22.216 8.25233 22.4654 8.83639C22.5696 9.03794 22.632 9.25851 22.6486 9.48481C22.6653 9.7111 22.6359 9.93843 22.5624 10.1531C22.4888 10.3677 22.3724 10.5652 22.2204 10.7337C22.0684 10.9022 21.8839 11.0381 21.6779 11.1333C21.2973 11.3498 20.8444 11.2678 20.4277 11.2415C19.7912 10.9298 19.253 10.3162 19.3055 9.56483V9.55498ZM4.65475 10.8905C5.50459 10.3687 6.64975 11.3236 6.32819 12.2456C6.2763 12.4336 6.17842 12.6058 6.04337 12.7465C5.90832 12.8872 5.74036 12.9921 5.55464 13.0516C5.36893 13.1112 5.1713 13.1236 4.97959 13.0877C4.78789 13.0518 4.60814 12.9687 4.45657 12.846C4.30499 12.7233 4.18637 12.5647 4.1114 12.3846C4.03642 12.2046 4.00746 12.0087 4.02713 11.8147C4.0468 11.6206 4.11447 11.4345 4.22404 11.2732C4.33361 11.1118 4.48163 10.9803 4.65475 10.8905ZM36.099 10.8905C36.8176 10.3294 38.0087 10.9725 37.9201 11.8748C37.9187 12.0734 37.8666 12.2684 37.7688 12.4412C37.6709 12.6139 37.5304 12.7588 37.3608 12.8621C37.1911 12.9653 36.9979 13.0235 36.7995 13.031C36.601 13.0385 36.4039 12.9952 36.2269 12.9051C36.0459 12.8114 35.8921 12.6724 35.7807 12.5017C35.6693 12.3309 35.6039 12.1342 35.591 11.9307C35.5782 11.7272 35.6182 11.5239 35.7072 11.3404C35.7962 11.157 35.9312 10.9997 36.099 10.8839V10.8905ZM23.4169 12.5245C24.0844 12.3064 24.809 12.3435 25.4507 12.6286C26.0924 12.9136 26.6057 13.4264 26.8913 14.0679C27.1769 14.7093 27.2147 15.4339 26.9972 16.1015C26.7797 16.7692 26.3225 17.3325 25.7138 17.6826C24.2799 18.5784 22.1898 17.8336 21.6549 16.229C21.522 15.8718 21.4623 15.4916 21.4792 15.1108C21.4961 14.7301 21.5893 14.3566 21.7534 14.0126C21.9174 13.6686 22.1489 13.3611 22.4341 13.1082C22.7194 12.8554 23.0524 12.6625 23.4137 12.5409L23.4169 12.5245ZM16.4344 12.682C17.7469 12.0619 19.5287 12.5836 20.1652 13.9322C20.4278 14.4339 20.5343 15.0027 20.471 15.5654C20.4077 16.1281 20.1775 16.6591 19.81 17.0899C19.4426 17.5208 18.9546 17.8319 18.409 17.9832C17.8633 18.1345 17.2848 18.1192 16.7479 17.9391C16.2111 17.7591 15.7403 17.4225 15.3962 16.9728C15.0522 16.523 14.8505 15.9806 14.8171 15.4154C14.7837 14.8501 14.9202 14.2877 15.209 13.8006C15.4978 13.3135 15.9257 12.924 16.4377 12.682H16.4344ZM9.45522 15.0708C9.55366 14.2209 10.3543 13.6697 11.1648 13.6139C11.5886 13.6617 11.9837 13.852 12.2853 14.1537C12.5869 14.4553 12.7772 14.8503 12.8251 15.2742C12.766 16.147 12.0933 17.0001 11.168 16.9936C10.9217 17.0045 10.676 16.9604 10.4488 16.8646C10.2216 16.7687 10.0186 16.6234 9.85462 16.4393C9.6906 16.2551 9.56965 16.0368 9.50057 15.8001C9.43148 15.5633 9.41599 15.3142 9.45522 15.0708ZM30.0877 13.7976C30.3425 13.6684 30.6259 13.6062 30.9114 13.6167C31.1969 13.6273 31.4749 13.7103 31.7195 13.858C31.964 14.0057 32.1669 14.2132 32.3091 14.461C32.4513 14.7087 32.5281 14.9886 32.5322 15.2742C32.6044 16.544 30.9999 17.4398 29.9597 16.695C28.8802 16.0748 28.9754 14.3259 30.0877 13.7976ZM13.5994 18.2765C14.2106 18.1167 14.8574 18.1636 15.4391 18.41C16.0208 18.6563 16.5046 19.0882 16.8151 19.6383C17.1329 20.2087 17.2437 20.8714 17.1289 21.5143C17.0141 22.1571 16.6807 22.7404 16.1851 23.1656C14.8726 24.383 12.4674 23.894 11.7718 22.2337C10.9744 20.7145 11.9457 18.6769 13.5994 18.2765ZM26.8327 18.2765C27.3472 18.1204 27.8954 18.1134 28.4137 18.2563C28.932 18.3993 29.3991 18.6864 29.7607 19.0842C30.1223 19.482 30.3637 19.9743 30.4568 20.5038C30.5498 21.0334 30.4907 21.5784 30.2863 22.0757C30.082 22.573 29.7407 23.0021 29.3022 23.3132C28.8637 23.6243 28.346 23.8046 27.8091 23.8332C27.2722 23.8617 26.7382 23.7374 26.2692 23.4746C25.8001 23.2118 25.4153 22.8214 25.1593 22.3486C24.9635 21.9771 24.8516 21.5672 24.8316 21.1477C24.8117 20.7283 24.884 20.3096 25.0436 19.9212C25.2033 19.5328 25.4462 19.1842 25.7554 18.9C26.0645 18.6158 26.4323 18.403 26.8327 18.2765ZM5.74741 19.6875C6.80069 19.2905 7.96881 20.452 7.54225 21.4987C7.46722 21.722 7.33787 21.9231 7.16583 22.0839C6.99379 22.2448 6.78447 22.3603 6.55668 22.4202C6.3289 22.4801 6.0898 22.4824 5.86091 22.4269C5.63201 22.3715 5.42049 22.26 5.24538 22.1025C5.06256 21.9342 4.92651 21.7213 4.85051 21.4848C4.7745 21.2482 4.76113 20.9959 4.8117 20.7526C4.86228 20.5094 4.97507 20.2833 5.13907 20.0967C5.30306 19.91 5.51266 19.769 5.74741 19.6875ZM34.3369 21.2067C34.3144 20.7827 34.4599 20.3669 34.7418 20.0494C35.0237 19.7319 35.4193 19.5382 35.843 19.5103C36.5649 19.6251 37.2671 20.2059 37.2113 20.9934C37.2769 22.0303 36.0268 22.739 35.1408 22.2501C34.7584 22.0078 34.4737 21.6383 34.3369 21.2067ZM0.55975 20.1928C0.710607 20.1286 0.875861 20.1057 1.03848 20.1266C1.2011 20.1475 1.35521 20.2114 1.48492 20.3117C1.61463 20.412 1.71525 20.5451 1.77641 20.6972C1.83757 20.8493 1.85706 21.015 1.83288 21.1772C1.80006 21.9778 0.622094 22.283 0.19225 21.6169C0.107512 21.5039 0.0492717 21.3733 0.0218405 21.2347C-0.00559068 21.0962 -0.00151012 20.9533 0.0337801 20.8165C0.0690703 20.6798 0.134666 20.5527 0.225712 20.4447C0.316758 20.3368 0.430921 20.2507 0.55975 20.1928ZM40.591 20.1928C40.7041 20.1204 40.8319 20.0739 40.9651 20.0566C41.0983 20.0392 41.2337 20.0515 41.3615 20.0926C41.4894 20.1337 41.6067 20.2025 41.7049 20.2941C41.8031 20.3857 41.8799 20.4979 41.9298 20.6226C41.9891 20.7661 42.0104 20.9225 41.9917 21.0766C41.9729 21.2308 41.9147 21.3775 41.8226 21.5025C41.7306 21.6276 41.6078 21.7268 41.4662 21.7905C41.3246 21.8542 41.1689 21.8803 41.0143 21.8662C40.1152 21.9483 39.8232 20.5767 40.568 20.1797L40.591 20.1928ZM17.0612 24.0089C17.4695 23.92 17.8922 23.9215 18.2999 24.0132C18.7076 24.1048 19.0903 24.2844 19.4213 24.5395C19.7523 24.7945 20.0236 25.1188 20.2161 25.4896C20.4086 25.8605 20.5178 26.2689 20.536 26.6864C20.6443 28.4255 18.8757 29.9676 17.1662 29.564C16.5258 29.4426 15.9467 29.1044 15.5263 28.6064C15.1058 28.1084 14.8696 27.4808 14.8573 26.8291C14.845 26.1774 15.0573 25.5414 15.4586 25.0278C15.86 24.5143 16.4258 24.1545 17.0612 24.0089ZM23.6729 24.0089C24.2746 23.859 24.9088 23.9101 25.4787 24.1543C26.0486 24.3986 26.5231 24.8225 26.8296 25.3615C27.1361 25.9005 27.2579 26.525 27.1765 27.1397C27.095 27.7543 26.8147 28.3255 26.3783 28.766C25.9419 29.2065 25.3734 29.4922 24.7595 29.5795C24.1456 29.6668 23.52 29.5509 22.9782 29.2494C22.4363 28.948 22.0079 28.4776 21.7583 27.91C21.5087 27.3424 21.4517 26.7087 21.5958 26.1056C21.7182 25.6001 21.9763 25.1375 22.3424 24.768C22.7084 24.3985 23.1685 24.136 23.6729 24.0089ZM10.9088 25.0655C12.0835 24.8653 13.1827 26.1712 12.7069 27.2869C12.3591 28.4714 10.6332 28.793 9.86866 27.825C8.97287 26.8931 9.64225 25.2 10.9088 25.0655ZM30.3043 25.1147C30.5597 25.0221 30.8339 24.993 31.1031 25.0299C31.3723 25.0668 31.6285 25.1686 31.8496 25.3264C32.0708 25.4843 32.2503 25.6936 32.3726 25.9362C32.4949 26.1788 32.5565 26.4475 32.5519 26.7192C32.5946 27.9661 31.0098 28.829 29.986 28.1006C28.8277 27.4444 29.041 25.5183 30.3141 25.1147H30.3043ZM35.7348 30.555C35.6498 30.3682 35.6158 30.1623 35.636 29.9582C35.6562 29.754 35.73 29.5588 35.8499 29.3923C35.9697 29.2258 36.1315 29.0939 36.3187 29.01C36.5059 28.9261 36.7119 28.8931 36.916 28.9144C37.3393 28.9144 37.6346 29.2425 37.9004 29.5181C37.9562 29.9709 38.048 30.5025 37.674 30.8569C37.5437 31.0031 37.3788 31.1143 37.1943 31.1802C37.0099 31.246 36.8118 31.2644 36.6184 31.2337C36.425 31.203 36.2424 31.1241 36.0874 31.0044C35.9324 30.8846 35.81 30.7278 35.7315 30.5484L35.7348 30.555ZM4.65803 29.1244C5.45209 28.5994 6.59069 29.3836 6.4135 30.3122C6.38503 30.5097 6.30683 30.6968 6.18623 30.8559C6.06563 31.015 5.90659 31.1408 5.72404 31.2215C5.54149 31.3022 5.34142 31.3353 5.1426 31.3175C4.94379 31.2997 4.75275 31.2317 4.58743 31.1198C4.42211 31.0079 4.28793 30.8559 4.19748 30.678C4.10703 30.5 4.06328 30.302 4.07034 30.1025C4.0774 29.9031 4.13503 29.7086 4.23783 29.5375C4.34063 29.3664 4.48522 29.2243 4.65803 29.1244ZM20.2997 30.8437C21.3366 30.3844 22.659 31.29 22.5605 32.4319C22.6393 33.6919 21.0052 34.568 19.9913 33.81C18.8626 33.1537 19.0529 31.244 20.2997 30.8569V30.8437ZM13.0515 32.5369C13.2684 32.4414 13.5058 32.4018 13.742 32.4218C13.9782 32.4418 14.2056 32.5207 14.4034 32.6512C14.6012 32.7818 14.7631 32.9599 14.8743 33.1692C14.9855 33.3785 15.0424 33.6124 15.0399 33.8494C15.0395 34.0468 14.9972 34.2419 14.9159 34.4218C14.8346 34.6017 14.7162 34.7624 14.5683 34.8932C14.4204 35.024 14.2465 35.122 14.058 35.1808C13.8696 35.2395 13.6708 35.2577 13.4748 35.234C12.8185 35.234 12.3788 34.6237 12.1623 34.0594C12.1623 33.4425 12.428 32.7469 13.0482 32.5237L13.0515 32.5369ZM27.7318 32.5237C27.9541 32.4051 28.2037 32.347 28.4555 32.3553C28.7074 32.3635 28.9526 32.4379 29.1667 32.5708C29.3808 32.7038 29.5561 32.8907 29.6751 33.1128C29.7942 33.3349 29.8527 33.5844 29.8449 33.8362C29.8679 34.942 28.4077 35.6508 27.548 34.9256C27.3602 34.781 27.211 34.5922 27.1139 34.376C27.0167 34.1597 26.9745 33.9228 26.9911 33.6864C27.0076 33.4499 27.0824 33.2212 27.2088 33.0206C27.3352 32.82 27.5092 32.6539 27.7154 32.5369L27.7318 32.5237ZM30.2682 38.8467C29.8646 38.2364 30.3404 37.4981 30.9966 37.3603C31.5249 37.4686 32.0827 37.8656 31.981 38.4759C31.95 38.661 31.8643 38.8325 31.7349 38.9683C31.6055 39.1041 31.4384 39.1981 31.2551 39.238C31.0718 39.2779 30.8807 39.262 30.7065 39.1922C30.5324 39.1225 30.3831 39.0021 30.278 38.8467H30.2682ZM10.0097 38.3151C10.1705 37.8328 10.561 37.3505 11.1319 37.4751C11.9621 37.5342 12.2115 38.7876 11.483 39.1748C10.8268 39.6145 10.0688 39.0108 10.0097 38.3151ZM19.7879 38.873C19.837 38.7034 19.924 38.5472 20.0423 38.4161C20.1606 38.2851 20.3072 38.1827 20.4709 38.1167C20.6346 38.0506 20.8112 38.0226 20.9874 38.0348C21.1635 38.0471 21.3345 38.0991 21.4876 38.1872C21.8912 38.3611 22.0093 38.8139 22.1143 39.1978C22.0585 39.398 22.0093 39.5981 21.9601 39.7983C21.8494 39.9623 21.7037 40.0998 21.5334 40.2008C21.3632 40.3018 21.1727 40.3638 20.9757 40.3823C20.7875 40.3935 20.5995 40.3589 20.4276 40.2814C20.2558 40.2039 20.1054 40.0859 19.9892 39.9374C19.873 39.789 19.7946 39.6146 19.7607 39.4292C19.7268 39.2438 19.7384 39.0529 19.7944 38.873" fill="#F2B124"/>
</svg>
