<svg width="42" height="42" viewBox="0 0 42 42" fill="none" xmlns="http://www.w3.org/2000/svg">
<path d="M23.1886 41.2312C21.5854 40.0532 22.321 37.5703 24.2714 37.5703C25.4241 37.5703 26.25 38.4146 26.25 39.585C26.25 40.0463 26.2362 40.1031 25.8822 40.763C25.8198 40.8765 25.5905 41.0891 25.3755 41.2381C24.9867 41.5078 24.9867 41.5078 24.2786 41.5078H23.5636L23.1889 41.2312H23.1886ZM14.951 41.3549C14.4995 41.1045 14.1609 40.7653 13.943 40.3289C13.6848 39.8039 13.7412 38.9954 14.072 38.5107C14.701 37.5975 15.8786 37.2986 16.6934 37.84C16.8627 37.9532 17.0402 38.0422 17.0884 38.0422C17.137 38.0422 17.2338 38.1714 17.3063 38.3247C17.3788 38.4782 17.4677 38.6075 17.4999 38.6075C17.532 38.6075 17.6049 38.7936 17.6531 39.0196C17.8631 39.8925 17.5645 40.7006 16.8384 41.1935C16.4755 41.436 16.3462 41.4763 15.8465 41.5006C15.3786 41.5245 15.2175 41.4924 14.951 41.3549ZM32.4384 40.7554C31.4482 40.3305 30.9143 39.5286 30.8513 38.3578C30.83 37.8929 30.8513 37.6445 30.9497 37.3396C31.0196 37.1152 31.104 36.9308 31.1322 36.9308C31.1601 36.9308 31.1883 36.8747 31.1883 36.8025C31.1883 36.6581 31.7573 36.0166 32.0312 35.8562C32.6983 35.4634 33.9065 35.5356 34.44 36.0006C34.6018 36.1367 34.8616 36.4337 35.0159 36.6581C35.2688 37.0027 35.325 37.1552 35.3952 37.6684C35.5848 38.9914 35.1284 40.0818 34.1732 40.5871C33.6745 40.8594 32.867 40.9316 32.4384 40.7554ZM18.5866 38.0156C18.1542 37.7669 17.9347 37.4538 17.7837 36.836C17.6328 36.2339 17.7562 35.383 18.0377 35.03C18.7993 34.0669 19.8424 34.0426 20.604 34.9578C20.8372 35.2465 20.8993 35.383 20.961 35.8086C21.1119 36.8199 20.8235 37.5825 20.1374 37.9916C19.6156 38.2968 19.108 38.3047 18.5866 38.0156ZM26.8032 37.4686C26.3954 37.3206 26.1142 37.0666 25.8398 36.622C25.6147 36.2407 25.5938 36.1702 25.5938 35.6409C25.5938 35.175 25.6289 35.0057 25.7624 34.7445C25.9889 34.2924 26.3771 33.942 26.8499 33.7629C27.3228 33.5838 27.8457 33.589 28.3149 33.7775C28.7437 33.9468 29.0742 34.2362 29.3413 34.6881C29.503 34.9634 29.5244 35.0831 29.5312 35.6055C29.5312 36.1771 29.5171 36.2335 29.2852 36.622C29.004 37.0807 28.7296 37.3206 28.2939 37.4758C27.9211 37.6028 27.1687 37.6028 26.8032 37.4689V37.4686ZM12.1531 37.4525C11.4959 37.1621 11.0703 36.4005 11.171 35.7098C11.2947 34.862 12.1068 34.2103 12.9265 34.2966C14.2413 34.4302 14.8985 35.9924 14.0713 36.9971C13.7465 37.3898 13.3675 37.5703 12.8723 37.5703C12.6095 37.5624 12.2847 37.5155 12.1531 37.4525ZM16.1339 34.1873C15.621 33.9455 15.4206 33.7657 15.2604 33.4143C14.6754 32.1024 15.709 30.7827 17.1275 31.0403C17.5599 31.1184 18.1611 31.626 18.2808 32.0086C18.4252 32.4772 18.4012 33.0553 18.225 33.4533C18.0085 33.9376 17.3916 34.2891 16.7669 34.2891C16.5263 34.2812 16.2458 34.2421 16.1336 34.1873H16.1339ZM21.885 34.0479C21.1637 33.6292 20.8687 32.8237 21.0541 31.8009C21.1572 31.229 21.4453 30.81 21.9401 30.512C22.4205 30.2302 23.3267 30.3348 23.5945 30.7056C23.6427 30.7778 23.7182 30.8342 23.7595 30.8342C23.9794 30.8424 24.2812 31.6962 24.2812 32.3164C24.2812 32.9605 24.1096 33.4517 23.773 33.7739C23.1689 34.354 22.5579 34.4426 21.885 34.0479ZM10.6897 33.5587C10.2736 33.4343 9.84375 32.7698 9.84375 32.258C9.84375 31.9587 10.1355 31.4619 10.4272 31.2572C10.9814 30.87 11.6301 30.936 12.1695 31.4327L12.4687 31.7103V32.2944C12.4687 32.8571 12.4615 32.8863 12.2135 33.1784C11.8561 33.5951 11.2875 33.7335 10.6897 33.5583V33.5587ZM28.5442 31.4147C28.2604 31.1315 28.1685 30.8306 28.2437 30.4359C28.3523 29.8344 29.0788 29.5168 29.7216 29.8C30.1055 29.9634 30.2892 30.513 30.1304 31.02C29.9719 31.5095 29.7547 31.6641 29.229 31.6641C28.8451 31.6641 28.7447 31.6296 28.5442 31.4147ZM14.7187 30.2932C13.6497 29.9798 13.4374 28.4557 14.3817 27.9142C15.2312 27.4299 16.256 27.9287 16.3879 28.8829C16.4318 29.1608 16.4023 29.2888 16.2415 29.6093C16.0804 29.9371 15.9853 30.0293 15.6706 30.179C15.2824 30.3716 15.0626 30.3929 14.7187 30.2932ZM31.1565 30.0307C30.8792 29.7537 30.8438 29.6733 30.8438 29.3964C30.8438 28.8058 31.2559 28.3828 31.8314 28.3828C32.1438 28.3828 32.2291 28.4192 32.4706 28.6381C32.9254 29.061 32.9254 29.586 32.4778 30.0671C32.2363 30.3296 32.1864 30.3516 31.8383 30.3516C31.4905 30.3516 31.4406 30.3296 31.1565 30.0307ZM10.4573 30.2334C10.4573 30.1547 10.3727 30.1153 10.2119 30.1153C10.0341 30.1153 9.87328 30.0208 9.57698 29.7216C9.22983 29.3744 9.1875 29.2953 9.1875 28.957C9.1875 28.4921 9.40734 28.0744 9.77156 27.8775C10.1272 27.6885 10.8301 27.6728 11.2278 27.8539C11.7528 28.0983 11.973 28.8783 11.6852 29.5086C11.5582 29.8 11.1011 30.1153 10.8045 30.1153C10.7028 30.1153 10.6267 30.1626 10.6267 30.2334C10.6267 30.2964 10.5929 30.3516 10.542 30.3516C10.4997 30.3516 10.4573 30.2964 10.4573 30.2334ZM19.4739 30.3073C19.1287 30.1973 18.5988 29.7495 18.4784 29.4587C18.3419 29.1523 18.3419 28.3113 18.4705 27.9576C18.5909 27.6353 19.1766 27.1799 19.5461 27.109C20.1078 27.007 20.646 27.109 21.0069 27.3919C21.8741 28.0757 21.8741 29.3642 20.999 30.0244C20.686 30.2679 20.5413 30.3151 20.1561 30.3466C19.8991 30.3624 19.5943 30.3388 19.4736 30.3073H19.4739ZM33.4222 29.528C33.0327 29.2901 32.8125 28.8819 32.8125 28.3972C32.8125 27.9382 32.8886 27.7597 33.202 27.4454C34.0065 26.6375 35.4375 27.2242 35.4375 28.3549C35.4375 28.8307 35.1327 29.4007 34.7855 29.5621C34.3875 29.7491 33.7693 29.7406 33.4222 29.528ZM26.5515 28.7546C26.2726 28.4921 26.2513 28.4484 26.2513 28.0622C26.2441 27.6609 26.2585 27.6317 26.5443 27.3548C26.816 27.0995 26.8803 27.0703 27.2304 27.0703C27.5809 27.0703 27.638 27.0995 27.8808 27.34C28.3385 27.8066 28.3313 28.3172 27.8595 28.7693C27.6022 29.0099 27.5307 29.0391 27.2091 29.0391C26.8875 29.0391 26.816 29.0099 26.5515 28.7546ZM28.8268 27.5595C28.6735 27.4749 28.4691 27.2373 28.3674 27.0421C27.8138 25.956 28.9032 24.7597 30.0523 25.1925C30.5373 25.3706 30.8438 25.8454 30.8438 26.4141C30.8438 26.9318 30.5799 27.407 30.197 27.5937C29.7885 27.7804 29.167 27.7718 28.8268 27.5595ZM13.6795 26.9591C13.6546 26.8974 13.5716 26.8433 13.4971 26.8433C13.0492 26.8433 12.477 26.186 12.4687 25.6682C12.4605 24.8256 13.4059 24.2225 14.2603 24.5241C14.849 24.7327 15.2302 25.4363 15.0478 25.9928C14.9317 26.3563 14.5172 26.7507 14.1855 26.82C14.0526 26.8429 13.9282 26.9128 13.9033 26.967C13.8452 27.1061 13.7458 27.1061 13.6795 26.9591ZM36.0993 27.0142C36.0993 26.9532 35.9497 26.8652 35.7331 26.7908C35.0985 26.5873 34.6877 25.9918 34.7996 25.45C34.8817 25.0438 35.2032 24.6648 35.5615 24.5362C36.1666 24.3328 36.9357 24.4821 37.2494 24.8676C37.3839 25.0304 37.4062 25.159 37.4062 25.6735V26.2828L37.1077 26.5132C36.9433 26.6418 36.6968 26.7704 36.5548 26.8042C36.4202 26.8449 36.2634 26.9259 36.2037 26.9939C36.1216 27.0887 36.1065 27.0956 36.0993 27.0142ZM9.63178 26.9072C9.39881 26.7356 9.1875 26.3035 9.1875 26.0203C9.1875 25.8192 9.34959 25.5061 9.56123 25.2975C9.75155 25.1111 10.2309 25.0441 10.6119 25.156C11.0352 25.2751 11.3029 26.08 11.0703 26.5273C10.7953 27.049 10.0761 27.235 9.63178 26.9072ZM23.7795 26.3803C23.4514 26.3409 23.0314 25.8979 22.9806 25.535C22.9471 25.3237 22.9806 25.1718 23.1322 24.9405C23.4094 24.5047 23.5525 24.4453 24.3095 24.4453H24.9569L25.2594 24.7226C25.68 25.1058 25.7053 25.6141 25.3267 26.0436C25.0241 26.3803 24.5867 26.4728 23.7795 26.3803ZM17.4904 26.1703C17.1655 25.8894 17.0625 25.6456 17.0625 25.1728C17.0625 24.7961 17.1878 24.2717 17.2692 24.2717C17.2987 24.2717 17.4093 24.1904 17.5199 24.087C17.83 23.8061 18.3022 23.7103 18.7448 23.858C19.6373 24.1608 19.9769 25.2246 19.4089 25.956C19.0769 26.3845 19.003 26.4141 18.3612 26.4141C17.7929 26.4141 17.7486 26.3993 17.4904 26.1703ZM1.51101 25.6672C1.10742 25.5084 0.569624 25.0317 0.293671 24.5867C0.0246085 24.15 0.0246085 24.1421 0.00360848 23.2683C-0.0177196 22.3785 0.0528272 21.9735 0.28678 21.6953C0.335999 21.6395 0.435421 21.4968 0.499077 21.3777C0.62639 21.1631 0.725483 21.0837 1.36959 20.7181C1.87917 20.4327 2.60105 20.4402 3.18117 20.7263C3.4148 20.8455 3.59887 20.9724 3.59887 21.0043C3.59887 21.044 3.64153 21.0758 3.69075 21.0758C3.80428 21.0758 4.09434 21.4095 4.09434 21.5365C4.09434 21.5923 4.12256 21.6316 4.158 21.6316C4.18622 21.6316 4.29942 21.8384 4.40573 22.1005C4.71712 22.8788 4.63214 24.0309 4.22198 24.5392C4.15078 24.6264 4.09401 24.7377 4.09401 24.7853C4.09401 24.9283 3.46434 25.4605 3.09651 25.6115C2.70703 25.7785 1.87195 25.81 1.51101 25.6672ZM32.1005 25.7004C32.1005 25.6325 31.9902 25.5577 31.8281 25.5035C30.9284 25.2384 30.5895 24.4302 31.0465 23.6693C31.2825 23.289 31.629 23.1328 32.2114 23.1328C32.904 23.1394 33.3611 23.4997 33.4569 24.1178C33.5232 24.5185 33.2948 25.2384 33.1032 25.2384C33.0589 25.2384 32.9411 25.2998 32.8378 25.3742C32.7347 25.449 32.5946 25.5101 32.5283 25.5101C32.4545 25.5101 32.3364 25.578 32.2481 25.6597C32.13 25.7752 32.1005 25.7887 32.1005 25.7004ZM26.3632 24.42C25.9747 24.316 25.601 23.6913 25.5938 23.1482C25.5865 22.0992 26.7737 21.4594 27.6383 22.0398C28.3274 22.5008 28.4153 23.5128 27.8362 24.1523C27.6091 24.4053 27.5723 24.42 27.0519 24.4424C26.7517 24.4499 26.4439 24.4424 26.3632 24.42ZM10.2785 24.3032C9.81651 23.8767 9.71742 23.3582 10.0062 22.8815C10.3117 22.363 11.1864 22.3381 11.574 22.8316C11.929 23.2913 11.8876 23.7261 11.4502 24.1694C11.2275 24.3951 11.1202 24.4453 10.815 24.4453C10.5755 24.4453 10.3858 24.3951 10.2785 24.3032ZM13.5886 23.6808C13.1916 23.5118 13.0121 22.8864 13.1995 22.342C13.3117 22.0329 13.7983 21.7754 14.1802 21.8269C14.7492 21.9004 15.0937 22.2682 15.0937 22.7906C15.0937 23.5705 14.3522 24.0046 13.5886 23.6808ZM37.8466 23.6919C37.5349 23.5843 37.0709 23.2457 36.9108 22.9996C36.7749 22.8076 36.711 22.1307 36.7749 21.6927C36.8868 21.0158 37.7505 20.4314 38.5261 20.516C40.0214 20.6929 40.5651 22.4848 39.4055 23.4075C38.9258 23.792 38.406 23.8842 37.8466 23.6919ZM17.0198 23.0534C17.0198 23.0134 16.9352 22.9737 16.8249 22.9737C16.5286 22.9737 16.0204 22.5996 15.8763 22.2817C15.4783 21.3908 16.0627 20.5078 17.0451 20.5078C17.8244 20.5078 18.375 21.0249 18.375 21.7645C18.375 22.178 18.3579 22.218 17.9599 22.5839C17.7312 22.807 17.4772 22.9737 17.367 22.9737C17.2738 22.9737 17.1892 23.0134 17.1892 23.0534C17.1892 23.101 17.1554 23.1328 17.1045 23.1328C17.0618 23.1328 17.0198 23.101 17.0198 23.0534ZM33.979 22.4155C33.5511 22.2987 33.0914 21.9181 32.925 21.5371C32.7508 21.1329 32.7823 20.3631 32.9963 20.0212C33.345 19.4535 33.9947 19.1349 34.6447 19.2048C35.659 19.3213 36.3169 20.3552 36.0235 21.3426C35.762 22.1977 34.8981 22.6485 33.9793 22.4155H33.979ZM7.12917 21.018C6.66619 20.8343 6.26522 20.4248 6.04373 19.9237C5.84358 19.4578 5.86392 18.7517 6.0923 18.314C6.50016 17.5232 6.98414 17.2266 7.86909 17.2266C8.55356 17.2266 8.73305 17.283 9.09956 17.6006C9.65278 18.0879 9.9015 18.688 9.83259 19.3728C9.80496 19.6794 9.70581 19.9752 9.54311 20.2364C9.3804 20.4977 9.15868 20.7171 8.89575 20.8771C8.63282 21.0372 8.33603 21.1333 8.02922 21.1577C7.72241 21.1822 7.41413 21.1344 7.12917 21.018ZM28.5065 21.6848C27.7955 21.3009 27.4244 20.493 27.6101 19.7571C27.7105 19.3971 28.097 18.8613 28.4061 18.669C28.6686 18.501 29.697 18.4931 30.006 18.6611C30.2922 18.813 30.6941 19.3732 30.7945 19.7731C30.9802 20.477 30.6246 21.293 29.9985 21.629C29.5654 21.861 28.8697 21.885 28.5065 21.6848ZM39.1883 19.7279C38.553 19.5057 38.0707 18.8537 38.0625 18.2221C38.0625 17.6256 38.3923 17.0979 38.9793 16.758C39.2769 16.5847 39.3812 16.571 40.0408 16.571C40.8368 16.5637 41.0379 16.6333 41.472 17.0425C41.9626 17.5074 42.1395 18.2565 41.8822 18.7914C41.7378 19.0893 41.2148 19.6514 41.0783 19.6514C41.0219 19.6514 40.869 19.7 40.7485 19.7558C40.4348 19.8942 39.6388 19.8804 39.1883 19.7279ZM12.2217 19.13C11.9503 19.0644 11.4417 18.5883 11.2606 18.227C11.1841 18.0708 11.1562 17.7752 11.1562 17.1839V16.3547L11.421 15.9771C11.8876 15.3038 12.6745 15.0819 13.4407 15.4022C14.5619 15.8783 14.7915 17.7588 13.8515 18.7523C13.4613 19.1628 12.9252 19.2862 12.2217 19.13ZM23.6447 18.3734C23.1341 18.1069 22.9386 17.7322 22.9724 17.1409C23.015 16.5749 23.202 16.2917 23.7044 16.0502C24.5979 15.6171 25.5938 16.2668 25.5938 17.2909C25.5938 17.8904 25.032 18.4649 24.3938 18.5315C24.1129 18.5565 23.9256 18.5233 23.6447 18.3734ZM35.3499 17.7847C34.8623 17.6393 34.651 17.473 34.3744 17.0218C33.8868 16.231 34.1306 15.3366 34.9598 14.8303C35.3174 14.6085 35.366 14.6016 36.0731 14.6016C36.6096 14.6016 36.8698 14.6295 37.0486 14.7125C37.3898 14.8788 37.7964 15.2604 37.9424 15.5518C38.097 15.8635 38.1052 16.5713 37.9506 16.8692C37.7882 17.2092 37.2517 17.6531 36.8616 17.7781C36.4389 17.9166 35.7807 17.9166 35.3499 17.7847ZM17.0625 17.8398C16.9739 17.8241 16.8217 17.7926 16.7255 17.7768C16.4532 17.7145 16.0522 17.3457 15.8921 16.9929C15.6115 16.3971 15.7641 15.4248 16.1966 15.0642C16.445 14.8526 17.0622 14.6016 17.3348 14.6016C18.0403 14.6016 18.7612 15.0563 18.9295 15.6053C19.3545 16.9772 18.3927 18.122 17.0625 17.8398ZM20.645 17.8546C20.389 17.8175 20.2578 17.7358 20.0675 17.5133C19.7679 17.1642 19.6875 16.9719 19.6875 16.5933C19.6875 16.2225 19.7971 15.9403 20.0386 15.6732C20.3086 15.3838 20.6302 15.2578 21.0981 15.2578C21.4341 15.2578 21.5365 15.2949 21.8288 15.5249C22.2308 15.8438 22.3476 16.1408 22.304 16.7488C22.2744 17.1426 22.2383 17.2239 21.9896 17.4838C21.8361 17.6469 21.6533 17.7952 21.5949 17.81C21.3098 17.8841 20.9373 17.9064 20.645 17.8546ZM29.9414 17.1823C29.3629 17.0002 28.875 16.1241 28.875 15.2726C28.875 14.0743 29.549 13.2891 30.574 13.2891C31.1794 13.2891 31.6677 13.6362 32.0253 14.3141C32.1904 14.6363 32.2042 15.8514 32.0391 16.2235C31.9085 16.5044 31.5436 16.9424 31.31 17.0914C31.1036 17.2151 30.237 17.2732 29.9411 17.1823H29.9414ZM4.50975 15.8028C4.11567 15.6617 3.74981 15.3451 3.52472 14.9435C3.37706 14.6902 3.32062 14.4857 3.29241 14.0703C3.26419 13.5772 3.2783 13.4928 3.46828 13.0843C3.60905 12.7883 3.77803 12.556 3.96801 12.4084C4.73484 11.8023 5.95908 11.8374 6.62058 12.4927C7.09209 12.9573 7.21875 13.2743 7.21875 13.9433C7.21875 14.6127 7.0852 14.9435 6.62058 15.4015C6.14217 15.8734 5.20636 16.0492 4.50975 15.8028ZM24.2166 14.5185C23.6424 14.319 23.4412 13.5496 23.814 12.9875C23.9856 12.7283 24.0453 12.6988 24.4105 12.6472C24.694 12.6177 24.9103 12.6322 25.0963 12.7063C25.3352 12.7949 25.3874 12.8615 25.5065 13.1946C25.6928 13.7566 25.5813 14.1487 25.1636 14.4152C24.8282 14.6298 24.6192 14.6518 24.2166 14.5185ZM9.76828 13.8318C9.32072 13.6359 8.97061 13.3183 8.74256 12.8861C8.53912 12.5193 8.51451 12.4051 8.53912 11.8427C8.57161 11.256 8.59589 11.1825 8.88103 10.8157C9.345 10.2126 9.744 10.0088 10.4849 10.0088C11.0224 10.0009 11.1444 10.0334 11.5434 10.2615C12.9521 11.0765 12.6997 13.3261 11.1444 13.8561C10.77 13.9867 10.0944 13.9703 9.76861 13.8318H9.76828ZM21.4413 13.8003C21.1263 13.5955 20.9721 13.1266 21.0043 12.4871C21.0492 11.694 21.4413 11.259 22.0651 11.3272C22.3739 11.3613 22.451 11.4125 22.6761 11.7196C22.9077 12.0182 22.9461 12.1203 22.9655 12.5212C23.0104 13.357 22.5924 13.9453 21.9558 13.9453C21.795 13.9453 21.5637 13.8771 21.4413 13.8003ZM36.0728 12.597C35.7725 12.5472 35.2282 12.0691 34.9978 11.6484C34.8022 11.299 34.7812 11.192 34.7812 10.6854C34.7812 10.0577 34.858 9.84375 35.2839 9.32302C35.6121 8.90958 36.1075 8.69531 36.7362 8.69531C37.609 8.69531 38.1951 9.08775 38.5721 9.9225C38.7119 10.2362 38.7329 10.3858 38.7119 10.7782C38.6978 11.0421 38.6282 11.3843 38.5511 11.5415C38.3627 11.9336 37.7974 12.4832 37.483 12.5757C37.2386 12.6397 36.4429 12.6541 36.0728 12.597ZM14.64 12.5449C14.3269 12.3687 13.926 11.9126 13.8538 11.6563C13.6533 10.96 13.8938 9.87164 14.2708 9.76762C14.3512 9.75187 14.4152 9.71184 14.4152 9.67969C14.4152 9.54352 15.017 9.35156 15.4422 9.35156C16.3885 9.35944 17.0625 10.0478 17.0625 11.0161C17.0625 11.5444 16.862 11.9605 16.4128 12.3447C16.0837 12.6249 16.0519 12.6328 15.4261 12.6328C15.0652 12.6328 14.7121 12.5928 14.64 12.5449ZM18.3258 12.4937C18.2004 12.4133 18.0016 12.201 17.8982 12.0107C17.7289 11.7252 17.6994 11.6153 17.7289 11.2494C17.788 10.4734 18.3917 9.95367 19.1582 10.0124C20.0501 10.0856 20.5583 10.9272 20.2561 11.8276C20.0721 12.3841 19.6964 12.6328 19.0477 12.6328C18.6943 12.6328 18.4951 12.5961 18.3258 12.4937ZM30.1507 12.495C29.6668 12.2686 29.3003 11.8489 29.0374 11.2275C28.8783 10.8321 28.8576 10.711 28.8852 10.2185C28.9131 9.76631 28.9682 9.56452 29.1549 9.20128C29.2861 8.95125 29.487 8.67661 29.5975 8.57981C29.715 8.48302 29.8187 8.38622 29.8394 8.34586C29.9224 8.21658 30.4963 8.03906 30.8352 8.03906C31.2638 8.03906 31.7822 8.23266 31.9551 8.45086C32.0175 8.53158 32.1143 8.60409 32.1694 8.60409C32.2179 8.60409 32.2872 8.66873 32.3078 8.74945C32.3354 8.82197 32.4253 8.99161 32.508 9.11269C32.7088 9.39487 32.8125 9.81487 32.8125 10.3477C32.8125 10.7431 32.6602 11.4132 32.55 11.51C32.5221 11.5342 32.4184 11.6796 32.3216 11.8328C32.2179 11.9943 31.9482 12.2282 31.7064 12.3818C31.3537 12.5918 31.1945 12.64 30.849 12.6318C30.6137 12.6318 30.3027 12.5754 30.1507 12.4947V12.495ZM25.4051 11.8552C24.9703 11.613 24.8112 11.0119 25.0455 10.4606C25.1373 10.2181 25.2292 10.1515 25.5472 10.0597C26.0072 9.92611 26.5338 10.0597 26.7346 10.3602C27.3115 11.2373 26.3245 12.348 25.4051 11.8552ZM23.3917 9.89297C23.122 9.74859 22.9688 9.41391 22.9688 9.01163C22.976 8.39606 23.3333 8.03906 23.9531 8.03906C24.573 8.03906 24.9303 8.39606 24.9375 9.01163C24.9375 9.42178 24.777 9.74859 24.5001 9.90052C24.2301 10.0449 23.647 10.0449 23.3917 9.89297ZM9.04411 9.1688C8.49122 8.91122 8.14964 8.52436 7.99509 8.00067C7.83234 7.4445 7.83234 7.3477 8.0115 6.7515C8.2553 5.9138 8.94666 5.41406 9.8572 5.41406C10.4347 5.41406 10.8737 5.59945 11.2806 5.99419C11.7439 6.44536 11.931 7.26731 11.736 7.95211C11.5569 8.54864 11.1503 8.98373 10.581 9.20128C9.99567 9.41062 9.54844 9.40275 9.04411 9.1688ZM21.0253 9.24853C20.7523 9.08512 20.4875 8.72419 20.3966 8.38031C20.1154 7.34902 21.0003 6.49819 22.0677 6.78169C22.4067 6.87619 22.5143 6.95362 22.7128 7.28044C23.1098 7.89075 23.0439 8.45775 22.5225 9.03361C22.2495 9.3345 22.2164 9.35156 21.712 9.35156C21.4223 9.35156 21.108 9.30005 21.0253 9.24853ZM13.6654 7.97213C12.9183 7.75228 12.4687 7.14886 12.4687 6.35709C12.4687 5.78484 12.6853 5.38486 13.1755 5.01638C13.4968 4.78144 13.5693 4.75781 14.0989 4.75781C14.7256 4.76569 14.87 4.82048 15.3116 5.20472C15.665 5.52628 15.7936 5.96498 15.7372 6.61566C15.6811 7.18003 15.5525 7.39988 15.1269 7.68994C14.637 8.01905 14.1471 8.12109 13.6654 7.97213ZM17.974 7.96359C17.4051 7.75786 17.0697 7.27322 17.0625 6.64125C17.0625 6.26653 17.0917 6.19303 17.3542 5.86261C17.6167 5.51742 17.6676 5.48789 18.0469 5.44392C18.6667 5.36287 19.0457 5.44392 19.301 5.72283C19.6219 6.0608 19.6875 6.22978 19.6875 6.69277C19.6875 7.17773 19.5707 7.42744 19.2137 7.70667C18.798 8.03709 18.4042 8.11781 17.974 7.96359ZM29.7898 5.95711C29.1588 5.69888 28.71 5.21423 28.4153 4.49531C28.0019 3.46172 28.2611 2.12067 29.0046 1.40995C29.5657 0.868547 29.6986 0.820312 30.5543 0.820312H31.3189L31.7323 1.12711C32.4903 1.69247 32.8125 2.37103 32.8125 3.38888C32.8125 4.00247 32.6511 4.68923 32.448 4.94747C32.3708 5.05247 32.2586 5.21423 32.2094 5.31103C32.1533 5.39963 31.8796 5.60963 31.5991 5.77139C31.1364 6.03816 31.0242 6.07031 30.5612 6.07031C30.2738 6.06211 29.9303 6.01388 29.7901 5.95711H29.7898Z" fill="#F2B124"/>
</svg>
