<svg width="42" height="42" viewBox="0 0 42 42" fill="none" xmlns="http://www.w3.org/2000/svg">
<path d="M21 42C32.598 42 42 32.598 42 21C42 9.40202 32.598 0 21 0C9.40202 0 0 9.40202 0 21C0 32.598 9.40202 42 21 42Z" fill="#F2B124"/>
<path d="M21.0016 33.1854C27.7313 33.1854 33.1868 27.7299 33.1868 21.0001C33.1868 14.2704 27.7313 8.81494 21.0016 8.81494C14.2719 8.81494 8.81641 14.2704 8.81641 21.0001C8.81641 27.7299 14.2719 33.1854 21.0016 33.1854Z" fill="#F2B124"/>
<path d="M21.0424 2.6792C18.7756 2.6792 16.9375 10.9011 16.9375 21.0434C16.9375 31.1858 18.7756 39.4077 21.0424 39.4077C23.3092 39.4077 25.1473 31.1858 25.1473 21.0434C25.1473 10.9011 23.3092 2.6792 21.0424 2.6792ZM21.3258 38.3713C21.0666 38.717 20.8074 38.4577 20.8074 38.4577C19.7634 37.2481 19.2415 35.0009 19.2415 35.0009C17.4155 29.1244 17.8501 16.5071 17.8501 16.5071C18.7082 6.49028 20.2693 4.124 20.8005 3.59866C20.8547 3.54505 20.9262 3.51228 21.0022 3.50614C21.0782 3.49999 21.154 3.52086 21.2161 3.56506C21.9869 4.11123 22.6334 6.39536 22.6334 6.39536C24.5424 13.4818 24.3695 20.1361 24.3695 20.1361C24.5424 25.9262 23.4129 32.4076 23.4129 32.4076C22.5435 37.3334 21.3258 38.3713 21.3258 38.3713Z" fill="white"/>
<path d="M36.9713 11.9044C35.8427 9.9375 27.797 12.435 18.9953 17.482C10.1936 22.5291 3.98495 28.2154 5.11273 30.1815C6.24052 32.1476 14.2871 29.651 23.0888 24.6039C31.8904 19.5568 38.0991 13.8705 36.9713 11.9044ZM6.154 29.9117C5.7219 29.8573 5.81951 29.5021 5.81951 29.5021C6.34955 27.995 8.03627 26.4238 8.03627 26.4238C12.2267 21.9154 23.388 16.0137 23.388 16.0137C32.5026 11.7731 35.3338 11.952 36.052 12.1497C36.1257 12.1703 36.1898 12.2163 36.2328 12.2796C36.2759 12.3429 36.2951 12.4193 36.2872 12.4955C36.2008 13.4363 34.5371 15.1331 34.5371 15.1331C29.3439 20.3174 23.4856 23.4795 23.4856 23.4795C18.5492 26.5119 12.3651 28.7562 12.3651 28.7562C7.65962 30.4518 6.15417 29.9117 6.15417 29.9117H6.154Z" fill="white"/>
<path d="M36.932 30.247C38.0694 28.2853 31.8764 22.573 23.1057 17.488C14.335 12.403 6.29033 9.87462 5.15398 11.8397C4.01764 13.8048 10.2096 19.5137 18.9854 24.5987C27.7611 29.6837 35.7957 32.2123 36.932 30.247ZM5.90763 12.5977C5.73963 12.1994 6.09428 12.1035 6.09428 12.1035C7.6644 11.8069 9.86989 12.4826 9.86989 12.4826C15.87 13.849 26.569 20.5508 26.569 20.5508C34.8065 26.315 36.0699 28.854 36.2592 29.5747C36.2785 29.6486 36.271 29.7269 36.2381 29.7959C36.2052 29.8648 36.149 29.92 36.0794 29.9515C35.2205 30.3448 32.9199 29.7588 32.9199 29.7588C25.8291 27.8576 20.1583 24.3741 20.1583 24.3741C15.0631 21.626 10.0248 17.3974 10.0248 17.3974C6.19642 14.174 5.9088 12.6021 5.9088 12.6021L5.90763 12.5977Z" fill="white"/>
<path d="M21.0003 23.1608C22.1935 23.1608 23.1608 22.1935 23.1608 21.0003C23.1608 19.8071 22.1935 18.8398 21.0003 18.8398C19.8071 18.8398 18.8398 19.8071 18.8398 21.0003C18.8398 22.1935 19.8071 23.1608 21.0003 23.1608Z" fill="white"/>
<path d="M29.8586 13.9998C30.5507 13.9998 31.1117 13.4194 31.1117 12.7035C31.1117 11.9876 30.5507 11.4072 29.8586 11.4072C29.1665 11.4072 28.6055 11.9876 28.6055 12.7035C28.6055 13.4194 29.1665 13.9998 29.8586 13.9998Z" fill="white"/>
<path d="M9.28827 18.4075C9.98034 18.4075 10.5414 17.8272 10.5414 17.1112C10.5414 16.3953 9.98034 15.8149 9.28827 15.8149C8.59619 15.8149 8.03516 16.3953 8.03516 17.1112C8.03516 17.8272 8.59619 18.4075 9.28827 18.4075Z" fill="white"/>
<path d="M18.4523 34.3088C19.1444 34.3088 19.7054 33.7284 19.7054 33.0125C19.7054 32.2967 19.1444 31.7163 18.4523 31.7163C17.7602 31.7163 17.1992 32.2967 17.1992 33.0125C17.1992 33.7284 17.7602 34.3088 18.4523 34.3088Z" fill="white"/>
</svg>
