<svg width="42" height="42" viewBox="0 0 42 42" fill="none" xmlns="http://www.w3.org/2000/svg">
<path d="M21 42C9.40177 42 0 32.5982 0 21C0 9.40177 9.40177 0 21 0C32.5982 0 42 9.40177 42 21C42 32.5982 32.5982 42 21 42ZM21.8252 9.65803H14.22V19.7685H11.5392V22.2452H14.22V32.3567H20.747C22.2912 32.3567 32.5188 32.6773 32.5188 20.8176C32.5188 8.76159 21.8252 9.65803 21.8252 9.65803ZM21.4735 14.1094C22.6154 14.1094 28.3592 14.5514 28.3684 21.375C28.3776 28.1987 22.4457 28.1095 21.6231 28.1095H18.4209V22.3214H23.2234V19.8975H18.4209V14.1094H21.4735Z" fill="#F2B124"/>
</svg>
