<svg width="42" height="42" viewBox="0 0 42 42" fill="none" xmlns="http://www.w3.org/2000/svg">
<g clip-path="url(#clip0)">
<path d="M13.0102 31.71L19.5038 35.851L18.2109 31.71H13.0102ZM21 34.9913L22.0336 31.71H19.9664L21 34.9913ZM24.36 30.03H30.4828L26.5781 22.9688L24.36 30.03ZM22.4963 35.851L28.9898 31.71H23.7891L22.4963 35.851ZM27.4181 14.5228L21.84 6.7955V11.13L26.04 18.7393L27.4181 14.5228ZM32.7009 30.6403L29.1638 14.2341C29.1539 14.1578 29.1317 14.0835 29.0981 14.0143L29.0391 13.9224L21.6891 3.71441C21.6152 3.60026 21.5127 3.50747 21.3918 3.44529C21.2709 3.38311 21.1358 3.35371 21 3.36003C20.8652 3.35972 20.7323 3.39173 20.6124 3.45339C20.4925 3.51505 20.3891 3.60456 20.3109 3.71441L12.9938 13.8863C12.9201 13.9833 12.8685 14.0953 12.8428 14.2144L9.30563 30.6863V30.7453C9.28558 30.8538 9.28558 30.965 9.30563 31.0735C9.35716 31.2729 9.47966 31.4468 9.65016 31.5624L20.5209 38.4891C20.6598 38.5906 20.8281 38.6436 21 38.64C21.1608 38.6404 21.3183 38.5936 21.4528 38.5055L32.2973 31.5919C32.4534 31.4963 32.575 31.3535 32.6446 31.1842C32.7142 31.015 32.7282 30.8279 32.6845 30.6502L32.7009 30.6403ZM42 21C42.0007 25.8585 40.3168 30.567 37.2352 34.3231C34.1535 38.0792 29.8648 40.6506 25.0998 41.5991C20.3348 42.5476 15.3883 41.8146 11.1032 39.5249C6.81804 37.2352 3.45942 33.5305 1.59957 29.0421C-0.260275 24.5536 -0.506268 19.5592 0.903506 14.9097C2.31328 10.2602 5.29159 6.24343 9.33097 3.54372C13.3703 0.844006 18.2209 -0.371577 23.056 0.104096C27.8912 0.579769 32.4118 2.71727 35.8477 6.15238C39.7861 10.09 41.9992 15.4308 42 21ZM29.8594 25.5347L28.1827 17.6827L27.1983 20.7638L29.8594 25.5347ZM20.16 11.13V6.80535L14.6081 14.5327L15.9206 18.7327L20.16 11.13ZM13.8009 17.7188L12.1209 25.5938L14.7656 20.8163L13.8009 17.7188ZM15.4809 23.018L11.5434 30.0661H17.6827L15.4809 23.018ZM16.6064 21L21 13.0627L25.3936 21L22.5553 30.0727H19.4447L16.6064 21Z" fill="#F2B124"/>
</g>
<defs>
<clipPath id="clip0">
<rect width="42" height="42" fill="white"/>
</clipPath>
</defs>
</svg>
