<svg width="42" height="42" viewBox="0 0 42 42" fill="none" xmlns="http://www.w3.org/2000/svg">
<g clip-path="url(#clip0)">
<path d="M30.306 28.4845C30.0955 29.1155 29.9192 29.7574 29.7778 30.4073C29.7121 30.7355 29.5776 30.8044 29.2495 30.8044H12.187C12.7973 28.5469 13.3814 26.2927 13.9786 23.9728C13.0532 24.3009 12.2559 24.6291 11.3306 25.0327C11.6587 24.0319 11.9278 23.1098 12.1706 22.2436C12.1706 22.1747 12.374 22.1091 12.4987 22.0402C13.0926 21.7809 13.7587 21.5808 14.3526 21.3183C14.5378 21.211 14.6829 21.0463 14.7661 20.8491C15.6848 17.4037 16.609 13.9541 17.5387 10.5C17.6732 10.1062 17.8078 9.97172 18.195 9.97172H24.2325C23.504 12.7608 22.8412 15.4153 22.1095 18.2602C23.166 17.8664 24.1668 17.4628 25.2923 17.0002C25.1389 17.486 25.0129 17.98 24.915 18.48C24.8758 18.9546 24.6781 19.4023 24.3538 19.7511C24.0294 20.0998 23.5972 20.3293 23.1267 20.4028C22.6503 20.5482 22.1844 20.7258 21.7321 20.9344C21.5524 21.0094 21.408 21.1502 21.3285 21.3281C20.8593 23.1197 20.4886 24.8423 20.0161 26.6306V26.8308L30.6834 27.0342C30.5489 27.5461 30.4832 28.0186 30.3553 28.478L30.306 28.4845ZM21.066 2.70313e-07C16.2255 -0.000777226 11.5341 1.67569 7.79033 4.74414C4.04654 7.81258 1.48159 12.0834 0.531925 16.83C-0.417737 21.5765 0.306564 26.5054 2.58158 30.7781C4.8566 35.0508 8.54178 38.4032 13.01 40.2649C17.4783 42.1265 22.4536 42.3825 27.0893 40.9892C31.7251 39.5959 35.7348 36.6394 38.4363 32.6228C41.1378 28.6061 42.3641 23.7775 41.9066 18.9586C41.4491 14.1397 39.336 9.62817 35.9268 6.19172C33.9788 4.23292 31.6634 2.67772 29.1133 1.61524C26.5633 0.552753 23.8286 0.00385865 21.066 2.70313e-07Z" fill="#F2B124"/>
</g>
<defs>
<clipPath id="clip0">
<rect width="42" height="42" fill="white"/>
</clipPath>
</defs>
</svg>
