<svg width="42" height="42" viewBox="0 0 42 42" fill="none" xmlns="http://www.w3.org/2000/svg">
<g clip-path="url(#clip0)">
<path d="M29.7871 31.4081L24.0909 25.6791C23.2708 24.8599 22.159 24.3999 20.9999 24.3999C19.8408 24.3999 18.7291 24.8599 17.909 25.6791L12.2127 31.4081H8.63618L16.1207 23.8612C16.7608 23.2194 17.5213 22.7101 18.3585 22.3626C19.1958 22.0151 20.0934 21.8362 20.9999 21.8362C21.9064 21.8362 22.804 22.0151 23.6413 22.3626C24.4786 22.7101 25.239 23.2194 25.8791 23.8612L33.3637 31.4081H29.7871ZM12.2554 10.4081L17.909 16.0945C18.314 16.5021 18.7956 16.8255 19.326 17.0462C19.8565 17.2669 20.4254 17.3806 20.9999 17.3806C21.5745 17.3806 22.1434 17.2669 22.6738 17.0462C23.2043 16.8255 23.6859 16.5021 24.0909 16.0945L29.7445 10.4081H33.3243L25.8791 17.8927C25.239 18.5346 24.4786 19.0438 23.6413 19.3913C22.804 19.7388 21.9064 19.9177 20.9999 19.9177C20.0934 19.9177 19.1958 19.7388 18.3585 19.3913C17.5213 19.0438 16.7608 18.5346 16.1207 17.8927L8.67555 10.4081H12.2554ZM20.9999 2.83475e-10C16.1416 2.52428e-05 11.4335 1.68459 7.67792 4.76666C3.92233 7.84874 1.35156 12.1376 0.403636 16.9026C-0.544292 21.6676 0.189265 26.6139 2.47932 30.8986C4.76938 35.1834 8.47425 38.5416 12.9627 40.4011C17.4511 42.2605 22.4455 42.5061 27.0947 41.0961C31.744 39.6861 35.7605 36.7077 38.46 32.6684C41.1595 28.629 42.3749 23.7786 41.8991 18.9436C41.4234 14.1086 39.2859 9.58809 35.8509 6.15234C33.9008 4.20183 31.5855 2.65457 29.0374 1.59894C26.4892 0.543308 23.7581 -1.43302e-05 20.9999 2.83475e-10V2.83475e-10Z" fill="#F2B124"/>
</g>
<defs>
<clipPath id="clip0">
<rect width="42" height="42" fill="white"/>
</clipPath>
</defs>
</svg>
