<svg width="42" height="42" viewBox="0 0 42 42" fill="none" xmlns="http://www.w3.org/2000/svg">
<path d="M11.2521 10.3557C11.2412 10.4041 11.2452 10.4547 11.2636 10.5009L19.2338 30.9266L20.0491 21.9237C20.063 21.8015 20.0905 21.6813 20.1312 21.5652L11.2948 10.2695C11.2746 10.2949 11.2601 10.3243 11.2521 10.3557ZM21.4986 22.1608L20.7677 30.2376L29.5139 17.914L21.8505 21.7539L21.4986 22.1608ZM26.8586 13.7271L13.4186 10.6075L21.0803 20.4053L26.8586 13.7271ZM24.3533 18.8615L30.6099 15.7263L28.3171 14.28L24.3533 18.8615Z" fill="#F2B124"/>
<path d="M21 0.492188C9.67394 0.492188 0.492188 9.67394 0.492188 21C0.492188 32.3261 9.67394 41.5078 21 41.5078C32.3261 41.5078 41.5078 32.3261 41.5078 21C41.5078 9.67394 32.3261 0.492188 21 0.492188ZM31.97 16.9805L21.0599 32.3523C20.8811 32.6034 20.6378 32.8016 20.3557 32.9258C20.0735 33.0499 19.7631 33.0956 19.4572 33.0579C19.1512 33.0201 18.8612 32.9004 18.6177 32.7114C18.3742 32.5223 18.1863 32.271 18.0739 31.984L9.89707 11.0307C9.7843 10.7411 9.75268 10.4261 9.80562 10.1198C9.85856 9.81353 9.99405 9.52747 10.1975 9.29245C10.401 9.05744 10.6647 8.88238 10.9602 8.78612C11.2558 8.68986 11.572 8.67605 11.8748 8.74617L28.035 12.4819C28.2215 12.5251 28.3995 12.5991 28.5616 12.7009L31.4893 14.5482C32.3326 15.1454 32.5147 16.2143 31.97 16.9805Z" fill="#F2B124"/>
</svg>
