<svg width="42" height="42" viewBox="0 0 42 42" fill="none" xmlns="http://www.w3.org/2000/svg">
<path d="M21 0.492188C9.67394 0.492188 0.492188 9.67394 0.492188 21C0.492188 32.3261 9.67394 41.5078 21 41.5078C32.3261 41.5078 41.5078 32.3261 41.5078 21C41.5078 9.67394 32.3261 0.492188 21 0.492188ZM23.3838 22.6218V31.8093H18.6342V22.6218C13.2973 22.3757 9.28266 21.3199 9.28266 20.055C9.28266 18.7901 13.2973 17.7352 18.6342 17.4907V14.6262H12.0652V10.258H29.948V14.6262H23.3789V17.4973C28.7109 17.7434 32.7141 18.7975 32.7141 20.0607C32.7141 21.324 28.7109 22.3757 23.3838 22.6218Z" fill="#F2B124"/>
<path d="M23.384 17.8262V21.0254C23.2486 21.0377 22.512 21.0984 21.0477 21.0984C19.8279 21.0984 18.9445 21.0459 18.636 21.0254V17.8262C13.9192 18.0354 10.3984 18.854 10.3984 19.8351C10.3984 20.8162 13.9192 21.6357 18.636 21.8441C18.9395 21.8597 19.8017 21.8941 21.0272 21.8941C22.5604 21.8941 23.2495 21.8531 23.3832 21.8449C28.0885 21.6357 31.6027 20.8146 31.6027 19.8368C31.6027 18.8589 28.0909 18.0354 23.384 17.8262Z" fill="#F2B124"/>
</svg>
