<svg width="42" height="42" viewBox="0 0 42 42" fill="none" xmlns="http://www.w3.org/2000/svg">
<path d="M21 0.492188C9.67394 0.492188 0.492188 9.67394 0.492188 21C0.492188 32.3261 9.67394 41.5078 21 41.5078C32.3261 41.5078 41.5078 32.3261 41.5078 21C41.5078 9.67394 32.3261 0.492188 21 0.492188ZM32.0578 18.2183C30.7125 18.7597 30.0398 19.5002 30.0398 20.4397L30.0251 20.4471C30.0349 20.6303 30.0398 20.8146 30.0398 21C30.0398 26.3936 25.8087 30.7658 20.589 30.7658C18.6651 30.7665 16.7895 30.164 15.2258 29.0432L16.96 28.1507C18.0738 28.7566 19.3219 29.0734 20.5898 29.0719C24.9047 29.0719 28.4017 25.4625 28.4017 21C28.4018 20.711 28.3871 20.4221 28.3574 20.1346L9.36223 29.9709V27.9202L32.0578 16.1101V18.2183ZM32.0578 14.3793L9.36223 26.1319V24.0811C10.7075 23.5758 11.2995 22.7462 11.1382 21.5923L11.1554 21.5841C11.1439 21.391 11.1382 21.1969 11.1382 21.0016C11.1382 15.6081 15.3694 11.2399 20.589 11.2399C22.5527 11.2398 24.465 11.8675 26.0466 13.0315L24.3633 13.9289C23.2144 13.2715 21.9135 12.9265 20.5898 12.9281C16.2758 12.9281 12.778 16.5416 12.778 21C12.7779 21.4196 12.8091 21.8385 12.8715 22.2534L32.0578 12.2719V14.3793Z" fill="#F2B124"/>
</svg>
