<svg width="113" height="121" viewBox="0 0 113 121" fill="none" xmlns="http://www.w3.org/2000/svg">
<path d="M53.6582 0.479492V63.8788H113C113 55.5531 111.465 47.3089 108.483 39.6169C105.501 31.925 101.129 24.9359 95.6191 19.0487C90.1087 13.1615 83.5669 8.49159 76.3673 5.30548C69.1676 2.11936 61.4511 0.479492 53.6582 0.479492Z" fill="#1E386B"/>
<path d="M48.3932 69.4489V18.4111C41.016 18.4082 33.7377 20.2248 27.1253 23.7194C20.5129 27.214 14.7448 32.2922 10.2703 38.5586C5.79582 44.825 2.73574 52.1104 1.32841 59.8473C-0.078922 67.5842 0.204494 75.5637 2.15656 83.1645C4.10862 90.7652 7.67665 97.7818 12.5827 103.668C17.4888 109.554 23.6005 114.151 30.4418 117.1C37.2831 120.049 44.6693 121.271 52.0251 120.671C59.3808 120.071 66.5076 117.665 72.8504 113.64C90.6044 102.425 96.9092 82.3101 96.1124 69.4489H48.3932ZM39.0052 79.1272C39.0052 79.7378 39.0052 80.3115 39.0052 80.8111C38.9824 83.1084 38.1134 85.3036 36.5864 86.9212C35.0594 88.5387 32.9974 89.4484 30.847 89.4531V93.1542H24.7327V89.4531C22.5358 89.3589 20.3643 88.9161 18.2893 88.1393L17.5099 87.8617V80.182L19.0688 80.293C20.8009 80.4225 24.5768 80.6631 28.1103 80.6446C30.1369 80.6446 30.1369 80.0339 30.1369 79.4788V78.2019C30.1369 77.1841 30.1369 76.8325 28.7685 76.8695H25.5641C24.1529 76.9869 22.7368 76.7191 21.4491 76.0911C20.1614 75.4631 19.0442 74.4955 18.2027 73.2795C17.0369 71.3724 16.4335 69.1355 16.4706 66.8581V64.1563C16.4448 63.8609 16.4448 63.5635 16.4706 63.2681C16.6265 59.6595 18.2027 55.2368 24.5595 54.5891V50.6659H30.6392V54.5336C32.7962 54.7032 34.9286 55.1315 36.996 55.8104L37.7754 56.0695V63.8047H36.5976C34.0687 63.5642 29.6692 63.3976 27.7639 63.3976C27.1403 63.3976 25.8586 63.3976 25.5468 63.7122C25.3536 64.0433 25.274 64.4357 25.3216 64.8225V65.8958C25.3216 66.9321 25.3216 67.3948 27.1403 67.3948H30.414C38.2951 67.3948 38.9186 75.0745 38.9359 77.4062L39.0052 79.1272Z" fill="#1E386B"/>
</svg>
