<svg width="85" height="85" viewBox="0 0 85 85" fill="none" xmlns="http://www.w3.org/2000/svg">
<path d="M56.8851 31.7764C56.8851 37.0072 55.4466 41.9764 52.5697 46.2918C50.7389 49.1688 48.2543 51.6534 45.5082 53.6149C40.9312 56.7534 35.7005 58.4534 30.2082 58.4534C15.4312 58.4534 3.53125 46.4226 3.53125 31.7764C3.53125 29.1611 3.92356 26.6764 4.5774 24.1918C5.23125 21.9688 6.14663 19.8764 7.45433 17.7841C12.4236 9.80721 20.9236 4.96875 30.2082 4.96875C35.3082 4.96875 40.2774 6.40721 44.5928 9.15337L41.1928 12.5534C37.9236 10.5918 34.1312 9.67644 30.2082 9.67644C22.362 9.67644 15.0389 13.8611 11.1159 20.6611C10.9851 20.7918 10.9851 20.9226 10.8543 21.0534L10.5928 21.4457C9.41587 23.7995 8.63125 26.2841 8.23894 28.8995V29.1611C8.10817 29.9457 8.10817 30.8611 8.10817 31.7764C8.10817 43.938 18.0466 53.8764 30.2082 53.8764C42.3697 53.8764 52.1774 43.938 52.1774 31.7764C52.1774 26.6764 50.4774 21.838 47.2082 17.9149L50.6082 14.6457C54.662 19.3534 56.8851 25.3687 56.8851 31.7764Z" fill="#1E386B"/>
<path d="M58.1913 3.923C58.1913 4.70762 57.9297 5.36146 57.4066 5.88454L24.0605 39.2307C23.0143 40.2768 21.3143 40.2768 20.2682 39.2307L9.80664 28.7692C9.80664 28.6384 9.80664 28.3768 9.93741 28.1153C9.93741 27.8538 10.0682 27.4615 10.0682 27.1999C10.0682 26.9384 10.1989 26.5461 10.3297 26.2845C10.4605 26.023 10.4605 25.6307 10.5913 25.3692C10.722 25.1076 10.722 24.8461 10.8528 24.5845C10.9836 24.323 11.1143 23.9307 11.2451 23.6692C11.3759 23.4076 11.5066 23.0153 11.6374 22.7538L22.2297 33.4768L41.4528 14.2538L46.6836 9.023L53.6143 2.09223C54.6605 1.04608 56.3605 1.04608 57.4066 2.09223C57.9297 2.61531 58.1913 3.26916 58.1913 3.923Z" fill="#F2B124"/>
<path d="M47.2074 17.7849L50.6074 14.5156L47.2074 17.7849ZM11.1151 20.7925L10.8535 21.1849C10.9843 21.0541 10.9843 20.9233 11.1151 20.7925Z" fill="#1F386B"/>
<path d="M6.01505 17.6537C5.75352 18.046 5.62275 18.3075 5.49198 18.6998C5.36121 18.9614 5.23044 19.0921 5.23044 19.3537C4.70736 20.3998 4.18429 21.5768 3.79198 22.7537L3.13813 22.0998C2.09198 21.0537 2.09198 19.3537 3.13813 18.3075C3.66121 17.7845 4.31505 17.5229 5.09967 17.5229C5.23044 17.3921 5.62275 17.5229 6.01505 17.6537Z" fill="#F2B124"/>
<path d="M60.2847 54.0074L53.2232 61.0689L45.5078 53.6151C45.6386 53.4843 45.9001 53.3535 46.0309 53.2228C46.4232 52.9612 46.8155 52.5689 47.2078 52.3074C47.6001 52.0458 47.9924 51.6535 48.254 51.2612L48.3847 51.1304L49.3001 50.2151C49.6924 49.8228 49.954 49.5612 50.3463 49.1689C51.0001 48.3843 51.654 47.5997 52.177 46.8151C52.3078 46.6843 52.4386 46.4228 52.5694 46.292L60.2847 54.0074Z" fill="#F2B124"/>
<path d="M75.1927 66.1693L65.2542 76.2386L51.5234 62.5078L52.4388 61.7232L60.8081 53.3539L61.5927 52.5693L75.1927 66.1693Z" fill="#1E386B"/>
<path d="M79.2461 72.0534C79.2461 73.2303 78.723 74.4073 77.9384 75.3226L74.4076 78.9842C72.5768 80.815 69.6999 80.815 67.9999 78.9842L67.8691 78.8534L77.9384 68.7842L78.0691 68.915C78.723 69.6996 79.2461 70.8765 79.2461 72.0534Z" fill="#1E386B"/>
<path d="M77.8075 68.6543L67.7383 78.7235L64.8613 75.7158L74.7998 65.7773L77.8075 68.6543Z" fill="#F2B124"/>
</svg>
