<svg width="18" height="18" viewBox="0 0 18 18" fill="none" xmlns="http://www.w3.org/2000/svg">
<path d="M5.66088 17.9997C7.04338 18.0114 8.41399 17.6848 9.6931 17.0392C10.9722 16.3935 12.1343 15.4415 13.1119 14.2384C14.0895 13.0353 14.8631 11.6052 15.3878 10.0311C15.9125 8.45701 16.1778 6.77028 16.1683 5.06893C16.1683 4.87202 16.1651 4.67614 16.1579 4.48133C16.8806 3.83776 17.5044 3.04089 18 2.12803C17.3263 2.49584 16.6113 2.73706 15.8794 2.84361C16.6504 2.27565 17.2275 1.38216 17.5031 0.329555C16.7783 0.858841 15.9852 1.23201 15.1584 1.43298C14.6016 0.70425 13.8652 0.221655 13.0631 0.0598899C12.2611 -0.101877 11.4381 0.0662069 10.7214 0.538125C10.0048 1.01004 9.43457 1.75948 9.09894 2.67046C8.76332 3.58143 8.68105 4.60313 8.86485 5.57746C7.39646 5.48714 5.95992 5.01772 4.64854 4.19969C3.33716 3.38167 2.18027 2.23332 1.25299 0.829256C0.780569 1.82971 0.635804 3.01415 0.848182 4.14135C1.06056 5.26856 1.6141 6.25375 2.39608 6.89627C1.80963 6.87431 1.23603 6.67941 0.723512 6.32795C0.72267 6.34694 0.72267 6.36594 0.72267 6.38595C0.722842 7.43527 1.01798 8.45221 1.55799 9.26425C2.098 10.0763 2.84965 10.6335 3.68543 10.8412C3.14169 11.0238 2.57116 11.0505 2.01772 10.9193C2.2536 11.8224 2.71297 12.6121 3.33155 13.1781C3.95013 13.744 4.69701 14.0579 5.46769 14.0758C4.15952 15.3394 2.54398 16.0247 0.880984 16.0215C0.586569 16.0216 0.292404 16.0005 0 15.9582C1.68864 17.2933 3.65382 18.002 5.66088 17.9997Z" fill="#1E386B"/>
</svg>
