<svg width="30" height="30" viewBox="0 0 30 30" fill="none" xmlns="http://www.w3.org/2000/svg">
<path d="M22.3849 9.27667C23.2771 9.27667 24.0003 8.55343 24.0003 7.66128C24.0003 6.76913 23.2771 6.0459 22.3849 6.0459C21.4928 6.0459 20.7695 6.76913 20.7695 7.66128C20.7695 8.55343 21.4928 9.27667 22.3849 9.27667Z" fill="white"/>
<path d="M15.1853 8.12305C11.4468 8.12305 8.35449 11.1692 8.35449 14.9538C8.35449 18.6923 11.4006 21.7846 15.1853 21.7846C18.9237 21.7846 22.016 18.7384 22.016 14.9538C21.9699 11.1692 18.9237 8.12305 15.1853 8.12305ZM15.1853 19.2923C12.7853 19.2923 10.8006 17.3538 10.8006 14.9077C10.8006 12.4615 12.7391 10.523 15.1853 10.523C17.5853 10.523 19.5699 12.4615 19.5699 14.9077C19.5699 17.3538 17.5853 19.2923 15.1853 19.2923Z" fill="white"/>
<path d="M20.5848 28.7997H9.50789C4.93866 28.7997 1.2002 25.0613 1.2002 20.492V9.41511C1.2002 4.84588 4.93866 1.10742 9.50789 1.10742H20.5848C25.154 1.10742 28.8925 4.84588 28.8925 9.41511V20.492C28.8925 25.0613 25.154 28.7997 20.5848 28.7997ZM9.50789 3.69204C6.36943 3.69204 3.83096 6.27665 3.83096 9.41511V20.492C3.83096 23.6305 6.41558 26.2151 9.55404 26.2151H20.631C23.7694 26.2151 26.354 23.6305 26.354 20.492V9.41511C26.3079 6.27665 23.7233 3.69204 20.5848 3.69204H9.50789Z" fill="white"/>
</svg>
