<svg width="65" height="65" viewBox="0 0 65 65" fill="none" xmlns="http://www.w3.org/2000/svg">
<path d="M40.7994 15.7989L41.0994 15.4989C38.4994 14.1989 35.5994 13.4989 32.5994 13.4989C21.9994 13.3989 13.3994 21.9989 13.3994 32.4989C13.3994 38.7989 16.4994 44.3989 21.1994 47.8989H23.5994C24.2994 47.8989 24.5994 48.6989 24.1994 49.1989L23.9994 49.4989C26.5994 50.7989 29.4994 51.4989 32.4994 51.4989C42.9994 51.4989 51.5994 42.9989 51.5994 32.3989C51.5994 26.0989 48.4994 20.4989 43.7994 16.9989H41.3994C40.6994 17.0989 40.2994 16.2989 40.7994 15.7989ZM47.4994 32.4989C47.4994 40.7989 40.7994 47.4989 32.4994 47.4989C24.1994 47.4989 17.4994 40.7989 17.4994 32.4989C17.4994 24.1989 24.1994 17.4989 32.4994 17.4989C40.7994 17.4989 47.4994 24.1989 47.4994 32.4989Z" fill="#F1B02A"/>
<path d="M19.0996 32.4996C19.0996 39.8996 25.0996 45.8996 32.4996 45.8996C39.8996 45.8996 45.8996 39.8996 45.8996 32.4996C45.8996 25.0996 39.8996 19.0996 32.4996 19.0996C25.0996 19.0996 19.0996 25.0996 19.0996 32.4996Z" fill="#F1B02A"/>
<path d="M17.5 32.5C17.5 40.8 24.2 47.5 32.5 47.5C40.8 47.5 47.5 40.8 47.5 32.5C47.5 24.2 40.8 17.5 32.5 17.5C24.2 17.5 17.5 24.2 17.5 32.5ZM45.9 32.5C45.9 39.9 39.9 45.9 32.5 45.9C25.1 45.9 19.1 39.9 19.1 32.5C19.1 25.1 25.1 19.1 32.5 19.1C39.9 19.1 45.9 25.1 45.9 32.5Z" fill="#FDF6E9"/>
<path d="M55.7993 0.69923C55.6993 -0.000769556 54.8993 -0.20077 54.3993 0.29923L49.9993 5.29923C37.9993 -2.60077 21.5993 -0.70077 11.7993 10.3992C10.3993 11.9992 10.4993 14.4992 12.0993 15.8992C13.6993 17.2992 16.1993 17.1992 17.5993 15.5992C24.4993 7.79923 35.8993 6.19923 44.5993 11.2992L40.9993 15.4992C41.8993 15.9992 42.7993 16.4992 43.6993 17.0992L57.0993 17.1992C57.5993 17.1992 57.8993 16.7992 57.8993 16.2992L55.7993 0.69923Z" fill="#1E386A"/>
<path d="M40.7993 15.8C40.3993 16.3 40.6993 17.1 41.3993 17.1H43.7993C42.8993 16.5 41.9993 16 40.9993 15.5L40.7993 15.8Z" fill="#1E386A"/>
<path d="M7.89961 47.7988C7.39961 47.7988 7.09961 48.1988 7.09961 48.6988L9.19961 64.2988C9.29961 64.9988 10.0996 65.1988 10.5996 64.6988L14.9996 59.6988C26.9996 67.5988 43.3996 65.6988 53.1996 54.5988C54.5996 52.9988 54.4996 50.4988 52.8996 49.0988C51.2996 47.6988 48.7996 47.7988 47.3996 49.3988C40.4996 57.1988 29.0996 58.7988 20.3996 53.6988L24.0996 49.4988C23.1996 48.9988 22.2996 48.4988 21.3996 47.8988L7.89961 47.7988Z" fill="#1E386A"/>
<path d="M23.6998 47.8984H21.2998C22.0998 48.4984 22.9998 49.0984 23.9998 49.4984L24.2998 49.1984C24.6998 48.6984 24.2998 47.8984 23.6998 47.8984Z" fill="#1E386A"/>
</svg>
