<svg width="65" height="65" viewBox="0 0 65 65" fill="none" xmlns="http://www.w3.org/2000/svg">
<path d="M4.3 10C1.9 10 0 12 0 14.3V21.8L11.8 10H4.3Z" fill="#1E386B"/>
<path d="M56.9004 21.9006V14.4006C56.9004 12.0006 55.0004 10.1006 52.6004 10.1006H40.9004L47.7004 21.9006H56.9004Z" fill="#1E386B"/>
<path d="M35 42.0004V44.6004C35 47.7004 37.9 50.2004 41.5 50.2004H62.3C62.4 50.2004 62.6 50.2004 62.7 50.2004V60.9004C62.7 62.9004 60.8 64.6004 58.4 64.6004H4.3C2.7 64.6004 1.3 63.8004 0.6 62.7004C0.2 62.2004 0 61.6004 0 61.0004V21.9004H58.4C60.8 21.9004 62.7 23.6004 62.7 25.6004V36.3004C62.6 36.3004 62.4 36.3004 62.3 36.3004H41.5C41.4 36.3004 41.4 36.3004 41.3 36.3004C39 36.3004 37.1 37.4004 36 39.0004C35.4 39.9004 35 40.9004 35 42.0004Z" fill="#1E386B"/>
<path d="M64.9 38.6008V47.9008C64.9 49.1008 63.9 50.0008 62.6 50.2008C62.5 50.2008 62.3 50.2008 62.2 50.2008H41.5C37.9 50.2008 35 47.7008 35 44.6008V42.0008C35 40.9008 35.4 39.9008 36 39.0008C37.1 37.4008 39.1 36.4008 41.3 36.3008C41.4 36.3008 41.4 36.3008 41.5 36.3008H62.3C62.4 36.3008 62.6 36.3008 62.7 36.3008C64 36.5008 64.9 37.5008 64.9 38.6008Z" fill="#F2B124"/>
<path d="M23.2 10.0004L28.2 7.20039L21.4 0.400391L11.8 10.0004L0 21.9004H2.7L23.2 10.0004Z" fill="#F2B124"/>
<path d="M2.69922 21.9004H47.6992L40.8992 10.0004L36.4992 2.40039L28.1992 7.20039L23.1992 10.0004L2.69922 21.9004Z" fill="#FEF7EA"/>
</svg>
