<svg width="120" height="120" viewBox="0 0 120 120" fill="none" xmlns="http://www.w3.org/2000/svg">
<path d="M59.9992 118.799C92.4736 118.799 118.799 92.4736 118.799 59.9992C118.799 27.5249 92.4736 1.19922 59.9992 1.19922C27.5249 1.19922 1.19922 27.5249 1.19922 59.9992C1.19922 92.4736 27.5249 118.799 59.9992 118.799Z" fill="#1F386B"/>
<path d="M100.081 34.9195L97.3207 31.9195L95.4007 29.8795C93.6007 27.9595 90.7207 27.9595 88.9207 29.8795L48.4807 73.3194L30.4807 53.8795C28.6807 51.9595 25.8007 51.9595 24.0007 53.8795L21.7207 56.2795L19.3207 58.9195C17.5207 60.8395 17.5207 64.0795 19.3207 65.9995L45.2407 93.9594C46.8007 95.6395 49.3207 95.8795 51.0007 94.5594C51.2407 94.3195 51.6007 94.0794 51.8407 93.8394L100.081 41.9995C101.881 40.0795 101.881 36.9595 100.081 34.9195Z" fill="#F1B121"/>
</svg>
