<svg width="85" height="85" viewBox="0 0 85 85" fill="none" xmlns="http://www.w3.org/2000/svg">
<path d="M75.9784 41.585C75.8477 41.7157 75.8477 41.8465 75.7169 41.9773C75.5861 42.108 75.5861 42.2388 75.3246 42.3696C75.1938 42.3696 75.0631 42.5004 74.9323 42.5004C74.54 42.6311 74.1477 42.7619 73.7554 43.4157C73.3631 43.9388 72.9708 44.4619 72.4477 44.985C72.4477 44.985 72.3169 44.985 72.3169 45.1157C72.3169 45.1157 72.1861 44.985 72.1861 44.8542L71.9246 44.4619C71.6631 44.2003 71.6631 43.9388 71.6631 43.6773C71.6631 43.285 71.6631 42.8927 71.2708 42.7619C71.0092 42.6311 70.8784 42.6311 70.7477 42.6311C70.7477 42.3696 70.8784 41.9773 70.8784 41.585C71.14 40.408 70.6169 39.7542 69.5708 39.3619H69.44C69.3092 39.3619 69.0477 39.2311 68.9169 39.2311C67.3477 26.1542 56.1015 15.9542 42.5015 15.9542C30.2092 15.9542 19.8785 24.3234 16.8708 35.5696C16.74 35.4388 16.4785 35.4388 16.2169 35.4388H16.0861C15.9554 34.785 15.6938 34.5234 15.4323 34.5234C15.3015 34.3927 15.04 34.3927 14.6477 34.5234C14.2554 34.0003 13.9938 33.7388 13.34 33.3465C12.9477 32.9542 12.4246 32.8234 11.9015 33.085C11.7708 32.6927 11.64 32.4311 11.2477 32.3004C11.2477 32.3004 11.2477 32.3004 11.1169 32.3004C10.8554 32.1696 10.8554 32.1696 10.7246 32.0388V31.908C15.1708 18.7003 27.7246 9.1542 42.5015 9.1542C60.6784 9.02343 75.4554 23.5388 75.9784 41.585Z" fill="#F2B124"/>
<path d="M74.6698 49.3005C74.539 49.3005 74.539 49.3005 74.6698 49.3005C73.8852 48.9082 73.3621 48.6467 72.839 48.6467C72.0544 48.6467 71.2698 48.3851 70.7467 47.7313C70.0928 47.862 69.7005 47.7313 69.3082 47.339C69.1775 47.2082 69.0467 47.0774 68.9159 46.9467C68.7852 47.0774 68.7852 47.2082 68.6544 47.2082C68.2621 49.562 67.4775 51.6543 66.5621 53.7466C66.6929 53.8774 66.8236 53.8774 66.8236 54.0082L67.0852 54.139H67.2159V54.5313C67.2159 55.0543 66.9544 55.4467 66.5621 55.5774C66.4313 55.7082 66.3005 55.7082 66.1698 55.7082C66.039 55.7082 65.9082 55.839 65.6467 55.839C65.5159 55.839 65.3852 55.839 65.3852 55.839C60.6775 63.5543 52.3082 68.6543 42.6313 68.6543C30.339 68.6543 20.0082 60.2851 17.0005 48.9082C16.8698 48.7774 16.739 48.7774 16.6082 48.6467L16.2159 48.3851C15.8236 48.1236 15.3005 47.862 14.9082 47.4697C14.5159 47.2082 14.2544 46.8159 14.1236 46.4236L13.9928 46.162C13.8621 46.0313 13.8621 45.9005 13.7313 45.7697C13.0775 45.3774 12.8159 44.8543 12.4236 44.462C12.1621 44.2005 11.9005 43.8082 11.639 43.6774C11.3775 43.4159 10.7236 42.8928 10.9852 42.1082V41.9774C10.7236 41.3236 10.3313 40.6697 9.939 39.8851C9.80823 39.6236 9.54669 39.2313 9.41593 38.9697C9.28516 40.0159 9.28516 41.062 9.28516 42.1082C9.28516 60.5467 24.3236 75.5851 42.7621 75.5851C58.8467 75.5851 72.1852 64.2082 75.4544 49.1697C75.0621 49.4313 74.8005 49.4313 74.6698 49.3005ZM70.6159 53.4851C70.6159 53.6159 70.6159 53.7467 70.4852 54.0082C70.3544 54.4005 70.3544 54.662 70.0928 54.9236C69.7005 55.4467 69.3082 55.7082 68.9159 55.7082H68.7852H68.3928L68.2621 55.5774C68.1313 55.5774 67.8698 55.7082 67.6082 55.4467C67.3467 55.3159 67.0852 54.9236 67.0852 54.662C67.0852 54.5313 67.0852 54.2697 67.0852 54.139C67.0852 54.0082 67.2159 54.0082 67.2159 53.8774L67.3467 53.6159C67.739 52.962 68.1313 52.439 68.5236 51.9159C68.7852 51.6543 69.0467 51.5236 69.3082 51.3928H69.439C69.8313 51.262 70.3544 51.3928 70.4852 51.7851C71.0082 52.1774 70.8775 52.7005 70.6159 53.4851Z" fill="#F2B124"/>
<path d="M48.9092 36.6158C48.6476 36.7465 48.3861 36.7465 48.1245 36.8773C47.863 36.8773 47.4707 36.8773 47.2092 36.7465C47.2092 37.2696 46.8168 36.8773 46.6861 37.1388C46.5553 37.5311 46.2938 38.0542 46.163 38.4465C46.163 38.7081 46.163 38.9696 46.163 39.2311C46.2938 39.885 46.163 40.4081 45.3784 40.6696C45.1168 40.8004 44.8553 41.1927 44.5938 41.4542C44.3322 41.7158 43.9399 41.9773 43.8092 42.2388C43.6784 42.5004 44.0707 42.8927 44.2015 43.1542C44.3322 43.4158 44.2015 43.5465 43.9399 43.8081C43.4168 44.2004 43.1553 44.7235 43.6784 45.3773C44.0707 46.0311 43.5476 46.5542 43.1553 47.0773C43.1553 47.0773 42.8938 47.0773 42.763 46.9465C42.6322 46.8158 42.6322 46.685 42.6322 46.5542C42.6322 46.2927 42.5015 46.2927 42.2399 46.4235C41.7168 46.685 41.063 46.9465 40.4092 47.0773C39.8861 47.2081 39.7553 47.2081 39.6245 46.685C39.6245 46.5542 39.6245 46.4235 39.6245 46.2927C39.4938 46.0311 39.2322 45.7696 39.1015 45.7696C38.3168 45.9004 37.663 45.3773 37.1399 45.1158C36.8784 44.985 36.7476 44.985 36.4861 45.1158C36.0938 45.5081 35.7015 45.7696 35.0476 45.3773C34.9168 45.3773 34.7861 45.3773 34.6553 45.3773C34.0015 45.5081 34.0015 45.6388 33.8707 44.985C33.7399 44.7235 33.7399 44.5927 33.3476 44.5927C33.0861 44.5927 32.6938 44.4619 32.563 44.5927C31.9092 44.985 31.3861 44.3311 30.863 44.3311C30.863 44.3311 30.7322 44.2004 30.7322 44.0696C30.6015 43.4158 30.6015 42.6311 30.4707 41.9773C30.4707 41.8465 30.4707 41.8465 30.4707 41.7158C30.3399 41.4542 30.9938 41.0619 30.4707 40.8004C30.2092 40.6696 29.8168 40.8004 29.5553 40.9311C29.4245 40.9311 29.2938 40.9311 29.2938 40.8004C29.0322 40.0158 28.6399 39.2311 28.7707 38.3158C28.7707 38.0542 28.7707 37.7927 28.6399 37.6619C28.1168 37.0081 28.2476 36.2235 28.6399 35.5696C28.9015 35.0465 29.163 34.6542 29.5553 34.1311C29.8168 33.8696 30.0784 33.8696 30.3399 34.2619C30.6015 34.6542 30.7322 34.9158 30.9938 35.3081C31.5168 35.9619 32.0399 36.6158 32.9553 36.0927C33.2168 35.9619 33.6092 36.0927 33.8707 36.0927C34.5245 36.0927 34.9168 35.9619 35.4399 35.4388C36.2245 34.6542 36.6168 34.5234 37.4015 35.1773C38.1861 35.7004 38.9707 35.3081 39.6245 35.1773C39.7553 35.1773 40.0168 34.9158 40.1476 34.6542C40.4092 34.0004 41.063 33.6081 40.9322 32.8235C40.9322 32.5619 41.3245 32.3004 41.4553 32.0388C41.8476 31.6465 42.1092 31.2542 42.1092 30.6004C42.1092 30.4696 42.1092 30.3388 42.2399 30.0773C42.6322 28.9004 42.763 28.6388 44.2015 28.9004C44.3322 28.9004 44.5938 28.9004 44.7245 28.9004C45.3784 28.6388 46.0322 28.7696 46.5553 29.0311C47.0784 29.2927 47.0784 29.685 46.8168 30.2081C46.8168 30.3388 46.8168 30.4696 46.6861 30.6004C46.2938 31.1234 46.2938 31.385 46.8168 31.9081C47.2092 32.3004 47.3399 32.8234 47.4707 33.3465C47.4707 33.3465 47.3399 33.4773 47.2092 33.4773C47.0784 33.4773 46.9476 33.6081 47.0784 33.7388C47.3399 34.0004 47.6015 34.3927 47.863 34.6542C48.2553 34.9158 48.6476 35.1773 49.0399 35.4388C49.1707 36.2235 49.1707 36.485 48.9092 36.6158Z" fill="#1E386B"/>
<path d="M23.67 44.0697C23.4085 44.3313 24.1931 44.8544 23.5393 44.9851C23.2777 44.9851 22.8854 44.7236 22.6239 44.4621C22.2316 44.3313 22.1008 44.3313 22.3623 44.7236C22.3623 44.8544 22.3623 45.1159 22.2316 45.2467C21.8393 45.639 22.2316 46.1621 21.97 46.5544C21.7085 46.9467 21.7085 47.339 21.8393 47.8621C21.97 48.6467 21.7085 49.5621 21.447 50.3467C21.447 50.6082 21.3162 50.6082 21.0546 50.4774C20.6623 50.2159 20.4008 50.0851 20.1393 50.6082C20.1393 50.6082 19.8777 50.6082 19.747 50.4774C19.4854 50.4774 19.3546 50.3467 19.0931 50.2159C19.0931 50.3467 19.2239 50.6082 19.2239 50.739C19.2239 50.739 19.2239 50.8697 19.2239 51.0005C19.0931 51.0005 18.9623 51.0005 18.9623 50.8698C18.7008 50.4774 18.3085 50.2159 18.1777 49.8236C18.047 49.4313 17.7854 49.1698 17.3931 48.9082C17.2623 48.7774 17.0008 48.6467 16.7393 48.5159C16.7393 48.5159 16.6085 48.3851 16.4777 48.3851C16.2162 48.2544 15.9546 48.1236 15.6931 47.8621C15.4316 47.7313 15.17 47.6005 15.0393 47.339C14.647 47.0774 14.3854 46.5544 14.1239 46.1621C13.9931 46.0313 13.9931 45.639 13.8623 45.5082C12.947 44.9851 12.5546 44.0697 11.77 43.4159C11.5085 43.1544 11.1162 42.8928 11.3777 42.3697C11.3777 42.239 11.3777 42.1082 11.247 41.9774C10.9854 41.0621 10.4623 40.1467 9.80849 39.2313C9.67772 38.9697 9.41618 38.7082 9.28541 38.4467L9.15464 38.3159C9.02388 38.1851 8.89311 38.1851 8.76234 38.0544C8.23926 37.5313 7.97772 36.8774 7.84695 36.0928C7.84695 35.8313 7.71618 35.5697 7.58541 35.3082C7.32388 34.6544 6.93157 34.1313 6.27772 34.0005C5.88541 33.8697 5.49311 33.6082 5.36234 33.0851C5.1008 32.3005 4.44695 31.6467 4.05464 30.9928L3.92388 30.8621C2.61618 30.6005 2.22388 29.4236 1.43926 28.7697C1.17772 28.5082 1.04695 28.1159 0.916183 27.7236C0.785414 27.4621 0.523875 27.0697 0.916183 26.939C1.17772 26.8082 1.57003 26.939 1.83157 26.939C1.96234 26.939 2.09311 27.0697 2.09311 27.0697C2.87772 27.4621 3.79311 27.7236 4.70849 27.5928C5.62387 27.4621 6.14695 27.8544 6.53926 28.639C6.67003 29.0313 7.19311 29.2928 7.32387 29.8159C7.32387 29.9467 7.58541 30.0774 7.71618 30.2082C8.5008 30.7313 9.28541 31.3851 10.07 31.9082L10.2008 32.039C10.3316 32.039 10.3316 32.1697 10.3316 32.1697C10.3316 32.4313 10.4623 32.5621 10.5931 32.6928C10.7239 32.8236 10.8546 32.9544 11.1162 32.9544C11.1162 32.9544 11.1162 32.9544 11.247 33.0851C11.3777 33.2159 11.5085 33.3467 11.5085 33.6082C11.6393 33.8697 11.77 34.0005 12.0316 33.739C12.2931 33.4774 12.6854 33.6082 12.947 33.8697L13.0777 34.0005C13.7316 34.3928 13.9931 34.5236 14.2546 35.0467C14.3854 35.3082 14.5162 35.3082 14.7777 35.1774C15.17 34.9159 15.4316 35.1774 15.5623 35.5697C15.5623 35.9621 15.6931 36.2236 16.2162 36.2236H16.347C16.4777 36.2236 16.6085 36.3544 16.87 36.3544C17.0008 36.4851 17.1316 36.4851 17.3931 36.3544H17.5239C17.6546 36.4851 17.7854 36.8774 17.7854 36.8774C17.3931 37.139 17.5239 37.2697 17.7854 37.5313C17.9162 37.6621 18.1777 37.9236 18.3085 38.0544V38.3159C17.9162 38.5774 18.1777 38.9697 17.9162 39.2313C17.7854 39.3621 17.6546 39.4928 17.5239 39.6236C17.5239 39.7544 17.5239 40.0159 17.6546 40.1467C18.047 40.4082 18.4393 40.539 18.8316 40.539C19.4854 40.539 19.6162 40.6697 19.4854 41.1928C19.3546 42.1082 20.27 42.239 20.4008 43.0236C20.4008 43.1544 20.6623 43.1544 20.7931 43.1544C21.1854 43.1544 21.447 43.2851 21.5777 43.6774C21.5777 43.8082 21.8393 43.8082 21.97 43.8082C21.97 43.6774 22.1008 43.5467 22.1008 43.4159C21.97 42.8928 21.8393 42.7621 21.1854 42.7621C20.9239 42.7621 20.7931 42.7621 20.5316 42.7621L20.4008 42.6313C20.6623 42.3697 20.9239 41.9774 21.3162 41.7159C21.447 41.5851 21.7085 41.5851 21.97 41.5851C22.3623 41.5851 22.7546 41.7159 22.7546 42.239C22.7546 43.0236 23.0162 43.4159 23.8008 43.6774C23.9316 43.6774 24.0623 43.8082 24.0623 43.939C24.0623 44.0697 23.67 43.939 23.67 44.0697Z" fill="#1E386B"/>
<path d="M84.3479 55.577C84.4786 56.3617 84.3479 57.277 84.3479 58.1924C83.5633 57.4078 83.0402 56.8847 82.3863 56.2309C82.1248 55.9694 81.8632 55.8386 81.4709 55.9694C81.0786 55.9694 80.8171 56.2309 80.4248 55.9694C80.4248 55.9694 80.0325 55.9694 80.0325 56.1001C79.2479 57.0155 78.2017 56.4924 77.2863 56.6232C77.2863 56.6232 77.1556 56.4924 77.1556 56.3617C77.5479 55.8386 77.8094 55.1847 78.2017 54.6617C78.3325 54.4001 78.594 54.4001 78.8556 54.2694C79.3786 54.1386 79.2479 54.1386 79.2479 53.4847C79.1171 52.3078 78.4632 51.3924 77.9402 50.477C77.5479 49.8232 76.894 49.3001 75.9786 49.1693H75.8479C75.5863 49.1693 75.4556 49.0386 75.194 48.9078C75.0633 48.777 74.8017 48.777 74.6709 48.6463C74.0171 48.3847 73.3632 47.9924 72.7094 47.9924C72.0556 47.9924 71.5325 47.7309 71.1402 47.3386C71.0094 47.2078 70.8786 47.077 70.7479 47.077C70.094 47.3386 69.7017 47.077 69.3094 46.6847C69.1786 46.554 69.0479 46.4232 68.9171 46.2924C68.7863 46.1617 68.7863 46.1617 68.6556 46.1617C68.5248 46.1617 68.394 46.1617 68.394 46.4232C68.394 46.554 68.2633 46.6847 68.2633 46.6847C68.1325 46.8155 68.0017 46.9463 67.8709 47.077C67.7402 47.2078 67.4786 47.2078 67.3479 47.2078C67.0863 47.2078 66.8248 46.6847 66.8248 46.2924C66.9556 45.377 66.694 45.1155 65.7786 44.854C65.5171 44.7232 65.2556 44.7232 65.3863 44.4617C65.5171 44.2001 65.9094 43.9386 65.9094 44.0694C66.5633 44.4617 67.0863 44.2001 67.6094 43.677C67.8709 43.4155 68.1325 43.5463 68.2633 43.677C68.2633 43.5463 68.2633 43.4155 68.2633 43.2847C68.1325 43.2847 67.8709 43.2847 67.7402 43.2847C67.6094 43.2847 67.4786 43.4155 67.3479 43.4155C66.0402 43.5463 65.6479 43.677 64.994 42.3694C64.8633 41.977 64.6017 41.8463 64.2094 41.8463C63.294 41.977 62.7709 41.7155 62.3786 40.9309C62.3786 40.8001 62.2479 40.8001 62.1171 40.6694C62.1171 40.6694 61.9863 40.5386 61.9863 40.4078C61.9863 40.277 62.1171 40.1463 62.2479 40.1463C62.3786 40.1463 62.6402 40.0155 62.9017 40.1463C63.8171 40.5386 64.6017 40.1463 65.3863 39.6232C66.3017 38.9694 67.0863 38.9694 67.8709 39.6232C68.0017 39.6232 68.0017 39.754 68.1325 39.754C68.394 39.8847 68.5248 39.8847 68.7863 40.0155C68.9171 40.0155 68.9171 40.0155 69.0479 40.1463C69.1786 40.1463 69.3094 40.277 69.4402 40.277C70.094 40.5386 70.2248 40.9309 70.094 41.7155C69.9632 42.2386 69.9632 42.7617 69.9632 43.4155C69.9632 43.9386 70.094 43.9386 70.4863 43.677C70.7479 43.5463 70.8786 43.4155 70.8786 43.8078C70.7479 44.3309 71.1402 44.7232 71.4017 45.2463C71.794 45.9001 72.0556 46.1617 72.7094 45.6386C73.2325 45.1155 73.7556 44.5924 74.1479 43.9386C74.4094 43.5463 74.6709 43.4155 74.9325 43.4155C74.9325 43.4155 75.0633 43.4155 75.194 43.2847C75.4556 43.2847 75.7171 43.154 75.8479 43.0232C75.9786 42.8924 76.1094 42.7617 76.2402 42.5001C76.3709 42.3694 76.3709 42.2386 76.5017 42.1078C76.894 41.8463 77.4171 41.8463 77.9402 41.977C78.7248 42.2386 79.3786 42.5001 80.0325 42.8924C80.8171 43.4155 81.6017 43.8078 82.5171 43.8078C82.9094 43.8078 83.1709 43.9386 83.5633 44.0694C83.8248 44.2001 83.9556 44.3309 83.9556 44.7232C83.9556 45.6386 83.9556 46.554 83.9556 47.4694C83.9556 48.254 84.0863 49.1694 84.0863 49.954C84.0863 50.3463 84.2171 50.8694 84.0863 51.2617C84.0863 52.5694 84.0863 54.1386 84.3479 55.577Z" fill="#1E386B"/>
<path d="M61.8538 35.5699C61.3307 36.2237 60.9384 37.0083 60.2845 37.5314C59.8922 37.7929 59.2384 37.9237 58.7153 38.0545C58.1922 37.9237 57.6692 37.7929 57.2768 37.7929C57.1461 37.7929 57.0153 37.7929 56.7538 37.7929C55.1845 37.7929 53.7461 37.7929 52.1769 37.7929C51.7845 37.7929 51.523 38.0545 51.3922 38.4468C51.1307 39.3622 50.9999 40.1468 52.0461 40.8006C52.3076 41.0622 52.3076 41.716 52.8307 41.4545C53.0922 41.3237 53.3538 41.0622 53.6153 40.8006C53.7461 40.6699 54.1384 40.4083 54.2692 40.5391C55.1845 40.9314 55.9692 40.1468 56.7538 40.016C56.8845 40.016 57.1461 39.8852 57.2768 39.7545C57.9307 39.6237 58.323 40.016 58.0615 40.6699C57.9307 40.9314 57.9307 41.0622 58.1922 41.3237C58.323 41.4545 58.323 41.8468 58.323 42.1083C58.323 42.3699 58.1922 42.5006 57.9307 42.3699C57.7999 42.1083 57.5384 41.8468 57.2768 41.8468C57.0153 41.8468 56.8845 41.8468 56.8845 41.5852C56.8845 41.3237 56.7538 41.0622 57.1461 40.9314C57.2769 40.9314 57.4076 40.8006 57.5384 40.8006L57.6692 40.6699C57.6692 40.6699 57.5384 40.5391 57.4076 40.5391C57.1461 40.5391 56.7538 40.6699 56.623 40.8006C56.2307 41.5852 55.4461 41.9776 54.6615 42.3699C54.1384 42.6314 54.2692 42.7622 54.5307 43.1545C54.923 43.6776 55.4461 44.0699 55.7076 44.5929C55.8384 44.8545 55.8384 45.116 55.8384 45.3776C55.8384 45.7699 55.9692 46.0314 56.0999 46.4237C56.3615 46.9468 56.3615 46.9468 57.0153 46.816C57.4076 46.6852 57.6692 46.9468 57.5384 47.3391C57.4076 47.7314 57.4076 47.8622 57.5384 48.2545C57.5384 48.3853 57.5384 48.9083 57.4076 48.9083C57.0153 49.0391 57.1461 49.1699 57.4076 49.4314C57.7999 49.6929 57.5384 49.9545 57.2768 50.216C57.1461 50.3468 57.0153 50.3468 56.8845 50.4776C56.623 50.6083 56.3615 50.8699 56.0999 51.0006C56.0999 51.0006 55.4461 49.8237 55.4461 49.6929C55.4461 49.1699 55.5769 48.7776 56.0999 48.3853C56.2307 48.2545 56.2307 48.1237 55.9692 48.1237C55.5768 48.1237 55.1845 48.1237 55.3153 48.6468C55.3153 49.0391 55.0538 49.0391 54.7922 49.0391C54.1384 48.9083 53.7461 48.3853 54.0076 47.7314C54.2692 47.2083 54.0076 47.0776 53.6153 46.9468C53.4845 46.816 53.223 46.816 53.0922 46.6853C52.6999 46.4237 52.5692 46.1622 52.6999 45.7699C52.6999 45.6391 52.8307 45.3776 52.8307 45.2468C52.8307 44.9852 52.8307 44.5929 52.6999 44.3314C52.4384 44.4622 52.1769 44.4622 51.9153 44.5929C51.6538 44.7237 51.3922 45.116 51.6538 45.3776C51.9153 45.9006 51.9153 46.4237 51.7845 46.816C51.523 47.3391 51.9153 47.8622 51.7845 48.516C51.6538 49.0391 51.6538 49.5622 51.9153 50.216C52.0461 50.4776 52.0461 50.7391 51.6538 50.7391C51.2615 50.7391 50.9999 50.8699 50.6076 51.0006C49.823 51.1314 49.4307 50.7391 49.5615 49.9545C49.6922 49.1699 49.823 48.3853 49.9538 47.6006C49.9538 47.3391 49.9538 47.0776 49.823 46.816C49.823 46.2929 49.6922 46.0314 49.0384 46.4237C48.7768 46.5545 48.3845 46.4237 48.3845 46.1622C48.2538 45.5083 48.123 44.8545 48.6461 44.3314C49.2999 43.8083 49.4307 42.8929 49.5615 42.2391C49.6922 41.8468 49.5615 41.3237 49.823 41.0622C50.4768 40.2776 50.6076 39.3622 50.7384 38.5776C50.8692 37.9237 51.2615 37.4006 51.523 36.8776C51.523 36.8776 51.7845 36.7468 51.9153 36.8776C52.1769 37.1391 52.3076 37.1391 52.4384 36.7468C52.8307 35.8314 52.9615 35.8314 53.8769 36.2237C55.5769 36.8776 57.4076 37.0083 59.2384 37.0083C59.7615 37.0083 60.023 36.616 60.4153 36.3545C60.6769 36.0929 60.9384 35.7006 61.1999 35.5699C61.4615 35.3083 61.723 35.3083 61.9845 35.5699C62.1153 35.1776 62.1153 35.3083 61.8538 35.5699Z" fill="#1E386B"/>
<path d="M43.286 56.362C43.1552 56.4928 43.0245 56.6236 42.8937 56.7544L42.6321 56.8851C42.3706 57.0159 41.9783 56.8851 41.7168 56.7544C41.586 56.6236 41.3245 56.6236 41.1937 56.4928C41.0629 56.4928 41.0629 56.4928 40.9321 56.4928C40.9321 56.4928 40.9321 56.6236 40.9321 56.7544C40.9321 56.8851 40.9321 57.0159 41.0629 57.1467C40.9321 57.1467 40.8014 57.1467 40.6706 57.1467C39.4937 56.7544 38.186 56.362 36.8783 56.2313C35.9629 56.1005 35.0475 56.4928 34.1321 56.1005C33.3475 55.7082 32.4321 55.5774 31.5168 55.3159C30.8629 55.0543 29.2937 54.9236 28.2475 55.0543C27.7245 55.1851 27.2014 54.9236 26.8091 54.7928C26.1552 54.5313 25.3706 54.2697 24.586 54.4005C24.0629 54.4005 24.0629 54.2697 24.0629 53.6159C24.0629 53.4851 23.9321 53.2236 23.9321 53.2236C23.4091 53.0928 23.0168 52.8313 22.3629 52.962C22.2322 52.962 22.1014 53.0928 22.1014 53.0928C21.9706 53.0928 21.8398 52.962 21.8398 52.8313C21.8398 52.8313 21.8398 52.5697 21.9706 52.5697C22.6245 52.439 22.886 51.9159 23.1475 51.5236C23.5398 51.0005 23.9321 50.739 24.7168 51.1313C24.9783 51.262 25.5014 51.5236 25.8937 51.262C26.0245 51.262 26.286 51.262 26.286 51.262C26.6783 51.7851 27.2014 51.6543 27.5937 51.7851C28.1168 51.9159 28.6398 52.0467 28.9014 52.439C29.1629 52.8313 29.5552 52.8313 29.9475 52.8313C30.6014 52.8313 31.1245 52.962 31.6475 53.0928C32.1706 53.0928 32.5629 53.0928 32.8245 52.5697C33.086 52.0467 33.2168 52.0467 33.8706 52.3082C34.1321 52.439 34.5245 52.5697 34.9168 52.5697C35.3091 52.5697 35.5706 52.5697 35.9629 52.8313C36.0937 52.962 36.3552 52.962 36.6168 53.0928C37.6629 53.2236 38.8398 53.2236 40.0168 53.3543C40.1475 53.3543 40.1475 53.4851 40.2783 53.4851L40.1475 53.6159C39.3629 54.0082 38.7091 54.4005 37.7937 54.139C37.7937 54.139 37.6629 54.139 37.5322 54.2697C37.5322 54.4005 37.6629 54.5313 37.6629 54.5313C38.0552 54.662 38.5783 54.662 39.1014 54.7928C39.1014 54.7928 39.1014 54.7928 39.1014 54.662C39.3629 54.662 39.7552 54.662 40.0168 54.662C40.2783 54.7928 40.6706 54.9236 40.8014 55.1851C40.9321 55.839 41.4552 55.7082 41.8475 55.7082C42.3706 55.5774 42.8937 55.7082 43.286 56.1005C43.286 55.9697 43.286 56.2313 43.286 56.362Z" fill="#1E386B"/>
<path d="M63.0323 56.2311C63.0323 56.3619 63.0323 56.3619 62.9015 56.4926C62.3784 56.6234 61.8554 56.7542 61.4631 56.8849C61.0708 56.7542 60.6784 56.7542 60.2861 56.7542C60.1554 56.7542 59.8938 56.7542 59.7631 56.7542C58.3246 56.8849 57.1477 57.408 55.7092 57.5388C54.5323 57.5388 53.4861 57.408 52.3092 57.408C51.9169 57.408 51.6554 57.408 51.3938 57.1465C51.3938 57.1465 51.2631 57.1465 51.2631 57.0157C51.1323 56.8849 51.0015 56.8849 51.1323 56.6234H51.2631C51.3938 56.6234 51.5246 56.6234 51.6554 56.6234C51.9169 56.4926 52.1784 56.3619 52.44 56.2311C53.0938 55.708 53.6169 55.5772 54.2708 56.1003C54.9246 56.4926 55.5784 56.4926 56.2323 56.4926C57.1477 56.4926 57.9323 56.4926 58.8477 55.9695C59.1092 55.8388 59.5015 55.8388 59.8938 55.708C60.6784 55.708 61.4631 55.708 62.2477 55.708C62.5092 55.708 62.9015 55.8388 63.1631 55.9695C62.9015 55.9695 63.0323 56.1003 63.0323 56.2311C63.0323 56.1003 63.0323 56.2311 63.0323 56.2311Z" fill="#1E386B"/>
<path d="M50.6084 56.8853C50.6084 57.0161 50.6084 57.0161 50.4776 57.1469C50.3469 57.2777 50.2161 57.2777 50.0853 57.4084C49.9546 57.5392 49.8238 57.4084 49.8238 57.4084C49.5623 57.4084 49.3007 57.4084 49.3007 57.4084C48.7776 56.8853 48.3853 57.2777 47.993 57.4084C47.0776 57.8007 46.293 58.0623 45.5084 57.2776C45.3776 57.1469 45.1161 57.2776 44.9853 57.2776C44.593 57.2776 44.2007 57.67 43.6776 57.2776C43.5469 57.2776 43.5469 57.1469 43.5469 57.0161C44.2007 56.8853 43.8084 56.2315 44.2007 55.8392C44.593 55.4469 45.1161 55.4469 45.3776 55.8392C45.6392 56.3623 45.9007 56.2315 46.293 56.1007C46.8161 55.97 47.0776 55.3161 47.7315 55.4469C48.2546 55.5777 48.7776 55.5776 49.3007 55.7084C49.5623 55.7084 49.9546 55.8392 50.2161 56.1007L50.3469 56.2315C50.4776 56.6238 50.6084 56.7546 50.6084 56.8853Z" fill="#1E386B"/>
<path d="M69.9619 53.3544C69.9619 53.3544 69.9619 53.6159 69.8311 53.8775C69.8311 54.139 69.7003 54.4005 69.5696 54.5313C69.1773 55.0544 68.9157 55.1852 68.785 54.9236C68.5234 54.2698 68.2619 54.9236 68.0003 54.7929C67.7388 54.6621 67.608 54.2698 67.7388 54.139C68.1311 53.4852 68.5234 52.8313 69.0465 52.1775C69.1773 52.0467 69.4388 51.9159 69.7003 51.7852C69.7003 51.7852 69.9619 51.7852 69.9619 51.9159C70.3542 52.3082 70.3542 52.5698 69.9619 53.3544Z" fill="#1E386B"/>
<path d="M66.432 54.7929C66.432 55.316 66.0397 55.5775 65.6474 55.5775C65.5166 55.5775 65.5166 55.5775 65.3858 55.5775C65.255 55.5775 65.1243 55.5775 64.9935 55.5775C64.8627 55.5775 64.8627 55.5775 64.732 55.5775C64.4704 55.5775 64.3397 55.5775 64.0781 55.5775C64.2089 55.316 64.3397 54.9236 64.4704 54.9236C64.732 54.7929 65.1243 54.7929 65.5166 54.6621C65.7781 54.6621 65.9089 54.6621 66.1704 54.6621H66.3012L66.432 54.7929Z" fill="#1E386B"/>
</svg>
