<svg width="30" height="30" viewBox="0 0 30 30" fill="none" xmlns="http://www.w3.org/2000/svg">
<path d="M28.7996 6.0928C27.9227 6.50819 26.9535 6.73896 25.9842 6.87742C26.4458 6.78511 27.0919 6.0005 27.3689 5.67742C27.7842 5.16973 28.1073 4.61588 28.2919 3.96973C28.3381 3.92357 28.3381 3.87742 28.2919 3.83127C28.2458 3.78511 28.1996 3.83127 28.1535 3.83127C27.0919 4.38511 25.9842 4.8005 24.8304 5.12357C24.7381 5.16973 24.6458 5.12357 24.5996 5.07742C24.5073 4.98511 24.415 4.84665 24.3227 4.8005C23.815 4.38511 23.3073 4.06203 22.7073 3.83127C21.9227 3.50819 21.0919 3.36973 20.2612 3.41588C19.4304 3.46203 18.6458 3.6928 17.9073 4.06203C17.1689 4.43126 16.5227 4.98511 16.015 5.58511C15.4612 6.23127 15.0919 7.01588 14.9073 7.84665C14.7227 8.63126 14.7227 9.41588 14.8612 10.2466C14.8612 10.3851 14.8612 10.3851 14.7689 10.3851C10.1535 9.6928 6.36885 8.03126 3.27655 4.56973C3.13808 4.43126 3.09193 4.43126 2.95347 4.56973C1.61501 6.6005 2.26116 9.83126 3.9227 11.4005C4.15347 11.6313 4.38424 11.8159 4.61501 12.0005C4.5227 12.0005 3.41501 11.9082 2.39962 11.4005C2.26116 11.3082 2.21501 11.3543 2.16885 11.4928C2.16885 11.7236 2.16885 11.9082 2.21501 12.139C2.49193 14.1697 3.87655 16.062 5.81501 16.8005C6.04578 16.8928 6.27655 16.9851 6.55347 17.0313C6.09193 17.1236 5.67655 17.2159 4.38424 17.0774C4.24578 17.0313 4.15347 17.1236 4.24578 17.262C5.21501 19.8466 7.24578 20.6313 8.76885 21.0466C8.95347 21.0928 9.18424 21.0928 9.36885 21.139C9.36885 21.139 9.3227 21.139 9.3227 21.1851C8.81501 21.9697 7.06116 22.5236 6.23039 22.8466C4.75347 23.3543 3.09193 23.5851 1.5227 23.4466C1.29193 23.4005 1.19962 23.4005 1.15347 23.4466C1.06116 23.4928 1.15347 23.539 1.24578 23.6313C1.56885 23.862 1.89193 24.0466 2.21501 24.2313C3.23039 24.7851 4.24578 25.2005 5.35347 25.4774C11.0765 27.0466 17.4458 25.8928 21.6919 21.6928C25.015 18.3697 26.215 13.8005 26.215 9.23126C26.215 9.04665 26.4458 8.95434 26.5381 8.86203C27.415 8.21588 28.1073 7.43126 28.7535 6.55434C28.8919 6.36973 28.8919 6.18511 28.8919 6.0928V6.04665C28.8919 6.0005 28.8919 6.04665 28.7996 6.0928Z" fill="white"/>
</svg>
