<svg width="30" height="31" viewBox="0 0 30 31" fill="none" xmlns="http://www.w3.org/2000/svg">
<path d="M18.2309 27.6025C17.7232 27.6025 17.3078 27.1871 17.3078 26.6794V18.141C17.3078 17.7718 17.2155 17.3102 17.0771 17.1256C16.6155 16.7102 15.7848 16.3871 14.954 16.3871C13.9848 16.3871 13.154 16.7564 12.7848 17.1256C12.6002 17.2641 12.5078 17.7718 12.5078 18.141V26.6794C12.5078 27.1871 12.0925 27.6025 11.5848 27.6025H5.63092C5.12323 27.6025 4.70785 27.1871 4.70785 26.6794V17.2179C4.70785 16.9871 4.52323 16.8487 4.33862 16.8487H0.830923C0.461692 16.8487 0.32323 16.6641 0.277077 16.5718C0.230923 16.4794 0.184769 16.2487 0.461692 15.9718L14.3078 1.94099C14.4925 1.75637 14.7232 1.66406 14.954 1.66406C15.1848 1.66406 15.4155 1.75637 15.6002 1.94099L19.154 5.49483V2.67945C19.154 2.17175 19.5694 1.75637 20.0771 1.75637H20.5848C21.0925 1.75637 21.5078 2.17175 21.5078 2.67945V7.29483C21.5078 7.57175 21.6925 8.03329 21.8771 8.21791L29.5386 15.9256C29.8155 16.2025 29.7694 16.4333 29.7232 16.5256C29.6771 16.6179 29.5386 16.8025 29.1694 16.8025H25.5232C25.2925 16.8025 25.154 16.9871 25.154 17.1718V26.6333C25.154 27.141 24.7386 27.5564 24.2309 27.5564H18.2309V27.6025Z" fill="#1F386B"/>
</svg>
