<svg width="87" height="121" viewBox="0 0 87 121" fill="none" xmlns="http://www.w3.org/2000/svg">
<path d="M74.1167 102.779C73.8793 102.583 73.579 102.494 73.2808 102.532C72.9827 102.57 72.7105 102.732 72.5231 102.983C69.2021 107.476 65.2041 111.347 60.6929 114.438C60.4402 114.609 60.2618 114.881 60.1968 115.194C60.1318 115.506 60.1857 115.833 60.3465 116.103C60.5072 116.373 60.7618 116.564 61.0542 116.633C61.3465 116.703 61.6527 116.645 61.9054 116.473C66.6303 113.235 70.8208 109.183 74.3072 104.482C74.4911 104.228 74.5742 103.907 74.5386 103.589C74.5029 103.27 74.3514 102.979 74.1167 102.779Z" fill="#1E386B"/>
<path d="M78.2213 98.8557C76.1641 98.3673 74.1481 97.6989 72.1936 96.8572C71.9544 96.7586 71.6911 96.7489 71.4461 96.8294C71.2011 96.9099 70.9885 97.0761 70.8425 97.3013C65.9978 104.882 59.1817 110.781 51.2352 114.271C46.1834 116.499 40.7823 117.686 35.3173 117.768C35.0187 117.768 34.7323 117.895 34.5212 118.121C34.31 118.346 34.1914 118.652 34.1914 118.971C34.1914 119.29 34.31 119.596 34.5212 119.822C34.7323 120.047 35.0187 120.174 35.3173 120.174C41.0704 120.095 46.7561 118.838 52.0666 116.473C60.1388 112.938 67.1062 107.028 72.1589 99.4294C73.9615 100.167 75.8146 100.754 77.7016 101.187C77.8461 101.221 77.9954 101.225 78.141 101.197C78.2866 101.169 78.4258 101.111 78.5504 101.026C78.6751 100.941 78.7828 100.831 78.8675 100.701C78.9522 100.572 79.0122 100.426 79.044 100.271C79.0759 100.117 79.079 99.9576 79.0531 99.802C79.0273 99.6464 78.973 99.4978 78.8933 99.3646C78.8137 99.2314 78.7103 99.1163 78.5891 99.0258C78.4678 98.9353 78.3311 98.8713 78.1866 98.8372L78.2213 98.8557Z" fill="#1E386B"/>
<path d="M80.6299 94.3774C77.1281 93.7047 73.745 92.4562 70.6011 90.6763C70.3446 90.5347 70.0471 90.5037 69.7698 90.5898C69.4926 90.6759 69.2569 90.8725 69.1115 91.139C64.7068 99.4783 57.8078 105.995 49.5215 109.644C44.7292 111.752 39.593 112.823 34.4106 112.794C29.2282 112.766 24.1027 111.638 19.331 109.478C18.7075 109.2 18.1186 108.923 17.5989 108.626C17.4659 108.557 17.3213 108.516 17.1735 108.507C17.0258 108.497 16.8776 108.519 16.7377 108.57C16.5977 108.622 16.4686 108.702 16.3578 108.807C16.247 108.912 16.1567 109.039 16.092 109.182C16.0246 109.323 15.9846 109.478 15.9743 109.637C15.9641 109.795 15.9837 109.954 16.0322 110.104C16.0807 110.255 16.157 110.393 16.2565 110.511C16.3561 110.629 16.4768 110.724 16.6116 110.792C17.1832 111.106 17.8241 111.402 18.465 111.698C23.5094 113.986 28.9289 115.18 34.4089 115.212C39.8889 115.244 45.3202 114.112 50.3875 111.883C58.8168 108.181 65.8881 101.646 70.5318 93.2671C73.6075 94.8776 76.8778 96.0236 80.2489 96.6721C80.5428 96.7257 80.8447 96.6526 81.0883 96.4687C81.3318 96.2848 81.4972 96.0052 81.548 95.6913C81.5788 95.3888 81.5013 95.0851 81.3309 94.8413C81.1606 94.5975 80.9101 94.4318 80.6299 94.3774Z" fill="#1E386B"/>
<path d="M29.3594 3.31255C31.8317 4.18768 34.2353 5.27054 36.5476 6.55099C36.7073 6.64175 36.8864 6.6864 37.0673 6.68053C37.2047 6.70726 37.3455 6.70726 37.483 6.68053C42.918 4.34409 48.6643 2.9389 54.5095 2.51682C54.6582 2.50987 54.8041 2.47097 54.9385 2.40246C55.0729 2.33395 55.1929 2.23722 55.2915 2.11805C55.3901 1.99889 55.4653 1.85972 55.5125 1.70885C55.5596 1.55799 55.5779 1.39852 55.5661 1.23996C55.5596 1.08105 55.5232 0.925173 55.459 0.781625C55.3949 0.638078 55.3044 0.509802 55.1928 0.40445C55.0813 0.299099 54.951 0.218832 54.8098 0.168437C54.6686 0.118042 54.5193 0.0985525 54.3709 0.111131C48.4849 0.515893 42.691 1.87622 37.1885 4.14529C34.8909 2.91685 32.5114 1.87153 30.0696 1.01789C29.787 0.918166 29.479 0.941992 29.2129 1.08416C28.9467 1.22633 28.7441 1.47529 28.6493 1.77661C28.5554 2.08098 28.5772 2.41258 28.71 2.69991C28.8429 2.98724 29.0761 3.20727 29.3594 3.31255Z" fill="#1E386B"/>
<path d="M82.4997 89.862C77.615 89.0954 72.975 87.0833 68.972 83.9958C68.8326 83.8916 68.6729 83.8224 68.5049 83.7936C68.3369 83.7647 68.165 83.7769 68.002 83.8293C67.838 83.8771 67.6861 83.9633 67.5573 84.0818C67.4284 84.2002 67.3259 84.3479 67.2572 84.514C63.557 93.8703 56.5839 101.314 47.8231 105.258C43.5823 107.12 39.0378 108.064 34.453 108.036C29.8682 108.007 25.3343 107.007 21.1142 105.092C15.1786 102.365 10.0092 98.0345 6.11418 92.5268C5.92935 92.2732 5.65842 92.1077 5.36012 92.0661C5.06182 92.0246 4.76019 92.1103 4.52066 92.3047C4.40238 92.3995 4.30272 92.5182 4.22739 92.6542C4.15206 92.7901 4.10254 92.9405 4.08163 93.0969C4.06072 93.2533 4.06883 93.4125 4.10553 93.5655C4.14222 93.7185 4.20677 93.8623 4.29548 93.9887C8.42328 99.8293 13.9032 104.421 20.1961 107.313C24.6924 109.353 29.523 110.42 34.408 110.452C39.2929 110.483 44.1353 109.479 48.6545 107.498C57.5664 103.511 64.7461 96.0848 68.7641 86.6976C72.7953 89.5812 77.3734 91.477 82.1706 92.2492C82.3173 92.2723 82.4668 92.2643 82.6106 92.2256C82.7544 92.187 82.8897 92.1184 83.0087 92.0239C83.1278 91.9294 83.2282 91.8108 83.3043 91.6748C83.3804 91.5388 83.4307 91.3882 83.4523 91.2314C83.4739 91.0747 83.4664 90.9149 83.4302 90.7613C83.3941 90.6076 83.3299 90.4631 83.2415 90.3359C83.153 90.2088 83.042 90.1015 82.9147 90.0202C82.7874 89.9388 82.6464 89.8851 82.4997 89.862Z" fill="#1E386B"/>
<path d="M22.9156 6.477C27.6032 7.48468 32.1033 9.3103 36.2355 11.8806C36.4125 11.9772 36.6083 12.0279 36.8071 12.0286C36.9553 12.065 37.1092 12.065 37.2574 12.0286L37.4999 11.9176C44.0144 8.83674 51.057 7.2361 58.1812 7.21722C60.5737 7.22397 62.9633 7.39705 65.3347 7.73537C65.4828 7.75882 65.6337 7.75049 65.7787 7.71088C65.9237 7.67127 66.0599 7.60117 66.1792 7.50468C66.2986 7.40819 66.3987 7.28724 66.4738 7.14892C66.5489 7.01059 66.5974 6.85766 66.6165 6.69907C66.6468 6.38416 66.5632 6.0688 66.3829 5.81762C66.2025 5.56645 65.939 5.39849 65.6465 5.34818C55.8836 3.92295 45.9417 5.34899 36.8764 9.47487C32.6538 6.93564 28.0826 5.1245 23.3314 4.10832C23.0374 4.04697 22.7326 4.11291 22.4841 4.29164C22.2356 4.47037 22.0637 4.74724 22.0063 5.06135C21.9489 5.37545 22.0106 5.70107 22.1779 5.96655C22.3452 6.23204 22.6043 6.41565 22.8983 6.477H22.9156Z" fill="#1E386B"/>
<path d="M83.8514 85.1249C77.469 84.3393 71.5898 81.0403 67.3618 75.8722C67.227 75.7175 67.0582 75.601 66.8708 75.5332C66.6833 75.4653 66.4831 75.4483 66.288 75.4836C66.0914 75.5262 65.9091 75.6242 65.7599 75.7674C65.6107 75.9105 65.5 76.0936 65.4392 76.2978C64.791 78.4317 64.0335 80.526 63.1702 82.5711C59.9272 90.81 53.8074 97.3748 46.109 100.873C42.4191 102.486 38.4665 103.302 34.4797 103.273C30.4929 103.245 26.5509 102.372 22.8816 100.706C15.1078 97.1372 8.94783 90.4631 5.71652 82.1085C4.58701 79.1464 3.84111 76.0334 3.49944 72.8558C3.46048 72.5379 3.30605 72.249 3.06948 72.0517C2.83291 71.8543 2.53319 71.7643 2.23501 71.801C2.08745 71.817 1.94436 71.8645 1.81428 71.9406C1.68419 72.0167 1.56973 72.1199 1.47767 72.2442C1.38561 72.3684 1.31781 72.5111 1.27831 72.6639C1.23881 72.8166 1.22841 72.9763 1.24771 73.1334C1.6095 76.5522 2.40791 79.902 3.62067 83.0893C7.08955 92.0381 13.6889 99.1883 22.0156 103.02C25.959 104.811 30.1964 105.746 34.4814 105.772C38.7663 105.797 43.0132 104.912 46.9751 103.168C55.2042 99.4516 61.7532 92.4547 65.2314 83.6629C65.8723 82.1455 66.4612 80.6281 66.9635 79.0736C71.4522 83.8513 77.3154 86.8759 83.6089 87.6601C83.9075 87.6969 84.2076 87.6055 84.4431 87.4059C84.6786 87.2064 84.8302 86.915 84.8647 86.596C84.8991 86.277 84.8136 85.9564 84.6268 85.7048C84.44 85.4532 84.1673 85.2912 83.8687 85.2544L83.8514 85.1249Z" fill="#1E386B"/>
<path d="M17.3565 10.5666C23.9856 11.0939 30.3779 13.4256 35.9246 17.3396C36.111 17.4651 36.3278 17.5295 36.5482 17.5246C36.7287 17.5281 36.9073 17.4836 37.0678 17.3951C37.7953 16.988 38.5574 16.5994 39.3022 16.2478C45.2575 13.4732 51.6851 12.0431 58.1821 12.0471C63.2201 12.0523 68.2271 12.8887 73.0261 14.5268C73.1683 14.5754 73.318 14.5933 73.4667 14.5795C73.6154 14.5657 73.76 14.5205 73.8921 14.4464C74.0243 14.3724 74.1413 14.271 74.2365 14.1482C74.3317 14.0254 74.403 13.8836 74.4464 13.731C74.4917 13.5804 74.5083 13.4217 74.4952 13.2641C74.482 13.1065 74.4395 12.9534 74.3701 12.8137C74.3007 12.6739 74.2058 12.5505 74.091 12.4506C73.9762 12.3507 73.8438 12.2764 73.7017 12.2321C68.6621 10.5121 63.4032 9.63813 58.1128 9.64136C51.3282 9.63993 44.6169 11.1395 38.4015 14.0456C37.7953 14.3232 37.2064 14.6193 36.6694 14.9339C30.9449 11.0175 24.396 8.68945 17.6163 8.16094C17.4679 8.14836 17.3187 8.16785 17.1774 8.21824C17.0362 8.26864 16.906 8.3489 16.7944 8.45426C16.6829 8.55961 16.5924 8.68788 16.5282 8.83143C16.4641 8.97498 16.4277 9.13085 16.4212 9.28976C16.4 9.58887 16.4842 9.88565 16.6572 10.1219C16.8303 10.3581 17.0797 10.5167 17.3565 10.5666Z" fill="#1E386B"/>
<path d="M84.7174 80.4245C80.6105 79.9839 76.7099 78.2863 73.4838 75.5355C70.2578 72.7848 67.8433 69.0977 66.5304 64.917C66.3227 64.2672 66.0436 63.646 65.699 63.0665C65.5758 62.8563 65.3949 62.692 65.1809 62.5959C64.967 62.4998 64.7305 62.4768 64.5038 62.5298C64.2751 62.5786 64.0665 62.7032 63.9079 62.886C63.7493 63.0687 63.6487 63.3002 63.6204 63.5476C62.8771 69.4398 61.3247 75.1827 59.0131 80.591C56.2402 87.7109 50.9767 93.394 44.3422 96.4316C41.1993 97.7966 37.834 98.4814 34.4415 98.4465C31.0489 98.4115 27.6967 97.6575 24.579 96.228C17.9211 93.1514 12.6422 87.432 9.85614 80.2764C8.27884 76.1027 7.55823 71.6159 7.74297 67.1191C7.75331 66.9247 7.71929 66.7305 7.64386 66.5532C7.56844 66.3759 7.45385 66.2209 7.30995 66.1013C7.16206 65.9864 6.99116 65.9099 6.81077 65.8777C6.63039 65.8456 6.44547 65.8588 6.27068 65.9163C4.72399 66.4466 3.12604 66.788 1.50741 66.9341C1.20882 66.9586 0.931597 67.1089 0.736698 67.3518C0.541799 67.5947 0.445203 67.9104 0.468172 68.2295C0.491141 68.5485 0.631791 68.8447 0.859173 69.0529C1.08656 69.2611 1.38204 69.3643 1.68063 69.3398C2.95414 69.2277 4.21696 69.0049 5.45659 68.6736C5.46507 72.9731 6.24107 77.2314 7.74297 81.2202C10.7517 88.9762 16.4755 95.1711 23.6956 98.4857C27.0909 100.029 30.7394 100.838 34.4294 100.863C38.1193 100.888 41.7772 100.131 45.1909 98.6337C52.3521 95.3624 58.0417 89.2438 61.0569 81.5718C62.9187 77.209 64.3077 72.6332 65.1966 67.9334C66.9087 71.9935 69.5921 75.4998 72.9767 78.0988C76.3612 80.6979 80.3272 82.2979 84.4749 82.7376C84.6229 82.7556 84.7727 82.742 84.9158 82.6976C85.0588 82.6533 85.1922 82.579 85.3082 82.4792C85.4242 82.3794 85.5205 82.2559 85.5915 82.1161C85.6626 81.9762 85.7069 81.8226 85.722 81.6643C85.7284 81.3613 85.6291 81.0666 85.4434 80.8375C85.2577 80.6083 84.999 80.4611 84.7174 80.4245Z" fill="#1E386B"/>
<path d="M12.6444 15.4153L14.3765 15.3228H15.0347C22.4696 15.4546 29.6646 18.1554 35.5427 23.021C35.7345 23.1594 35.9607 23.2334 36.1922 23.2334C36.4237 23.2334 36.6499 23.1594 36.8418 23.021C38.1685 22.1024 39.5649 21.3039 41.0161 20.6338C46.399 18.1084 52.2156 16.8101 58.0946 16.8217C64.431 16.8405 70.6926 18.2844 76.4721 21.0594L78.2042 21.9662C78.3372 22.0499 78.4849 22.1036 78.6382 22.1237C78.7914 22.1439 78.9468 22.1302 79.0949 22.0834C79.2429 22.0367 79.3804 21.9579 79.4988 21.852C79.6171 21.7461 79.7138 21.6154 79.7829 21.4678C79.8519 21.3203 79.8918 21.1592 79.9001 20.9945C79.9084 20.8298 79.8849 20.6651 79.831 20.5105C79.7772 20.3559 79.6942 20.2148 79.5872 20.0959C79.4801 19.9771 79.3514 19.883 79.2089 19.8196C78.6199 19.4865 77.9964 19.1719 77.3209 18.8573C71.2506 15.9511 64.6771 14.4381 58.0253 14.416C51.8838 14.4516 45.8156 15.844 40.202 18.5057C38.8794 19.1148 37.6 19.8261 36.3741 20.6338C30.2165 15.7611 22.7832 13.0751 15.1212 12.9541H14.4284C13.7356 12.9541 13.0774 12.9911 12.4538 13.0651C12.1552 13.098 11.88 13.2532 11.6862 13.4982C11.4924 13.7432 11.3951 14.0589 11.4146 14.379C11.4535 14.6885 11.6037 14.9697 11.8332 15.1631C12.0627 15.3565 12.3536 15.4469 12.6444 15.4153Z" fill="#1E386B"/>
<path d="M85.1328 75.6133C81.9026 75.2504 78.8376 73.9051 76.3016 71.737C73.7656 69.5688 71.8652 66.6688 70.8257 63.3812C70.1374 61.357 69.0718 59.5031 67.6933 57.9318C66.3149 56.3604 64.6522 55.1043 62.8061 54.2396C62.2429 53.9722 61.6644 53.7435 61.074 53.5549C60.9043 53.5066 60.7266 53.5006 60.5544 53.5376C60.3823 53.5745 60.2205 53.6533 60.0815 53.7678C59.9424 53.8823 59.83 54.0296 59.7528 54.198C59.6756 54.3665 59.6357 54.5517 59.6363 54.7392C59.727 62.9439 58.1243 71.0692 54.9424 78.5371C52.6299 84.5418 48.2186 89.3477 42.6444 91.935C40.0583 93.0688 37.2868 93.6413 34.4914 93.619C31.6961 93.5968 28.9328 92.9803 26.3627 91.8054C20.8029 89.2492 16.3967 84.4753 14.0822 78.5001C11.6551 71.7645 11.6551 64.3061 14.0822 57.5705C14.1736 57.3103 14.175 57.0236 14.0861 56.7624C13.9972 56.5011 13.8238 56.2823 13.5972 56.1456C13.3768 56.0029 13.1173 55.9452 12.862 55.9823C12.6067 56.0193 12.3709 56.1488 12.1942 56.3492C9.37953 59.5829 5.56539 61.6204 1.45517 62.0858C1.30699 62.102 1.16327 62.1493 1.03235 62.2252C0.901422 62.3011 0.7859 62.404 0.692459 62.5279C0.599019 62.6518 0.529523 62.7943 0.487999 62.9472C0.446476 63.1 0.433741 63.2601 0.450548 63.4182C0.489566 63.734 0.640858 64.0217 0.873054 64.2215C1.10525 64.4214 1.40053 64.518 1.69766 64.4915C4.99324 64.1182 8.14307 62.8435 10.8431 60.7905C9.37494 66.9265 9.75066 73.4005 11.9171 79.2958C14.4604 85.8671 19.3096 91.1143 25.4274 93.915C28.2715 95.212 31.3282 95.8929 34.4204 95.9183C37.5126 95.9437 40.5788 95.3131 43.4412 94.0631C49.527 91.2783 54.3684 86.086 56.9516 79.5734C60.0557 72.3168 61.7301 64.4558 61.8707 56.4787C63.4339 57.1996 64.8426 58.2544 66.0102 59.5783C67.1778 60.9021 68.0798 62.4671 68.6606 64.1769C69.845 67.8981 72.0005 71.18 74.8729 73.6357C77.7454 76.0915 81.215 77.6187 84.873 78.0374C85.171 78.0687 85.4687 77.9738 85.7019 77.7731C85.9351 77.5724 86.0852 77.2819 86.1201 76.9641C86.1395 76.806 86.1292 76.6453 86.0899 76.4914C86.0506 76.3376 85.983 76.1936 85.8912 76.0679C85.7993 75.9422 85.6849 75.8372 85.5547 75.7592C85.4245 75.6811 85.2811 75.6315 85.1328 75.6133Z" fill="#1E386B"/>
<path d="M8.74765 20.9853C10.651 20.4687 12.604 20.1893 14.5675 20.1526H15.1218C22.7072 20.3131 29.9616 23.5017 35.4566 29.0906C35.6667 29.2822 35.9338 29.3875 36.2101 29.3875C36.4863 29.3875 36.7534 29.2822 36.9635 29.0906C38.7785 27.4357 40.8164 26.082 43.0085 25.075C47.8187 22.8204 53.0156 21.6608 58.2683 21.67C63.9724 21.695 69.608 23.0001 74.8099 25.5006C77.2853 26.6838 79.6562 28.102 81.8941 29.7383C82.0805 29.8827 82.3048 29.9605 82.535 29.9604C82.7157 29.9591 82.8935 29.9113 83.0533 29.8211C83.213 29.7309 83.3502 29.601 83.453 29.4422C83.5391 29.3125 83.6002 29.1658 83.6328 29.0107C83.6655 28.8556 83.6691 28.6951 83.6433 28.5385C83.6175 28.3819 83.5629 28.2323 83.4827 28.0984C83.4025 27.9645 83.2982 27.8489 83.1759 27.7583C80.8245 26.0342 78.3316 24.5414 75.7279 23.2985C70.2379 20.6583 64.2888 19.2837 58.2683 19.2643C52.7013 19.2524 47.1926 20.4749 42.0905 22.8543C40.0128 23.822 38.0575 25.0655 36.2707 26.5554C30.4722 20.9951 22.9983 17.8432 15.2084 17.6729H14.6022C12.4755 17.7239 10.3609 18.0281 8.29732 18.5796C8.00561 18.6557 7.75412 18.8524 7.5982 19.1266C7.44228 19.4008 7.39469 19.7299 7.46589 20.0415C7.53709 20.3532 7.72127 20.6219 7.97789 20.7884C8.2345 20.955 8.54256 21.0059 8.83426 20.9298L8.74765 20.9853Z" fill="#1E386B"/>
<path d="M85.2025 70.7644C82.9077 70.4331 80.7456 69.422 78.9609 67.8456C77.1763 66.2692 75.8403 64.1905 75.1044 61.8448C74.2307 59.1913 72.8579 56.757 71.0707 54.6915C69.2834 52.6261 67.1194 50.9733 64.7118 49.8348C62.6826 48.8454 60.4815 48.3221 58.2511 48.2989C57.4259 48.2946 56.6023 48.3752 55.7915 48.5395C55.5132 48.5978 55.2651 48.7646 55.0955 49.0074C54.9258 49.2502 54.8467 49.5517 54.8735 49.8533C55.7949 58.9644 54.4132 68.1727 50.8723 76.5195C49.0173 81.407 45.4592 85.3345 40.9474 87.4747C38.9155 88.3612 36.7385 88.8063 34.5438 88.7841C32.349 88.7618 30.1804 88.2727 28.1645 87.3451C23.7025 85.3035 20.1652 81.4778 18.3089 76.6861C17.2393 73.5047 16.7697 70.1286 16.9272 66.7524C17.0848 63.3763 17.8664 60.0668 19.2269 57.0149C19.754 56.0793 20.0938 55.0372 20.225 53.9543C20.3561 52.8714 20.2758 51.7712 19.9891 50.7231C19.6352 49.6555 18.9978 48.7213 18.155 48.0344C17.3122 47.3476 16.3003 46.9379 15.2431 46.8555C13.0433 46.8555 11.5364 49.0576 10.4798 50.9451C9.51412 52.6331 8.21007 54.0712 6.6616 55.156C5.11313 56.2407 3.35879 56.9451 1.52488 57.2185C1.37817 57.2403 1.23691 57.2929 1.1092 57.3731C0.981485 57.4532 0.869808 57.5595 0.780542 57.6858C0.691276 57.8121 0.626185 57.956 0.588953 58.1092C0.551722 58.2623 0.543083 58.4219 0.563554 58.5786C0.584026 58.7353 0.633199 58.8862 0.708257 59.0227C0.783315 59.1591 0.882801 59.2784 1.00102 59.3738C1.23977 59.5664 1.54035 59.6498 1.83665 59.6056C4.0005 59.2832 6.07049 58.4521 7.89751 57.1721C9.72453 55.8921 11.2631 54.1952 12.4025 52.2035C12.8182 51.5003 14.0479 49.3167 15.2951 49.2982C15.8849 49.3926 16.4391 49.6582 16.8973 50.0661C17.3554 50.474 17.6999 51.0085 17.8932 51.6113C18.0584 52.3688 18.0792 53.1541 17.9542 53.9203C17.8292 54.6865 17.561 55.418 17.1657 56.0711C15.683 59.4163 14.8355 63.0422 14.6719 66.7394C14.5084 70.4366 15.0322 74.1317 16.2131 77.6113C18.2894 82.9991 22.2645 87.2992 27.2812 89.5843C29.573 90.6384 32.0383 91.1944 34.5334 91.2198C37.0284 91.2452 39.5033 90.7396 41.8135 89.7323C46.7983 87.3223 50.7243 82.9557 52.7777 77.5373C56.3414 69.1546 57.8267 59.9333 57.0906 50.7601C59.3446 50.5862 61.6032 51.0255 63.6552 52.037C65.7866 53.0335 67.7049 54.4849 69.2924 56.3019C70.88 58.1189 72.1033 60.2633 72.8873 62.6035C73.7522 65.3794 75.3294 67.84 77.4394 69.7049C79.5494 71.5698 82.1072 72.764 84.8215 73.1516C84.9682 73.1734 85.1175 73.1642 85.2609 73.1244C85.4042 73.0847 85.5389 73.0151 85.6571 72.9197C85.7753 72.8244 85.8748 72.705 85.9499 72.5686C86.0249 72.4322 86.0741 72.2812 86.0946 72.1245C86.115 71.9678 86.1064 71.8082 86.0692 71.6551C86.0319 71.5019 85.9668 71.358 85.8776 71.2317C85.7883 71.1054 85.6766 70.9991 85.5489 70.919C85.4212 70.8388 85.2799 70.7862 85.1332 70.7644H85.2025Z" fill="#1E386B"/>
<path d="M5.69921 27.2394C8.50974 25.8262 11.566 25.0571 14.6715 24.9817H15.1218C18.9439 25.1105 22.6942 26.1255 26.1127 27.9564C29.5312 29.7873 32.5363 32.3904 34.9197 35.5853L35.2314 35.9924C35.3388 36.1255 35.4717 36.2322 35.6212 36.3054C35.7706 36.3786 35.9331 36.4165 36.0975 36.4165C36.2619 36.4165 36.4244 36.3786 36.5739 36.3054C36.7233 36.2322 36.8562 36.1255 36.9635 35.9924C38.98 33.1727 41.6566 30.9706 44.7234 29.6081C48.968 27.628 53.5501 26.6073 58.1817 26.6102C63.2547 26.6309 68.2662 27.7976 72.8873 30.0337C76.8393 31.9148 80.4782 34.4712 83.6609 37.6024C83.8708 37.8025 84.1417 37.9143 84.423 37.917C84.5794 37.9185 84.7344 37.8847 84.8776 37.8177C85.0209 37.7507 85.1494 37.6521 85.2544 37.5283C85.3618 37.4163 85.4471 37.2825 85.5054 37.1347C85.5636 36.9869 85.5936 36.8282 85.5936 36.6678C85.5936 36.5075 85.5636 36.3488 85.5054 36.201C85.4471 36.0532 85.3618 35.9194 85.2544 35.8073C81.8728 32.4772 78.0057 29.7582 73.8053 27.7575C68.9075 25.3756 63.5974 24.1149 58.2164 24.0565C53.274 24.048 48.384 25.1383 43.8573 27.2579C40.8702 28.6117 38.2149 30.6823 36.0975 33.3091C33.5077 30.0363 30.3009 27.3839 26.6866 25.5249C23.0722 23.6659 19.1316 22.6421 15.1218 22.5205H14.6715C11.2559 22.5973 7.89314 23.4357 4.79851 24.9817C4.55977 25.1381 4.38307 25.3827 4.30195 25.6691C4.22082 25.9555 4.24091 26.2637 4.3584 26.5353C4.4759 26.8069 4.68262 27.023 4.93935 27.1425C5.19608 27.2621 5.48496 27.2768 5.75117 27.1839L5.69921 27.2394Z" fill="#1E386B"/>
<path d="M1.8363 54.7015C3.20394 54.3937 4.49811 53.79 5.63904 52.9275C6.77997 52.065 7.74349 50.962 8.47024 49.6865C9.24969 48.3172 12.1423 44.3755 15.0349 44.3015H15.1388C16.301 44.4619 17.4206 44.8726 18.4299 45.5088C19.4392 46.1449 20.3172 46.9933 21.0106 48.0026C21.6511 48.6963 22.1485 49.5256 22.4706 50.4372C22.7928 51.3487 22.9327 52.3223 22.8813 53.2951C22.5857 54.4404 22.2094 55.56 21.7554 56.6446C21.357 57.6438 20.9587 58.7357 20.5776 59.883C18.6379 64.9894 18.5576 70.6866 20.3524 75.8531C22.0005 80.0251 25.1079 83.345 29.0129 85.1058C30.7548 85.9112 32.6299 86.336 34.5278 86.3551C36.4257 86.3741 38.308 85.9871 40.0637 85.2168C44.007 83.2711 47.1051 79.789 48.7242 75.483C52.3072 67.1055 53.5752 57.8088 52.3789 48.6873L52.223 47.614C52.231 47.4537 52.231 47.2931 52.223 47.1328C54.1266 46.2827 56.1703 45.8486 58.2334 45.8559C60.7793 45.8824 63.2922 46.4748 65.6122 47.5954C68.3076 48.8778 70.7299 50.7338 72.7312 53.0501C74.7325 55.3664 76.2708 58.0944 77.2519 61.0673C77.8193 62.8594 78.8143 64.4625 80.1386 65.7184C81.463 66.9743 83.0709 67.8396 84.8038 68.2289C84.9513 68.2707 85.1052 68.28 85.2561 68.2564C85.4071 68.2327 85.552 68.1764 85.682 68.0911C85.812 68.0058 85.9244 67.8931 86.0124 67.7599C86.1003 67.6267 86.1621 67.4759 86.1938 67.3164C86.2255 67.157 86.2266 66.9923 86.1969 66.8324C86.1673 66.6725 86.1075 66.5207 86.0212 66.3863C85.935 66.2518 85.824 66.1375 85.6951 66.0502C85.5663 65.963 85.4221 65.9046 85.2715 65.8787C83.9257 65.5778 82.6766 64.9077 81.647 63.9342C80.6174 62.9608 79.8428 61.7176 79.3997 60.3271C78.295 57.0541 76.5803 54.0546 74.3593 51.5099C72.1383 48.9653 69.4572 46.9286 66.4782 45.5228C63.871 44.26 61.0441 43.598 58.1815 43.5798C55.7207 43.5688 53.2846 44.1044 51.0279 45.1527C50.3351 45.4858 49.7462 45.9115 49.8328 46.7257C49.8328 47.1143 49.9367 47.6325 50.006 48.0951C50.0752 48.5577 50.1099 48.8168 50.1619 49.1499C51.2996 57.8169 50.0977 66.6509 46.6977 74.6132C45.2877 78.3691 42.5943 81.412 39.163 83.1257C37.681 83.7593 36.0964 84.0741 34.5002 84.0518C32.9041 84.0296 31.3277 83.6708 29.8617 82.9961C26.5085 81.4738 23.8514 78.6018 22.4656 75.0018C20.891 70.3765 20.9836 65.2907 22.7254 60.7342C23.0891 59.6424 23.4875 58.5876 23.8513 57.6068C24.3721 56.4145 24.7951 55.1762 25.1157 53.9058C25.2525 52.563 25.1126 51.2046 24.7056 49.9258C24.2987 48.6471 23.6346 47.479 22.7601 46.5036C21.8544 45.231 20.7105 44.1739 19.4014 43.3997C18.0922 42.6255 16.6464 42.1511 15.1561 42.0068H15.0349C10.2543 42.1179 6.59958 48.4837 6.54761 48.5392C5.98248 49.5396 5.22865 50.4035 4.33404 51.0757C3.43944 51.7479 2.42364 52.2139 1.35132 52.4438C1.05731 52.5076 0.799071 52.6936 0.633407 52.9608C0.467743 53.2281 0.408238 53.5546 0.467957 53.8688C0.527677 54.1829 0.701739 54.4588 0.951859 54.6357C1.20198 54.8127 1.50768 54.8763 1.80168 54.8125L1.8363 54.7015Z" fill="#1E386B"/>
<path d="M77.8068 35.6415C77.686 35.5363 77.546 35.459 77.3957 35.4146C77.2454 35.3702 77.0881 35.3596 76.9338 35.3836C76.7796 35.4075 76.6316 35.4654 76.4993 35.5536C76.3671 35.6418 76.2534 35.7584 76.1656 35.896C76.0777 36.0336 76.0175 36.1892 75.9889 36.353C75.9602 36.5167 75.9638 36.685 75.9992 36.8473C76.0346 37.0095 76.1012 37.1621 76.1947 37.2953C76.2882 37.4286 76.4066 37.5397 76.5424 37.6216C79.3938 39.6967 81.9592 42.1883 84.1636 45.0237C84.2702 45.1638 84.405 45.2765 84.5579 45.3534C84.7108 45.4303 84.878 45.4694 85.047 45.4678C85.3047 45.4723 85.5558 45.3807 85.7572 45.2088C85.8727 45.1084 85.9686 44.9846 86.039 44.8445C86.1095 44.7043 86.1533 44.5506 86.1678 44.3923C86.1823 44.2339 86.1672 44.0741 86.1235 43.922C86.0798 43.7699 86.0083 43.6286 85.9131 43.5063C83.5818 40.4791 80.8512 37.8298 77.8068 35.6415Z" fill="#1E386B"/>
<path d="M45.6244 31.7548C42.5277 33.1284 39.9111 35.5033 38.1418 38.5463C38.0633 38.682 38.0108 38.8331 37.9875 38.9907C37.9641 39.1483 37.9704 39.3093 38.0058 39.4643C38.0413 39.6193 38.1053 39.7652 38.194 39.8935C38.2828 40.0219 38.3946 40.13 38.5229 40.2118C38.7024 40.3207 38.9053 40.3781 39.1118 40.3783C39.3054 40.3767 39.4956 40.3234 39.665 40.2232C39.8344 40.123 39.9777 39.9791 40.0817 39.8046C41.6069 37.1859 43.8596 35.1415 46.5251 33.957C50.4137 32.193 54.6047 31.3179 58.8287 31.388C63.0527 31.4581 67.2163 32.4719 71.0517 34.3641C71.325 34.4941 71.6355 34.5029 71.9148 34.3883C72.1942 34.2738 72.4195 34.0454 72.5413 33.7534C72.663 33.4614 72.6712 33.1297 72.564 32.8312C72.4568 32.5327 72.243 32.292 71.9697 32.1619C67.8508 30.1234 63.3765 29.0337 58.8376 28.9636C54.2987 28.8934 49.7968 29.8445 45.6244 31.7548Z" fill="#1E386B"/>
<path d="M2.91084 34.4568C3.17565 34.4543 3.43193 34.3565 3.63832 34.1792C6.81388 31.4804 10.72 29.9487 14.7757 29.8119C17.9941 29.8791 21.1585 30.7092 24.0401 32.2421C26.9217 33.775 29.4486 35.9726 31.4385 38.676C33.41 41.0287 34.8592 43.8265 35.6779 46.8608C36.4967 49.895 36.6639 53.0876 36.1671 56.2006C35.7177 58.2038 35.1033 60.1606 34.3311 62.0482C33.9673 62.955 33.6556 63.7877 33.3784 64.6205C33.3292 64.7699 33.308 64.9283 33.3162 65.0865C33.3244 65.2446 33.3618 65.3995 33.4261 65.5423C33.4905 65.685 33.5806 65.8127 33.6914 65.9181C33.8021 66.0235 33.9312 66.1045 34.0713 66.1564C34.1977 66.1745 34.3259 66.1745 34.4523 66.1564C34.6848 66.1614 34.9127 66.0868 35.1028 65.9437C35.2928 65.8006 35.4351 65.5963 35.5089 65.3607C35.7687 64.5835 36.0632 63.8062 36.4096 62.918C37.248 60.9048 37.9034 58.8103 38.3668 56.6632C38.9371 53.1924 38.7659 49.6287 37.8661 46.2385C36.9663 42.8482 35.3612 39.719 33.1706 37.0845C30.955 34.103 28.1447 31.687 24.9445 30.0127C21.7444 28.3384 18.2349 27.448 14.6718 27.4062C10.1181 27.5457 5.72982 29.26 2.16603 32.2917C2.00071 32.4326 1.87462 32.6192 1.80135 32.8312C1.72808 33.0432 1.71042 33.2726 1.75031 33.4945C1.80388 33.7768 1.95047 34.0291 2.16344 34.2057C2.3764 34.3823 2.64161 34.4714 2.91084 34.4568Z" fill="#1E386B"/>
<path d="M2.06117 49.5759C3.12477 49.0787 4.01539 48.2372 4.60735 47.1702C4.60735 47.1702 8.88563 39.62 14.9999 39.472C16.8583 39.578 18.6729 40.1145 20.3179 41.0444C21.9629 41.9742 23.3989 43.2752 24.5265 44.857C25.6165 46.0966 26.434 47.5804 26.9194 49.2003C27.4048 50.8201 27.5459 52.5352 27.3325 54.2207C26.9954 55.674 26.5375 57.0922 25.9641 58.4584C25.6004 59.4022 25.2193 60.309 24.8729 61.4378C23.3016 65.4425 23.1842 69.9292 24.5438 74.0214C25.7055 77.0219 27.9181 79.419 30.7101 80.7018C31.905 81.2549 33.1908 81.5495 34.493 81.5686C35.7951 81.5876 37.0879 81.3308 38.2967 80.8129C41.2022 79.3435 43.4707 76.7411 44.6361 73.5403C47.8378 66.0143 48.9788 57.6735 47.9271 49.4833C47.9271 49.1502 47.8752 48.7986 47.7712 48.4285C47.5921 47.4975 47.5165 46.5472 47.5461 45.5972C47.7676 44.9732 48.1153 44.4092 48.5644 43.9454C49.0136 43.4815 49.553 43.1293 50.1442 42.9139C52.8944 41.6732 55.8588 41.0665 58.8435 41.1335C61.8282 41.2005 64.7661 41.9396 67.4652 43.3026C70.7422 44.8465 73.6884 47.0913 76.1222 49.8984C78.5561 52.7055 80.4259 56.0155 81.6164 59.6243C81.8694 60.4104 82.2704 61.1328 82.7947 61.7471C83.319 62.3613 83.9555 62.8544 84.6649 63.1958C84.9409 63.3203 85.2515 63.3242 85.5301 63.2065C85.8087 63.0889 86.0329 62.8591 86.1545 62.5666C86.2151 62.4221 86.2484 62.2662 86.2524 62.1078C86.2565 61.9495 86.2312 61.7919 86.1781 61.644C86.125 61.4962 86.0451 61.361 85.943 61.2462C85.8408 61.1314 85.7185 61.0393 85.5829 60.9752C85.1741 60.7646 84.8097 60.4674 84.5119 60.1015C84.2142 59.7356 83.9892 59.3088 83.8508 58.847C82.5555 54.9223 80.523 51.322 77.878 48.267C75.233 45.212 72.0314 42.767 68.4698 41.0819C65.4954 39.598 62.2623 38.7982 58.9801 38.7344C55.6978 38.6707 52.4397 39.3444 49.4167 40.7118C48.4741 41.0738 47.6258 41.6705 46.9421 42.4525C46.2583 43.2345 45.7588 44.1793 45.4848 45.2086C45.3907 46.4474 45.4665 47.6943 45.71 48.9097C45.71 49.2243 45.814 49.5574 45.8486 49.8905C46.8609 57.6383 45.7855 65.5338 42.7482 72.652C41.8036 75.3045 39.9442 77.4698 37.5519 78.7033C36.6281 79.1191 35.6357 79.3333 34.6333 79.3333C33.6308 79.3333 32.6385 79.1191 31.7147 78.7033C29.4689 77.6772 27.69 75.75 26.7609 73.3367C25.6126 69.8027 25.7299 65.9397 27.09 62.4926C27.4191 61.4933 27.7828 60.5495 28.1466 59.6058C28.7764 58.1164 29.2751 56.5676 29.6362 54.9794C29.9205 52.9345 29.7725 50.8475 29.203 48.8717C28.6335 46.8959 27.657 45.0814 26.3452 43.5616C25.0157 41.6301 23.2996 40.0397 21.322 38.9064C19.3443 37.7732 17.1549 37.1255 14.9133 37.0107C7.60388 37.1773 2.87526 45.5232 2.66741 45.8748C2.31677 46.5107 1.79031 47.015 1.16047 47.3182C0.886714 47.4482 0.671651 47.6877 0.561517 47.9853C0.451383 48.2829 0.454984 48.6149 0.57156 48.9097C0.626657 49.0594 0.70931 49.1958 0.814608 49.3107C0.919906 49.4257 1.04571 49.517 1.1846 49.5791C1.32348 49.6412 1.47261 49.6729 1.62317 49.6724C1.77374 49.6718 1.92268 49.639 2.06117 49.5759Z" fill="#1E386B"/>
<path d="M2.54639 41.9519C4.62491 39.2871 8.97247 34.7718 14.827 34.5497C17.365 34.6391 19.8536 35.3237 22.1165 36.5549C24.3794 37.7861 26.3612 39.5338 27.9216 41.6743C29.4572 43.4692 30.5941 45.611 31.2479 47.9402C31.9016 50.2695 32.0553 52.7262 31.6976 55.1277C31.3091 56.8496 30.7697 58.5287 30.0867 60.1426C29.7403 61.0494 29.3766 61.9932 29.0648 62.9369C27.8874 65.8307 27.7578 69.0885 28.7011 72.0786C29.4021 73.891 30.7385 75.3388 32.4251 76.1127C36.1318 77.7782 38.8165 75.2615 40.4967 71.3754C43.351 64.6854 44.3604 57.2645 43.4066 49.9832C43.4066 49.6501 43.32 49.317 43.268 48.9839C42.9818 47.5556 42.9058 46.0884 43.0429 44.6352C43.3788 43.2164 44.0249 41.903 44.9282 40.8028C45.8316 39.7026 46.9663 38.847 48.2392 38.3063C62.425 31.6999 77.8061 41.0266 83.9377 53.4622C84.0071 53.6019 84.1015 53.7257 84.2157 53.8264C84.3298 53.9272 84.4614 54.0029 84.603 54.0493C84.7445 54.0957 84.8932 54.1118 85.0406 54.0968C85.188 54.0818 85.3311 54.036 85.4619 53.9618C85.5927 53.8877 85.7086 53.7868 85.8029 53.6649C85.8971 53.5429 85.968 53.4023 86.0114 53.2511C86.0549 53.0999 86.07 52.941 86.056 52.7835C86.0419 52.6261 85.999 52.4731 85.9296 52.3334C82.3345 45.1524 76.5632 39.4889 69.5613 36.2707C66.0641 34.6126 62.2852 33.7404 58.4592 33.7086C54.6332 33.6768 50.842 34.4859 47.3211 36.0857C45.6847 36.7964 44.2384 37.9288 43.1111 39.3818C41.9838 40.8348 41.2105 42.5633 40.8604 44.4131C40.6676 46.1163 40.7378 47.8417 41.0683 49.5206C41.0683 49.8352 41.0683 50.1497 41.2068 50.4828C42.0957 57.3114 41.1465 64.2693 38.4701 70.5426C37.3443 73.1519 35.8373 75.169 33.2738 74.0586C32.142 73.5376 31.2422 72.5697 30.7623 71.3569C30.0442 68.9203 30.186 66.2873 31.1607 63.9547C31.4551 63.048 31.8015 62.1042 32.1479 61.2715C32.8749 59.5099 33.4545 57.6831 33.88 55.8124C34.3046 53.0559 34.1437 50.2327 33.4091 47.5516C32.6746 44.8706 31.3852 42.4002 29.6364 40.3234C27.8517 37.9082 25.5929 35.9406 23.0191 34.5594C20.4454 33.1781 17.6194 32.4168 14.7404 32.3291C7.98517 32.4956 3.08334 37.5291 0.779646 40.527C0.589753 40.7737 0.497929 41.0902 0.523832 41.4084C0.549735 41.7267 0.691307 42.0214 0.918217 42.2295C1.04012 42.3312 1.18035 42.4051 1.33015 42.4464C1.47995 42.4877 1.63611 42.4956 1.78889 42.4695C1.94167 42.4435 2.08778 42.3841 2.21811 42.295C2.34844 42.2059 2.46019 42.0891 2.54639 41.9519Z" fill="#1E386B"/>
</svg>
