<svg width="20" height="20" viewBox="0 0 20 20" fill="none" xmlns="http://www.w3.org/2000/svg">
<path d="M10.1466 0.906738C4.89595 0.906738 0.613281 5.1894 0.613281 10.4401C0.613281 15.6907 4.89595 19.9734 10.1466 19.9734C15.3973 19.9734 19.6799 15.6907 19.6799 10.4401C19.6799 5.1894 15.3973 0.906738 10.1466 0.906738ZM16.7759 7.71207C16.4239 8.03474 16.1013 8.32807 15.7493 8.65074C13.3439 10.8507 10.9679 13.0214 8.56261 15.2214C8.18128 15.5734 7.47728 15.6614 7.09595 15.2214C6.01061 14.0187 4.95461 12.8161 3.86928 11.6134C3.48795 11.2027 3.45861 10.5574 3.86928 10.1467C4.25061 9.7654 4.95461 9.73607 5.33595 10.1467C6.18661 11.1147 7.03728 12.0534 7.88795 13.0214C7.97595 12.9627 8.03461 12.8747 8.12261 12.8161C10.5279 10.6161 12.9039 8.4454 15.3093 6.2454C15.7199 5.86407 16.3653 5.83474 16.7759 6.2454C17.1573 6.62674 17.1866 7.33074 16.7759 7.71207Z" fill="#F2B124"/>
</svg>
