<svg width="65" height="65" viewBox="0 0 65 65" fill="none" xmlns="http://www.w3.org/2000/svg">
<g clip-path="url(#clip0)">
<path d="M13.4996 19.2001L12.1996 18.0001L11.2996 13.0001L16.2996 13.9001L21.5996 19.2001L26.9996 13.8001L15.1996 1.90015L9.19956 1.60015C6.59956 1.50015 3.39956 1.60015 1.69956 3.30015C-0.000438094 5.00015 -0.100438 8.30015 -0.000438105 10.9001L0.299562 16.9001L12.0996 28.7001L17.4996 23.3001L13.4996 19.2001Z" fill="#1E386B"/>
<path d="M0 61.1004L4.1 65.2004L31.8 37.6004L27.7 33.4004L0 61.1004Z" fill="#F2B124"/>
<path d="M31.791 29.2392L35.9629 33.4111L49.2564 20.1177L45.0845 15.9458L31.791 29.2392Z" fill="#F2B124"/>
<path d="M25.1 22.6006L21 26.7006L17.5 23.2006L27.7 33.4006L31.8 37.6006L44.9 50.7006L49.1 46.5006L35.9 33.4006L31.8 29.3006L25.1 22.6006Z" fill="#1E386B"/>
<path d="M47.4225 53.277L51.5938 49.1045L49.0478 46.5593L44.8765 50.7318L47.4225 53.277Z" fill="#F1B122"/>
<path d="M11.2988 12.9004L12.1988 18.0004L13.4988 19.2004L17.4988 23.2004L20.9988 26.7004L25.0988 22.6004L21.5988 19.1004L16.3988 13.8004L11.2988 12.9004Z" fill="#F1B122"/>
<path d="M25.0996 22.6006L21.5996 19.1006L25.0996 22.6006Z" fill="#F2B124"/>
<path d="M47.5996 53.3L47.7996 58.7L54.2996 65.2L63.6996 55.8L57.1996 49.3L51.6996 49L51.7996 49.1L47.5996 53.3ZM53.1996 51.3L56.1996 51.4L60.5996 55.8L54.1996 62.2L49.7996 57.8L49.6996 54.8V54L52.4996 51.2L53.1996 51.3Z" fill="#1E386B"/>
<path d="M47.5416 53.3834L51.7129 49.2109L51.6422 49.1402L47.4709 53.3127L47.5416 53.3834Z" fill="#1E386B"/>
<path d="M65 40.8002V34.6002C65 15.6002 49.6 0.200195 30.7 0.200195H24.5L30.4 4.2002H30.7C36.5 4.2002 41.8 5.8002 46.4 8.6002L45.1 16.0002L49.2 20.1002L56.5 18.8002C59.3 23.4002 60.9 28.8002 60.9 34.5002V34.8002L65 40.8002Z" fill="#1E386B"/>
</g>
<defs>
<clipPath id="clip0">
<rect width="65" height="65" fill="white"/>
</clipPath>
</defs>
</svg>
