<svg width="113" height="116" viewBox="0 0 113 116" fill="none" xmlns="http://www.w3.org/2000/svg">
<path d="M110.071 63.4551V64.843C109.967 70.1355 98.431 75.8166 81.4565 75.8166C74.1697 75.9649 66.921 74.6595 60.0824 71.9675V84.5326V85.0693C60.0497 85.3703 59.9917 85.6676 59.9092 85.9575C66.8468 88.549 74.1603 89.8022 81.5084 89.6586C99.0546 89.6586 112.807 83.5519 112.807 75.7611V63.4551H110.071Z" fill="#1E386B"/>
<path d="M110.071 84.8281V86.2345C109.967 91.5271 98.4309 97.2082 81.4564 97.2082C74.1682 97.3771 66.9159 96.0711 60.0823 93.3591V103.426C60.0823 103.648 60.0823 103.87 60.0823 104.092C60.0232 104.657 59.8951 105.21 59.7012 105.739C59.5438 106.184 59.3465 106.612 59.1123 107.016C66.266 109.864 73.8582 111.245 81.491 111.087C99.0372 111.087 112.79 104.98 112.79 97.1712V84.8281H110.071Z" fill="#1E386B"/>
<path d="M110.07 42.6552V44.0431C110.07 48.0033 103.592 51.9264 94.1697 53.8139C85.7604 55.4176 77.1518 55.4176 68.7425 53.8139C59.3026 51.9634 52.9111 48.0033 52.8245 44.0431V42.6552H50.1917V54.9983C50.1835 55.14 50.1835 55.2822 50.1917 55.4239L51.6121 56.0346L52.6859 56.5527L52.9804 56.7008L53.5 56.9969C54.9912 57.8026 56.3675 58.8306 57.5878 60.0502L57.7957 60.2908L58.0035 60.5129L58.298 60.8645L58.5578 61.2161L58.8002 61.5677L59.0081 61.9193C59.3219 62.4316 59.5723 62.9852 59.7529 63.5663C59.9328 64.1084 60.0379 64.6757 60.0647 65.2503C62.726 66.2929 65.4673 67.0855 68.2575 67.6189C76.9864 69.2981 85.9258 69.2981 94.6547 67.6189C105.394 65.4723 112.132 61.0125 112.703 55.646C112.72 55.4243 112.72 55.2015 112.703 54.9798V42.6367L110.07 42.6552Z" fill="#1E386B"/>
<path d="M110.071 21.7441V23.132C110.071 27.1477 103.489 31.0893 93.8757 32.9584C85.6523 34.488 77.2434 34.488 69.0201 32.9584C59.4243 31.1078 52.9116 27.1477 52.825 23.132V21.7441H50.1922V34.0872C50.1755 34.3707 50.1755 34.655 50.1922 34.9385C50.8677 40.268 57.7268 44.6908 68.5351 46.7819C77.0723 48.3864 85.8061 48.3864 94.3433 46.7819C105.152 44.6908 112.011 40.268 112.669 34.9385C112.693 34.6553 112.693 34.3704 112.669 34.0872V21.7441H110.071Z" fill="#1E386B"/>
<path d="M66.8715 26.2591C76.4707 28.307 86.3542 28.307 95.9534 26.2591C106.45 23.8904 112.72 19.2641 112.72 13.8975C112.72 6.10677 98.9673 0 81.4211 0C63.8749 0 50.1221 6.10677 50.1221 13.8975C50.1221 19.227 56.3923 23.8349 66.8715 26.2591Z" fill="#1E386B"/>
<path d="M57.3796 92.7115C57.3493 93.1978 57.2561 93.6773 57.1025 94.1364C56.8744 94.8464 56.5346 95.5098 56.0979 96.0979C55.2528 97.2417 54.227 98.2188 53.0667 98.9848L52.3566 99.4289C51.9989 99.6728 51.6288 99.8952 51.248 100.095C50.8658 100.321 50.4726 100.525 50.0702 100.706C47.2069 102.051 44.2078 103.038 41.1325 103.648C32.9524 105.277 24.561 105.277 16.3809 103.648C6.83702 101.65 0.220394 97.4118 0.133789 92.5449V103.463C0.133789 103.648 0.133789 103.833 0.133789 104.018C0.618776 108.737 7.06217 112.771 16.3635 114.714C24.5437 116.343 32.9351 116.343 41.1152 114.714C48.7018 113.123 54.4351 110.125 56.5136 106.479C56.9564 105.734 57.2403 104.894 57.345 104.018C57.345 103.833 57.345 103.648 57.345 103.463V92.5449L57.3796 92.7115Z" fill="#1E386B"/>
<path d="M53.3615 79.5731C53.0324 79.7952 52.7033 80.0357 52.3396 80.2578C51.9759 80.4799 51.5775 80.7205 51.1791 80.9425C47.8905 82.6484 44.3911 83.8448 40.7865 84.4955C32.7696 86.0583 24.5541 86.0583 16.5371 84.4955C6.83741 82.534 0.099558 78.2592 0.0129532 73.2998V84.218C-0.00431773 84.4397 -0.00431773 84.6625 0.0129532 84.8841C0.584545 89.603 7.1665 93.6372 16.5025 95.5247C24.5194 97.0874 32.7349 97.0874 40.7519 95.5247C44.0603 94.8966 47.2834 93.8337 50.3477 92.3603C51.2864 91.9001 52.1899 91.3618 53.0498 90.7504C53.2749 90.6023 53.4828 90.4358 53.6733 90.2877C55.3326 89.1734 56.562 87.4594 57.1375 85.4578C57.1762 85.2809 57.2051 85.1017 57.2241 84.9212C57.2414 84.6995 57.2414 84.4766 57.2241 84.255V73.3368C57.328 75.5945 55.8731 77.7411 53.3615 79.5731Z" fill="#1E386B"/>
<path d="M53.9327 60.6051C53.6991 60.4299 53.4562 60.2693 53.2053 60.124L52.8242 59.8834C52.6974 59.7924 52.5642 59.712 52.4258 59.6429L52.0101 59.4023H51.5944L51.4039 59.0877C45.8612 56.2564 37.6337 54.6279 28.7481 54.6279C11.8774 54.6279 0.133789 60.4571 0.133789 65.7311C0.133789 69.5432 5.86703 73.2998 14.77 75.2984C24.0029 77.2724 33.5105 77.2724 42.7434 75.2984C45.5469 74.7008 48.282 73.7826 50.9016 72.5596C52.3188 71.9203 53.6522 71.0867 54.8681 70.0799L55.0759 69.8948C55.7141 69.4148 56.2495 68.7953 56.6467 68.0775C57.0438 67.3597 57.2937 66.5599 57.3796 65.7311C57.369 64.9349 57.1467 64.1584 56.7388 63.492C55.9954 62.3372 55.0409 61.3552 53.9327 60.6051Z" fill="#1E386B"/>
<path d="M51.993 59.4019H51.889H51.7158L51.3867 59.2354L51.5772 59.5499L51.993 59.4019Z" fill="#1E386B"/>
</svg>
