<svg width="85" height="85" viewBox="0 0 85 85" fill="none" xmlns="http://www.w3.org/2000/svg">
<path d="M61.0702 23.5391L62.6394 24.4544C63.0317 24.5852 63.0317 25.1083 62.6394 25.3698L61.0702 26.2852C60.9394 26.2852 60.9394 26.416 60.8087 26.5468L59.8933 28.116C59.7625 28.5083 59.2394 28.5083 58.9779 28.116L58.0625 26.5468C58.0625 26.416 57.9317 26.416 57.801 26.2852L56.2317 25.3698C55.8394 25.2391 55.8394 24.716 56.2317 24.4544L57.801 23.5391C57.9317 23.5391 57.9317 23.4083 58.0625 23.2775L58.9779 21.7083C59.1087 21.316 59.6317 21.316 59.8933 21.7083L60.8087 23.2775C60.9394 23.4083 61.0702 23.4083 61.0702 23.5391Z" fill="#F2B124"/>
<path d="M25.7616 23.5391L27.3308 24.4544C27.7231 24.5852 27.7231 25.1083 27.3308 25.3698L25.7616 26.2852C25.6308 26.2852 25.6308 26.416 25.5001 26.5468L24.5847 28.116C24.4539 28.5083 23.9308 28.5083 23.6693 28.116L22.7539 26.5468C22.7539 26.416 22.6231 26.416 22.4924 26.2852L20.9231 25.3698C20.5308 25.2391 20.5308 24.716 20.9231 24.4544L22.4924 23.5391C22.6231 23.5391 22.6231 23.4083 22.7539 23.2775L23.6693 21.7083C23.8001 21.316 24.3231 21.316 24.5847 21.7083L25.5001 23.2775C25.6308 23.4083 25.6308 23.4083 25.7616 23.5391Z" fill="#F2B124"/>
<path d="M63.8173 18.5695L64.7327 19.0925C64.9942 19.2233 64.9942 19.4848 64.7327 19.6156L63.8173 20.1387L63.6865 20.2695L63.1635 21.1848C63.0327 21.4464 62.7712 21.4464 62.6404 21.1848L62.1173 20.2695L61.9865 20.1387L61.0712 19.6156C60.8096 19.4848 60.8096 19.2233 61.0712 19.0925L61.9865 18.5695L62.1173 18.4387L62.6404 17.5233C62.7712 17.2618 63.0327 17.2618 63.1635 17.5233L63.8173 18.5695C63.8173 18.4387 63.8173 18.5695 63.8173 18.5695Z" fill="#F2B124"/>
<path d="M83.6939 58.585C83.6939 58.8465 83.6939 59.1081 83.5631 59.3696C83.4324 59.5004 83.3016 59.6312 83.1708 59.6312H62.6401V59.5004C62.6401 59.2389 62.5093 58.9773 62.5093 58.7158V58.585C62.5093 58.4542 62.5093 58.1927 62.3785 58.0619L62.2477 57.6696C62.117 57.2773 62.117 56.885 61.9862 56.4927C61.3324 53.6158 60.2862 50.8696 58.9785 48.5158C59.1093 48.2542 59.2401 48.1235 59.3708 47.8619C59.3708 47.7312 59.5016 47.7312 59.5016 47.6004L59.6324 47.3389C59.7631 47.2081 59.7631 47.2081 59.8939 47.0773C60.2862 46.685 60.5477 46.2927 60.9401 45.9004C61.2016 46.2927 61.5939 46.685 61.9862 47.0773C63.9478 49.1696 66.6939 50.2158 69.5708 50.2158C72.9708 50.2158 76.2401 48.6465 78.2016 45.9004C78.5939 46.2927 78.8554 46.685 79.2477 47.0773C79.2477 47.2081 79.3785 47.2081 79.3785 47.2081L79.7708 47.7312C81.3401 49.8235 82.3862 52.4389 83.0401 55.3158C83.1708 55.5773 83.1708 55.8389 83.3016 56.1004V56.3619C83.3016 56.4927 83.3016 56.6235 83.3016 56.7542V56.885C83.3016 57.0158 83.4324 57.1465 83.4324 57.4081C83.5631 58.0619 83.5631 58.3235 83.6939 58.585Z" fill="#F2B124"/>
<path d="M78.9851 39.4925C78.9851 41.3233 78.462 43.0233 77.5466 44.4618C75.8466 47.2079 72.8389 48.9079 69.5697 48.9079C67.0851 48.9079 64.7312 47.8618 62.9004 46.1618C62.3774 45.6387 61.9851 45.1156 61.5928 44.5925C60.6774 43.0233 60.1543 41.3233 60.1543 39.4925C60.1543 37.0079 61.2004 34.5233 62.9004 32.8233C64.7312 30.9925 67.0851 30.0771 69.5697 30.0771C72.0543 30.0771 74.4081 31.1233 76.2389 32.8233C78.0697 34.5233 78.9851 36.8771 78.9851 39.4925Z" fill="#F2B124"/>
<path d="M26.024 48.5159C24.324 51.3928 23.2778 54.5313 22.7547 58.062V58.1928C22.7547 58.3236 22.7547 58.5851 22.7547 58.7159C22.7547 58.9774 22.624 59.2389 22.624 59.5005V59.6312H2.09321C1.83167 59.6312 1.7009 59.5005 1.7009 59.3697C1.43936 59.2389 1.30859 58.8466 1.30859 58.5851C1.30859 58.3236 1.30859 58.062 1.43936 57.8005C1.43936 57.6697 1.43936 57.5389 1.57013 57.2774C1.57013 57.1466 1.57013 57.0159 1.57013 56.8851V56.7543C2.09321 53.3543 3.27013 50.4774 5.1009 47.9928C5.1009 47.862 5.23167 47.862 5.23167 47.7312L5.36244 47.4697C5.36244 47.3389 5.49321 47.3389 5.49321 47.2082C5.88552 46.8159 6.14706 46.4236 6.53936 46.0312C6.8009 46.4236 7.19321 46.8159 7.58552 47.2082C9.67782 49.3005 12.2932 50.3466 15.1701 50.3466C18.5701 50.3466 21.8394 48.7774 23.8009 46.0312C24.1932 46.4236 24.4547 46.8159 24.8471 47.2082C24.9778 47.2082 24.9778 47.3389 24.9778 47.3389L25.3701 47.862C25.7624 48.1236 25.8932 48.3851 26.024 48.5159Z" fill="#F2B124"/>
<path d="M24.8464 39.4925C24.8464 41.3233 24.3233 43.0233 23.4079 44.4618C21.7079 47.2079 18.7002 48.9079 15.431 48.9079C12.9464 48.9079 10.4618 47.8618 8.76178 46.1618C8.2387 45.6387 7.84639 45.1156 7.45409 44.5925C6.5387 43.0233 6.01562 41.3233 6.01562 39.4925C6.01562 37.0079 7.06178 34.5233 8.76178 32.8233C10.5925 30.9925 12.9464 30.0771 15.431 30.0771C17.9156 30.0771 20.2695 31.1233 22.1002 32.8233C23.931 34.5233 24.8464 36.8771 24.8464 39.4925Z" fill="#F2B124"/>
<path d="M60.9395 61.0697C60.9395 61.3312 60.8088 61.7235 60.678 61.9851C60.5472 62.2466 60.2857 62.3774 60.0241 62.3774H24.978C24.7164 62.3774 24.4549 62.1159 24.4549 61.9851C24.3241 61.7235 24.1934 61.462 24.1934 61.0697C24.1934 61.0697 24.1934 60.9389 24.1934 60.8082C24.1934 60.4158 24.3241 60.1543 24.3241 59.762C24.3241 59.6312 24.3241 59.3697 24.4549 59.1082C24.4549 58.9774 24.4549 58.8466 24.4549 58.7159V58.5851C24.978 55.5774 25.7626 52.962 27.0703 50.4774C27.3318 49.9543 27.5934 49.562 27.8549 49.0389C28.2472 48.3851 28.6395 47.7312 29.1626 47.0774C29.2934 46.9466 29.2934 46.8159 29.4241 46.8159L29.6857 46.5543C29.8164 46.4235 29.8164 46.2928 29.9472 46.162C30.3395 45.6389 30.7318 45.1159 31.2549 44.7235C31.6472 45.2466 32.0395 45.7697 32.5626 46.162C35.178 48.7774 38.7087 50.3466 42.5011 50.3466C47.078 50.3466 51.1318 48.2543 53.878 44.5928C54.2703 45.1159 54.7934 45.5082 55.1857 46.162C55.3164 46.2928 55.3164 46.2928 55.4472 46.4235L55.9703 47.0774C56.3626 47.7312 56.8857 48.3851 57.278 49.0389C57.5395 49.4312 57.8011 49.9543 58.0626 50.4774C59.1087 52.4389 59.8934 54.662 60.4164 57.0158C60.5472 57.4082 60.5472 57.8005 60.678 58.062V58.4543C60.678 58.5851 60.678 58.7158 60.678 58.8466V59.1082C60.678 59.2389 60.678 59.5005 60.8087 59.6312C60.8087 59.6312 60.8087 59.6312 60.8087 59.762C60.8087 60.1543 60.9395 60.4158 60.9395 60.8082C60.9395 60.9389 60.9395 61.0697 60.9395 61.0697Z" fill="#1E386B"/>
<path d="M54.7934 36.3537C54.7934 38.7076 54.1396 40.9307 52.8319 42.8922C50.6088 46.5537 46.6857 48.6461 42.3703 48.6461C39.1011 48.6461 35.9627 47.3384 33.6088 44.9845C32.955 44.3307 32.4319 43.6768 31.9088 42.8922C30.6011 40.9307 29.9473 38.5768 29.9473 36.223C29.9473 32.9537 31.255 29.8153 33.6088 27.4614C35.9627 25.1076 38.9703 23.9307 42.3703 23.9307C45.6396 23.9307 48.778 25.2384 51.1319 27.5922C53.4857 29.9461 54.7934 32.9537 54.7934 36.3537Z" fill="#1E386B"/>
</svg>
