<svg width="21" height="18" viewBox="0 0 21 18" fill="none" xmlns="http://www.w3.org/2000/svg">
<path d="M18.9174 0H2.08266C0.93422 0 0 1.22316 0 2.7269V15.2731C0 16.7768 0.93422 18 2.08266 18H18.9174C20.0658 18 21 16.7768 21 15.2731V2.7269C21 1.22316 20.0659 0 18.9174 0ZM19.6116 2.7269V15.2731C19.6116 15.4165 19.5808 15.5474 19.5353 15.6681L14.6274 9.24139L19.6102 2.7171C19.6102 2.72072 19.6116 2.72334 19.6116 2.7269ZM1.38844 15.273V2.7269C1.38844 2.72334 1.38984 2.72077 1.38984 2.71715L6.37273 9.24145L1.46439 15.6681C1.41929 15.5474 1.38844 15.4165 1.38844 15.273ZM10.7143 11.7944C10.5997 11.9443 10.4003 11.9443 10.2858 11.7944L2.6667 1.81794H18.3337L10.7143 11.7944ZM7.3544 10.5268L9.30412 13.0797C9.62378 13.4982 10.0485 13.7286 10.5 13.7286C10.9515 13.7286 11.3763 13.4982 11.696 13.0797L13.6458 10.5268L17.9645 16.1821H3.03522L7.3544 10.5268Z" fill="#1E386B"/>
</svg>
