<svg width="65" height="65" viewBox="0 0 65 65" fill="none" xmlns="http://www.w3.org/2000/svg">
<path d="M23.4008 25.8998L23.0008 26.0998L22.2008 26.5998V28.0998L13.8008 23.2998V20.2998L23.4008 25.8998Z" fill="#1E386B"/>
<path d="M51.1996 20.2998V23.1998L42.7996 28.0998V26.5998L41.9996 26.0998H41.8996L41.5996 25.8998L51.1996 20.2998Z" fill="#1E386B"/>
<path d="M33.7992 44.0996V47.8996L33.3992 47.6996L32.4992 47.1996L31.5992 47.6996L31.1992 47.8996V44.0996L31.5992 44.2996L31.6992 44.3996L32.4992 44.7996L33.2992 44.3996L33.3992 44.2996L33.7992 44.0996Z" fill="#1E386B"/>
<path d="M40.5 27.0004L32.5 31.6004L24.5 27.0004L32.5 22.4004L40.5 27.0004Z" fill="#F2B124"/>
<path d="M31.6992 33.0004V42.6004L23.6992 38.0004V28.4004L31.6992 33.0004Z" fill="#F2B124"/>
<path d="M41.9996 26.0996L41.4996 25.7996L32.3996 20.5996L23.2996 25.8996L22.9996 26.0996H22.8996L22.0996 26.5996V38.8996L31.0996 44.0996L31.4996 44.2996L31.5996 44.3996L32.3996 44.7996L33.1996 44.3996L33.2996 44.2996L33.6996 44.0996L42.6996 38.8996V26.5996L41.9996 26.0996ZM31.6996 42.5996L23.6996 37.9996V28.4996L31.6996 33.0996V42.5996ZM32.4996 31.5996L24.4996 26.9996L32.4996 22.3996L40.4996 26.9996L32.4996 31.5996ZM41.1996 37.9996L33.1996 42.5996V32.9996L41.1996 28.3996V37.9996Z" fill="#1E386B"/>
<path d="M41.2008 28.4004V37.9004L33.3008 42.5004V33.0004L41.2008 28.4004Z" fill="#F2B124"/>
<path d="M37.7992 6.00039L32.4992 9.00039L27.1992 6.00039L32.4992 2.90039L37.7992 6.00039Z" fill="#FEF7EA"/>
<path d="M31.9992 10.0004V16.3004L26.6992 13.3004V6.90039L31.9992 10.0004Z" fill="#FEF7EA"/>
<path d="M38.8 5.4002L32.4 1.7002L26 5.4002L25.5 5.7002V13.9002L31.9 17.6002L32.4 17.9002L32.9 17.6002L39.3 13.9002V5.7002L38.8 5.4002ZM32 16.3002L26.7 13.2002V6.9002L32 10.0002V16.3002ZM32.5 9.0002L27.2 6.0002L32.5 2.9002L37.8 6.0002L32.5 9.0002ZM38.3 13.3002L33 16.3002V10.0002L38.3 6.9002V13.3002Z" fill="#1E386B"/>
<path d="M38.3 6.90039V13.2004L33 16.3004V9.90039L38.3 6.90039Z" fill="#FEF7EA"/>
<path d="M37.7992 51.4004L32.4992 54.5004L27.1992 51.4004L32.4992 48.4004L37.7992 51.4004Z" fill="#FEF7EA"/>
<path d="M31.9992 55.3998V61.7998L26.6992 58.6998V52.2998L31.9992 55.3998Z" fill="#FEF7EA"/>
<path d="M38.8 50.8002L33.7 47.9002L33.3 47.7002L32.4 47.2002L31.5 47.7002L31.1 47.9002L26 50.8002L25.5 51.1002V59.3002L32 63.0002L32.5 63.3002L33 63.0002L39.4 59.3002V51.1002L38.8 50.8002ZM32 61.8002L26.7 58.7002V52.3002L32 55.4002V61.8002ZM32.5 54.5002L27.2 51.4002L32.5 48.3002L37.8 51.4002L32.5 54.5002ZM38.3 58.7002L33 61.8002V55.4002L38.3 52.3002V58.7002Z" fill="#1E386B"/>
<path d="M38.3 52.2998V58.6998L33 61.7998V55.3998L38.3 52.2998Z" fill="#FEF7EA"/>
<path d="M63.4008 17.1996L58.1008 20.2996L52.8008 17.1996L58.1008 14.0996L63.4008 17.1996Z" fill="#FEF7EA"/>
<path d="M57.6008 21.1996V27.4996L52.3008 24.4996V18.0996L57.6008 21.1996Z" fill="#FEF7EA"/>
<path d="M63.8996 18.0996V24.4996L58.5996 27.4996V21.1996L63.8996 18.0996Z" fill="#FEF7EA"/>
<path d="M12.1996 17.1996L6.89961 20.2996L1.59961 17.1996L6.89961 14.0996L12.1996 17.1996Z" fill="#FEF7EA"/>
<path d="M6.4 21.1996V27.4996L1 24.4996V18.0996L6.4 21.1996Z" fill="#FEF7EA"/>
<path d="M1 24.5004V18.1004L6.3 21.2004V27.6004L1 24.5004ZM7.4 21.2004L12.7 18.1004V24.5004L7.4 27.6004V21.2004ZM1.6 17.2004L6.9 14.1004L12.2 17.2004L6.9 20.3004L1.6 17.2004ZM0.5 16.6004L0 16.9004V25.1004L5.8 28.4004L5.9 28.5004L6.3 28.8004H6.4L6.9 29.0004L7.4 28.7004L7.9 28.4004H8L13.8 25.1004V16.9004L13.3 16.6004L12.8 16.3004L7 12.9004L0.5 16.6004Z" fill="#1E386B"/>
<path d="M12.7004 18.0996V24.4996L7.40039 27.4996V21.1996L12.7004 18.0996Z" fill="#FEF7EA"/>
<path d="M63.4008 40.5L58.1008 43.6L52.8008 40.5L58.1008 37.5L63.4008 40.5Z" fill="#FEF7EA"/>
<path d="M57.6008 44.5004V50.9004L52.3008 47.8004V41.4004L57.6008 44.5004Z" fill="#FEF7EA"/>
<path d="M52.2992 47.8002V41.4002L57.5992 44.5002V50.9002L52.2992 47.8002ZM58.5992 44.5002L63.8992 41.4002V47.8002L58.5992 50.9002V44.5002ZM52.7992 40.5002L58.0992 37.4002L63.3992 40.5002L58.0992 43.6002L52.7992 40.5002ZM57.5992 36.6002L57.0992 36.9002H56.9992L51.6992 39.9002L51.1992 40.2002V48.4002L51.6992 48.7002L52.1992 49.0002L57.5992 52.1002L58.0992 52.4002L58.5992 52.1002L64.9992 48.4002V40.2002L64.4992 39.9002L59.2992 36.9002L59.1992 36.8002L58.6992 36.5002L58.1992 36.2002L57.5992 36.6002Z" fill="#1E386B"/>
<path d="M63.8996 41.5V47.8L58.5996 50.9V44.5L63.8996 41.5Z" fill="#FEF7EA"/>
<path d="M12.1996 40.5L6.89961 43.6L1.59961 40.5L6.89961 37.5L12.1996 40.5Z" fill="#FEF7EA"/>
<path d="M6.4 44.5004V50.9004L1 47.8004V41.4004L6.4 44.5004Z" fill="#FEF7EA"/>
<path d="M1 47.7998V41.3998L6.3 44.4998V50.8998L1 47.7998ZM7.4 44.4998L12.7 41.3998V47.7998L7.4 50.8998V44.4998ZM1.6 40.4998L6.9 37.3998L12.2 40.4998L6.9 43.5998L1.6 40.4998ZM6.4 36.5998L5.9 36.8998L5.8 36.9998L0.5 39.9998L0 40.2998V48.4998L6.4 52.1998L6.9 52.4998L7.4 52.1998L12.8 49.0998L13.3 48.7998L13.8 48.4998V40.2998L13.3 39.9998L8 36.9998L7.9 36.8998L7.4 36.5998L6.9 36.2998L6.4 36.5998Z" fill="#1E386B"/>
<path d="M12.7004 41.5V47.8L7.40039 50.9V44.5L12.7004 41.5Z" fill="#FEF7EA"/>
<path d="M8.00078 28.4004V36.9004L7.90078 36.8004L7.40078 36.5004L6.90078 36.3004L6.40078 36.5004L5.90078 36.8004L5.80078 36.9004V28.4004L5.90078 28.5004L6.40078 28.7004V28.8004L6.90078 29.0004L7.40078 28.8004V28.7004L7.90078 28.5004L8.00078 28.4004Z" fill="#1E386B"/>
<path d="M59.2 28.4004V36.9004L59.1 36.8004L58.6 36.5004L58.1 36.3004L57.6 36.5004L57.1 36.8004L57 36.9004V28.4004L57.1 28.5004L57.6 28.7004V28.8004L58.1 29.0004L58.6 28.8004V28.7004L59.1 28.5004L59.2 28.4004Z" fill="#1E386B"/>
<path d="M52.2004 16.3004L51.7004 16.6004L51.2004 16.9004V18.0004L39.4004 11.2004V8.90039L52.2004 16.3004Z" fill="#1E386B"/>
<path d="M52.2992 24.5004V18.1004L57.5992 21.2004V27.6004L52.2992 24.5004ZM58.5992 21.2004L63.8992 18.1004V24.5004L58.5992 27.6004V21.2004ZM52.7992 17.2004L58.0992 14.1004L63.3992 17.2004L58.0992 20.3004L52.7992 17.2004ZM52.1992 16.3004L51.6992 16.6004L51.1992 16.9004V25.1004L56.9992 28.4004L57.0992 28.5004L57.5992 28.8004L58.0992 29.1004L58.5992 28.8004L59.0992 28.5004L59.1992 28.4004L64.9992 25.1004V16.9004L64.4992 16.6004L58.0992 12.9004L52.1992 16.3004Z" fill="#1E386B"/>
<path d="M25.5992 8.90039V11.1004L13.7992 18.0004V16.9004L13.1992 16.6004L12.6992 16.3004L12.9992 16.1004L25.5992 8.90039Z" fill="#1E386B"/>
<path d="M52.2004 48.9998L39.4004 56.3998V54.0998L51.2004 47.2998V48.3998L51.7004 48.6998L52.2004 48.9998Z" fill="#1E386B"/>
<path d="M25.6008 54.1998V56.3998L12.8008 48.9998L13.3008 48.6998L13.8008 48.3998V47.2998L25.6008 54.1998Z" fill="#1E386B"/>
</svg>
