<svg width="30" height="30" viewBox="0 0 30 30" fill="none" xmlns="http://www.w3.org/2000/svg">
<path d="M28.939 5.81569C28.8467 6.78492 28.2928 10.2926 27.739 14.0311L25.9851 25.1542C25.9851 25.1542 25.8467 26.7695 24.6467 27.0465C23.4467 27.3234 21.462 26.0772 21.0928 25.7542C20.8159 25.5234 15.7851 22.3388 13.939 20.8157C13.4313 20.4003 12.8774 19.5234 14.0313 18.5542C16.5697 16.2003 19.6159 13.2926 21.462 11.4926C22.2928 10.6618 23.1697 8.67723 19.6159 11.0772L9.6005 17.7695C9.6005 17.7695 8.44666 18.4618 6.32358 17.8618C4.2005 17.2157 1.70819 16.3849 1.70819 16.3849C1.70819 16.3849 0.000500917 15.3234 2.90819 14.1695L19.4774 7.38492C21.0928 6.69261 26.6313 4.43107 26.6313 4.43107C26.6313 4.43107 29.1697 3.41569 28.939 5.81569Z" fill="white"/>
</svg>
