<svg width="65" height="65" viewBox="0 0 65 65" fill="none" xmlns="http://www.w3.org/2000/svg">
<path d="M61.3 3.59961H3.7C1.7 3.59961 0 5.19961 0 7.29961V25.7996C0 27.8996 1.7 29.4996 3.7 29.4996H17.5V24.9996H16.2C15.8 24.9996 15.4 24.5996 15.4 24.1996V21.5996C15.4 21.1996 15.8 20.7996 16.2 20.7996H17.5H20H21.4H43.5H45H47.5H48.8C49.2 20.7996 49.6 21.1996 49.6 21.5996V24.1996C49.6 24.5996 49.2 24.9996 48.8 24.9996H47.5V29.5996H61.3C63.4 29.5996 65 27.8996 65 25.8996V7.29961C65 5.19961 63.3 3.59961 61.3 3.59961Z" fill="#1E386A"/>
<path d="M47.3996 20.7988H44.9996V58.4988H19.9996V20.7988H17.5996V24.9988V29.4988V61.3988H47.3996V29.4988V24.9988V20.7988Z" fill="#F1B02A"/>
<path d="M43.6 20.7988H21.5V57.0988H43.6V20.7988ZM32.5 30.3988C36.6 30.3988 40 33.7988 40 37.8988C40 41.9988 36.7 45.3988 32.5 45.3988C28.4 45.3988 25 42.0988 25 37.8988C25 33.6988 28.4 30.3988 32.5 30.3988Z" fill="#F1B02A"/>
<path d="M45 58.4988V20.7988H43.6V57.0988H21.4V20.7988H20V58.4988H45Z" fill="#FDF6E9"/>
<path d="M32.5 45.2988C36.6 45.2988 40 41.9988 40 37.7988C40 33.5988 36.7 30.2988 32.5 30.2988C28.4 30.2988 25 33.5988 25 37.7988C25 41.9988 28.4 45.2988 32.5 45.2988Z" fill="#FDF6E9"/>
</svg>
