<svg width="65" height="65" viewBox="0 0 65 65" fill="none" xmlns="http://www.w3.org/2000/svg">
<path d="M36.1996 33.2C33.7996 34.8 31.0996 35.9 28.0996 36.1C27.5996 36.1 27.0996 36.2 26.5996 36.2H26.4996C26.1996 36.2 25.8996 36.2 25.5996 36.2L33.3996 47.5L44.5996 34.7L39.7996 30C38.7996 31.2 37.5996 32.3 36.1996 33.2Z" fill="#1E386A"/>
<path d="M50.3 41.7004L36.3 57.7004C36.2 57.8004 36 58.0004 35.9 58.1004C35.8 58.2004 35.6 58.3004 35.4 58.4004C35.2 58.5004 35 58.7004 34.8 58.7004C34.7 58.8004 34.6 58.8004 34.5 58.8004H34.4C34.3 58.8004 34.2 58.9004 34.1 58.9004C33.9 59.0004 33.6 59.0004 33.4 59.1004C33.3 59.1004 33.3 59.1004 33.2 59.1004C33.1 59.1004 32.9 59.1004 32.8 59.1004C32.7 59.1004 32.5 59.1004 32.4 59.1004C32.3 59.1004 32.3 59.1004 32.2 59.1004C32.1 59.1004 31.9 59.1004 31.8 59.0004C31.6 59.0004 31.4 58.9004 31.1 58.8004C31 58.7004 30.8 58.7004 30.7 58.6004C30.6 58.5004 30.5 58.5004 30.3 58.4004C30.2 58.4004 30.2 58.3004 30.1 58.3004C29.7 58.0004 29.3 57.6004 29 57.2004L17.3 40.1004C16 38.2004 16.4 35.6004 18.1 34.1004C18.2 34.0004 18.3 33.9004 18.4 33.8004C20.4 32.4004 23.2 32.9004 24.7 35.0004L25.5 36.2004C25.8 36.2004 26.1 36.2004 26.4 36.2004H26.5C27 36.2004 27.5 36.2004 28 36.1004C31 35.8004 33.8 34.8004 36.1 33.2004C37.4 32.3004 38.6 31.2004 39.7 30.0004C42.3 27.0004 43.8 23.1004 43.8 18.8004C43.8 9.20039 36 1.40039 26.4 1.40039C16.8 1.40039 9 9.20039 9 18.8004C9 22.7004 10.3 26.4004 12.5 29.3004L4.3 37.5004V37.6004C1.7 40.2004 0 43.9004 0 48.0004C0 56.2004 6.6 62.8004 14.8 62.8004H36.9C45.1 62.8004 51.7 56.2004 51.7 48.0004C51.8 45.8004 51.3 43.6004 50.3 41.7004Z" fill="#1E386A"/>
<path d="M63.5 19.7998C61.6 18.1998 58.8 18.3998 57.1 20.1998L44.5 34.6998L46.4 36.5998C48.1 37.9998 49.4 39.6998 50.4 41.6998L63.9 26.1998C65.5 24.2998 65.3 21.3998 63.5 19.7998Z" fill="#F1B02A"/>
<path d="M18.3996 33.8011C18.2996 33.9011 18.1996 34.0011 18.0996 34.1011C19.6996 35.0011 21.5996 35.7011 23.4996 36.0011C23.9996 36.1011 24.4996 36.1011 24.9996 36.2011C25.1996 36.2011 25.3996 36.2011 25.5996 36.2011L24.6996 35.0011C23.2996 32.9011 20.4996 32.4011 18.3996 33.8011Z" fill="#F1B02A"/>
<path d="M46.4003 36.5996L44.5003 34.6996L33.3003 47.4996L25.5003 36.1996C25.3003 36.1996 25.1003 36.1996 24.9003 36.1996C24.4003 36.1996 23.9003 36.0996 23.4003 35.9996C21.5003 35.6996 19.7003 34.9996 18.0003 34.0996C16.3003 35.5996 15.9003 38.1996 17.2003 40.0996L29.1003 57.3996C29.4003 57.7996 29.8003 58.1996 30.2003 58.4996C30.3003 58.5996 30.3003 58.5996 30.4003 58.6996C30.5003 58.7996 30.6003 58.7996 30.8003 58.8996C30.9003 58.9996 31.1003 58.9996 31.2003 59.0996C31.4003 59.1996 31.6003 59.1996 31.8003 59.2996C31.9003 59.2996 32.0003 59.3996 32.2003 59.3996C32.3003 59.3996 32.3003 59.3996 32.4003 59.3996C32.5003 59.3996 32.7003 59.3996 32.8003 59.3996C32.9003 59.3996 33.1003 59.3996 33.2003 59.3996C33.3003 59.3996 33.3003 59.3996 33.4003 59.3996C33.6003 59.3996 33.9003 59.2996 34.1003 59.1996C34.2003 59.1996 34.3003 59.0996 34.4003 59.0996H34.5003C34.6003 59.0996 34.7003 58.9996 34.8003 58.9996C35.0003 58.8996 35.2003 58.7996 35.4003 58.6996C35.6003 58.5996 35.7003 58.4996 35.9003 58.3996C36.0003 58.2996 36.2003 58.0996 36.3003 57.9996L50.4003 41.8996C49.4003 39.6996 48.1003 37.9996 46.4003 36.5996Z" fill="#F1B02A"/>
</svg>
