<svg width="65" height="65" viewBox="0 0 65 65" fill="none" xmlns="http://www.w3.org/2000/svg">
<path d="M35.8002 33.2C45.0002 33.2 52.4002 25.8 52.4002 16.6C52.4002 7.4 45.0002 0 35.8002 0C26.6002 0 19.2002 7.4 19.2002 16.6C19.3002 25.7 26.7002 33.2 35.8002 33.2ZM35.8002 3.5C43.0002 3.5 48.9002 9.4 48.9002 16.6C48.9002 23.8 43.0002 29.7 35.8002 29.7C28.6002 29.7 22.7002 23.8 22.7002 16.6C22.8002 9.4 28.6002 3.5 35.8002 3.5Z" fill="#F1B02A"/>
<path d="M35.8002 28.2C42.2002 28.2 47.4002 23 47.4002 16.6C47.5002 10.2 42.3002 5 35.8002 5C29.3002 5 24.2002 10.2 24.2002 16.6C24.2002 23 29.4002 28.2 35.8002 28.2Z" fill="#F1B02A"/>
<path d="M35.7998 29.6C42.9998 29.6 48.8998 23.7 48.8998 16.5C48.8998 9.3 42.9998 3.5 35.7998 3.5C28.5998 3.5 22.7998 9.4 22.7998 16.6C22.7998 23.8 28.5998 29.6 35.7998 29.6ZM35.7998 5C42.1998 5 47.3998 10.2 47.3998 16.6C47.3998 23 42.1998 28.2 35.7998 28.2C29.3998 28.2 24.1998 23 24.1998 16.6C24.1998 10.2 29.3998 5 35.7998 5Z" fill="#FDF6E9"/>
<path d="M19.0998 35.8L16.9998 28.5H8.0998C7.3998 28.5 6.7998 29.2 6.7998 29.9C6.7998 30.6 7.3998 31.2 8.0998 31.2H14.5998L15.8998 35.8L21.6998 56.2C21.7998 56.5 21.8998 56.7 22.0998 56.9H23.5998C23.6998 56.9 23.6998 56.9 23.7998 56.9H24.7998C25.5998 56.3 26.5998 55.9 27.6998 55.9C28.7998 55.9 29.7998 56.3 30.5998 56.9H44.1998C44.9998 56.3 45.9998 55.9 47.0998 55.9C48.1998 55.9 49.1998 56.3 49.9998 56.9H51.5998C52.2998 56.9 52.7998 56.5 52.9998 55.9L58.1998 37.7C58.4998 36.8 57.7998 35.9 56.7998 35.9H19.2998" fill="#1E386A"/>
<path d="M24.9002 56.8008C23.8002 57.6008 23.2002 58.9008 23.2002 60.4008C23.2002 62.9008 25.3002 65.0008 27.8002 65.0008C30.3002 65.0008 32.4002 63.0008 32.4002 60.4008C32.4002 59.0008 31.7002 57.7008 30.7002 56.8008C29.9002 56.2008 28.9002 55.8008 27.8002 55.8008C26.6002 55.8008 25.6002 56.2008 24.9002 56.8008Z" fill="#1E386A"/>
<path d="M44.2 56.8008C43.2 57.7008 42.5 58.9008 42.5 60.4008C42.5 62.9008 44.5 65.0008 47.1 65.0008C49.6 65.0008 51.7 63.0008 51.7 60.4008C51.7 59.0008 51 57.7008 50 56.8008C49.2 56.2008 48.2 55.8008 47.1 55.8008C45.9 55.8008 45 56.2008 44.2 56.8008Z" fill="#1E386A"/>
</svg>
