<svg width="16" height="14" viewBox="0 0 16 14" fill="none" xmlns="http://www.w3.org/2000/svg">
<path d="M12.44 8.29642V11.064C12.44 11.7501 12.1964 12.3368 11.7092 12.824C11.222 13.3112 10.6353 13.5548 9.94922 13.5548H2.75352C2.06739 13.5548 1.48072 13.3112 0.993509 12.824C0.5063 12.3368 0.262695 11.7501 0.262695 11.064V3.86833C0.262695 3.18221 0.5063 2.59554 0.993509 2.10834C1.48072 1.62113 2.06739 1.37753 2.75352 1.37753H8.84219C8.92291 1.37753 8.98922 1.40348 9.04111 1.45537C9.093 1.50726 9.11895 1.57356 9.11895 1.65429V2.2078C9.11895 2.28852 9.093 2.35482 9.04111 2.40671C8.98922 2.45861 8.92291 2.48455 8.84219 2.48455H2.75352C2.37297 2.48455 2.04721 2.62005 1.77621 2.89104C1.50522 3.16203 1.36973 3.48779 1.36973 3.86833V11.064C1.36973 11.4445 1.50522 11.7703 1.77621 12.0413C2.04721 12.3123 2.37297 12.4477 2.75352 12.4477H9.94922C10.3298 12.4477 10.6555 12.3123 10.9265 12.0413C11.1975 11.7703 11.333 11.4445 11.333 11.064V8.29642C11.333 8.2157 11.359 8.14939 11.4108 8.0975C11.4627 8.04561 11.529 8.01966 11.6098 8.01966H12.1633C12.244 8.01966 12.3103 8.04561 12.3622 8.0975C12.4141 8.14939 12.44 8.2157 12.44 8.29642ZM15.7611 0.824019V5.25211C15.7611 5.40202 15.7064 5.53174 15.5968 5.64129C15.4873 5.75084 15.3575 5.80562 15.2076 5.80562C15.0577 5.80562 14.928 5.75084 14.8184 5.64129L13.2963 4.11914L7.65732 9.75803C7.59966 9.81569 7.53335 9.84452 7.4584 9.84452C7.38344 9.84452 7.31714 9.81569 7.25948 9.75803L6.27353 8.77209C6.21587 8.71443 6.18704 8.64813 6.18704 8.57317C6.18704 8.49822 6.21587 8.43191 6.27353 8.37425L11.9125 2.73536L10.3903 1.21321C10.2808 1.10366 10.226 0.973928 10.226 0.824019C10.226 0.67411 10.2808 0.54438 10.3903 0.434831C10.4999 0.325282 10.6296 0.270508 10.7795 0.270508H15.2076C15.3575 0.270508 15.4873 0.325282 15.5968 0.434831C15.7064 0.54438 15.7611 0.67411 15.7611 0.824019Z" fill="white"/>
</svg>
