<svg width="48" height="48" viewBox="0 0 48 48" fill="none" xmlns="http://www.w3.org/2000/svg">
<path d="M24.0001 44.5716C26.7016 44.5716 29.3766 44.0395 31.8725 43.0057C34.3683 41.9718 36.6361 40.4566 38.5463 38.5463C40.4566 36.6361 41.9718 34.3683 43.0057 31.8725C44.0395 29.3766 44.5716 26.7016 44.5716 24.0001C44.5716 21.2987 44.0395 18.6236 43.0057 16.1278C41.9718 13.632 40.4566 11.3642 38.5463 9.45394C36.6361 7.54371 34.3683 6.02843 31.8725 4.99462C29.3766 3.96081 26.7016 3.42871 24.0001 3.42871C18.5443 3.42871 13.3118 5.59605 9.45394 9.45394C5.59605 13.3118 3.42871 18.5443 3.42871 24.0001C3.42871 29.456 5.59605 34.6884 9.45394 38.5463C13.3118 42.4042 18.5443 44.5716 24.0001 44.5716V44.5716Z" stroke="#1E386B" stroke-miterlimit="10" stroke-linejoin="round"/>
<path d="M23.9998 36.9706V34.286M23.9998 31.1557V29.7774C23.9998 27.7408 25.2341 26.006 27.0238 25.0185C28.2281 24.3556 29.1814 23.3154 29.737 22.058C30.2927 20.8005 30.4199 19.3954 30.0993 18.0585C29.8297 16.9393 29.256 15.9163 28.4416 15.1025C27.6273 14.2888 26.6039 13.7159 25.4844 13.4471C24.563 13.2222 23.6025 13.2096 22.6755 13.4102C21.7484 13.6109 20.8791 14.0195 20.1332 14.6053C19.3872 15.1911 18.7841 15.9388 18.3694 16.7918C17.9547 17.6448 17.7392 18.5809 17.7393 19.5294V20.4208L23.9998 31.1557Z" stroke="#1E386B" stroke-miterlimit="10" stroke-linejoin="round"/>
</svg>
