<svg width="102" height="119" viewBox="0 0 102 119" fill="none" xmlns="http://www.w3.org/2000/svg">
<path d="M94.7731 68.7077C86.996 63.7852 84.3805 56.3831 80.7777 49.6842L92.4694 35.287C86.1126 29.7354 75.772 31.5859 70.9914 37.8408C68.0492 35.5267 64.8847 33.5541 61.5515 31.9561C61.5642 40.2015 58.7266 48.1615 53.5832 54.3089C48.4398 60.4563 41.3528 64.3581 33.682 65.2657C32.5318 65.4034 31.3752 65.4714 30.2178 65.4692C25.2002 65.4604 20.2579 64.165 15.8062 61.692C11.3544 59.2189 7.5233 55.6404 4.63473 51.2571C2.04524 56.6452 0.691636 62.6138 0.685547 68.6706C0.7245 74.2679 1.88197 79.7917 4.08051 84.8724C6.27905 89.9531 9.46794 94.4735 13.4338 98.1312C15.2565 104.828 16.0405 111.798 15.7548 118.765H26.0608C26.2405 114.848 26.9403 110.979 28.1393 107.273C32.9776 109.047 38.0587 109.947 43.1739 109.938C48.8837 109.983 54.5829 109.407 60.1831 108.217C62.2156 111.367 63.5377 114.977 64.0457 118.765H74.3517C74.3517 115.064 76.2743 106.755 78.2142 101.018C89.1784 94.06 92.6253 85.5845 92.6253 85.5845H101.736V68.6706L94.7731 68.7077ZM81.6091 70.8913C81.0467 70.9857 80.4706 70.894 79.9584 70.6284C79.4462 70.3627 79.0224 69.9359 78.7439 69.4054C78.4654 68.8748 78.3456 68.2659 78.4005 67.6604C78.4555 67.055 78.6826 66.482 79.0514 66.0185C79.4201 65.555 79.9128 65.2232 80.4633 65.0677C81.0137 64.9122 81.5955 64.9404 82.1305 65.1486C82.6655 65.3568 83.1281 65.7349 83.456 66.2322C83.7839 66.7295 83.9614 67.3222 83.9648 67.9304C84.0175 68.6562 83.7994 69.3749 83.3581 69.9296C82.9168 70.4842 82.2881 70.83 81.6091 70.8913Z" fill="#1E386B"/>
<path d="M11.9271 56.4938C17.7073 61.4172 25.0155 63.825 32.3873 63.2348C39.759 62.6445 46.6496 59.0997 51.6783 53.3107C56.707 47.5217 59.5023 39.9163 59.5039 32.0184C59.5056 24.1205 56.7136 16.5137 51.6873 10.7223C46.6611 4.93088 39.7719 1.38274 32.4005 0.788888C25.029 0.195036 17.7198 2.59934 11.9375 7.52C6.15518 12.4407 2.32703 19.5141 1.22014 27.323C0.113247 35.1318 1.80939 43.0991 5.96869 49.6283C7.61863 52.2254 9.6276 54.5402 11.9271 56.4938ZM20.1372 24.0724C20.2758 20.7599 21.7135 16.6703 27.5506 16.0966V12.5621H33.1453V16.0966C35.1212 16.253 37.0738 16.6504 38.9651 17.2809L39.6753 17.5215V24.5905H38.5841C36.2631 24.3685 32.2619 24.2204 30.4952 24.2204C29.803 24.1476 29.1044 24.2425 28.4513 24.498C28.2949 24.8164 28.2287 25.1764 28.2608 25.5343V26.5151C28.2608 27.4589 28.2608 27.8845 29.9929 27.8845H32.9894C40.2123 27.8845 40.7839 34.9165 40.8012 37.1372V38.8397C40.8012 39.3948 40.8012 39.913 40.8012 40.3756C40.7829 42.483 39.9865 44.4974 38.5852 45.9806C37.1839 47.4639 35.2911 48.296 33.3185 48.2959V51.6268H27.6372V48.0738C25.618 47.9861 23.622 47.5808 21.7135 46.871L21.0033 46.6119V39.5799H22.4236C24.0691 39.7094 27.4813 39.9315 30.7204 39.913C32.591 39.913 32.591 39.3393 32.591 38.8397V37.6738C32.591 36.73 32.591 36.4155 31.3266 36.4525H28.382C27.1106 36.5541 25.8356 36.3164 24.6715 35.7607C23.5075 35.2051 22.4909 34.3491 21.7135 33.2696C20.6735 31.5114 20.1432 29.4641 20.1892 27.3849V24.8681C20.1451 24.6057 20.1277 24.3389 20.1372 24.0724Z" fill="#1E386B"/>
</svg>
