<svg width="96" height="122" viewBox="0 0 96 122" fill="none" xmlns="http://www.w3.org/2000/svg">
<path d="M17.6143 26.6128C23.7174 26.6128 28.665 21.3269 28.665 14.8064C28.665 8.28591 23.7174 3 17.6143 3C11.5111 3 6.56348 8.28591 6.56348 14.8064C6.56348 21.3269 11.5111 26.6128 17.6143 26.6128Z" fill="#1E386B"/>
<path d="M34.1895 35.2369H34.9343V33.2753C34.9343 32.2937 34.5693 31.3523 33.9196 30.6582C33.27 29.9642 32.3888 29.5742 31.4701 29.5742H3.8431C2.92434 29.5742 2.04321 29.9642 1.39354 30.6582C0.74388 31.3523 0.378906 32.2937 0.378906 33.2753V68.8055C0.378906 69.7871 0.74388 70.7285 1.39354 71.4226C2.04321 72.1167 2.92434 72.5066 3.8431 72.5066C4.75225 72.5389 5.61591 72.9392 6.25913 73.6264C6.90235 74.3136 7.27704 75.2364 7.3073 76.2077V109.536C7.3073 110.517 7.67227 111.459 8.32193 112.153C8.9716 112.847 9.85273 113.237 10.7715 113.237H24.1952C25.1071 113.213 25.9755 112.816 26.6205 112.127C27.2654 111.438 27.6375 110.51 27.6594 109.536V76.3742C27.6497 75.4968 27.9321 74.6441 28.4562 73.9685V41.1216C28.458 40.3288 28.6092 39.5446 28.9009 38.8157C29.1925 38.0868 29.6185 37.4281 30.1536 36.8789C30.6886 36.3297 31.3217 35.9013 32.0151 35.6192C32.7085 35.3371 33.448 35.207 34.1895 35.2369Z" fill="#1E386B"/>
<path d="M80.8693 26.3133C86.8093 24.8155 90.4881 18.4567 89.0861 12.1105C87.6842 5.7644 81.7324 1.83407 75.7924 3.3319C69.8524 4.82972 66.1736 11.1885 67.5756 17.5346C68.9775 23.8808 74.9294 27.8111 80.8693 26.3133Z" fill="#1E386B"/>
<path d="M92.1114 29.5186H64.5365C63.6177 29.5186 62.7366 29.9085 62.0869 30.6026C61.4372 31.2967 61.0723 32.238 61.0723 33.2196V35.1812H61.8171C63.2795 35.1812 64.6823 35.8006 65.718 36.9036C66.7537 38.0067 67.3379 39.5035 67.3425 41.0659V73.9684C67.8666 74.644 68.149 75.4966 68.1392 76.3741V109.536C68.1392 110.517 68.5042 111.459 69.1539 112.153C69.8035 112.847 70.6847 113.237 71.6034 113.237H85.0099C85.9286 113.237 86.8097 112.847 87.4594 112.153C88.1091 111.459 88.474 110.517 88.474 109.536V76.3741C88.496 75.3999 88.8681 74.4721 89.513 73.783C90.158 73.094 91.0264 72.6965 91.9383 72.673C92.857 72.673 93.7381 72.2831 94.3878 71.589C95.0374 70.8949 95.4024 69.9535 95.4024 68.9719V33.2751C95.417 32.3152 95.0819 31.3868 94.4679 30.6859C93.8539 29.985 93.0089 29.5664 92.1114 29.5186Z" fill="#1E386B"/>
<path d="M55.8006 30.99C60.1162 26.3793 60.1162 18.9039 55.8006 14.2932C51.485 9.68252 44.4881 9.68252 40.1725 14.2932C35.8569 18.9039 35.8569 26.3793 40.1725 30.99C44.4881 35.6007 51.485 35.6007 55.8006 30.99Z" fill="#1E386B"/>
<path d="M61.7484 37.3457H34.1908C33.272 37.3457 32.3909 37.7356 31.7412 38.4297C31.0915 39.1238 30.7266 40.0652 30.7266 41.0468V76.651C30.7266 77.6326 31.0915 78.574 31.7412 79.2681C32.3909 79.9622 33.272 80.3521 34.1908 80.3521C35.1095 80.3521 35.9906 80.742 36.6403 81.4361C37.29 82.1302 37.655 83.0716 37.655 84.0532V117.381C37.655 118.363 38.0199 119.304 38.6696 119.998C39.3193 120.692 40.2004 121.082 41.1191 121.082H54.5429C55.4617 121.082 56.3428 120.692 56.9924 119.998C57.6421 119.304 58.0071 118.363 58.0071 117.381V84.2197C58.0291 83.2455 58.4011 82.3177 59.0461 81.6287C59.691 80.9396 60.5594 80.5421 61.4713 80.5187C62.3901 80.5187 63.2712 80.1287 63.9208 79.4346C64.5705 78.7406 64.9355 77.7992 64.9355 76.8176V41.1208C64.9358 40.1817 64.6101 39.2759 64.0214 38.5785C63.4327 37.8812 62.6228 37.4419 61.7484 37.3457Z" fill="#1E386B"/>
</svg>
