<svg width="113" height="121" viewBox="0 0 113 121" fill="none" xmlns="http://www.w3.org/2000/svg">
<path d="M102.193 25.4633C101.327 24.168 100.461 22.9096 99.4908 21.7623C94.2278 14.9684 87.6287 9.4965 80.1627 5.73528C72.6966 1.97407 64.5467 0.0159179 56.2923 0H55.9632C47.7612 0.0514347 39.6691 2.0195 32.2545 5.76612C24.8399 9.51274 18.2823 14.9472 13.0418 21.6883C12.1065 22.9219 11.2058 24.1556 10.3397 25.3893C3.61309 35.5251 0 47.6433 0 60.0683C0 72.4934 3.61309 84.6115 10.3397 94.7473C11.2058 95.981 12.1065 97.2147 13.0418 98.4484C18.269 105.217 24.8207 110.679 32.236 114.452C39.6513 118.224 47.7503 120.215 55.9632 120.285H56.2923C64.5588 120.294 72.7254 118.355 80.2103 114.607C87.6951 110.858 94.3138 105.391 99.5947 98.5964C100.53 97.3627 101.431 96.129 102.297 94.8953C109.023 84.7595 112.637 72.6414 112.637 60.2163C112.637 47.7913 109.023 35.6732 102.297 25.5374L102.193 25.4633ZM39.8373 7.82775C34.0942 14.173 29.8333 21.8763 27.4009 30.3117C23.6753 28.8525 20.114 26.9532 16.7831 24.6491C22.8775 16.8881 30.8535 11.0685 39.8373 7.82775ZM14.0637 28.4242C17.8266 31.0653 21.8597 33.2383 26.0845 34.9011C24.063 42.9718 23.0267 51.288 23.0014 59.6427H4.6238C4.72333 48.4526 8.01663 37.5615 14.0637 28.4242ZM4.79701 64.5651H23.088C23.3642 71.6015 24.3691 78.5836 26.0845 85.3836C21.8582 87.0426 17.8247 89.2159 14.0637 91.8605C8.73744 83.8157 5.53653 74.3873 4.79701 64.5651ZM16.7831 95.6171C20.1204 93.33 23.6806 91.4375 27.4009 89.9729C29.8333 98.4084 34.0942 106.112 39.8373 112.457C30.8542 109.205 22.8795 103.38 16.7831 95.6171ZM53.9886 115.177C44.4967 113.789 36.3212 103.408 31.6792 88.437C38.9303 86.1575 46.4319 84.913 53.9886 84.7359V115.177ZM53.9886 79.869C45.9932 80.0253 38.0557 81.3515 30.3974 83.8107C28.8718 77.5141 27.972 71.0633 27.7127 64.5651H53.9886V79.869ZM53.9886 59.6427H27.7127C27.7294 51.8254 28.6663 44.0415 30.5013 36.474C38.1533 38.9347 46.0854 40.2609 54.0752 40.4156V59.6427H53.9886ZM53.9886 35.5858C46.4368 35.4173 38.9399 34.1727 31.6965 31.8847C36.3385 16.9324 44.514 6.53238 53.9886 5.14448V35.5858ZM107.961 59.6427H89.3061C89.3018 51.3254 88.2769 43.0447 86.2576 35.0121C90.5717 33.3343 94.6874 31.1233 98.5208 28.4242C104.568 37.5615 107.861 48.4526 107.961 59.6427ZM95.8361 24.6676C92.426 27.0036 88.7835 28.9276 84.9758 30.4042C82.5236 21.866 78.2008 14.0757 72.3661 7.6797C81.5076 10.8972 89.6249 16.7814 95.8014 24.6676H95.8361ZM58.596 5.14448C67.9839 6.69893 76.0555 17.0804 80.6456 31.9217C73.4734 34.1365 66.0603 35.3372 58.596 35.4932V5.14448ZM58.596 40.4156C66.4997 40.2593 74.3476 38.9645 81.9273 36.5665C83.7396 44.1068 84.6705 51.8579 84.6987 59.6427H58.596V40.4156ZM58.596 64.4726H84.5774C84.3262 70.9447 83.4379 77.3707 81.9273 83.6441C74.35 81.2323 66.5011 79.9312 58.596 79.7765V64.4726ZM58.596 115.048V84.6989C66.0603 84.8549 73.4734 86.0557 80.6456 88.2705C76.0555 103.223 67.9839 113.586 58.596 115.14V115.048ZM72.3315 112.531C78.1644 106.13 82.4921 98.3421 84.9585 89.8064C88.7601 91.2769 92.3968 93.1947 95.8014 95.5245C89.6165 103.443 81.4895 109.363 72.3315 112.623V112.531ZM98.5208 91.7679C94.6832 89.0815 90.5682 86.8771 86.2576 85.1986C87.9552 78.4279 88.9428 71.4765 89.2021 64.4726H107.788C107.063 74.3268 103.862 83.7892 98.5208 91.8605V91.7679Z" fill="#1E386B"/>
</svg>
