<svg width="67" height="121" viewBox="0 0 67 121" fill="none" xmlns="http://www.w3.org/2000/svg">
<path d="M60.97 0H6.46082C4.87136 0 3.34702 0.674584 2.2231 1.87535C1.09919 3.07612 0.467773 4.70471 0.467773 6.40285V113.882C0.467773 115.58 1.09919 117.209 2.2231 118.409C3.34702 119.61 4.87136 120.285 6.46082 120.285H60.97C62.5594 120.285 64.0837 119.61 65.2077 118.409C66.3316 117.209 66.963 115.58 66.963 113.882V6.40285C66.963 4.70471 66.3316 3.07612 65.2077 1.87535C64.0837 0.674584 62.5594 0 60.97 0ZM36.7206 115.991C36.302 116.437 35.8054 116.791 35.259 117.032C34.7126 117.273 34.1271 117.396 33.5361 117.395C32.945 117.394 32.3598 117.269 31.814 117.027C31.2682 116.784 30.7725 116.429 30.3551 115.982C29.9377 115.535 29.6068 115.004 29.3814 114.421C29.1559 113.837 29.0403 113.211 29.0411 112.58C29.0419 111.948 29.1591 111.323 29.3861 110.74C29.613 110.157 29.9452 109.627 30.3638 109.181C30.4767 108.981 30.6307 108.81 30.8141 108.682C31.6732 107.906 32.7738 107.503 33.8977 107.554C35.0216 107.604 36.0868 108.103 36.8823 108.953C37.6777 109.803 38.1453 110.941 38.1923 112.142C38.2394 113.343 37.8624 114.518 37.1363 115.436C37.0083 115.652 36.8439 115.84 36.6513 115.991H36.7206ZM61.5415 102.631H5.88922V13.953H61.5415V102.631Z" fill="#1E386B"/>
</svg>
