<svg width="23" height="23" viewBox="0 0 23 23" fill="none" xmlns="http://www.w3.org/2000/svg">
<path d="M22.4856 11.2526C22.483 13.93 21.5264 16.5188 19.7875 18.5545C18.0486 20.5903 15.6412 21.9399 12.9972 22.361V14.5046H15.6192L16.1088 11.2526H12.9972V9.14062C12.9752 8.89821 13.0078 8.65395 13.0927 8.42582C13.1776 8.19769 13.3126 7.99152 13.4877 7.82248C13.6628 7.65344 13.8737 7.52585 14.1047 7.4491C14.3357 7.37235 14.5809 7.34841 14.8224 7.37902H16.2624V4.61662C15.4287 4.48362 14.5865 4.41063 13.7424 4.39822C13.162 4.35341 12.5789 4.43672 12.0343 4.64224C11.4896 4.84777 10.9968 5.17048 10.5908 5.58756C10.1847 6.00463 9.87524 6.50586 9.68433 7.05578C9.49342 7.60569 9.42571 8.19084 9.486 8.76982V11.2514H6.63V14.5034H9.486V22.3586C7.36302 22.0218 5.381 21.0837 3.77457 19.6554C2.16814 18.2272 1.00457 16.3686 0.421599 14.2996C-0.161375 12.2306 -0.139341 10.0379 0.485094 7.98107C1.10953 5.92422 2.31022 4.08936 3.94502 2.69367C5.57983 1.29799 7.5803 0.399931 9.70962 0.105808C11.8389 -0.188315 14.008 0.133813 15.9599 1.03406C17.9118 1.93431 19.565 3.37497 20.7236 5.18552C21.8823 6.99607 22.4979 9.10068 22.4976 11.2502L22.4856 11.2526Z" fill="#1E386B"/>
</svg>
