<svg width="105" height="121" viewBox="0 0 105 121" fill="none" xmlns="http://www.w3.org/2000/svg">
<path d="M90.658 84.754L78.2388 78.1291L58.2678 67.4516L52.829 64.5462L54.7516 83.9768H52.7424C23.6085 83.9768 0 62.3811 0 35.7334C0 74.5021 23.6085 105.943 52.7424 105.943H54.2147L52.7424 120.192L58.1811 117.286L104.705 92.4338L104.878 92.3412L104.705 92.2302L90.658 84.754Z" fill="#1E386B"/>
<path d="M14.3071 35.4932L26.7262 42.1182L46.6973 52.7772L52.1361 55.6826L50.1269 36.1964C50.7851 36.1964 51.4606 36.1964 52.1361 36.1964C81.27 36.1964 104.878 57.7922 104.878 84.4398C104.878 45.6712 81.27 14.2306 52.1361 14.2306H50.6638L52.1361 0L46.6973 2.90535L0.173194 27.758H0L0.173194 27.869L14.3071 35.4932Z" fill="#1E386B"/>
</svg>
