<svg width="65" height="65" viewBox="0 0 65 65" fill="none" xmlns="http://www.w3.org/2000/svg">
<path d="M33.3996 44.7998V48.1998L32.4996 47.6998L31.5996 48.1998V44.7998L31.6996 44.8998L32.4996 45.2998L33.2996 44.8998L33.3996 44.7998Z" fill="#1E386B"/>
<path d="M33.3996 44.7998V48.1998L32.4996 47.6998L31.5996 48.1998V44.7998L31.6996 44.8998L32.4996 45.2998L33.2996 44.8998L33.3996 44.7998Z" stroke="#1E386B" stroke-miterlimit="10"/>
<path d="M33.3996 17.7998V21.6998L32.4996 21.1998L31.5996 21.6998V17.7998L31.9996 18.0998L32.4996 18.3998L32.9996 18.0998L33.3996 17.7998Z" fill="#1E386B"/>
<path d="M33.3996 17.7998V21.6998L32.4996 21.1998L31.5996 21.6998V17.7998L31.9996 18.0998L32.4996 18.3998L32.9996 18.0998L33.3996 17.7998Z" stroke="#1E386B" stroke-miterlimit="10"/>
<path d="M40.5 27.6L32.5 32.2L24.5 27.6L32.5 23L40.5 27.6Z" fill="#F2B124"/>
<path d="M31.7008 33.5004V43.1004L23.8008 38.5004V28.9004L31.7008 33.5004Z" fill="#F2B124"/>
<path d="M41.9992 26.7002L41.3992 26.3002L33.3992 21.7002L32.4992 21.2002L31.5992 21.7002L23.2992 26.5002L22.9992 26.6002L22.1992 27.1002V39.4002H22.2992L31.6992 44.8002L31.7992 44.9002L32.5992 45.4002L33.3992 44.9002L33.4992 44.8002L42.4992 39.6002L42.5992 39.5002L42.8992 39.3002V27.1002L41.9992 26.7002ZM31.6992 43.1002L23.6992 38.5002V28.9002L31.6992 33.5002V43.1002ZM32.4992 32.2002L24.4992 27.6002L32.4992 23.0002L40.4992 27.6002L32.4992 32.2002ZM41.1992 38.5002L33.1992 43.1002V33.5002L41.1992 28.9002V38.5002Z" fill="#1E386B"/>
<path d="M41.2008 28.9004V38.5004L33.3008 43.1004V33.5004L41.2008 28.9004Z" fill="#F2B124"/>
<path d="M37.7992 6.50039L32.4992 9.60039L27.1992 6.50039L32.4992 3.40039L37.7992 6.50039Z" fill="#FEF7EA"/>
<path d="M31.9992 10.5004V16.8004L26.6992 13.8004V7.40039L31.9992 10.5004Z" fill="#FEF7EA"/>
<path d="M38.8996 5.9002L32.4996 2.2002L26.0996 5.9002L25.5996 6.2002V14.4002L31.5996 17.9002L31.9996 18.1002L32.4996 18.4002L32.9996 18.1002L33.3996 17.9002L39.3996 14.4002V6.2002L38.8996 5.9002ZM31.9996 16.8002L26.6996 13.7002V7.4002L31.9996 10.5002V16.8002ZM32.4996 9.6002L27.1996 6.5002L32.4996 3.4002L37.7996 6.5002L32.4996 9.6002ZM38.2996 13.8002L32.9996 16.8002V10.4002L38.2996 7.3002V13.8002Z" fill="#1E386B"/>
<path d="M38.3 7.40039V13.8004L33 16.8004V10.5004L38.3 7.40039Z" fill="#FEF7EA"/>
<path d="M37.7992 52.0004L32.4992 55.0004L27.1992 52.0004L32.4992 48.9004L37.7992 52.0004Z" fill="#FEF7EA"/>
<path d="M31.9992 55.9004V62.3004L26.6992 59.2004V52.9004L31.9992 55.9004Z" fill="#FEF7EA"/>
<path d="M38.8996 51.4002L33.3996 48.2002L32.4996 47.7002L31.5996 48.2002L26.0996 51.4002L25.5996 51.7002V59.9002L31.9996 63.6002L32.4996 63.9002L32.9996 63.6002L39.3996 59.9002V51.7002L38.8996 51.4002ZM31.9996 62.3002L26.6996 59.2002V52.8002L31.9996 55.9002V62.3002ZM32.4996 55.0002L27.1996 52.0002L32.4996 48.9002L37.7996 52.0002L32.4996 55.0002ZM38.2996 59.2002L32.9996 62.3002V55.9002L38.2996 52.8002V59.2002Z" fill="#1E386B"/>
<path d="M38.3 52.9004V59.2004L33 62.3004V55.9004L38.3 52.9004Z" fill="#FEF7EA"/>
<path d="M63.4008 17.6996L58.1008 20.7996L52.8008 17.6996L58.1008 14.5996L63.4008 17.6996Z" fill="#FEF7EA"/>
<path d="M52.3008 25.0004V18.6004L57.6008 21.7004V28.1004L52.3008 25.0004ZM58.6008 21.7004L63.9008 18.6004V25.0004L58.6008 28.1004V21.7004ZM52.8008 17.7004L58.1008 14.6004L63.4008 17.7004L58.1008 20.8004L52.8008 17.7004ZM51.8008 17.1004L51.3008 17.4004V25.6004L57.7008 29.3004L58.2008 29.6004L58.7008 29.3004L65.0008 25.6004V17.4004L64.5008 17.1004L58.1008 13.4004L51.8008 17.1004Z" fill="#1E386B"/>
<path d="M57.6008 21.6996V28.0996L52.3008 24.9996V18.5996L57.6008 21.6996Z" fill="#FEF7EA"/>
<path d="M63.8996 18.5996V24.9996L58.5996 28.0996V21.6996L63.8996 18.5996Z" fill="#FEF7EA"/>
<path d="M12.1996 17.6996L6.89961 20.7996L1.59961 17.6996L6.89961 14.5996L12.1996 17.6996Z" fill="#FEF7EA"/>
<path d="M6.39961 21.6996V28.0996L1.09961 24.9996V18.5996L6.39961 21.6996Z" fill="#FEF7EA"/>
<path d="M1.1 25.0004V18.6004L6.4 21.7004V28.1004L1.1 25.0004ZM7.4 21.7004L12.7 18.6004V25.0004L7.4 28.1004V21.7004ZM1.6 17.7004L6.9 14.6004L12.2 17.7004L6.9 20.8004L1.6 17.7004ZM0.5 17.1004L0 17.4004V25.6004L6.3 29.3004H6.4L6.9 29.6004L7.4 29.3004L13.8 25.6004V17.4004L13.3 17.1004L6.9 13.4004L0.5 17.1004Z" fill="#1E386B"/>
<path d="M12.7004 18.5996V24.9996L7.40039 28.0996V21.6996L12.7004 18.5996Z" fill="#FEF7EA"/>
<path d="M63.4008 41.1L58.1008 44.1L52.8008 41.1L58.1008 38L63.4008 41.1Z" fill="#FEF7EA"/>
<path d="M52.2992 48.2998V41.9998L57.5992 45.0998V51.4998L52.2992 48.2998ZM58.5992 44.9998L63.8992 41.8998V48.2998L58.5992 51.3998V44.9998ZM52.7992 41.0998L58.0992 37.9998L63.3992 41.0998L58.0992 44.1998L52.7992 41.0998ZM57.5992 37.0998L51.6992 40.4998L51.1992 40.7998V48.9998L51.5992 49.1998L57.4992 52.5998L57.9992 52.8998L58.4992 52.5998L64.9992 48.9998V40.7998L64.4992 40.4998L58.5992 37.0998L58.0992 36.7998L57.5992 37.0998Z" fill="#1E386B"/>
<path d="M57.6008 45V51.4L52.3008 48.3V42L57.6008 45Z" fill="#FEF7EA"/>
<path d="M63.8996 42V48.3L58.5996 51.4V45L63.8996 42Z" fill="#FEF7EA"/>
<path d="M12.1996 41.1L6.89961 44.1L1.59961 41.1L6.89961 38L12.1996 41.1Z" fill="#FEF7EA"/>
<path d="M6.39961 45V51.4L1.09961 48.3V42L6.39961 45Z" fill="#FEF7EA"/>
<path d="M1.1 48.2998V41.9998L6.4 44.9998V51.3998L1.1 48.2998ZM7.4 44.9998L12.7 41.8998V48.2998L7.4 51.3998V44.9998ZM1.6 41.0998L6.9 37.9998L12.2 41.0998L6.9 44.1998L1.6 41.0998ZM6.4 37.0998L0.5 40.4998L0 40.7998V48.9998L6.4 52.6998L6.9 52.9998L7.4 52.6998L13.3 49.2998L13.8 48.9998V40.7998L13.3 40.4998L7.4 37.0998L6.9 36.7998L6.4 37.0998Z" fill="#1E386B"/>
<path d="M12.7004 42V48.3L7.40039 51.4V45L12.7004 42Z" fill="#FEF7EA"/>
<path d="M51.2004 42.5998V44.6998L42.4004 39.5998L42.5004 39.4998L42.8004 39.3998V37.7998L51.2004 42.5998Z" fill="#1E386B"/>
<path d="M51.2004 42.5998V44.6998L42.4004 39.5998L42.5004 39.4998L42.8004 39.3998V37.7998L51.2004 42.5998Z" stroke="#1E386B" stroke-miterlimit="10"/>
<path d="M23.3008 26.5004L23.0008 26.6004V26.7004L22.2008 27.1004V27.9004L13.8008 22.9004V20.9004L23.3008 26.5004Z" fill="#1E386B"/>
<path d="M23.3008 26.5004L23.0008 26.6004V26.7004L22.2008 27.1004V27.9004L13.8008 22.9004V20.9004L23.3008 26.5004Z" stroke="#1E386B" stroke-miterlimit="10"/>
<path d="M22.2008 39.4004L13.8008 44.3004V42.2004L22.2008 37.4004V39.4004Z" fill="#1E386B"/>
<path d="M22.2008 39.4004L13.8008 44.3004V42.2004L22.2008 37.4004V39.4004Z" stroke="#1E386B" stroke-miterlimit="10"/>
<path d="M51.2004 20.5V22.5L42.8004 27.5V27.1L42.0004 26.7L41.9004 26.6L41.4004 26.3L51.2004 20.5Z" fill="#1E386B"/>
<path d="M51.2004 20.5V22.5L42.8004 27.5V27.1L42.0004 26.7L41.9004 26.6L41.4004 26.3L51.2004 20.5Z" stroke="#1E386B" stroke-miterlimit="10"/>
</svg>
