<svg width="65" height="65" viewBox="0 0 65 65" fill="none" xmlns="http://www.w3.org/2000/svg">
<g clip-path="url(#clip0)">
<path d="M16.3009 15.7998L17.2009 17.0998C17.4009 17.3998 17.8009 17.3998 18.0009 17.0998L20.3009 12.8998L26.9009 0.999805C27.1009 0.699805 26.8009 0.299805 26.5009 0.299805L7.9009 2.0998C7.6009 2.0998 7.4009 2.4998 7.6009 2.7998L10.2009 6.5998C8.8009 7.5998 7.6009 8.7998 6.4009 10.0998C0.700898 16.6998 -1.3991 25.5998 0.900897 33.9998C1.0009 34.2998 1.2009 34.3998 1.5009 34.2998L7.5009 32.4998C7.7009 32.3998 7.9009 32.1998 7.8009 31.9998C6.2009 25.8998 7.7009 19.4998 11.8009 14.7998C12.5009 13.9998 13.3009 13.1998 14.2009 12.4998L16.3009 15.7998Z" fill="#F2B124"/>
<path d="M58.6019 54.8C64.3019 48.2 66.4019 39.3 64.1019 30.9C64.0019 30.6 63.8019 30.5 63.5019 30.6L57.5019 32.4C57.3019 32.5 57.1019 32.7 57.2019 32.9C58.8019 39 57.3019 45.4 53.2019 50.1C52.5019 50.9 51.7019 51.7 50.8019 52.4L49.5019 50.5L48.3019 48.7L47.8019 48C47.6019 47.7 47.2019 47.7 47.0019 48L45.1019 51.4L43.1019 55L38.1019 64.1C37.9019 64.4 38.2019 64.8 38.5019 64.8L57.0019 62.9C57.3019 62.9 57.5019 62.5 57.3019 62.2L54.7019 58.4C56.2019 57.3 57.5019 56.1 58.6019 54.8Z" fill="#F2B124"/>
<path d="M46.9004 40.7002L48.6004 42.4002C49.2004 41.5002 49.6004 40.5002 50.0004 39.4002L48.3004 37.7002C47.9004 38.8002 47.4004 39.8002 46.9004 40.7002Z" fill="#F2B124"/>
<path d="M37.9004 48.1998L39.6004 49.8998C40.6004 49.4998 41.6004 48.9998 42.5004 48.4998L40.8004 46.7998C39.9004 47.2998 39.0004 47.7998 37.9004 48.1998Z" fill="#F2B124"/>
<path d="M44.5 43.7994L46.2 45.4994C46.9 44.6994 47.6 43.8994 48.1 43.0994L46.4 41.3994C45.9 42.2994 45.2 43.0994 44.5 43.7994Z" fill="#F2B124"/>
<path d="M37.1 48.5C35.9 48.9 34.7 49.1 33.5 49.3L35.2 51C36.4 50.9 37.6 50.6 38.8 50.2L37.1 48.5Z" fill="#F2B124"/>
<path d="M49 27.4996C49.3 28.7996 49.4 30.0996 49.4 31.3996C49.4 31.6996 49.4 31.9996 49.4 32.1996L51.1 33.8996C51.1 33.5996 51.1 33.2996 51.1 33.0996C51.1 31.6996 51 30.3996 50.7 29.1996C50.6 28.6996 50.4 28.1996 50.3 27.6996C49.3 24.4996 47.4 21.6996 45 19.5996C46.6 21.3996 47.9 23.5996 48.6 25.9996C48.8 26.4996 48.9 26.9996 49 27.4996Z" fill="#F2B124"/>
<path d="M48.6016 36.8998L50.3016 38.5998C50.7016 37.3998 50.9016 36.1998 51.1016 34.9998L49.4016 33.2998C49.2016 34.5998 49.0016 35.7998 48.6016 36.8998Z" fill="#F2B124"/>
<path d="M41.5 46.2994L43.2 47.9994C44.1 47.3994 44.9 46.7994 45.6 45.9994L44 44.3994C43.2 45.0994 42.4 45.7994 41.5 46.2994Z" fill="#F2B124"/>
<path d="M19.7012 45C21.9012 47.5 24.7012 49.4 28.0012 50.3L26.3012 48.6C23.8012 47.9 21.6012 46.6 19.7012 45Z" fill="#F2B124"/>
<path d="M31.5008 49.4C30.2008 49.4 29.0008 49.3 27.8008 49L29.5008 50.7C30.7008 51 31.9008 51.1 33.2008 51.1C33.5008 51.1 33.9008 51.1 34.2008 51.1L32.5008 49.4C32.2008 49.4 31.8008 49.4 31.5008 49.4Z" fill="#F2B124"/>
<path d="M27.8 48.9996C29 49.2996 30.2 49.3996 31.5 49.3996C31.8 49.3996 32.2 49.3996 32.5 49.3996C32.8 49.3996 33.2 49.3996 33.5 49.2996C34.7 49.1996 35.9 48.8996 37.1 48.4996C37.4 48.3996 37.6 48.2996 37.9 48.1996C38.9 47.7996 39.9 47.2996 40.8 46.7996C41 46.6996 41.3 46.4996 41.5 46.3996C42.4 45.7996 43.2 45.1996 43.9 44.3996C44.1 44.1996 44.3 43.9996 44.4 43.7996C45.1 42.9996 45.8 42.1996 46.3 41.3996C46.4 41.1996 46.6 40.9996 46.7 40.6996C47.3 39.7996 47.7 38.7996 48.1 37.6996C48.2 37.3996 48.3 37.1996 48.4 36.8996C48.8 35.6996 49 34.4996 49.2 33.2996C49.2 32.9996 49.3 32.5996 49.3 32.2996C49.3 31.9996 49.3 31.6996 49.3 31.4996C49.3 30.0996 49.2 28.7996 48.9 27.5996C48.8 27.0996 48.7 26.5996 48.5 26.0996C47.7 23.6996 46.5 21.5996 44.9 19.6996C41.6 15.9996 36.8 13.5996 31.4 13.5996C21.5 13.5996 13.5 21.5996 13.5 31.4996C13.5 36.8996 15.9 41.7996 19.7 44.9996C21.6 46.6996 23.8 47.8996 26.3 48.5996C26.8 48.7996 27.3 48.8996 27.8 48.9996ZM21.9 41.5996C19.2 39.0996 17.5 35.3996 17.5 31.3996C17.5 23.6996 23.8 17.3996 31.5 17.3996C35.5 17.3996 39.1 19.0996 41.7 21.7996L41.8 21.8996C46.2 26.2996 46.8 33.0996 43.6 38.3996C43.5 38.4996 43.4 38.6996 43.3 38.7996C43.2 38.9996 43.1 39.0996 43 39.2996C42.8 39.5996 42.5 39.8996 42.3 40.1996C42 40.4996 41.7 40.8996 41.4 41.1996C41.1 41.4996 40.8 41.7996 40.4 42.0996C40.1 42.3996 39.8 42.5996 39.5 42.7996C39.3 42.8996 39.2 42.9996 39 43.0996C38.9 43.1996 38.7 43.2996 38.6 43.3996C33.3 46.5996 26.5 45.9996 22.1 41.5996C22 41.6996 21.9 41.6996 21.9 41.5996Z" fill="#1E386B"/>
<path d="M22.4 22.4C27.8 17 36.4 16.8 41.7 21.9C39.2 19.2 35.5 17.5 31.5 17.5C23.8 17.5 17.5 23.8 17.5 31.5C17.5 35.5 19.2 39.1 21.9 41.7C16.8 36.4 17 27.8 22.4 22.4Z" fill="#F2B124"/>
<path d="M43.6012 38.4994C46.8012 33.1994 46.2012 26.3994 41.8012 21.9994L41.7012 21.8994C44.1012 24.3994 45.5012 27.7994 45.5012 31.4994C45.5012 33.9994 44.8012 36.3994 43.6012 38.4994Z" fill="#FEF7EA"/>
<path d="M38.5004 43.6002C36.4004 44.8002 34.0004 45.5002 31.5004 45.5002C27.8004 45.5002 24.4004 44.1002 21.9004 41.7002L22.0004 41.8002C26.4004 46.1002 33.2004 46.7002 38.5004 43.6002Z" fill="#FEF7EA"/>
<path d="M38.5013 43.5999C38.6013 43.4999 38.8013 43.3999 38.9013 43.2999C39.1013 43.1999 39.2013 43.0999 39.4013 42.9999C39.7013 42.7999 40.0013 42.4999 40.3013 42.2999C40.6012 41.9999 41.0013 41.6999 41.3013 41.3999C41.6012 41.0999 41.9013 40.7999 42.2013 40.3999C42.5013 40.0999 42.7013 39.7999 42.9013 39.4999C43.0013 39.2999 43.1013 39.1999 43.2013 38.9999C43.3013 38.8999 43.4013 38.6999 43.5013 38.5999C44.7013 36.4999 45.4013 34.0999 45.4013 31.4999C45.4013 27.7999 44.0012 24.3999 41.6012 21.8999C36.3013 16.7999 27.8012 16.9999 22.3012 22.3999C16.9012 27.7999 16.7012 36.3999 21.8012 41.6999C24.3012 44.0999 27.7013 45.4999 31.4012 45.4999C34.0012 45.3999 36.4013 44.7999 38.5013 43.5999Z" fill="#FEF7EA"/>
<path d="M26.3008 48.5996L28.0008 50.2996C28.5008 50.3996 29.0008 50.5996 29.5008 50.6996L27.8008 48.9996C27.3008 48.8996 26.8008 48.7996 26.3008 48.5996Z" fill="#1E386B"/>
<path d="M32.5 49.3998L34.2 51.0998C34.5 51.0998 34.9 51.0998 35.2 50.9998L33.5 49.2998C33.2 49.2998 32.9 49.3998 32.5 49.3998Z" fill="#1E386B"/>
<path d="M37.1016 48.5002L38.8016 50.2002C39.1016 50.1002 39.3016 50.0002 39.6016 49.9002L37.9016 48.2002C37.7016 48.3002 37.4016 48.4002 37.1016 48.5002Z" fill="#1E386B"/>
<path d="M40.9004 46.7994L42.6004 48.4994C42.8004 48.3994 43.0004 48.1994 43.3004 48.0994L41.6004 46.3994C41.3004 46.4994 41.1004 46.5994 40.9004 46.7994Z" fill="#1E386B"/>
<path d="M44 44.3998L45.7 46.0998C45.9 45.8998 46.1 45.6998 46.3 45.4998L44.6 43.7998C44.3 43.9998 44.1 44.1998 44 44.3998Z" fill="#1E386B"/>
<path d="M46.4004 41.4002L48.1004 43.1002C48.2004 42.9002 48.4004 42.7002 48.5004 42.4002L46.8004 40.7002C46.7004 40.9002 46.6004 41.2002 46.4004 41.4002Z" fill="#1E386B"/>
<path d="M48.3008 37.8L50.0008 39.5C50.1008 39.2 50.2008 39 50.3008 38.7L48.6008 37C48.5008 37.2 48.4008 37.5 48.3008 37.8Z" fill="#1E386B"/>
<path d="M49.3008 33.2998L51.0008 34.9998C51.0008 34.6998 51.1008 34.2998 51.1008 33.9998L49.4008 32.2998C49.4008 32.5998 49.4008 32.9998 49.3008 33.2998Z" fill="#1E386B"/>
</g>
<defs>
<clipPath id="clip0">
<rect width="65" height="65" fill="white"/>
</clipPath>
</defs>
</svg>
