<svg width="65" height="65" viewBox="0 0 65 65" fill="none" xmlns="http://www.w3.org/2000/svg">
<path d="M61.3 35.3008H39.8C37.6 36.4008 35.1 37.0008 32.5 37.0008C29.9 37.0008 27.4 36.4008 25.2 35.3008H3.7C1.7 35.3008 0 36.9008 0 39.0008V57.5008C0 59.6008 1.7 61.2008 3.7 61.2008H61.2C63.3 61.2008 64.9 59.5008 64.9 57.5008V39.0008C65 36.9008 63.3 35.3008 61.3 35.3008ZM49.5 43.2008C49.5 43.6008 49.1 44.0008 48.7 44.0008H16.3C15.9 44.0008 15.5 43.6008 15.5 43.2008V40.6008C15.5 40.2008 15.9 39.8008 16.3 39.8008H48.7C49.1 39.8008 49.5 40.2008 49.5 40.6008V43.2008Z" fill="#1E386A"/>
<path d="M49.1004 20.4008C49.1004 11.2008 41.7004 3.80078 32.5004 3.80078C23.3004 3.80078 15.9004 11.2008 15.9004 20.4008C15.9004 26.9008 19.7004 32.6008 25.2004 35.3008H39.8004C45.3004 32.5008 49.1004 26.9008 49.1004 20.4008ZM19.4004 20.4008C19.4004 13.2008 25.3004 7.30078 32.5004 7.30078C39.7004 7.30078 45.6004 13.2008 45.6004 20.4008C45.6004 27.6008 39.7004 33.5008 32.5004 33.5008C25.3004 33.4008 19.4004 27.6008 19.4004 20.4008Z" fill="#F1B02A"/>
<path d="M44.1004 20.4008C44.1004 14.0008 38.9004 8.80078 32.5004 8.80078C26.1004 8.80078 20.9004 14.0008 20.9004 20.4008C20.9004 26.8008 26.1004 32.0008 32.5004 32.0008C38.9004 32.0008 44.1004 26.8008 44.1004 20.4008Z" fill="#F1B02A"/>
<path d="M39.7992 35.3008H25.1992C27.3992 36.4008 29.8992 37.0008 32.4992 37.0008C35.0992 37.0008 37.5992 36.3008 39.7992 35.3008Z" fill="#F1B02A"/>
<path d="M45.6004 20.4008C45.6004 13.2008 39.7004 7.30078 32.5004 7.30078C25.3004 7.30078 19.4004 13.2008 19.4004 20.4008C19.4004 27.6008 25.3004 33.5008 32.5004 33.5008C39.7004 33.5008 45.6004 27.6008 45.6004 20.4008ZM20.9004 20.4008C20.9004 14.0008 26.1004 8.80078 32.5004 8.80078C38.9004 8.80078 44.1004 14.0008 44.1004 20.4008C44.1004 26.8008 38.9004 32.0008 32.5004 32.0008C26.1004 32.0008 20.9004 26.8008 20.9004 20.4008Z" fill="#FDF6E9"/>
</svg>
