<svg width="85" height="85" viewBox="0 0 85 85" fill="none" xmlns="http://www.w3.org/2000/svg">
<path d="M65.1222 47.6007C65.1222 48.2546 64.9914 48.7776 64.5991 49.3007C64.0761 50.2161 63.0299 50.8699 61.9837 50.8699C61.853 50.8699 61.7222 50.8699 61.5914 50.8699C61.1991 50.8699 60.676 50.7392 60.153 50.3469L56.753 48.6469L59.3684 51.393C60.9376 53.093 61.3299 54.2699 60.5453 55.5776C59.8914 56.6238 58.7145 57.6699 57.5376 57.6699C57.2761 57.6699 57.1453 57.6699 56.8837 57.5392C56.6222 57.4084 56.0991 57.1469 55.053 56.3622L51.653 53.8776L54.1376 57.2776C54.6607 57.9315 54.7914 58.7161 54.3991 59.5007C54.0068 60.5469 52.6991 61.4622 51.5222 61.4622C51.3914 61.4622 51.2607 61.4622 51.1299 61.4622C50.7376 61.3315 50.0837 61.0699 49.0376 60.5469L46.9453 59.3699L48.1222 61.4622C48.253 61.7238 48.3837 61.9853 48.3837 62.2469C48.3837 62.9007 48.1222 63.4238 47.5991 64.2084C47.0761 64.8622 46.553 65.1238 46.0299 65.1238C45.2453 65.1238 43.9376 64.6007 41.7145 63.293L44.1991 61.0699C44.3299 60.9392 44.4607 60.8084 44.5914 60.5469C44.5914 60.4161 44.7222 60.4161 44.7222 60.2853C44.853 60.1545 44.853 59.893 44.9837 59.7622C44.9837 59.6315 44.9837 59.5007 45.1145 59.3699C45.1145 59.2392 45.1145 59.2392 45.1145 59.1084C45.1145 58.9776 45.1145 58.8469 45.1145 58.7161C45.1145 58.4546 45.1145 58.3238 45.1145 58.0622C44.9837 57.5392 44.853 57.0161 44.4607 56.493L43.4145 55.3161C43.2837 55.1853 43.0222 54.9238 42.8914 54.9238C42.7607 54.793 42.6299 54.793 42.4991 54.6622C42.1068 54.4007 41.7145 54.4007 41.3222 54.2699C41.1914 54.2699 41.0607 54.2699 40.9299 54.2699C40.7991 54.2699 40.6684 54.2699 40.5376 54.2699C40.4068 54.2699 40.2761 54.2699 40.1453 54.2699C40.0145 54.2699 39.8837 54.2699 39.8837 54.4007C39.753 54.4007 39.6222 54.5315 39.6222 54.5315V54.4007C39.6222 54.2699 39.6222 54.2699 39.4914 54.1392C39.3607 53.8776 39.2299 53.6161 39.0991 53.3545C38.9684 53.2238 38.9684 53.093 38.8376 52.9622L37.9222 52.0469C37.2684 51.393 36.4837 51.0007 35.4376 51.0007C35.3068 51.0007 35.1761 51.0007 35.0453 51.0007C34.9145 51.0007 34.7837 51.0007 34.653 51.1315C34.5222 51.1315 34.3914 51.1315 34.2607 51.2622C34.2607 51.1315 34.2607 51.1315 34.2607 51.0007C34.2607 50.8699 34.2607 50.8699 34.2607 50.7392C34.2607 50.6084 34.2607 50.4776 34.1299 50.3469C34.1299 50.2161 33.9991 50.0853 33.9991 49.9546C33.9991 49.8238 33.8684 49.693 33.7376 49.5622C33.6068 49.4315 33.6068 49.3007 33.4761 49.1699L32.5607 48.1238C32.1684 47.7315 31.7761 47.4699 31.253 47.3392C31.1222 47.3392 31.1222 47.3392 30.9914 47.2084H30.8607C30.8607 47.2084 30.7299 47.2084 30.5991 47.2084C30.5991 47.2084 30.5991 47.2084 30.4684 47.2084H30.3376C30.3376 47.0776 30.3376 47.0776 30.3376 46.9469C30.4684 46.0315 30.2068 44.9853 29.553 44.2007L28.6376 43.2853C27.9837 42.6315 27.0684 42.2392 26.153 42.2392C25.3684 42.2392 24.5837 42.5007 24.0607 43.0238L19.6145 47.0776C19.4837 47.2084 19.2222 47.4699 19.0914 47.6007L18.5684 47.2084L21.053 40.1469L25.3684 28.2469C25.7607 28.2469 26.153 28.2469 26.5453 28.2469C28.1145 28.2469 29.8145 27.8546 31.5145 27.2007C33.9991 26.2853 36.2222 25.5007 38.1837 25.1084C38.053 25.2392 37.9222 25.3699 37.9222 25.3699C36.8761 26.5469 35.8299 27.7238 34.9145 28.6392C34.1299 29.5546 32.6914 31.1238 32.2991 31.3853C31.7761 31.7776 31.6453 32.4315 31.9068 32.9546C32.4299 34.2622 35.0453 35.5699 37.9222 35.3084C41.3222 34.9161 43.8068 32.5622 45.7684 30.4699C45.8991 30.3392 45.8991 30.3392 46.0299 30.3392C47.4684 30.3392 50.7376 33.3469 52.6991 35.0469L53.353 35.7007C55.053 37.2699 56.8837 39.2315 58.453 40.9315L59.1068 41.5853C59.7607 42.2392 60.2837 42.893 60.8068 43.4161L60.9376 43.5469C61.3299 43.9392 61.5914 44.2007 61.853 44.4622C62.2453 44.7238 62.5068 44.9853 62.7684 45.2469C63.0299 45.3776 63.2914 45.5084 63.553 45.6392C63.8145 46.0315 63.9453 46.293 64.2068 46.5545C65.1222 46.6853 65.1222 47.0776 65.1222 47.6007Z" fill="#1E386B"/>
<path d="M30.7305 46.9461C30.7305 46.8154 30.7305 46.8154 30.7305 46.6846C30.7305 46.8154 30.7305 46.8154 30.7305 46.9461ZM41.192 24.1923L40.5382 24.8461L41.4535 24.0615C41.3228 24.0615 41.3228 24.1923 41.192 24.1923ZM30.7305 46.9461C30.7305 46.8154 30.7305 46.8154 30.7305 46.6846C30.7305 46.8154 30.7305 46.8154 30.7305 46.9461Z" fill="#D9E021"/>
<path d="M65.3846 44.4617C65.2538 44.4617 65.1231 44.3309 64.8615 44.3309C64.6 44.2001 64.3385 44.0694 64.2077 43.9386C63.9461 43.8078 63.6846 43.5463 63.4231 43.2848C63.1615 43.0232 62.9 42.7617 62.6385 42.5001L62.5077 42.3694C61.9846 41.8463 61.4615 41.1924 60.8077 40.5386L60.1538 39.8848C58.5846 38.1848 56.7538 36.2232 55.0538 34.654L54.4 34.0001C51.3923 31.254 48.7769 28.9001 46.9462 28.9001C46.5538 28.9001 46.1615 29.0309 45.7692 29.4232C43.9385 31.5155 41.7154 33.6078 38.7077 33.8694C36.0923 34.1309 34.2615 32.954 34 32.3001C34 32.1694 34 32.1694 34 32.1694C34.3923 31.9078 35.3077 30.9924 36.7462 29.2924C37.6615 28.2463 38.7077 27.2001 39.7538 26.0232C40.0154 25.7617 40.2769 25.5001 40.5385 25.2386C40.6692 25.1078 40.8 24.9771 40.9308 24.9771L41.5846 24.3232L41.7154 24.1924C42.8923 23.2771 43.6769 23.1463 44.5923 23.0155H44.7231C45.6385 22.754 49.0385 23.6694 51.7846 24.3232C52.9615 24.5848 54.1385 24.8463 55.0538 25.1078C57.2769 25.6309 60.4154 25.6309 62.6385 25.6309H62.9L65.3846 44.4617Z" fill="#F2B124"/>
<path d="M63.6836 24.0615L63.9451 25.2384L63.6836 24.0615Z" fill="#D9E021"/>
<path d="M29.16 47.3389C29.0292 47.4697 29.0292 47.6005 28.8984 47.6005L24.9754 51.1312L24.4523 51.6543C24.3215 51.7851 24.3215 51.7851 24.1907 51.7851C24.06 51.7851 24.06 51.9158 23.9292 51.9158H23.7984C23.6677 51.9158 23.5369 51.9158 23.4061 51.9158C22.8831 51.9158 22.36 51.6543 21.9677 51.262L20.9215 50.4774C20.3984 49.9543 20.2677 49.3004 20.5292 48.5158C20.5292 48.3851 20.5292 48.3851 20.66 48.2543C20.66 48.1235 20.66 48.1235 20.7907 47.9928C20.9215 47.862 21.0523 47.7312 21.0523 47.6005L25.3677 43.6774C25.76 43.4158 26.1523 43.1543 26.6754 43.1543C27.1984 43.1543 27.7215 43.4158 28.1138 43.8081L29.0292 44.7235C29.6831 45.5081 29.6831 46.5543 29.16 47.3389Z" fill="#F2B124"/>
<path d="M23.7988 51.9159C23.9296 51.9159 24.0604 51.7852 24.1911 51.7852C24.0604 51.7852 23.9296 51.9159 23.7988 51.9159Z" fill="#D9E021"/>
<path d="M33.0834 52.0463C32.9526 52.3078 32.8219 52.4386 32.6911 52.5694L28.6372 56.2309L28.2449 56.4925C27.8526 56.754 27.4603 57.0155 26.9372 57.0155C26.4142 57.0155 25.7603 56.754 25.4988 56.3617L24.5834 55.4463C24.0603 54.7925 23.9295 53.7463 24.3219 53.0925C24.4526 53.0925 24.4526 52.9617 24.5834 52.9617C24.7142 52.8309 24.8449 52.8309 24.9757 52.7001C25.1065 52.7001 25.1065 52.5694 25.2372 52.5694L29.5526 48.6463C29.6834 48.5155 29.6834 48.5155 29.8142 48.3848C29.9449 48.3848 30.0757 48.3848 30.2065 48.3848C30.8603 48.3848 31.2526 48.6463 31.6449 49.0386L32.5603 49.954C33.3449 50.3463 33.4757 51.2617 33.0834 52.0463Z" fill="#F2B124"/>
<path d="M29.5527 57.1469L33.4758 53.4854L29.5527 57.1469Z" fill="#D9E021"/>
<path d="M38.5756 54.9238C38.5756 55.0546 38.5756 55.3161 38.4449 55.4469C38.4449 55.4469 38.4449 55.4469 38.4449 55.5776C38.3141 55.8392 38.1833 56.1007 37.9218 56.3623L33.9987 60.0238L33.6064 60.4161C33.2141 60.8084 32.8218 60.9392 32.2987 60.9392C31.6449 60.9392 31.1218 60.6776 30.7295 60.2853L29.8141 59.2392C29.4218 58.8469 29.291 58.3238 29.291 57.8007C29.291 57.5392 29.4218 57.2776 29.4218 57.1469L33.3449 53.6161C33.4756 53.4853 33.6064 53.3546 33.7372 53.2238C33.8679 53.093 33.8679 52.9623 33.9987 52.8315L34.2602 52.57C34.6526 52.1776 35.0449 52.0469 35.5679 52.0469C36.091 52.0469 36.6141 52.3084 37.0064 52.7007L37.9218 53.6161C38.0526 53.7469 38.0526 53.7469 38.0526 53.8776C38.0526 54.0084 38.1833 54.0084 38.1833 54.1392V54.27C38.5756 54.4007 38.5756 54.6623 38.5756 54.9238Z" fill="#F2B124"/>
<path d="M44.0678 58.3231C44.0678 58.977 43.8063 59.5 43.414 59.7616L39.0986 63.6847C38.7063 64.077 38.314 64.2077 37.7909 64.2077C37.2678 64.2077 36.614 63.9462 36.3524 63.5539L35.3063 62.6385C34.914 62.2462 34.7832 61.7231 34.7832 61.2C34.7832 61.0693 34.7832 60.8077 34.914 60.677L38.8371 57.1462C39.2294 56.8847 39.4909 56.4924 39.6217 56.1L39.8832 55.8385C40.2755 55.4462 40.6678 55.3154 41.1909 55.3154C41.714 55.3154 42.3678 55.577 42.7601 55.9693L43.6755 57.0154C43.9371 57.277 44.0678 57.6693 44.1986 58.0616C44.0678 58.1924 44.0678 58.3231 44.0678 58.3231Z" fill="#F2B124"/>
<path d="M25.3683 25.6311L25.1067 26.5465L17.5221 47.3388L17.1298 48.6465L1.4375 43.0234L9.41442 20.2695L25.3683 25.6311Z" fill="#1E386B"/>
<path d="M25.8916 27.9854L21.5762 39.8853L25.8916 27.9854Z" fill="#D9E021"/>
<path d="M83.6913 45.1161L67.0836 47.6007L66.9528 46.0315L63.9451 25.2392L63.6836 24.0623V23.67L80.2913 20.9238L83.6913 45.1161Z" fill="#F2B124"/>
<path d="M63.9451 25.2384L63.6836 24.0615L63.9451 25.2384Z" fill="#FEF7EA"/>
</svg>
