<svg width="100" height="100" viewBox="0 0 100 100" fill="none" xmlns="http://www.w3.org/2000/svg">
<path d="M93.5998 17.1001L92.3998 17.8001C92.0998 17.9001 92.0998 18.3001 92.3998 18.5001L93.5998 19.2001C93.6998 19.2001 93.6998 19.3001 93.7998 19.4001L94.4998 20.6001C94.5998 20.9001 94.9998 20.9001 95.1998 20.6001L95.8998 19.4001C95.8998 19.3001 95.9998 19.3001 96.0998 19.2001L97.2998 18.5001C97.5998 18.4001 97.5998 18.0001 97.2998 17.8001L96.0998 17.1001C95.9998 17.1001 95.9998 17.0001 95.8998 16.9001L95.1998 15.7001C95.0998 15.4001 94.6998 15.4001 94.4998 15.7001L93.7998 16.9001C93.6998 17.0001 93.5998 17.0001 93.5998 17.1001Z" fill="white"/>
<path d="M5.4 75.8001L3 77.0001C2.5 77.3001 2.5 78.0001 3 78.3001L5.3 79.6001C5.4 79.7001 5.5 79.8001 5.6 79.9001L6.9 82.2001C7.2 82.7001 7.9 82.7001 8.2 82.2001L9.5 79.9001C9.6 79.8001 9.7 79.7001 9.8 79.6001L12.1 78.3001C12.6 78.0001 12.6 77.3001 12.1 77.0001L9.8 75.7001C9.7 75.6001 9.6 75.5001 9.5 75.4001L8.2 73.1001C7.9 72.6001 7.2 72.6001 6.9 73.1001L5.6 75.4001C5.6 75.6001 5.5 75.7001 5.4 75.8001Z" fill="white"/>
<path d="M47.5996 9H55.5996V9.8C73.8996 13.5 87.5996 29.6 87.5996 49C87.5996 68.4 73.7996 84.5 55.5996 88.2V89H47.5996C25.4996 89 7.59961 71.1 7.59961 49C7.59961 26.9 25.4996 9 47.5996 9Z" fill="#F1B121"/>
<path d="M39.1 49C39.1 50.4 38 51.5 36.6 51.5H7.6C7.5 50.7 7.5 49.8 7.5 49C7.5 48.2 7.5 47.3 7.6 46.5H36.6C38 46.5 39.1 47.6 39.1 49Z" fill="#E79524"/>
<path d="M28.7 13.7H45.1C46.5 13.7 47.6 14.8 47.6 16.2C47.6 17.6 46.5 18.7 45.1 18.7H21.5C23.7 16.8 26.1 15.1 28.7 13.7Z" fill="#E79524"/>
<path d="M12.5002 29.8H36.7002C38.1002 29.8 39.2002 30.9 39.2002 32.3C39.2002 33.7 38.1002 34.8 36.7002 34.8H10.2002C10.8002 33.1 11.6002 31.4 12.5002 29.8Z" fill="#E79524"/>
<path d="M10.2002 63.1001H36.6002C38.0002 63.1001 39.1002 64.2001 39.1002 65.6001C39.1002 67.0001 38.0002 68.1001 36.6002 68.1001H12.5002C11.6002 66.5001 10.8002 64.8001 10.2002 63.1001Z" fill="#E79524"/>
<path d="M42.8996 79.8C44.2996 79.8 45.3996 80.9 45.3996 82.3C45.3996 83.7 44.2996 84.8 42.8996 84.8H29.6996C26.9996 83.4 24.3996 81.8 22.0996 79.8H42.8996Z" fill="#E79524"/>
<path d="M53.9 9C75.2 9.9 92.2 27.4 92.2 49C92.2 70.5 75.2 88.1 53.9 88.9C32.6 88 15.5 70.5 15.5 49C15.5 27.4 32.6 9.9 53.9 9Z" fill="#F9E464"/>
<path d="M54.8 88.8L17.5 36.7C18.3 34.3 19.3 31.9 20.5 29.7L62 87.6999C59.7 88.2999 57.3 88.7 54.8 88.8Z" fill="#FDEABD"/>
<path d="M92.1004 51.9001C91.9004 55.0001 91.3004 57.9001 90.4004 60.8001L53.4004 9.1001C53.6004 9.1001 53.7004 9.1001 53.9004 9.1001C56.8004 9.2001 59.6004 9.6001 62.3004 10.3001L92.1004 51.9001Z" fill="#FDEABD"/>
<path d="M88.6002 65.6999C87.6002 67.8999 86.4002 70 85.0002 71.9L41.7002 11.5C43.9002 10.7 46.1002 10.1 48.4002 9.69995L88.6002 65.6999Z" fill="#FDEABD"/>
<path d="M55.5002 80.3C72.7867 80.3 86.8002 66.2865 86.8002 49C86.8002 31.7134 72.7867 17.7 55.5002 17.7C38.2137 17.7 24.2002 31.7134 24.2002 49C24.2002 66.2865 38.2137 80.3 55.5002 80.3Z" fill="#E79524"/>
<path d="M86.7998 49C86.7998 54.5 85.3998 59.6999 82.7998 64.1999H33.7998V33.7H82.8998C85.3998 38.2 86.7998 43.4 86.7998 49Z" fill="#DA7427"/>
<path d="M53.3002 17.8C69.6002 18.9 82.4002 32.4 82.4002 49C82.4002 65.6001 69.6002 79 53.3002 80.2C37.1002 79 24.2002 65.5 24.2002 49C24.2002 32.5 37.1002 18.9 53.3002 17.8Z" fill="#F1B121"/>
<path d="M31.1 12.3999L28.2 13.9999C27.6 14.2999 27.6 15.2999 28.2 15.5999L31.1 17.1999C31.3 17.2999 31.4 17.3999 31.5 17.5999L33.1 20.4999C33.4 21.0999 34.4 21.0999 34.7 20.4999L36.3 17.5999C36.4 17.3999 36.5 17.2999 36.7 17.1999L39.6 15.5999C40.2 15.2999 40.2 14.2999 39.6 13.9999L36.7 12.3999C36.5 12.2999 36.4 12.1999 36.3 11.9999L34.7 9.0999C34.4 8.4999 33.4 8.4999 33.1 9.0999L31.5 11.9999C31.4 12.1999 31.3 12.2999 31.1 12.3999Z" fill="white"/>
<path d="M61.1996 48.1C62.4996 47.5 63.5996 46.7 64.3996 45.7C64.9996 45 65.2996 44.2 65.4996 43.6C65.7996 42.9 65.8996 42 65.8996 40.8C65.8996 39.6 65.6996 38.5 65.1996 37.5C63.7996 34.2 60.1996 32.5 54.6996 32.4V27H50.6996V32.3H48.9996V27H44.9996V32.3H40.5996V36.5H43.7996V60.5H40.5996V64.7H44.9996V70.1H48.9996V64.7H50.7996V70.1H54.7996V64.7H55.4996C59.0996 64.7 61.8996 63.8 63.9996 62.1C65.9996 60.4 67.0996 58.1 67.0996 55.3C66.9996 51.7 65.0996 49.3 61.1996 48.1ZM61.7996 55.3C61.7996 56.2 61.6996 56.8 61.4996 57.4C60.7996 59.2 59.1996 60.2 56.4996 60.5H49.0996V50.6H55.3996C57.6996 50.6 59.2996 51 60.2996 51.9C61.2996 52.7 61.7996 53.8 61.7996 55.3ZM49.0996 46.5V36.8H54.3996C56.5996 36.8 58.1996 37.2 59.2996 38C60.2996 38.8 60.7996 39.9 60.7996 41.6C60.7996 42.2 60.6996 42.9 60.3996 43.6C59.5996 45.5 57.5996 46.5 54.2996 46.5H49.0996Z" fill="#E79524"/>
<path d="M49.0998 52H43.7998V58.9H49.0998V52Z" fill="#DA7427"/>
<path d="M61.8 55.3C61.8 56.2 61.7 56.8 61.5 57.4C61.3 58 60.9 58.5 60.5 59H66.4C66.8 57.9 67.1 56.7 67.1 55.4C67.1 54.1 66.9 53 66.4 52H60.6C61.4 52.9 61.8 53.9 61.8 55.3Z" fill="#DA7427"/>
<path d="M59.3 37.8999C60.3 38.6999 60.8 39.7999 60.8 41.4999C60.8 42.0999 60.7 42.7999 60.4 43.4999C60.4 43.5999 60.3 43.6999 60.3 43.7999H65.5C65.6 43.6999 65.6 43.4999 65.7 43.3999C66 42.6999 66.1 41.7999 66.1 40.5999C66.1 39.3999 65.9 38.2999 65.4 37.2999C65.3 37.1999 65.3 36.9999 65.2 36.8999H57C57.9 37.1999 58.7 37.4999 59.3 37.8999Z" fill="#DA7427"/>
<path d="M49.0998 37H43.7998V43.9H49.0998V37Z" fill="#DA7427"/>
<path d="M63.5994 48.1C64.8994 47.5 65.9994 46.7 66.7994 45.7C67.3994 45 67.6994 44.2 67.8994 43.6C68.1994 42.9 68.2994 42 68.2994 40.8C68.2994 39.6 68.0994 38.5 67.5994 37.5C66.1994 34.2 62.5994 32.5 57.0994 32.4V27H53.0994V32.3H51.2994V27H47.2994V32.3H42.8994V36.5H46.0994V60.5H42.8994V64.7H47.2994V70.1H51.2994V64.7H53.0994V70.1H57.0994V64.7H57.7994C61.3994 64.7 64.1994 63.8 66.2994 62.1C68.2994 60.4 69.3994 58.1 69.3994 55.3C69.3994 51.7 67.4994 49.3 63.5994 48.1ZM64.1994 55.3C64.1994 56.2 64.0994 56.8 63.8994 57.4C63.1994 59.2 61.5994 60.2 58.8994 60.5H51.4994V50.6H57.7994C60.0994 50.6 61.6994 51 62.6994 51.9C63.6994 52.7 64.1994 53.8 64.1994 55.3ZM51.4994 46.5V36.8H56.7994C58.9994 36.8 60.5994 37.2 61.6994 38C62.6994 38.8 63.1994 39.9 63.1994 41.6C63.1994 42.2 63.0994 42.9 62.7994 43.6C61.9994 45.5 59.9994 46.5 56.6994 46.5H51.4994Z" fill="#F9E464"/>
<path d="M51.4992 46.5001V38.6001L46.1992 46.0001V54.9001L52.2992 46.5001H51.4992Z" fill="#FDEABD"/>
<path d="M57.1988 30.6001L52.7988 36.7001H56.7988C57.5988 36.7001 58.3988 36.8001 59.0988 36.9001L61.9988 32.9001C60.5988 32.5001 59.0988 32.3001 57.2988 32.3001V30.6001H57.1988Z" fill="#FDEABD"/>
<path d="M65.999 35L62.799 39.5C62.999 40.1 63.099 40.8 63.099 41.6C63.099 42.2 62.999 42.9 62.699 43.6C61.999 45.3 60.399 46.2 57.799 46.4L54.999 50.5H57.799C59.099 50.5 60.099 50.6 60.999 50.9L68.299 40.6C68.299 39.5 68.099 38.4 67.599 37.4C67.299 36.5 66.699 35.7 65.999 35Z" fill="#FDEABD"/>
<path d="M47.3992 64.7999V69.9999L54.1992 60.4999H51.4992V55.3999L44.6992 64.7999H47.3992Z" fill="#FDEABD"/>
</svg>
