<svg width="113" height="100" viewBox="0 0 113 100" fill="none" xmlns="http://www.w3.org/2000/svg">
<path d="M28.25 99.8287H47.407V72.885H65.1783V99.8287H84.3353V0.455078H28.25V99.8287ZM65.9578 11.1512H75.9693V21.8472H65.9578V11.1512ZM65.9578 29.3234H75.9693V39.964H65.9578V29.3234ZM65.9578 47.4956H75.9693V58.1917H65.9578V47.4956ZM51.2869 11.1512H61.2984V21.8472H51.2869V11.1512ZM51.2869 29.3234H61.2984V39.964H51.2869V29.3234ZM51.2869 47.4956H61.2984V58.1917H51.2869V47.4956ZM36.616 11.1512H46.6276V21.8472H36.616V11.1512ZM36.616 29.3234H46.6276V39.964H36.616V29.3234ZM36.616 47.4956H46.6276V58.1917H36.616V47.4956Z" fill="#1E386B"/>
<path d="M0 85.2285H25.9815V19.2939H0V85.2285ZM7.95033 28.2135H17.9619V38.9096H7.95033V28.2135ZM7.95033 46.3858H17.9619V57.0818H7.95033V46.3858ZM7.95033 64.558H17.9619V75.2541H7.95033V64.558Z" fill="#1E386B"/>
<path d="M86.6055 19.2939V85.2285H112.587V19.2939H86.6055ZM104.637 75.2541H94.6251V64.558H104.637V75.2541ZM104.637 57.0818H94.6251V46.3858H104.637V57.0818ZM104.637 38.9096H94.6251V28.2135H104.637V38.9096Z" fill="#1E386B"/>
</svg>
