<svg width="30" height="30" viewBox="0 0 30 30" fill="none" xmlns="http://www.w3.org/2000/svg">
<path d="M15.0005 1.1543C7.33891 1.1543 1.1543 7.33891 1.1543 15.0005C1.1543 22.662 7.33891 28.8466 15.0005 28.8466C22.662 28.8466 28.8466 22.662 28.8466 15.0005C28.8466 7.33891 22.662 1.1543 15.0005 1.1543ZM10.3851 22.9389H6.73891V11.1697H10.3851V22.9389ZM8.58507 9.5543C7.43122 9.5543 6.46199 8.58507 6.46199 7.43122C6.46199 6.27737 7.43122 5.30814 8.58507 5.30814C9.73891 5.30814 10.7081 6.27737 10.7081 7.43122C10.662 8.58507 9.73891 9.5543 8.58507 9.5543ZM24.0928 22.9389H20.4466V17.2158C20.4466 15.8312 20.4004 14.0774 18.5543 14.0774C16.662 14.0774 16.3389 15.5543 16.3389 17.0774V22.8928H12.6928V11.1697H16.2004V12.7851H16.2466C16.7543 11.862 17.9081 10.8928 19.7081 10.8928C23.4004 10.8928 24.0928 13.3389 24.0928 16.5235V22.9389Z" fill="white"/>
</svg>
