<svg width="65" height="65" viewBox="0 0 65 65" fill="none" xmlns="http://www.w3.org/2000/svg">
<path d="M15 53.0008V9.00082H10.3C8.5 8.90082 7 10.4008 7 12.1008V61.8008C7 63.6008 8.4 65.0008 10.2 65.0008H45.7C47.5 65.0008 48.9 63.5008 48.9 61.8008V57.1008H19.2C16.9 57.2008 15 55.3008 15 53.0008Z" fill="#1E386A"/>
<path d="M49.5 8.5V0H19.2C17.4 0 16 1.4 16 3.2V53C16 54.8 17.5 56.2 19.2 56.2H54.7C56.5 56.2 57.9 54.8 57.9 53V8.5H49.5ZM50.1 36.2H23.8C23.1 36.2 22.6 35.6 22.6 34.9C22.6 34.2 23.1 33.6 23.8 33.6H50.1C50.8 33.6 51.3 34.2 51.3 34.9C51.3 35.6 50.8 36.2 50.1 36.2ZM50.1 29.7H23.8C23.1 29.7 22.6 29.1 22.6 28.4C22.6 27.7 23.1 27.1 23.8 27.1H50.1C50.8 27.1 51.3 27.7 51.3 28.4C51.3 29.1 50.8 29.7 50.1 29.7ZM50.1 23.2H23.8C23.1 23.2 22.6 22.6 22.6 21.9C22.6 21.2 23.1 20.6 23.8 20.6H50.1C50.8 20.6 51.3 21.2 51.3 21.9C51.3 22.6 50.8 23.2 50.1 23.2ZM50.1 16.7H23.8C23.1 16.7 22.6 16.1 22.6 15.4C22.6 14.7 23.1 14.1 23.8 14.1H50.1C50.8 14.1 51.3 14.7 51.3 15.4C51.3 16.1 50.8 16.7 50.1 16.7Z" fill="#F1B02A"/>
<path d="M58 8.5L49.5 0V8.5H58Z" fill="#1E386A"/>
<path d="M50.0996 14.1992H23.7996C23.0996 14.1992 22.5996 14.7992 22.5996 15.4992C22.5996 16.1992 23.0996 16.7992 23.7996 16.7992H50.0996C50.7996 16.7992 51.2996 16.1992 51.2996 15.4992C51.2996 14.6992 50.7996 14.1992 50.0996 14.1992Z" fill="#FDF6E9"/>
<path d="M50.0996 20.6992H23.7996C23.0996 20.6992 22.5996 21.2992 22.5996 21.9992C22.5996 22.6992 23.0996 23.2992 23.7996 23.2992H50.0996C50.7996 23.2992 51.2996 22.6992 51.2996 21.9992C51.2996 21.1992 50.7996 20.6992 50.0996 20.6992Z" fill="#FDF6E9"/>
<path d="M50.0996 27.1992H23.7996C23.0996 27.1992 22.5996 27.7992 22.5996 28.4992C22.5996 29.1992 23.0996 29.7992 23.7996 29.7992H50.0996C50.7996 29.7992 51.2996 29.1992 51.2996 28.4992C51.2996 27.6992 50.7996 27.1992 50.0996 27.1992Z" fill="#FDF6E9"/>
<path d="M50.0996 33.6992H23.7996C23.0996 33.6992 22.5996 34.2992 22.5996 34.9992C22.5996 35.6992 23.0996 36.2992 23.7996 36.2992H50.0996C50.7996 36.2992 51.2996 35.6992 51.2996 34.9992C51.2996 34.1992 50.7996 33.6992 50.0996 33.6992Z" fill="#FDF6E9"/>
</svg>
