<svg width="113" height="67" viewBox="0 0 113 67" fill="none" xmlns="http://www.w3.org/2000/svg">
<path d="M91.5031 22.574C89.6361 22.5713 87.7774 22.839 85.9777 23.3697C85.047 20.3441 83.5181 17.5677 81.4946 15.229C79.4711 12.8903 77.0004 11.044 74.2502 9.81531C71.5 8.58664 68.5345 8.00437 65.5551 8.10801C62.5757 8.21165 59.652 8.99878 56.9824 10.416C54.5228 6.45386 50.9379 3.4397 46.7551 1.81695C42.5723 0.194204 38.0124 0.0485397 33.7463 1.40138C29.4802 2.75422 25.7331 5.53413 23.0563 9.33216C20.3795 13.1302 18.9143 17.7458 18.8763 22.5C13.6283 23.0898 8.78684 25.7901 5.33376 30.0531C1.88068 34.3161 0.0745339 39.8228 0.281657 45.4561C0.488779 51.0895 2.69367 56.4278 6.44911 60.3883C10.2045 64.3488 15.2294 66.635 20.5044 66.7832H91.5204C97.033 66.7832 102.32 64.4437 106.218 60.2791C110.116 56.1146 112.306 50.4663 112.306 44.5768C112.306 38.6873 110.116 33.039 106.218 28.8745C102.32 24.71 97.033 22.3704 91.5204 22.3704L91.5031 22.574Z" fill="#1E386B"/>
</svg>
