<svg width="200" height="151" viewBox="0 0 200 151" fill="none" xmlns="http://www.w3.org/2000/svg">
<path d="M65.8629 69.7799C65.8629 69.7799 58.0257 71.4378 52.7506 64.957C47.6263 58.3255 53.8056 52.8997 45.9684 49.1318C38.1312 45.2132 29.6911 49.584 20.3467 49.2825C11.0023 49.1318 5.57656 41.2946 3.76797 42.3496C2.11009 43.4046 4.52155 60.737 31.8011 59.0791C31.8011 59.0791 19.7439 60.737 14.1674 60.1341C8.59088 59.5312 10.5502 66.6149 19.4424 68.4235C28.3347 70.2321 36.3226 66.4642 36.3226 66.4642C36.3226 66.4642 29.9925 70.5335 24.8682 71.4378C19.7439 72.3421 31.8011 82.1386 42.6527 72.0406C42.6527 72.0406 40.9948 74.6028 39.1862 77.0143C37.3776 79.4257 47.1741 81.385 51.3942 74.6028C51.3942 74.6028 49.5856 78.0693 50.0378 79.7272C50.4899 81.385 56.9707 82.5908 59.8343 76.7128C59.8343 76.7128 59.6836 80.33 61.6429 80.6315C63.6022 80.9329 66.4658 81.385 67.5208 76.8636C69.1787 72.4928 65.8629 69.7799 65.8629 69.7799Z" fill="#F0B120"/>
<path d="M143.482 54.5583C143.482 54.5583 151.47 53.0511 153.73 45.0632C155.991 37.0752 148.154 34.3623 153.881 27.8816C159.608 21.4008 169.103 22.0036 177.694 18.2357C186.285 14.4678 188.395 5.27417 190.354 5.5756C192.314 5.87703 196.684 22.9079 170.761 31.6494C170.761 31.6494 182.517 28.6351 187.491 25.9222C192.464 23.2094 193.218 30.4437 185.833 35.5681C178.297 40.6924 169.405 40.2403 169.405 40.2403C169.405 40.2403 176.79 41.5967 181.914 40.5417C186.888 39.4867 179.654 53.0511 165.637 47.9268C165.637 47.9268 168.199 49.5846 170.761 51.0918C173.323 52.599 165.034 58.0247 158.553 53.5033C158.553 53.5033 161.417 56.0654 161.718 57.7233C161.869 59.5319 156.293 62.9984 151.47 58.6276C151.47 58.6276 152.977 61.7926 151.319 62.9984C149.51 64.0534 147.25 65.4098 144.386 61.7926C141.522 58.1754 143.482 54.5583 143.482 54.5583Z" fill="#F0B120"/>
<path d="M143.029 39.0352L60.437 55.4632L70.9871 108.515L153.579 92.2379L143.029 39.0352ZM109.721 87.415L91.7859 75.8098L72.9464 105.953L89.3745 74.3027L63.3006 57.4225L108.515 81.3863L141.221 41.8988L123.436 67.6712L150.565 90.7307L121.778 69.9319L109.721 87.415Z" fill="#1F386B"/>
<path d="M164.281 140.768C182.094 140.768 196.534 126.328 196.534 108.515C196.534 90.702 182.094 76.2617 164.281 76.2617C146.468 76.2617 132.027 90.702 132.027 108.515C132.027 126.328 146.468 140.768 164.281 140.768Z" fill="#F0B120"/>
<path d="M186.134 94.7991L184.627 93.1412L183.572 92.0862C182.517 91.0312 181.01 91.0312 179.955 92.0862L157.799 115.899L148.003 105.198C146.948 104.143 145.441 104.143 144.386 105.198L143.18 106.555L141.823 108.062C140.768 109.117 140.768 110.926 141.823 111.981L155.991 127.354C156.895 128.258 158.252 128.409 159.156 127.655C159.307 127.504 159.457 127.354 159.608 127.203L185.983 98.8684C187.189 97.6627 187.189 95.8541 186.134 94.7991Z" fill="#1F386B"/>
</svg>
