<svg width="32" height="31" viewBox="0 0 32 31" fill="none" xmlns="http://www.w3.org/2000/svg">
<path d="M14.3806 0H10.7348C7.79792 0 5.06359 1.60001 3.03815 4.60001C1.01272 7.50001 0 11.3 0 15.4C0 19.6 1.11399 23.5 3.24069 26.4C5.26613 29.2 7.89919 30.8 10.7348 30.8H14.3806C17.0137 30.6 19.5454 29 21.3683 26.2C23.3938 23.3 24.4065 19.5 24.4065 15.4C24.4065 11.5 23.3938 7.70002 21.4696 4.80002C19.6467 2.00002 17.1149 0.3 14.3806 0Z" fill="#875D27"/>
<path d="M20.7622 15.3999C20.7622 11.3999 19.6482 7.89995 17.9266 5.19995C16.7113 3.39995 15.2935 1.99996 13.5719 1.29996V0.699951H10.635C5.06504 0.699951 0.507812 7.29993 0.507812 15.3999C0.507812 19.5999 1.72306 23.3999 3.64723 26.0999C5.47012 28.5999 7.90065 30.1999 10.635 30.1999H13.5719V29.4999C17.8253 27.5999 20.7622 21.9999 20.7622 15.3999Z" fill="#FCBA2C"/>
<path d="M13.7731 30.3H10.6337C8.00066 30.3 5.46887 28.8 3.5447 26.1C1.51927 23.3 0.405273 19.5 0.405273 15.4C0.405273 7.19999 5.06377 0.5 10.735 0.5H13.8744V1.20001C15.4948 2.00001 17.0138 3.30001 18.1278 5.10001C19.9507 7.90001 20.9634 11.5 20.9634 15.4C20.9634 21.9 18.1278 27.6 13.8744 29.6L13.7731 30.3ZM10.735 0.800018C5.26632 0.800018 0.81037 7.29999 0.81037 15.4C0.81037 19.4 1.92436 23.2 3.84852 26C5.67142 28.6 8.10193 30 10.735 30H13.5706V29.4H13.6719C15.6973 28.5 17.4189 26.7 18.7355 24.2C20.052 21.7 20.7609 18.6 20.7609 15.4C20.7609 11.6 19.7482 8.00002 18.0266 5.30002C16.71 3.50002 15.191 2.2 13.5706 1.5H13.4693V0.800018H10.735Z" fill="#B48545"/>
<path d="M20.9646 5.19998C19.1417 2.39998 16.5087 0.599976 13.6731 0.599976C8.10313 0.599976 3.5459 7.19999 3.5459 15.3C3.5459 19.5 4.76115 23.3 6.68531 26C8.50821 28.5 10.9387 30.1 13.6731 30.1C19.243 30.1 23.8003 23.5 23.8003 15.4C23.699 11.5 22.6863 7.89998 20.9646 5.19998ZM14.1794 26.5C13.9769 26.5 13.8756 26.5 13.6731 26.5C11.6476 26.5 9.82475 25.3 8.40695 23.5C6.98914 21.6 6.07769 18.9 5.97641 15.9C5.97641 15.7 5.97641 15.6 5.97641 15.4C5.97641 9.29996 9.41966 4.29999 13.5718 4.29999C13.7743 4.29999 13.8756 4.29999 14.0782 4.29999C18.0278 4.69999 21.1672 9.49996 21.1672 15.4C21.1672 15.6 21.1672 15.7 21.1672 15.9C21.0659 21.6 18.0278 26.1 14.1794 26.5Z" fill="#F7E343"/>
<path d="M13.6718 30.3C11.0387 30.3 8.50695 28.8 6.58279 26.1C4.55736 23.3 3.44336 19.5 3.44336 15.4C3.44336 7.19999 8.0006 0.5 13.6718 0.5C16.5074 0.5 19.1405 2.10001 21.0647 5.10001C22.8875 7.90001 23.9003 11.5 23.9003 15.4C23.9003 23.6 19.343 30.3 13.6718 30.3ZM13.6718 0.800018C8.20314 0.800018 3.74718 7.29999 3.74718 15.4C3.74718 19.4 4.86117 23.2 6.78533 26C8.60822 28.6 11.0387 30 13.6718 30C19.1405 30 23.5965 23.5 23.5965 15.4C23.5965 11.6 22.5837 8.00002 20.8621 5.30002C18.9379 2.40002 16.4062 0.800018 13.6718 0.800018ZM13.6718 26.7C11.6464 26.7 9.72221 25.6 8.30441 23.6C6.78533 21.6 5.97516 18.8 5.87389 15.9C5.87389 15.7 5.87389 15.6 5.87389 15.4C5.87389 9.19999 9.31713 4.10001 13.6718 4.10001C13.8744 4.10001 13.9756 4.10001 14.1782 4.10001C18.229 4.50001 21.4697 9.39999 21.4697 15.4C21.4697 15.6 21.4697 15.7 21.4697 15.9C21.2672 21.7 18.229 26.3 14.1782 26.7C13.9756 26.7 13.8744 26.7 13.6718 26.7ZM13.6718 4.39999C9.51967 4.39999 6.17769 9.29999 6.17769 15.4C6.17769 15.6 6.17769 15.7 6.17769 15.9C6.27897 18.8 7.08914 21.5 8.50695 23.4C9.92475 25.3 11.7476 26.4 13.5705 26.4C13.7731 26.4 13.8744 26.4 14.0769 26.4C17.9252 26 20.8621 21.5 21.0647 15.9C21.0647 15.7 21.0647 15.6 21.0647 15.4C21.0647 9.59999 18.0265 4.79999 14.0769 4.39999C13.9756 4.39999 13.7731 4.39999 13.6718 4.39999Z" fill="#B48545"/>
<path d="M14.1781 4.29993C13.9755 4.29993 13.8742 4.29993 13.6717 4.29993C13.5704 4.29993 13.3679 4.29993 13.2666 4.29993H13.3679C17.3175 4.69993 20.4569 9.4999 20.4569 15.3999C20.4569 15.5999 20.4569 15.6999 20.4569 15.8999C20.2544 21.5999 17.2162 26.1999 13.3679 26.4999H13.2666C13.3679 26.4999 13.5704 26.4999 13.6717 26.4999C13.8742 26.4999 13.9755 26.4999 14.1781 26.4999C18.0264 26.0999 21.1658 21.4999 21.2671 15.8999C21.2671 15.6999 21.2671 15.5999 21.2671 15.3999C21.2671 9.4999 18.1277 4.69993 14.1781 4.29993Z" fill="#FCB316"/>
<path d="M13.6717 26.7C13.5704 26.7 13.3679 26.7 13.2666 26.7V26.4H13.3679C17.2162 26 20.1531 21.5 20.3556 15.9C20.3556 15.7 20.3556 15.6 20.3556 15.4C20.3556 9.59996 17.3175 4.79996 13.3679 4.39996H13.2666V4.09998C13.5704 4.09998 13.8742 4.09998 14.2793 4.09998C18.3302 4.49998 21.5709 9.39996 21.5709 15.4C21.5709 15.6 21.5709 15.7 21.5709 15.9C21.3684 21.7 18.3302 26.3 14.2793 26.7C13.9755 26.7 13.8742 26.7 13.6717 26.7ZM15.1908 4.69998C18.3302 6.19998 20.5582 10.5 20.5582 15.4C20.5582 15.6 20.5582 15.7 20.5582 15.9C20.4569 20.7 18.2289 24.7 15.1908 26.2C18.4315 25.2 20.9633 21 21.0645 15.9C21.0645 15.7 21.0645 15.6 21.0645 15.4C21.1658 10.2 18.634 5.69998 15.1908 4.69998Z" fill="#B48545"/>
<path d="M17.9255 0H14.2797C11.3428 0 8.60851 1.60001 6.58308 4.60001C4.55764 7.50001 3.54492 11.3 3.54492 15.4C3.54492 19.6 4.65891 23.5 6.78562 26.4C8.81105 29.2 11.4441 30.8 14.2797 30.8H17.9255C20.5586 30.6 23.0904 29 24.9133 26.2C26.9387 23.3 27.9514 19.5 27.9514 15.4C27.9514 11.5 26.9387 7.70002 25.0145 4.80002C23.1916 2.00002 20.6599 0.3 17.9255 0Z" fill="#875D27"/>
<path d="M24.3061 15.3999C24.3061 11.3999 23.1921 7.89995 21.4705 5.19995C20.2552 3.39995 18.8374 1.99996 17.1158 1.29996V0.699951H14.1789C8.60899 0.699951 4.05176 7.29993 4.05176 15.3999C4.05176 19.5999 5.26701 23.3999 7.19117 26.0999C9.01407 28.5999 11.4446 30.1999 14.1789 30.1999H17.1158V29.4999C21.3692 27.5999 24.3061 21.9999 24.3061 15.3999Z" fill="#FCBA2C"/>
<path d="M17.4196 30.3H14.2802C11.6471 30.3 9.11534 28.8 7.19117 26.1C5.16574 23.3 4.05176 19.4 4.05176 15.4C4.05176 7.19999 8.60898 0.5 14.2802 0.5H17.4196V1.20001C19.04 2.00001 20.5591 3.30001 21.673 5.10001C23.4959 7.90001 24.5087 11.5 24.5087 15.4C24.5087 18.6 23.7998 21.7 22.4832 24.3C21.1667 26.8 19.4451 28.6 17.4196 29.6V30.3ZM14.2802 0.800018C8.81152 0.800018 4.35558 7.29999 4.35558 15.4C4.35558 19.4 5.46957 23.2 7.39373 26C9.21662 28.6 11.6471 30 14.2802 30H17.1158V29.4H17.2171C19.2425 28.5 20.9641 26.7 22.2807 24.2C23.5972 21.7 24.3061 18.6 24.3061 15.4C24.3061 11.6 23.2934 8.00002 21.5718 5.30002C20.2552 3.50002 18.7362 2.2 17.2171 1.5H17.1158V0.800018H14.2802Z" fill="#B48545"/>
<path d="M24.5096 5.19998C22.6867 2.39998 20.0536 0.599976 17.218 0.599976C11.6481 0.599976 7.09082 7.19999 7.09082 15.3C7.09082 19.5 8.30607 23.3 10.2302 26C12.0531 28.5 14.4837 30.1 17.218 30.1C22.7879 30.1 27.3452 23.5 27.3452 15.4C27.3452 11.5 26.2312 7.89998 24.5096 5.19998ZM17.7244 26.5C17.5218 26.5 17.4205 26.5 17.218 26.5C15.1926 26.5 13.3697 25.3 11.9519 23.5C10.5341 21.6 9.62261 18.9 9.52134 15.9C9.52134 15.7 9.52134 15.6 9.52134 15.4C9.52134 9.29996 12.9646 4.29999 17.1167 4.29999C17.3193 4.29999 17.4205 4.29999 17.6231 4.29999C21.5727 4.69999 24.7121 9.49996 24.7121 15.4C24.7121 15.6 24.7121 15.7 24.7121 15.9C24.7121 21.6 21.5727 26.1 17.7244 26.5Z" fill="#F7E343"/>
<path d="M17.2167 30.3C14.5837 30.3 12.0519 28.8 10.1277 26.1C8.10228 23.3 6.98828 19.4 6.98828 15.4C6.98828 7.19999 11.5455 0.5 17.2167 0.5C20.0523 0.5 22.6854 2.10001 24.6096 5.10001C26.4325 7.90001 27.4452 11.5 27.4452 15.4C27.4452 23.6 22.888 30.3 17.2167 30.3ZM17.2167 0.800018C11.7481 0.800018 7.2921 7.29999 7.2921 15.4C7.2921 19.4 8.40609 23.2 10.3303 26C12.1531 28.6 14.5837 30 17.2167 30C22.6854 30 27.1414 23.5 27.1414 15.4C27.1414 11.6 26.1286 8.00002 24.407 5.30002C22.4829 2.40002 19.9511 0.800018 17.2167 0.800018ZM17.2167 26.7C15.1913 26.7 13.2671 25.6 11.8493 23.6C10.3303 21.6 9.52009 18.8 9.41881 15.9C9.41881 15.7 9.41881 15.6 9.41881 15.4C9.41881 9.19999 12.8621 4.10001 17.2167 4.10001C17.4193 4.10001 17.5206 4.10001 17.7231 4.10001C21.774 4.50001 25.0147 9.39999 25.0147 15.4C25.0147 15.6 25.0147 15.7 25.0147 15.9C24.8121 21.7 21.774 26.3 17.7231 26.7C17.6218 26.7 17.4193 26.7 17.2167 26.7ZM17.2167 4.39999C13.0646 4.39999 9.72262 9.29999 9.72262 15.4C9.72262 15.6 9.72262 15.7 9.72262 15.9C9.82389 18.8 10.6341 21.5 12.0519 23.4C13.4697 25.3 15.2926 26.4 17.1155 26.4C17.318 26.4 17.4193 26.4 17.6218 26.4C21.4701 26 24.407 21.5 24.6096 15.9C24.6096 15.7 24.6096 15.6 24.6096 15.4C24.6096 9.59999 21.5714 4.79999 17.6218 4.39999C17.5205 4.39999 17.4193 4.39999 17.2167 4.39999Z" fill="#B48545"/>
<path d="M17.724 4.29993C17.5214 4.29993 17.4201 4.29993 17.2176 4.29993C17.1163 4.29993 16.9138 4.29993 16.8125 4.29993H16.9138C20.8634 4.69993 24.0028 9.4999 24.0028 15.3999C24.0028 15.5999 24.0028 15.6999 24.0028 15.8999C23.8003 21.5999 20.7621 26.1999 16.9138 26.4999H16.8125C16.9138 26.4999 17.1163 26.4999 17.2176 26.4999C17.4201 26.4999 17.5214 26.4999 17.724 26.4999C21.5723 26.0999 24.7117 21.4999 24.813 15.8999C24.813 15.6999 24.813 15.5999 24.813 15.3999C24.813 9.4999 21.6736 4.69993 17.724 4.29993Z" fill="#FCB316"/>
<path d="M17.2163 26.7C17.115 26.7 16.9125 26.7 16.8112 26.7V26.4H16.9125C20.6596 26 23.6977 21.5 23.799 15.9C23.799 15.7 23.799 15.6 23.799 15.4C23.799 9.59996 20.7608 4.79996 16.8112 4.39996H16.71V4.09998C17.0138 4.09998 17.3176 4.09998 17.7227 4.09998C21.7736 4.49998 25.0142 9.39996 25.0142 15.4C25.0142 15.6 25.0142 15.7 25.0142 15.9C24.8117 21.7 21.7736 26.3 17.7227 26.7C17.6214 26.7 17.4189 26.7 17.2163 26.7ZM18.8367 4.69998C21.9761 6.19998 24.2041 10.5 24.2041 15.4C24.2041 15.6 24.2041 15.7 24.2041 15.9C24.1028 20.7 21.8748 24.7 18.8367 26.2C22.0774 25.2 24.6092 21 24.7104 15.9C24.7104 15.7 24.7104 15.6 24.7104 15.4C24.7104 10.2 22.1786 5.69998 18.8367 4.69998Z" fill="#B48545"/>
<path d="M21.3679 0H17.7221C14.7852 0 12.0509 1.60001 10.0255 4.60001C8.00002 7.50001 6.9873 11.3 6.9873 15.4C6.9873 19.6 8.10129 23.5 10.228 26.4C12.2534 29.2 14.8865 30.8 17.7221 30.8H21.3679C24.001 30.6 26.5328 29 28.3557 26.2C30.3811 23.3 31.3938 19.5 31.3938 15.4C31.3938 11.5 30.3811 7.70002 28.4569 4.80002C26.634 2.00002 24.1022 0.3 21.3679 0Z" fill="#875D27"/>
<path d="M27.7495 15.3999C27.7495 11.3999 26.6355 7.89995 24.9139 5.19995C23.6986 3.39995 22.2808 1.99996 20.5592 1.29996V0.699951H17.6223C12.0523 0.699951 7.49512 7.29993 7.49512 15.3999C7.49512 19.5999 8.71038 23.3999 10.6345 26.0999C12.4574 28.5999 14.888 30.1999 17.6223 30.1999H20.6605V29.4999C24.7113 27.5999 27.7495 21.9999 27.7495 15.3999Z" fill="#FCBA2C"/>
<path d="M20.7605 30.3H17.621C14.988 30.3 12.4562 28.8 10.532 26.1C8.50656 23.3 7.39258 19.4 7.39258 15.4C7.39258 7.19999 12.0511 0.5 17.621 0.5H20.7605V1.20001C22.3808 2.00001 23.8999 3.30001 25.0139 5.10001C26.8368 7.90001 27.8495 11.5 27.8495 15.4C27.8495 21.9 25.0139 27.6 20.7605 29.6V30.3ZM17.621 0.800018C12.1523 0.800018 7.69638 7.29999 7.69638 15.4C7.69638 19.4 8.81037 23.2 10.7345 26C12.5574 28.6 14.988 30 17.621 30H20.4566V29.4H20.5579C22.5833 28.5 24.305 26.7 25.6215 24.2C26.938 21.7 27.6469 18.6 27.6469 15.4C27.6469 11.6 26.6342 8.00002 24.9126 5.30002C23.6973 3.50002 22.1783 2.2 20.5579 1.5H20.4566V0.800018H17.621Z" fill="#B48545"/>
<path d="M27.9519 5.19998C26.1291 2.39998 23.496 0.599976 20.6604 0.599976C15.0904 0.599976 10.5332 7.19999 10.5332 15.3C10.5332 19.5 11.7485 23.3 13.6726 26C15.4955 28.5 17.926 30.1 20.6604 30.1C26.2303 30.1 30.7876 23.5 30.7876 15.4C30.6863 11.5 29.6736 7.89998 27.9519 5.19998ZM21.1667 26.5C20.9642 26.5 20.8629 26.5 20.6604 26.5C18.6349 26.5 16.8121 25.3 15.3943 23.5C13.9764 21.6 13.065 18.9 12.9637 15.9C12.9637 15.7 12.9637 15.6 12.9637 15.4C12.9637 9.29996 16.407 4.29999 20.5591 4.29999C20.7617 4.29999 20.8629 4.29999 21.0655 4.29999C25.0151 4.69999 28.1545 9.49996 28.1545 15.4C28.1545 15.6 28.1545 15.7 28.1545 15.9C28.0532 21.6 25.0151 26.1 21.1667 26.5Z" fill="#F7E343"/>
<path d="M20.6591 30.3C18.026 30.3 15.4942 28.8 13.5701 26.1C11.5446 23.3 10.4307 19.4 10.4307 15.4C10.4307 7.19999 14.9879 0.5 20.6591 0.5C23.4947 0.5 26.1278 2.10001 28.052 5.10001C29.8748 7.90001 30.8876 11.5 30.8876 15.4C30.8876 23.6 26.3303 30.3 20.6591 30.3ZM20.6591 0.800018C15.1904 0.800018 10.7345 7.29999 10.7345 15.4C10.7345 19.4 11.8485 23.2 13.7726 26C15.5955 28.6 18.026 30 20.6591 30C26.1278 30 30.5837 23.5 30.5837 15.4C30.5837 11.6 29.571 8.00002 27.8494 5.30002C25.9252 2.40002 23.3934 0.800018 20.6591 0.800018ZM20.6591 26.7C18.6337 26.7 16.7095 25.6 15.2917 23.6C13.7726 21.6 12.9625 18.8 12.8612 15.9C12.8612 15.7 12.8612 15.6 12.8612 15.4C12.8612 9.19999 16.3044 4.10001 20.6591 4.10001C20.8617 4.10001 20.9629 4.10001 21.1655 4.10001C25.2163 4.50001 28.457 9.39999 28.457 15.4C28.457 15.6 28.457 15.7 28.457 15.9C28.2545 21.7 25.2163 26.3 21.1655 26.7C20.9629 26.7 20.7604 26.7 20.6591 26.7ZM20.6591 4.39999C16.507 4.39999 13.165 9.29999 13.165 15.4C13.165 15.6 13.165 15.7 13.165 15.9C13.2663 18.8 14.0764 21.5 15.4943 23.4C16.9121 25.3 18.735 26.4 20.5578 26.4C20.7604 26.4 20.8617 26.4 21.0642 26.4C24.9125 26 27.8494 21.5 28.052 15.9C28.052 15.7 28.052 15.6 28.052 15.4C28.052 9.59999 25.0138 4.79999 21.0642 4.39999C20.9629 4.39999 20.7604 4.39999 20.6591 4.39999Z" fill="#B48545"/>
<path d="M21.1653 4.29993C20.9628 4.29993 20.8615 4.29993 20.659 4.29993C20.5577 4.29993 20.3552 4.29993 20.2539 4.29993H20.3552C24.3048 4.69993 27.4442 9.4999 27.4442 15.3999C27.4442 15.5999 27.4442 15.6999 27.4442 15.8999C27.2416 21.5999 24.2035 26.1999 20.3552 26.4999H20.2539C20.3552 26.4999 20.5577 26.4999 20.659 26.4999C20.8615 26.4999 20.9628 26.4999 21.1653 26.4999C25.0137 26.0999 28.1531 21.4999 28.2544 15.8999C28.2544 15.6999 28.2544 15.5999 28.2544 15.3999C28.2544 9.4999 25.1149 4.69993 21.1653 4.29993Z" fill="#FCB316"/>
<path d="M20.659 26.7C20.5577 26.7 20.3552 26.7 20.2539 26.7V26.4H20.3552C24.2035 26 27.1404 21.5 27.3429 15.9C27.3429 15.7 27.3429 15.6 27.3429 15.4C27.3429 9.59996 24.3048 4.79996 20.3552 4.39996H20.2539V4.09998C20.5577 4.09998 20.8615 4.09998 21.2666 4.09998C25.3175 4.49998 28.5582 9.39996 28.5582 15.4C28.5582 15.6 28.5582 15.7 28.5582 15.9C28.3556 21.7 25.3175 26.3 21.2666 26.7C20.9628 26.7 20.7603 26.7 20.659 26.7ZM22.1781 4.69998C25.3175 6.19998 27.5455 10.5 27.5455 15.4C27.5455 15.6 27.5455 15.7 27.5455 15.9C27.4442 20.7 25.2162 24.7 22.1781 26.2C25.4188 25.2 27.9506 21 28.0518 15.9C28.0518 15.7 28.0518 15.6 28.0518 15.4C28.0518 10.2 25.6213 5.69998 22.1781 4.69998Z" fill="#B48545"/>
<path d="M18.4317 18.6V22.2H17.4189V20.7L18.4317 18.6Z" fill="#F7E343"/>
<path d="M19.647 16.2001L20.1533 17.1001V17.2001V22.2001H19.1406V17.3001L19.647 16.2001Z" fill="#F7E343"/>
<path d="M21.875 16.6V22.2H20.8623V18.7L20.9636 18.6L21.6725 17.1L21.875 16.6Z" fill="#F7E343"/>
<path d="M23.5967 13.2V22.2H22.584V15.3L23.5967 13.2Z" fill="#F7E343"/>
<path d="M20.8617 16.8999H20.4567L19.6465 15.3999H20.1528L20.8617 16.8999Z" fill="#875D27"/>
<path d="M17.4185 20.7H16.9121V22.3H17.4185V20.7Z" fill="#875D27"/>
<path d="M17.4185 20.7H16.9121L17.9248 18.6H18.4312L17.4185 20.7Z" fill="#875D27"/>
<path d="M19.2417 17.2999H18.7354V22.1999H19.2417V17.2999Z" fill="#875D27"/>
<path d="M19.1404 17.3H18.7354L19.2417 16.2H19.6468L19.1404 17.3Z" fill="#875D27"/>
<path d="M21.6724 17.0999H21.166L21.4698 16.5999H21.8749L21.6724 17.0999Z" fill="#875D27"/>
<path d="M20.9634 18.5999H20.457L21.1659 17.0999H21.6723L20.9634 18.5999Z" fill="#875D27"/>
<path d="M20.8621 18.7H20.457V18.6H20.9634L20.8621 18.7Z" fill="#875D27"/>
<path d="M20.9634 18.7H20.457V22.3H20.9634V18.7Z" fill="#875D27"/>
<path d="M22.6851 15.2999H22.1787V22.1999H22.6851V15.2999Z" fill="#875D27"/>
<path d="M22.5838 15.3H22.1787L23.1914 13.2H23.5965L22.5838 15.3Z" fill="#875D27"/>
<path d="M24.4068 11.0999H23.9005L23.5967 10.3999H24.0018L24.4068 11.0999Z" fill="#875D27"/>
<path d="M23.2929 8.8999H22.8878L22.584 8.29993H22.9891L23.2929 8.8999Z" fill="#875D27"/>
<path d="M20.8621 13.8999H20.457L22.8875 8.8999H23.2926L20.8621 13.8999Z" fill="#875D27"/>
<path d="M20.1527 15.3999H19.6463L19.2412 14.4999H19.7476L20.1527 15.3999Z" fill="#875D27"/>
<path d="M19.0396 13H18.5332L19.2421 11.6H19.7485L19.0396 13Z" fill="#875D27"/>
<path d="M16.5073 18.2999H16.001L18.5328 12.9999H19.0391L16.5073 18.2999Z" fill="#875D27"/>
<path d="M17.2162 19.6999H16.7099L16.001 18.2999H16.5073L17.2162 19.6999Z" fill="#875D27"/>
<path d="M22.9882 8.29993H24.406V11.0999L24.0009 10.3999L21.5704 15.3999L20.8615 16.8999L20.1526 15.3999L19.7475 14.4999L17.2157 19.6999L16.5068 18.2999L19.0386 12.9999L19.7475 11.5999L20.4564 12.9999L20.8615 13.8999L23.292 8.8999L22.9882 8.29993Z" fill="#F7E343"/>
</svg>
