<svg xmlns="http://www.w3.org/2000/svg" viewBox="0 0 210.65 39.3"><defs><style>.cls-1{fill:#1e386b;}.cls-2{fill:#875d27;}.cls-3{fill:#fcba2c;}.cls-4{fill:#b48545;}.cls-5{fill:#f7e343;}.cls-6{fill:#fcb316;}</style></defs><title>Asset 1</title><g id="Layer_2" data-name="Layer 2"><g id="Layer_1-2" data-name="Layer 1"><path class="cls-1" d="M374.08-3372.9a11.17,11.17,0,0,1,3-8.1,10.37,10.37,0,0,1,7.8-3.1,11,11,0,0,1,7,2.3,9.36,9.36,0,0,1,3.45,6.1h-4.76c-.61-2.7-2.84-4.2-5.78-4.2-3.95,0-6.17,2.7-6.17,6.9s2.33,6.9,6.17,6.9a5.52,5.52,0,0,0,5.78-4.2h5a9.15,9.15,0,0,1-3.44,6.1,11.08,11.08,0,0,1-7,2.3,10.38,10.38,0,0,1-7.8-3.1C375.09-3366.9,374.08-3369.6,374.08-3372.9Z" transform="translate(-330.33 3389.1)"/><path class="cls-1" d="M401.93-3370a4.81,4.81,0,0,0,1.11,3.3,3.92,3.92,0,0,0,2.94,1.2,3.92,3.92,0,0,0,2.94-1.2A4.38,4.38,0,0,0,410-3370a4.81,4.81,0,0,0-1.11-3.3,3.77,3.77,0,0,0-2.94-1.2,3.92,3.92,0,0,0-2.94,1.2A4.38,4.38,0,0,0,401.93-3370Zm4.05,8.2a8,8,0,0,1-6.08-2.4,8.17,8.17,0,0,1-2.33-5.9,8.17,8.17,0,0,1,2.33-5.9,8,8,0,0,1,6.08-2.4,8,8,0,0,1,6.08,2.4,8.34,8.34,0,0,1,2.33,5.9,8.34,8.34,0,0,1-2.33,5.9A8.31,8.31,0,0,1,406-3361.8Z" transform="translate(-330.33 3389.1)"/><path class="cls-1" d="M419.45-3380a2.56,2.56,0,0,1-1.93-.7,2.94,2.94,0,0,1-.7-1.9,2.49,2.49,0,0,1,.7-1.9,2.56,2.56,0,0,1,1.93-.7,2.52,2.52,0,0,1,1.92.7,2.77,2.77,0,0,1,.71,1.9,2.12,2.12,0,0,1-.71,1.8A2.27,2.27,0,0,1,419.45-3380Zm-2.13,17.9v-15.8h4.36v15.8Z" transform="translate(-330.33 3389.1)"/><path class="cls-1" d="M429.68-3377.9v1.9c.81-1.5,2.43-2.3,4.76-2.3,3.74,0,5.87,2.4,5.87,6.3v9.9H436v-9.4c0-2.1-.92-3.1-2.74-3.1-2.13,0-3.24,1.3-3.24,3.4v9.1h-4.35v-15.8Z" transform="translate(-330.33 3389.1)"/><polygon class="cls-1" points="119.6 21.8 123.55 11.1 128.01 11.1 121.63 26.9 117.58 26.9 111.2 11.1 115.75 11.1 119.6 21.8"/><path class="cls-1" d="M463-3371.9h7.29a3.46,3.46,0,0,0-3.65-3A3.59,3.59,0,0,0,463-3371.9Zm11.54,3.1H462.89a3.62,3.62,0,0,0,3.85,3.4,3,3,0,0,0,3-1.7h4.36a7.7,7.7,0,0,1-2.74,3.9,8.23,8.23,0,0,1-4.86,1.5,7.75,7.75,0,0,1-5.77-2.3,8,8,0,0,1-2.23-6,8.53,8.53,0,0,1,2.23-5.9,7.46,7.46,0,0,1,5.77-2.4,7.91,7.91,0,0,1,5.77,2.3,8.53,8.53,0,0,1,2.23,5.9Z" transform="translate(-330.33 3389.1)"/><path class="cls-1" d="M476.36-3367.3h4.36c.1,1.2.91,2.1,2.63,2.1s2.53-.6,2.53-1.4c0-1-1.42-1.4-3.14-1.6a24.9,24.9,0,0,1-2.63-.6A4.18,4.18,0,0,1,477-3373a4.58,4.58,0,0,1,1.82-3.7,7,7,0,0,1,4.66-1.5,6.6,6.6,0,0,1,4.86,1.6,5.47,5.47,0,0,1,1.72,3.7h-4.15a2.13,2.13,0,0,0-2.43-1.9c-1.42,0-2.23.7-2.23,1.5,0,1,1.42,1.3,3.14,1.6.81.2,1.73.3,2.64.6a4.22,4.22,0,0,1,3.14,4.3,4.25,4.25,0,0,1-1.83,3.6,7.48,7.48,0,0,1-5,1.4C478.9-3361.8,476.57-3363.6,476.36-3367.3Z" transform="translate(-330.33 3389.1)"/><path class="cls-1" d="M500.37-3365.9v3.7a9.82,9.82,0,0,1-2,.2c-3.24,0-5-1.6-5-4.8v-7.8h-2.13v-3.4h2.13v-3.9h4.35v3.9h2.64v3.4h-2.54v7.2c0,1,.51,1.5,1.62,1.5Z" transform="translate(-330.33 3389.1)"/><path class="cls-1" d="M512.72-3369.3l-3.85.6c-1.62.3-2.43.9-2.43,1.9s.81,1.7,2.43,1.7c2.43,0,3.85-1.4,3.85-3.5Zm-10.43,2.7c0-2.8,1.92-4.4,6.18-5l4.25-.6v-.2c0-1.5-.91-2.3-2.84-2.3s-2.73.6-2.93,1.9h-4.26a6.54,6.54,0,0,1,1.93-3.9c1.11-1.1,2.94-1.6,5.26-1.6,4.66,0,7,2.1,7,5.9v7.5a6.83,6.83,0,0,0,.51,2.8h-4.15a7.88,7.88,0,0,1-.21-1.8c-1,1.4-2.73,2.1-5.06,2.1C504.31-3361.8,502.29-3363.7,502.29-3366.6Z" transform="translate(-330.33 3389.1)"/><path class="cls-1" d="M519.51-3367.3h4.35c.1,1.2.91,2.1,2.63,2.1s2.54-.6,2.54-1.4c0-1-1.42-1.4-3.14-1.6a24.52,24.52,0,0,1-2.64-.6,4.18,4.18,0,0,1-3.14-4.2,4.56,4.56,0,0,1,1.83-3.7,7,7,0,0,1,4.65-1.5,6.65,6.65,0,0,1,4.87,1.6,5.52,5.52,0,0,1,1.72,3.7H529a2.15,2.15,0,0,0-2.44-1.9c-1.41,0-2.22.7-2.22,1.5,0,1,1.41,1.3,3.14,1.6.81.2,1.72.3,2.63.6a4.22,4.22,0,0,1,3.14,4.3,4.27,4.27,0,0,1-1.82,3.6,7.52,7.52,0,0,1-5,1.4C522-3361.8,519.81-3363.6,519.51-3367.3Z" transform="translate(-330.33 3389.1)"/><path class="cls-1" d="M538.24-3380a2.52,2.52,0,0,1-1.92-.7,2.38,2.38,0,0,1-.71-1.8,2.46,2.46,0,0,1,.71-1.9,2.52,2.52,0,0,1,1.92-.7,2.52,2.52,0,0,1,1.92.7,2.46,2.46,0,0,1,.71,1.9,2.12,2.12,0,0,1-.71,1.8A2.52,2.52,0,0,1,538.24-3380Zm-2.13,17.9v-15.8h4.36v15.8Z" transform="translate(-330.33 3389.1)"/><path class="cls-2" d="M344.71-3389.1h-3.65c-2.93,0-5.67,1.6-7.69,4.6a18.81,18.81,0,0,0-3,10.8,18.61,18.61,0,0,0,3.24,11c2,2.8,4.66,4.4,7.49,4.4h3.65a9.39,9.39,0,0,0,7-4.6,18.88,18.88,0,0,0,3-10.8,19.43,19.43,0,0,0-2.94-10.6A9.93,9.93,0,0,0,344.71-3389.1Z" transform="translate(-330.33 3389.1)"/><path class="cls-3" d="M351.09-3373.7a19,19,0,0,0-2.83-10.2,10.09,10.09,0,0,0-4.36-3.9v-.6H341c-5.57,0-10.12,6.6-10.12,14.7A18.59,18.59,0,0,0,334-3363c1.82,2.5,4.25,4.1,7,4.1h2.94v-.7C348.15-3361.5,351.09-3367.1,351.09-3373.7Z" transform="translate(-330.33 3389.1)"/><path class="cls-4" d="M341.06-3388.3c-5.46,0-9.92,6.5-9.92,14.6a18.92,18.92,0,0,0,3,10.6,8.43,8.43,0,0,0,6.88,4h2.84v-.6h.1a11,11,0,0,0,5.06-5.2,19.09,19.09,0,0,0,2-8.8,19.07,19.07,0,0,0-2.73-10.1,11.24,11.24,0,0,0-4.46-3.8h-.1v-.7Zm3,29.5H341c-2.63,0-5.16-1.5-7.09-4.2a18.38,18.38,0,0,1-3.14-10.7c0-8.2,4.66-14.9,10.33-14.9h3.14v.7a10.53,10.53,0,0,1,4.26,3.9,18.94,18.94,0,0,1,2.83,10.3c0,6.5-2.83,12.2-7.09,14.2Z" transform="translate(-330.33 3389.1)"/><path class="cls-5" d="M344.51-3362.6H344a6.89,6.89,0,0,1-5.26-3,13.58,13.58,0,0,1-2.43-7.6v-.5c0-6.1,3.44-11.1,7.59-11.1h.51c3.95.4,7.09,5.2,7.09,11.1v.5C351.4-3367.5,348.36-3363,344.51-3362.6Zm6.78-21.3c-1.82-2.8-4.45-4.6-7.29-4.6-5.57,0-10.12,6.6-10.12,14.7a18.66,18.66,0,0,0,3.13,10.7c1.83,2.5,4.26,4.1,7,4.1,5.57,0,10.13-6.6,10.13-14.7A20.05,20.05,0,0,0,351.29-3383.9Z" transform="translate(-330.33 3389.1)"/><path class="cls-4" d="M344-3384.7c-4.15,0-7.49,4.9-7.49,11v.5a13.46,13.46,0,0,0,2.33,7.5,6.57,6.57,0,0,0,5.06,3h.51c3.84-.4,6.78-4.9,7-10.5v-.5c0-5.8-3-10.6-7-11Zm0,22.3a6.67,6.67,0,0,1-5.37-3.1,13.66,13.66,0,0,1-2.43-7.7v-.5c0-6.2,3.45-11.3,7.8-11.3h.51c4.05.4,7.29,5.3,7.29,11.3v.5c-.2,5.8-3.24,10.4-7.29,10.8Zm0-25.9c-5.47,0-9.92,6.5-9.92,14.6a19,19,0,0,0,3,10.6,8.46,8.46,0,0,0,6.89,4c5.47,0,9.93-6.5,9.93-14.6a19.07,19.07,0,0,0-2.74-10.1C349.27-3386.7,346.74-3388.3,344-3388.3Zm0,29.5c-2.63,0-5.16-1.5-7.09-4.2a18.38,18.38,0,0,1-3.14-10.7c0-8.2,4.56-14.9,10.23-14.9,2.84,0,5.47,1.6,7.39,4.6a18.86,18.86,0,0,1,2.84,10.3C354.23-3365.5,349.67-3358.8,344-3358.8Z" transform="translate(-330.33 3389.1)"/><path class="cls-6" d="M344.51-3384.8h-.81c3.95.4,7.09,5.2,7.09,11.1v.5c-.21,5.7-3.24,10.3-7.09,10.6h.81c3.85-.4,7-5,7.09-10.6v-.5C351.6-3379.6,348.46-3384.4,344.51-3384.8Z" transform="translate(-330.33 3389.1)"/><path class="cls-4" d="M345.52-3384.4c3.14,1.5,5.37,5.8,5.37,10.7v.5c-.1,4.8-2.33,8.8-5.37,10.3,3.24-1,5.77-5.2,5.87-10.3v-.5C351.49-3378.9,349-3383.4,345.52-3384.4Zm-1.52,22h-.4v-.3h.1c3.85-.4,6.78-4.9,7-10.5v-.5c0-5.8-3-10.6-7-11h-.1v-.3h1c4.05.4,7.29,5.3,7.29,11.3v.5c-.2,5.8-3.24,10.4-7.29,10.8Z" transform="translate(-330.33 3389.1)"/><path class="cls-2" d="M348.25-3389.1h-3.64c-2.94,0-5.67,1.6-7.7,4.6a18.88,18.88,0,0,0-3,10.8,18.68,18.68,0,0,0,3.24,11c2,2.8,4.66,4.4,7.5,4.4h3.64a9.36,9.36,0,0,0,7-4.6,18.81,18.81,0,0,0,3-10.8,19.34,19.34,0,0,0-2.94-10.6A9.91,9.91,0,0,0,348.25-3389.1Z" transform="translate(-330.33 3389.1)"/><path class="cls-3" d="M354.64-3373.7a19,19,0,0,0-2.84-10.2,10,10,0,0,0-4.36-3.9v-.6h-2.93c-5.57,0-10.13,6.6-10.13,14.7a18.66,18.66,0,0,0,3.14,10.7c1.82,2.5,4.25,4.1,7,4.1h2.93v-.7C351.7-3361.5,354.64-3367.1,354.64-3373.7Z" transform="translate(-330.33 3389.1)"/><path class="cls-4" d="M344.61-3388.3c-5.47,0-9.93,6.5-9.93,14.6a19,19,0,0,0,3,10.6,8.46,8.46,0,0,0,6.89,4h2.83v-.6h.11a11.1,11.1,0,0,0,5.06-5.2,19.09,19.09,0,0,0,2-8.8,19.07,19.07,0,0,0-2.74-10.1,11.7,11.7,0,0,0-4.35-3.8h-.11v-.7Zm3.14,29.5h-3.14c-2.63,0-5.17-1.5-7.09-4.2a18.54,18.54,0,0,1-3.14-10.7c0-8.2,4.56-14.9,10.23-14.9h3.14v.7A10.44,10.44,0,0,1,352-3384a18.86,18.86,0,0,1,2.84,10.3,19.81,19.81,0,0,1-2,8.9,11.8,11.8,0,0,1-5.06,5.3Z" transform="translate(-330.33 3389.1)"/><path class="cls-5" d="M348.05-3362.6h-.5a6.91,6.91,0,0,1-5.27-3,13.58,13.58,0,0,1-2.43-7.6v-.5c0-6.1,3.44-11.1,7.6-11.1h.5c3.95.4,7.09,5.2,7.09,11.1v.5C355-3367.5,351.9-3363,348.05-3362.6Zm6.79-21.3c-1.82-2.8-4.46-4.6-7.29-4.6-5.57,0-10.13,6.6-10.13,14.7a18.66,18.66,0,0,0,3.14,10.7c1.82,2.5,4.25,4.1,7,4.1,5.57,0,10.12-6.6,10.12-14.7A19.21,19.21,0,0,0,354.84-3383.9Z" transform="translate(-330.33 3389.1)"/><path class="cls-4" d="M347.55-3384.7c-4.16,0-7.5,4.9-7.5,11v.5a13.46,13.46,0,0,0,2.33,7.5,6.58,6.58,0,0,0,5.06,3H348c3.85-.4,6.79-4.9,7-10.5v-.5c0-5.8-3-10.6-7-11Zm0,22.3a6.66,6.66,0,0,1-5.37-3.1,13.66,13.66,0,0,1-2.43-7.7v-.5c0-6.2,3.44-11.3,7.8-11.3h.5c4.05.4,7.29,5.3,7.29,11.3v.5c-.2,5.8-3.24,10.4-7.29,10.8Zm0-25.9c-5.47,0-9.93,6.5-9.93,14.6a19,19,0,0,0,3,10.6,8.43,8.43,0,0,0,6.89,4c5.46,0,9.92-6.5,9.92-14.6a19.07,19.07,0,0,0-2.73-10.1C352.81-3386.7,350.28-3388.3,347.55-3388.3Zm0,29.5c-2.64,0-5.17-1.5-7.09-4.2a18.54,18.54,0,0,1-3.14-10.7c0-8.2,4.55-14.9,10.23-14.9,2.83,0,5.46,1.6,7.39,4.6a18.94,18.94,0,0,1,2.83,10.3C357.77-3365.5,353.22-3358.8,347.55-3358.8Z" transform="translate(-330.33 3389.1)"/><path class="cls-6" d="M348.05-3384.8h-.81c3.95.4,7.09,5.2,7.09,11.1v.5c-.2,5.7-3.24,10.3-7.09,10.6h.81c3.85-.4,7-5,7.09-10.6v-.5C355.14-3379.6,352-3384.4,348.05-3384.8Z" transform="translate(-330.33 3389.1)"/><path class="cls-4" d="M349.17-3384.4c3.14,1.5,5.36,5.8,5.36,10.7v.5c-.1,4.8-2.33,8.8-5.36,10.3,3.24-1,5.77-5.2,5.87-10.3v-.5C355-3378.9,352.51-3383.4,349.17-3384.4Zm-1.62,22h-.41v-.3h.1c3.75-.4,6.79-4.9,6.89-10.5v-.5c0-5.8-3-10.6-7-11H347v-.3h1c4.05.4,7.29,5.3,7.29,11.3v.5c-.2,5.8-3.24,10.4-7.29,10.8Z" transform="translate(-330.33 3389.1)"/><path class="cls-2" d="M351.7-3389.1h-3.65c-2.94,0-5.67,1.6-7.7,4.6a18.88,18.88,0,0,0-3,10.8,18.61,18.61,0,0,0,3.24,11c2,2.8,4.66,4.4,7.49,4.4h3.65a9.36,9.36,0,0,0,7-4.6,18.81,18.81,0,0,0,3-10.8,19.42,19.42,0,0,0-2.93-10.6A10,10,0,0,0,351.7-3389.1Z" transform="translate(-330.33 3389.1)"/><path class="cls-3" d="M358.08-3373.7a19,19,0,0,0-2.84-10.2,10,10,0,0,0-4.35-3.9v-.6H348c-5.57,0-10.13,6.6-10.13,14.7A18.66,18.66,0,0,0,341-3363c1.83,2.5,4.26,4.1,7,4.1h3v-.7C355-3361.5,358.08-3367.1,358.08-3373.7Z" transform="translate(-330.33 3389.1)"/><path class="cls-4" d="M348-3388.3c-5.47,0-9.92,6.5-9.92,14.6a19,19,0,0,0,3,10.6,8.46,8.46,0,0,0,6.89,4h2.84v-.6h.1a11.1,11.1,0,0,0,5.06-5.2,19.09,19.09,0,0,0,2-8.8,19.07,19.07,0,0,0-2.74-10.1,10.3,10.3,0,0,0-4.35-3.8h-.1v-.7Zm3.14,29.5H348c-2.63,0-5.16-1.5-7.09-4.2a18.61,18.61,0,0,1-3.14-10.7c0-8.2,4.66-14.9,10.23-14.9h3.14v.7a10.44,10.44,0,0,1,4.25,3.9,18.86,18.86,0,0,1,2.84,10.3c0,6.5-2.84,12.2-7.09,14.2Z" transform="translate(-330.33 3389.1)"/><path class="cls-5" d="M351.5-3362.6H351a6.91,6.91,0,0,1-5.27-3,13.66,13.66,0,0,1-2.43-7.6v-.5c0-6.1,3.45-11.1,7.6-11.1h.5c3.95.4,7.09,5.2,7.09,11.1v.5C358.38-3367.5,355.34-3363,351.5-3362.6Zm6.78-21.3c-1.82-2.8-4.45-4.6-7.29-4.6-5.57,0-10.13,6.6-10.13,14.7a18.66,18.66,0,0,0,3.14,10.7c1.82,2.5,4.26,4.1,7,4.1,5.57,0,10.13-6.6,10.13-14.7A20.15,20.15,0,0,0,358.28-3383.9Z" transform="translate(-330.33 3389.1)"/><path class="cls-4" d="M351-3384.7c-4.15,0-7.5,4.9-7.5,11v.5a13.62,13.62,0,0,0,2.33,7.5,6.58,6.58,0,0,0,5.07,3h.5c3.85-.4,6.79-4.9,7-10.5v-.5c0-5.8-3-10.6-7-11Zm0,22.3a6.66,6.66,0,0,1-5.37-3.1,13.66,13.66,0,0,1-2.43-7.7v-.5c0-6.2,3.44-11.3,7.8-11.3h.5c4.06.4,7.3,5.3,7.3,11.3v.5c-.21,5.8-3.24,10.4-7.3,10.8Zm0-25.9c-5.47,0-9.93,6.5-9.93,14.6a19,19,0,0,0,3,10.6,8.44,8.44,0,0,0,6.89,4c5.47,0,9.92-6.5,9.92-14.6a19.07,19.07,0,0,0-2.73-10.1C356.25-3386.7,353.72-3388.3,351-3388.3Zm0,29.5c-2.63,0-5.17-1.5-7.09-4.2a18.54,18.54,0,0,1-3.14-10.7c0-8.2,4.56-14.9,10.23-14.9,2.83,0,5.47,1.6,7.39,4.6a18.94,18.94,0,0,1,2.84,10.3C361.22-3365.5,356.66-3358.8,351-3358.8Z" transform="translate(-330.33 3389.1)"/><path class="cls-6" d="M351.49-3384.8h-.81c3.95.4,7.09,5.2,7.09,11.1v.5c-.2,5.7-3.24,10.3-7.09,10.6h.81c3.85-.4,7-5,7.09-10.6v-.5C358.58-3379.6,355.44-3384.4,351.49-3384.8Z" transform="translate(-330.33 3389.1)"/><path class="cls-4" d="M352.51-3384.4c3.14,1.5,5.36,5.8,5.36,10.7v.5c-.1,4.8-2.32,8.8-5.36,10.3,3.24-1,5.77-5.2,5.87-10.3v-.5C358.38-3378.9,356-3383.4,352.51-3384.4Zm-1.52,22h-.41v-.3h.1c3.85-.4,6.79-4.9,7-10.5v-.5c0-5.8-3-10.6-7-11h-.1v-.3h1c4,.4,7.29,5.3,7.29,11.3v.5c-.21,5.8-3.24,10.4-7.29,10.8Z" transform="translate(-330.33 3389.1)"/><polygon class="cls-5" points="18.43 18.6 18.43 22.2 17.42 22.2 17.42 20.7 18.43 18.6"/><polygon class="cls-5" points="19.65 16.2 20.15 17.1 20.15 17.2 20.15 22.2 19.14 22.2 19.14 17.3 19.65 16.2"/><polygon class="cls-5" points="21.88 16.6 21.88 22.2 20.86 22.2 20.86 18.7 20.96 18.6 21.67 17.1 21.88 16.6"/><polygon class="cls-5" points="23.6 13.2 23.6 22.2 22.58 22.2 22.58 15.3 23.6 13.2"/><polygon class="cls-2" points="20.86 16.9 20.46 16.9 19.65 15.4 20.15 15.4 20.86 16.9"/><rect class="cls-2" x="16.91" y="20.7" width="0.51" height="1.6"/><polygon class="cls-2" points="17.42 20.7 16.91 20.7 17.93 18.6 18.43 18.6 17.42 20.7"/><rect class="cls-2" x="18.74" y="17.3" width="0.51" height="4.9"/><polygon class="cls-2" points="19.14 17.3 18.73 17.3 19.24 16.2 19.65 16.2 19.14 17.3"/><polygon class="cls-2" points="21.67 17.1 21.17 17.1 21.47 16.6 21.88 16.6 21.67 17.1"/><polygon class="cls-2" points="20.96 18.6 20.46 18.6 21.17 17.1 21.67 17.1 20.96 18.6"/><polygon class="cls-2" points="20.86 18.7 20.46 18.7 20.46 18.6 20.96 18.6 20.86 18.7"/><rect class="cls-2" x="20.46" y="18.7" width="0.51" height="3.6"/><rect class="cls-2" x="22.18" y="15.3" width="0.51" height="6.9"/><polygon class="cls-2" points="22.58 15.3 22.18 15.3 23.19 13.2 23.6 13.2 22.58 15.3"/><polygon class="cls-2" points="24.41 11.1 23.9 11.1 23.6 10.4 24 10.4 24.41 11.1"/><polygon class="cls-2" points="23.29 8.9 22.89 8.9 22.58 8.3 22.99 8.3 23.29 8.9"/><polygon class="cls-2" points="20.86 13.9 20.46 13.9 22.89 8.9 23.29 8.9 20.86 13.9"/><polygon class="cls-2" points="20.15 15.4 19.65 15.4 19.24 14.5 19.75 14.5 20.15 15.4"/><polygon class="cls-2" points="19.04 13 18.53 13 19.24 11.6 19.75 11.6 19.04 13"/><polygon class="cls-2" points="16.51 18.3 16 18.3 18.53 13 19.04 13 16.51 18.3"/><polygon class="cls-2" points="17.22 19.7 16.71 19.7 16 18.3 16.51 18.3 17.22 19.7"/><polygon class="cls-5" points="22.99 8.3 24.41 8.3 24.41 11.1 24 10.4 21.57 15.4 20.86 16.9 20.15 15.4 19.75 14.5 17.22 19.7 16.51 18.3 19.04 13 19.75 11.6 20.46 13 20.86 13.9 23.29 8.9 22.99 8.3"/><path class="cls-1" d="M439.7-3354c0-1-.81-1.2-1.72-1.4a8.65,8.65,0,0,1-1.72-.5,1.53,1.53,0,0,1-.81-1.5,1.61,1.61,0,0,1,.71-1.4,2.65,2.65,0,0,1,1.82-.6,2.48,2.48,0,0,1,1.82.6,2.38,2.38,0,0,1,.71,1.7h-.71a1.56,1.56,0,0,0-1.72-1.6c-1.11,0-1.72.5-1.72,1.3s.81,1.1,1.72,1.3a8.45,8.45,0,0,1,1.72.5,1.59,1.59,0,0,1,.81,1.6,1.8,1.8,0,0,1-.7,1.5,3,3,0,0,1-1.93.6,2.61,2.61,0,0,1-2-.7,2.11,2.11,0,0,1-.71-1.6H436c.1,1.1.81,1.6,2,1.6C439-3352.6,439.7-3353.1,439.7-3354Z" transform="translate(-330.33 3389.1)"/><path class="cls-1" d="M442.94-3356.2a2.28,2.28,0,0,0-.6,1.2h3.54a1.76,1.76,0,0,0-1.72-1.7A1.7,1.7,0,0,0,442.94-3356.2Zm3.65,1.7h-4.25a1.9,1.9,0,0,0,.5,1.3,2,2,0,0,0,1.32.5,1.56,1.56,0,0,0,1.62-1.1h.71a2.17,2.17,0,0,1-.91,1.2,2.52,2.52,0,0,1-1.52.5,2.22,2.22,0,0,1-1.82-.8,2.46,2.46,0,0,1-.71-1.9,2.61,2.61,0,0,1,.71-1.9,2.53,2.53,0,0,1,1.82-.8,2.93,2.93,0,0,1,1.82.7,2.46,2.46,0,0,1,.71,1.9Z" transform="translate(-330.33 3389.1)"/><path class="cls-1" d="M452.26-3352.1h-.71v-3.1c0-.9-.4-1.5-1.32-1.5a1.45,1.45,0,0,0-1.51,1.6v3H448v-5.1h.71v.8a1.72,1.72,0,0,1,1.62-.9,1.7,1.7,0,0,1,1.72,1,2,2,0,0,1,1.82-1,1.72,1.72,0,0,1,1.42.6,2.17,2.17,0,0,1,.5,1.4v3.3h-.7v-3.1c0-.9-.41-1.5-1.32-1.5a1.51,1.51,0,0,0-1.52,1.6Z" transform="translate(-330.33 3389.1)"/><path class="cls-1" d="M461-3357.2h.71v5.1H461v-.7a1.92,1.92,0,0,1-1.72.9,1.83,1.83,0,0,1-1.93-2v-3.3H458v3.1c0,1,.41,1.5,1.32,1.5a1.46,1.46,0,0,0,1.52-1.6v-3Z" transform="translate(-330.33 3389.1)"/><path class="cls-1" d="M467-3354.7l-1.73.2c-.91.1-1.31.5-1.31,1,0,.7.5.9,1.21.9a1.76,1.76,0,0,0,1.32-.5,1.62,1.62,0,0,0,.51-1.1Zm-3.75,1.2c0-.9.61-1.4,1.92-1.5l1.83-.2v-.1c0-.9-.51-1.3-1.42-1.3s-1.32.3-1.42,1h-.71c.2-1,.81-1.6,2.23-1.6s2.13.7,2.13,1.9v2.2c0,.5,0,.9.2,1.1h-.71a2.22,2.22,0,0,1-.1-.9,2.06,2.06,0,0,1-2,1C463.81-3352,463.2-3352.6,463.2-3353.5Z" transform="translate(-330.33 3389.1)"/><path class="cls-1" d="M474.14-3352.8v.6a5.12,5.12,0,0,1-.51.1c-.91,0-1.32-.5-1.32-1.4v-3.1h-1v-.6h1v-1.5H473v1.5h1.22v.6H473v3.1c0,.5.2.8.71.8Z" transform="translate(-330.33 3389.1)"/><path class="cls-1" d="M476.16-3356.2a2.29,2.29,0,0,0-.61,1.2h3.55a1.76,1.76,0,0,0-1.72-1.7A1.69,1.69,0,0,0,476.16-3356.2Zm3.65,1.7h-4.26a1.91,1.91,0,0,0,.51,1.3,1.93,1.93,0,0,0,1.32.5,1.57,1.57,0,0,0,1.62-1.1h.71a2.19,2.19,0,0,1-.92,1.2,2.49,2.49,0,0,1-1.52.5,2.24,2.24,0,0,1-1.82-.8,2.5,2.5,0,0,1-.71-1.9,2.65,2.65,0,0,1,.71-1.9,2.57,2.57,0,0,1,1.82-.8,3,3,0,0,1,1.83.7,2.5,2.5,0,0,1,.71,1.9Z" transform="translate(-330.33 3389.1)"/><path class="cls-1" d="M481.93-3357.2v.8a1.76,1.76,0,0,1,1.73-.9,1.82,1.82,0,0,1,1.92,2v3.3h-.71v-3.1c0-1-.51-1.5-1.32-1.5A1.5,1.5,0,0,0,482-3355v3h-.71v-5.1h.6Z" transform="translate(-330.33 3389.1)"/><path class="cls-1" d="M489.43-3352.8v.6a4.59,4.59,0,0,1-.51.1c-.91,0-1.32-.5-1.32-1.4v-3.1h-1v-.6h1v-1.5h.71v1.5h1.22v.6h-1.22v3.1c0,.5.21.8.71.8Z" transform="translate(-330.33 3389.1)"/><path class="cls-1" d="M494-3354.7l-1.72.2c-.91.1-1.31.5-1.31,1,0,.7.5.9,1.21.9a1.78,1.78,0,0,0,1.32-.5,1.61,1.61,0,0,0,.5-1.1Zm-3.74,1.2c0-.9.6-1.4,1.92-1.5l1.82-.2v-.1c0-.9-.5-1.3-1.41-1.3s-1.32.3-1.42,1h-.71c.2-1,.81-1.6,2.23-1.6s2.12.7,2.12,1.9v2.2c0,.5,0,.9.21,1.1h-.71a2.22,2.22,0,0,1-.1-.9,2.07,2.07,0,0,1-2,1C490.84-3352,490.24-3352.6,490.24-3353.5Z" transform="translate(-330.33 3389.1)"/><path class="cls-1" d="M497.12-3357.2v.8a1.76,1.76,0,0,1,1.73-.9,1.82,1.82,0,0,1,1.92,2v3.3h-.71v-3.1c0-1-.51-1.5-1.32-1.5a1.45,1.45,0,0,0-1.51,1.6v3h-.71v-5.1h.6Z" transform="translate(-330.33 3389.1)"/><path class="cls-1" d="M506.54-3354.7a2.17,2.17,0,0,0-.5-1.4,1.65,1.65,0,0,0-1.32-.6,1.52,1.52,0,0,0-1.32.6,2.17,2.17,0,0,0-.5,1.4,2.17,2.17,0,0,0,.5,1.4,1.65,1.65,0,0,0,1.32.6,1.52,1.52,0,0,0,1.32-.6A2.39,2.39,0,0,0,506.54-3354.7Zm0-2.5h.71v4.9a2.74,2.74,0,0,1-.61,1.8,2.17,2.17,0,0,1-1.82.7,2.61,2.61,0,0,1-1.62-.5,1.87,1.87,0,0,1-.71-1.1h.71a1.6,1.6,0,0,0,1.62,1,1.62,1.62,0,0,0,1.72-1.6v-1a2,2,0,0,1-1.92,1,2.57,2.57,0,0,1-1.83-.8,2.87,2.87,0,0,1-.7-1.8,2.41,2.41,0,0,1,.7-1.8,2.41,2.41,0,0,1,1.83-.8,2.06,2.06,0,0,1,1.92,1.1Z" transform="translate(-330.33 3389.1)"/><path class="cls-1" d="M511.2-3354.7a2.61,2.61,0,0,1,.71-1.9,2.55,2.55,0,0,1,1.82-.8,2.14,2.14,0,0,1,1.62.6,2.44,2.44,0,0,1,.81,1.4h-.71a1.65,1.65,0,0,0-1.72-1.3,1.63,1.63,0,0,0-1.31.6,2.4,2.4,0,0,0-.51,1.5,2.4,2.4,0,0,0,.51,1.5,1.63,1.63,0,0,0,1.31.6,1.65,1.65,0,0,0,1.72-1.3h.71a2.44,2.44,0,0,1-.81,1.4,2.3,2.3,0,0,1-1.62.6,2.24,2.24,0,0,1-1.82-.8A3.27,3.27,0,0,1,511.2-3354.7Z" transform="translate(-330.33 3389.1)"/><path class="cls-1" d="M520-3357.3v.7h-.3a1.46,1.46,0,0,0-1.52,1.6v2.9h-.71v-5.1h.71v.8a1.81,1.81,0,0,1,1.62-.8Z" transform="translate(-330.33 3389.1)"/><polygon class="cls-1" points="191.3 39.1 192.22 37 190.09 31.9 190.9 31.9 192.62 36.2 194.44 31.9 195.25 31.9 192.22 39.1 191.3 39.1"/><path class="cls-1" d="M527.61-3353.2a1.63,1.63,0,0,0,1.31.6,1.51,1.51,0,0,0,1.32-.6,2.4,2.4,0,0,0,.51-1.4,2.46,2.46,0,0,0-.51-1.5,1.64,1.64,0,0,0-1.32-.6,1.5,1.5,0,0,0-1.31.6,2.4,2.4,0,0,0-.51,1.5A3.24,3.24,0,0,0,527.61-3353.2Zm-.41,3.2h-.71v-7.2h.71v.9a2.07,2.07,0,0,1,1.93-1.1,2.38,2.38,0,0,1,1.82.8,3.08,3.08,0,0,1,.61,1.9,3.08,3.08,0,0,1-.61,1.9,2.24,2.24,0,0,1-1.82.8,2.19,2.19,0,0,1-1.93-1Z" transform="translate(-330.33 3389.1)"/><path class="cls-1" d="M535-3352.8v.6a4.15,4.15,0,0,1-.51.1c-.91,0-1.31-.5-1.31-1.4v-3.1h-1v-.6h1v-1.5h.71v1.5h1.21v.6h-1.21v3.1c0,.5.2.8.7.8Z" transform="translate(-330.33 3389.1)"/><path class="cls-1" d="M537-3353.2a1.84,1.84,0,0,0,1.41.6,1.84,1.84,0,0,0,1.42-.6,1.84,1.84,0,0,0,.51-1.4,2.46,2.46,0,0,0-.51-1.5,1.84,1.84,0,0,0-1.42-.6,1.84,1.84,0,0,0-1.41.6,1.93,1.93,0,0,0-.51,1.5A1.54,1.54,0,0,0,537-3353.2Zm-.61.4a2.46,2.46,0,0,1-.71-1.9,2.61,2.61,0,0,1,.71-1.9,2.59,2.59,0,0,1,1.92-.8,2.63,2.63,0,0,1,1.93.8,2.65,2.65,0,0,1,.71,1.9,2.65,2.65,0,0,1-.71,1.9,2.63,2.63,0,0,1-1.93.8A2.27,2.27,0,0,1,536.42-3352.8Z" transform="translate(-330.33 3389.1)"/></g></g></svg>