<?xml version="1.0" encoding="utf-8"?>
<!-- Generator: Adobe Illustrator 19.0.0, SVG Export Plug-In . SVG Version: 6.00 Build 0)  -->
<svg version="1.1" id="Layer_1" xmlns="http://www.w3.org/2000/svg" xmlns:xlink="http://www.w3.org/1999/xlink" x="0px" y="0px"
	 viewBox="0 26.2 215 49.8" style="enable-background:new 0 26.2 215 49.8;" xml:space="preserve">
<style type="text/css">
	.st0{fill:#FFFFFF;}
	.st1{fill:#875F27;}
	.st2{fill:#F8B828;}
	.st3{fill:#B28445;}
	.st4{fill:#F6E245;}
	.st5{fill:#F8B218;}
	.st6{fill:#4B351A;}
</style>
<g id="XMLID_849_">
	<path id="XMLID_860_" class="st0" d="M40,47.1c0-3.4,1.1-6.2,3.1-8.4c2.1-2.2,4.7-3.2,8-3.2c2.8,0,5.2,0.8,7.1,2.4s3.1,3.7,3.5,6.3
		h-4.9c-0.6-2.8-2.9-4.3-5.9-4.3c-4,0-6.3,2.8-6.3,7.1s2.4,7.1,6.3,7.1c3,0,5.2-1.5,5.9-4.3h5.1c-0.4,2.7-1.5,4.7-3.5,6.3
		c-2,1.5-4.3,2.4-7.1,2.4c-3.2,0-5.9-1.1-8-3.2C41.1,53.3,40,50.5,40,47.1z"/>
	<path id="XMLID_859_" class="st0" d="M72.5,58.6c-2.6,0-4.6-0.8-6.2-2.5s-2.4-3.6-2.4-6.1s0.8-4.4,2.4-6.1c1.5-1.7,3.6-2.5,6.2-2.5
		s4.6,0.8,6.2,2.5c1.5,1.7,2.4,3.7,2.4,6.1c0,2.4-0.8,4.4-2.4,6.1C77.1,57.7,75,58.6,72.5,58.6z M68.4,50.2c0,1.4,0.4,2.6,1.1,3.4
		c0.8,0.8,1.8,1.2,3,1.2s2.2-0.4,3-1.2c0.8-0.8,1.1-2,1.1-3.4s-0.4-2.6-1.1-3.4c-0.7-0.8-1.8-1.2-3-1.2s-2.2,0.4-3,1.2
		C68.7,47.5,68.4,48.7,68.4,50.2z"/>
	<path id="XMLID_858_" class="st0" d="M84.1,58.3V42h4.4v16.3H84.1z M86.3,39.8c-0.8,0-1.4-0.2-2-0.7c-0.4-0.5-0.7-1.1-0.7-2
		c0-0.8,0.2-1.4,0.7-2c0.5-0.5,1.1-0.7,2-0.7s1.4,0.2,2,0.7c0.5,0.6,0.7,1.2,0.7,2s-0.2,1.4-0.7,1.8C87.7,39.6,87.1,39.8,86.3,39.8z
		"/>
	<path id="XMLID_857_" class="st0" d="M96.7,41.9v2c0.8-1.5,2.5-2.4,4.9-2.4c3.8,0,6,2.5,6,6.5v10.2h-4.4v-9.7
		c0-2.2-0.9-3.2-2.8-3.2c-2.2,0-3.3,1.4-3.3,3.5v9.4h-4.4V41.9H96.7L96.7,41.9z"/>
	<path id="XMLID_856_" class="st0" d="M117.4,52.9l4-11.1h4.6l-6.6,16.3h-4.1l-6.5-16.3h4.7L117.4,52.9z"/>
	<path id="XMLID_855_" class="st0" d="M142.5,51.3h-11.9c0.3,2.3,1.8,3.5,3.9,3.5c1.4,0,2.7-0.6,3.1-1.8h4.4c-0.5,1.7-1.4,3-2.8,4
		c-1.4,1.1-3.1,1.5-5,1.5c-2.4,0-4.4-0.8-5.9-2.4c-1.5-1.5-2.3-3.6-2.3-6.2c0-2.5,0.8-4.4,2.3-6.1c1.4-1.7,3.5-2.5,5.9-2.5
		s4.3,0.8,5.9,2.4c1.4,1.7,2.3,3.6,2.3,6.1v1.5H142.5z M130.6,48.1h7.5c-0.3-1.8-1.7-3.1-3.7-3.1C132.4,45,131.1,46.3,130.6,48.1z"
		/>
	<path id="XMLID_854_" class="st0" d="M144.3,52.9h4.4c0.1,1.2,0.9,2.2,2.7,2.2c1.7,0,2.6-0.6,2.6-1.4c0-1.1-1.4-1.4-3.2-1.7
		c-0.9-0.2-1.8-0.3-2.7-0.6c-1.8-0.5-3.2-2-3.2-4.3c0-1.5,0.6-2.8,1.8-3.8s2.8-1.5,4.7-1.5c2.2,0,3.8,0.5,5,1.7
		c1.1,1.1,1.7,2.4,1.8,3.8h-4.3c-0.1-1.1-0.9-2-2.5-2c-1.4,0-2.3,0.7-2.3,1.5c0,1.1,1.4,1.4,3.2,1.7c0.8,0.2,1.8,0.3,2.7,0.6
		c1.8,0.5,3.2,2,3.2,4.4c0,1.5-0.6,2.8-1.8,3.7c-1.2,1.1-2.9,1.4-5.1,1.4C146.9,58.6,144.5,56.7,144.3,52.9z"/>
	<path id="XMLID_853_" class="st0" d="M168.8,54.3v3.8c-0.5,0.1-1.1,0.2-2.1,0.2c-3.3,0-5.1-1.7-5.1-5v-8.1h-2.2v-3.5h2.2v-4h4.4v4
		h2.7v3.5h-2.5v7.5c0,1.1,0.5,1.5,1.7,1.5h0.9V54.3z"/>
	<path id="XMLID_852_" class="st0" d="M170.8,53.7c0-2.9,2-4.6,6.3-5.2l4.3-0.6v-0.3c0-1.5-0.9-2.4-2.9-2.4c-1.8,0-2.8,0.6-3,2h-4.3
		c0.2-1.5,0.8-2.9,2-4c1.1-1.1,3-1.7,5.4-1.7c4.7,0,7.1,2.2,7.1,6.1v7.7c0,1.2,0.2,2.2,0.5,2.9H182c0,0-0.2-0.8-0.2-1.8
		c-1.1,1.4-2.8,2.2-5.2,2.2C172.8,58.6,170.8,56.6,170.8,53.7z M181.4,50.8l-3.9,0.6c-1.7,0.3-2.5,0.9-2.5,2s0.8,1.8,2.5,1.8
		c2.5,0,3.9-1.4,3.9-3.6V50.8z"/>
	<path id="XMLID_851_" class="st0" d="M188.3,52.9h4.4c0.1,1.2,0.9,2.2,2.7,2.2c1.7,0,2.6-0.6,2.6-1.4c0-1.1-1.4-1.4-3.2-1.7
		c-0.9-0.2-1.8-0.3-2.7-0.6c-1.8-0.5-3.2-2-3.2-4.3c0-1.5,0.6-2.8,1.8-3.8c1.2-1.1,2.8-1.5,4.7-1.5c2.2,0,3.8,0.5,5,1.7
		c1.1,1.1,1.7,2.4,1.8,3.8H198c-0.1-1.1-0.9-2-2.5-2c-1.4,0-2.3,0.7-2.3,1.5c0,1.1,1.4,1.4,3.2,1.7c0.8,0.2,1.8,0.3,2.7,0.6
		c1.8,0.5,3.2,2,3.2,4.4c0,1.5-0.6,2.8-1.8,3.7c-1.2,1.1-2.9,1.4-5.1,1.4C190.9,58.6,188.6,56.7,188.3,52.9z"/>
	<path id="XMLID_850_" class="st0" d="M205.2,58.3V42h4.4v16.3H205.2z M207.4,39.8c-0.8,0-1.4-0.2-2-0.7s-0.7-1.1-0.7-1.8
		c0-0.8,0.2-1.4,0.7-2c0.5-0.5,1.1-0.7,2-0.7c0.8,0,1.4,0.2,2,0.7c0.5,0.5,0.7,1.1,0.7,2c0,0.8-0.2,1.4-0.7,1.8
		C208.9,39.6,208.2,39.8,207.4,39.8z"/>
</g>
<g id="XMLID_601_">
	<g id="XMLID_834_">
		<g id="XMLID_847_">
			<path id="XMLID_848_" class="st1" d="M17.4,29.2L17.4,29.2h-3.8c-3.1,0-6,1.7-8.1,4.9c-2.1,3-3.2,7.1-3.2,11.4
				c0,4.5,1.2,8.6,3.4,11.7c2.1,3,4.9,4.6,7.8,4.6h3.8l0,0c2.8-0.2,5.4-1.9,7.3-4.9c2.1-3.1,3.2-7.1,3.2-11.4
				c0-4.1-1.1-8.2-3.1-11.2C22.9,31.3,20.2,29.6,17.4,29.2z"/>
		</g>
		<g id="XMLID_835_">
			<g id="XMLID_844_">
				<path id="XMLID_846_" class="st2" d="M24,45.6c0-4.3-1.2-7.9-3-10.8c-1.3-1.9-2.8-3.4-4.6-4.1v-0.8h-3.1
					c-5.8,0-10.6,7-10.6,15.6C2.7,50,4,54,6,56.9c1.9,2.6,4.5,4.3,7.3,4.3h3.1v-0.7C20.9,58.4,24,52.6,24,45.6z"/>
				<path id="XMLID_845_" class="st3" d="M16.6,61.3h-3.3c-2.8,0-5.4-1.6-7.4-4.5c-2.1-3-3.3-7-3.3-11.4c0-8.7,4.9-15.8,10.8-15.8
					h3.3v0.7c1.7,0.9,3.3,2.2,4.5,4.1c1.9,3,3,6.8,3,10.9c0,6.9-3,12.9-7.4,15L16.6,61.3L16.6,61.3z M13.4,30C7.7,30,3,36.9,3,45.5
					c0,4.3,1.2,8.3,3.2,11.2c1.9,2.8,4.5,4.3,7.2,4.3h3v-0.7h0.1c2.1-1,3.9-2.9,5.3-5.5s2.1-6,2.1-9.3c0-4-1.1-7.8-2.9-10.7
					c-1.4-1.9-3-3.3-4.6-4h-0.1V30H13.4L13.4,30z"/>
			</g>
			<g id="XMLID_836_">
				<g id="XMLID_841_">
					<path id="XMLID_843_" class="st4" d="M24.3,34.7c-1.9-3-4.6-4.9-7.6-4.9C10.8,29.9,6,36.9,6,45.4c0,4.5,1.3,8.5,3.3,11.4
						c1.9,2.6,4.5,4.3,7.3,4.3c5.8,0,10.6-7,10.6-15.6C27.1,41.4,26.1,37.6,24.3,34.7z M17.2,57.3c-0.2,0-0.3,0-0.5,0
						c-2.1,0-4-1.3-5.5-3.2c-1.5-2-2.5-4.9-2.5-8.1c0-0.2,0-0.3,0-0.5c0-6.4,3.6-11.8,7.9-11.8c0.2,0,0.3,0,0.5,0
						c4.1,0.4,7.4,5.5,7.4,11.8c0,0.2,0,0.3,0,0.5C24.4,52.1,21.2,56.9,17.2,57.3z"/>
					<path id="XMLID_842_" class="st3" d="M16.6,61.3c-2.8,0-5.4-1.6-7.4-4.5c-2.1-3-3.3-7-3.3-11.4c0-8.7,4.8-15.8,10.7-15.8
						c3,0,5.7,1.7,7.7,4.9l0,0c1.9,3,3,6.8,3,10.9C27.2,54.2,22.4,61.3,16.6,61.3z M16.6,30c-5.7,0-10.4,6.9-10.4,15.5
						c0,4.3,1.2,8.3,3.2,11.2c1.9,2.8,4.5,4.3,7.2,4.3C22.3,61,27,54.1,27,45.5c0-4-1.1-7.8-2.9-10.7C22.1,31.7,19.5,30,16.6,30z
						 M16.6,57.5c-2.1,0-4.1-1.2-5.6-3.3c-1.6-2.1-2.5-5.1-2.5-8.2c0-0.2,0-0.3,0-0.5c0-6.6,3.6-12,8.2-12c0.2,0,0.3,0,0.5,0
						c4.3,0.4,7.6,5.6,7.6,12c0,0.2,0,0.3,0,0.5c-0.2,6.1-3.4,11.1-7.6,11.4l0,0C16.9,57.5,16.8,57.5,16.6,57.5z M16.6,33.9
						c-4.3,0-7.8,5.2-7.8,11.7c0,0.2,0,0.3,0,0.5c0.1,3.1,1,6,2.5,7.9c1.5,2,3.4,3.2,5.3,3.2c0.2,0,0.3,0,0.5,0
						c4-0.4,7.1-5.2,7.3-11.1c0-0.2,0-0.3,0-0.5c0-6.1-3.2-11.2-7.3-11.7C16.9,33.9,16.6,33.9,16.6,33.9z"/>
				</g>
				<g id="XMLID_837_">
					<g id="XMLID_838_">
						<path id="XMLID_840_" class="st5" d="M17.2,33.8c-0.2,0-0.3,0-0.5,0c-0.1,0-0.3,0-0.4,0h0.1c4.1,0.4,7.4,5.5,7.4,11.8
							c0,0.2,0,0.3,0,0.5c-0.2,6.1-3.4,10.9-7.4,11.2h-0.1c0.1,0,0.3,0,0.4,0c0.2,0,0.3,0,0.5,0c4-0.4,7.3-5.3,7.4-11.2
							c0-0.2,0-0.3,0-0.5C24.6,39.3,21.3,34.2,17.2,33.8z"/>
						<path id="XMLID_839_" class="st3" d="M16.6,57.5c-0.1,0-0.3,0-0.4,0v-0.3h0.1c4-0.4,7.1-5.2,7.3-11.1c0-0.2,0-0.3,0-0.5
							c0-6.1-3.2-11.2-7.3-11.7h-0.1v-0.3c0.3,0,0.6,0,1.1,0l0,0c4.3,0.4,7.6,5.6,7.6,12c0,0.2,0,0.3,0,0.5
							c-0.2,6.1-3.4,11.1-7.6,11.4C16.9,57.5,16.8,57.5,16.6,57.5z M18.2,34.2c3.3,1.6,5.6,6.1,5.6,11.4c0,0.2,0,0.3,0,0.5
							c-0.1,5.1-2.5,9.3-5.6,10.9c3.4-1.1,6.1-5.5,6.1-10.9c0-0.2,0-0.3,0-0.5C24.4,40.1,21.8,35.3,18.2,34.2z"/>
					</g>
				</g>
			</g>
		</g>
	</g>
	<g id="XMLID_819_">
		<g id="XMLID_832_">
			<path id="XMLID_833_" class="st1" d="M21.1,29.2L21.1,29.2h-3.8c-3.1,0-6,1.7-8.1,4.9C7.1,37.1,6,41.2,6,45.5
				c0,4.5,1.2,8.6,3.4,11.7c2.1,3,4.9,4.6,7.8,4.6H21l0,0c2.8-0.2,5.4-1.9,7.3-4.9c2.1-3.1,3.2-7.1,3.2-11.4c0-4.1-1.1-8.2-3.1-11.2
				C26.6,31.3,24,29.6,21.1,29.2z"/>
		</g>
		<g id="XMLID_820_">
			<g id="XMLID_829_">
				<path id="XMLID_831_" class="st2" d="M27.7,45.6c0-4.3-1.2-7.9-3-10.8c-1.3-1.9-2.8-3.4-4.6-4.1v-0.8H17
					c-5.8,0-10.6,7-10.6,15.6c0,4.5,1.3,8.5,3.3,11.4c1.9,2.6,4.5,4.3,7.3,4.3h3.1v-0.7C24.6,58.4,27.7,52.6,27.7,45.6z"/>
				<path id="XMLID_830_" class="st3" d="M20.5,61.3h-3.3c-2.8,0-5.4-1.6-7.4-4.5c-2.1-3-3.3-7.1-3.3-11.4c0-8.7,4.8-15.8,10.7-15.8
					h3.3v0.7c1.7,0.9,3.3,2.2,4.5,4.1c1.9,3,3,6.8,3,10.9c0,3.4-0.7,6.7-2.1,9.4c-1.4,2.6-3.2,4.6-5.3,5.6L20.5,61.3L20.5,61.3
					L20.5,61.3z M17.2,30c-5.7,0-10.4,6.9-10.4,15.5c0,4.3,1.2,8.3,3.2,11.2c1.9,2.8,4.5,4.3,7.2,4.3h3v-0.7h0.1
					c2.1-1,3.9-2.9,5.3-5.5c1.4-2.6,2.1-6,2.1-9.3c0-4-1.1-7.8-2.9-10.7c-1.4-1.9-3-3.3-4.6-4h-0.1V30H17.2L17.2,30z"/>
			</g>
			<g id="XMLID_821_">
				<g id="XMLID_826_">
					<path id="XMLID_828_" class="st4" d="M27.9,34.7c-1.9-3-4.6-4.9-7.6-4.9c-5.8,0-10.6,7-10.6,15.6c0,4.5,1.3,8.5,3.3,11.4
						c1.9,2.6,4.5,4.3,7.3,4.3c5.8,0,10.6-7,10.6-15.6C31,41.4,29.7,37.6,27.9,34.7z M20.9,57.3c-0.2,0-0.3,0-0.5,0
						c-2.1,0-4-1.3-5.5-3.2c-1.5-2-2.5-4.9-2.5-8.1c0-0.2,0-0.3,0-0.5c0-6.4,3.6-11.8,7.9-11.8c0.2,0,0.3,0,0.5,0
						c4.1,0.4,7.4,5.5,7.4,11.8c0,0.2,0,0.3,0,0.5C28.2,52.1,24.9,56.9,20.9,57.3z"/>
					<path id="XMLID_827_" class="st3" d="M20.3,61.3c-2.8,0-5.4-1.6-7.4-4.5c-2.1-3-3.3-7.1-3.3-11.4c0-8.7,4.8-15.8,10.7-15.8
						c3,0,5.7,1.7,7.7,4.9l0,0c1.9,3,3,6.8,3,10.9C31,54.2,26.2,61.3,20.3,61.3z M20.3,30c-5.7,0-10.4,6.9-10.4,15.5
						c0,4.3,1.2,8.3,3.2,11.2c1.9,2.8,4.5,4.3,7.2,4.3c5.7,0,10.4-6.9,10.4-15.5c0-4-1.1-7.8-2.9-10.7l0,0
						C25.8,31.7,23.2,30,20.3,30z M20.3,57.5c-2.1,0-4.1-1.2-5.6-3.3c-1.6-2.1-2.5-5.1-2.5-8.2c0-0.2,0-0.3,0-0.5
						c0-6.6,3.6-12,8.2-12c0.2,0,0.3,0,0.5,0c4.3,0.4,7.6,5.6,7.6,12c0,0.2,0,0.3,0,0.5c-0.2,6.1-3.4,11.1-7.6,11.4l0,0
						C20.8,57.5,20.5,57.5,20.3,57.5z M20.3,33.9c-4.3,0-7.8,5.2-7.8,11.7c0,0.2,0,0.3,0,0.5c0.1,3.1,1,6,2.5,7.9
						c1.5,2,3.4,3.2,5.3,3.2c0.2,0,0.3,0,0.5,0c4-0.4,7.1-5.2,7.3-11.1c0-0.2,0-0.3,0-0.5c0-6.1-3.2-11.2-7.3-11.7
						C20.7,33.9,20.5,33.9,20.3,33.9z"/>
				</g>
				<g id="XMLID_822_">
					<g id="XMLID_823_">
						<path id="XMLID_825_" class="st5" d="M20.9,33.8c-0.2,0-0.3,0-0.5,0c-0.1,0-0.3,0-0.4,0h0.1c4.1,0.4,7.4,5.5,7.4,11.8
							c0,0.2,0,0.3,0,0.5c-0.2,6.1-3.4,10.9-7.4,11.2H20c0.1,0,0.3,0,0.4,0c0.2,0,0.3,0,0.5,0c4-0.4,7.3-5.3,7.4-11.2
							c0-0.2,0-0.3,0-0.5C28.3,39.3,25,34.2,20.9,33.8z"/>
						<path id="XMLID_824_" class="st3" d="M20.3,57.5c-0.1,0-0.3,0-0.4,0v-0.3H20c3.9-0.4,7.1-5.2,7.2-11.1c0-0.2,0-0.3,0-0.5
							c0-6.1-3.2-11.2-7.3-11.7h-0.1v-0.3c0.3,0,0.6,0,1.1,0l0,0c4.3,0.4,7.6,5.6,7.6,12c0,0.2,0,0.3,0,0.5
							c-0.2,6.1-3.4,11.1-7.6,11.4C20.8,57.5,20.5,57.5,20.3,57.5z M21.9,34.2c3.3,1.6,5.6,6.1,5.6,11.4c0,0.2,0,0.3,0,0.5
							c-0.1,5.1-2.5,9.3-5.6,10.9c3.4-1.1,6.1-5.5,6.1-10.9c0-0.2,0-0.3,0-0.5C28.2,40.1,25.5,35.3,21.9,34.2z"/>
					</g>
				</g>
			</g>
		</g>
	</g>
	<g id="XMLID_804_">
		<g id="XMLID_817_">
			<path id="XMLID_818_" class="st1" d="M24.6,29.2L24.6,29.2h-3.8c-3.1,0-6,1.7-8.1,4.9c-2.1,3.1-3.2,7.1-3.2,11.4
				c0,4.5,1.2,8.6,3.4,11.7c2.1,3,4.9,4.6,7.8,4.6h3.8l0,0c2.8-0.2,5.4-1.9,7.3-4.9c2.1-3.1,3.2-7.1,3.2-11.4
				c0-4.1-1.1-8.2-3.1-11.2C30.2,31.3,27.5,29.6,24.6,29.2z"/>
		</g>
		<g id="XMLID_805_">
			<g id="XMLID_814_">
				<path id="XMLID_816_" class="st2" d="M31.3,45.6c0-4.3-1.2-7.9-3-10.8c-1.3-1.9-2.8-3.4-4.6-4.1v-0.8h-3.1
					c-5.8,0-10.6,7-10.6,15.6c0,4.5,1.3,8.5,3.3,11.4c1.9,2.6,4.5,4.3,7.3,4.3h3.2v-0.7C28.2,58.4,31.3,52.6,31.3,45.6z"/>
				<path id="XMLID_815_" class="st3" d="M24,61.3h-3.3c-2.8,0-5.4-1.6-7.4-4.5c-2.1-3-3.3-7.1-3.3-11.4c0-8.7,4.9-15.8,10.7-15.8
					H24v0.7c1.7,0.9,3.3,2.2,4.5,4.1c1.9,3,3,6.8,3,10.9c0,6.9-3,12.9-7.4,15L24,61.3L24,61.3z M20.8,30c-5.7,0-10.4,6.9-10.4,15.5
					c0,4.3,1.2,8.3,3.2,11.2c1.9,2.8,4.5,4.3,7.2,4.3h3v-0.7h0.1c2.1-1,3.9-2.9,5.3-5.5c1.4-2.6,2.1-6,2.1-9.3c0-4-1.1-7.8-2.9-10.7
					c-1.3-1.9-2.9-3.3-4.6-4h-0.1V30H20.8L20.8,30z"/>
			</g>
			<g id="XMLID_806_">
				<g id="XMLID_811_">
					<path id="XMLID_813_" class="st4" d="M31.5,34.7c-1.9-3-4.6-4.9-7.6-4.9c-5.8,0-10.6,7-10.6,15.6c0,4.5,1.3,8.5,3.3,11.4
						c1.9,2.6,4.5,4.3,7.3,4.3c5.8,0,10.6-7,10.6-15.6C34.5,41.4,33.4,37.6,31.5,34.7z M24.4,57.3c-0.2,0-0.3,0-0.5,0
						c-2.1,0-4-1.3-5.5-3.2c-1.5-2-2.5-4.9-2.5-8.1c0-0.2,0-0.3,0-0.5c0-6.4,3.6-11.8,7.9-11.8c0.2,0,0.3,0,0.5,0
						c4.1,0.4,7.4,5.5,7.4,11.8c0,0.2,0,0.3,0,0.5C31.7,52.1,28.5,56.9,24.4,57.3z"/>
					<path id="XMLID_812_" class="st3" d="M24,61.3c-2.8,0-5.4-1.6-7.4-4.5c-2.1-3-3.3-7.1-3.3-11.4c0-8.6,4.7-15.7,10.7-15.7
						c3,0,5.7,1.7,7.7,4.9l0,0c1.9,3,3,6.8,3,10.9C34.6,54.2,29.9,61.3,24,61.3z M24,30c-5.7,0-10.4,6.9-10.4,15.5
						c0,4.3,1.2,8.3,3.2,11.2c1.9,2.8,4.5,4.3,7.2,4.3c5.7,0,10.4-6.9,10.4-15.5c0-4-1.1-7.8-2.9-10.7C29.4,31.7,26.7,30,24,30z
						 M24,57.5c-2.1,0-4.1-1.2-5.6-3.3c-1.6-2.1-2.5-5.1-2.5-8.2c0-0.2,0-0.3,0-0.5c0-6.6,3.6-12,8.2-12c0.2,0,0.3,0,0.5,0
						c4.3,0.4,7.6,5.6,7.6,12c0,0.2,0,0.3,0,0.5c-0.2,6.1-3.4,11.1-7.6,11.4l0,0C24.3,57.5,24,57.5,24,57.5z M24,33.9
						c-4.3,0-7.8,5.2-7.8,11.7c0,0.2,0,0.3,0,0.5c0.1,3.1,1,6,2.5,7.9c1.5,2,3.4,3.2,5.3,3.2c0.2,0,0.3,0,0.5,0
						c4-0.4,7.1-5.2,7.3-11.1c0-0.2,0-0.3,0-0.5c0-6.1-3.2-11.2-7.3-11.7C24.3,33.9,24,33.9,24,33.9z"/>
				</g>
				<g id="XMLID_807_">
					<g id="XMLID_808_">
						<path id="XMLID_810_" class="st5" d="M24.4,33.8c-0.2,0-0.3,0-0.5,0c-0.1,0-0.3,0-0.4,0h0.1c4.1,0.4,7.4,5.5,7.4,11.8
							c0,0.2,0,0.3,0,0.5c-0.2,6.1-3.4,10.9-7.4,11.2h-0.1c0.1,0,0.3,0,0.4,0c0.2,0,0.3,0,0.5,0c4-0.4,7.3-5.3,7.4-11.2
							c0-0.2,0-0.3,0-0.5C31.9,39.3,28.6,34.2,24.4,33.8z"/>
						<path id="XMLID_809_" class="st3" d="M24,57.5c-0.1,0-0.3,0-0.4,0v-0.3h0.1c4-0.4,7.1-5.2,7.3-11.1c0-0.2,0-0.3,0-0.5
							c0-6.1-3.2-11.2-7.3-11.7h-0.1v-0.3c0.3,0,0.6,0,1.1,0l0,0c4.3,0.4,7.6,5.6,7.6,12c0,0.2,0,0.3,0,0.5
							c-0.3,6.1-3.5,11-7.7,11.4C24.3,57.5,24,57.5,24,57.5z M25.5,34.2c3.3,1.6,5.6,6.1,5.6,11.4c0,0.2,0,0.3,0,0.5
							c-0.1,5.1-2.5,9.3-5.6,10.9c3.4-1.1,6.1-5.5,6.1-10.9c0-0.2,0-0.3,0-0.5C31.7,40.1,29.1,35.3,25.5,34.2z"/>
					</g>
				</g>
			</g>
		</g>
	</g>
	<g id="XMLID_801_">
		<g id="XMLID_802_">
			<polygon id="XMLID_803_" class="st4" points="21.6,48.9 21.6,52.7 20.5,52.7 20.5,51.1 			"/>
		</g>
	</g>
	<g id="XMLID_798_">
		<g id="XMLID_799_">
			<polygon id="XMLID_800_" class="st4" points="22.9,46.4 23.4,47.3 23.4,47.4 23.4,52.7 22.3,52.7 22.3,47.5 			"/>
		</g>
	</g>
	<g id="XMLID_795_">
		<g id="XMLID_796_">
			<polygon id="XMLID_797_" class="st4" points="25.1,46.8 25.1,52.7 24,52.7 24,49.1 24.3,48.9 25,47.3 			"/>
		</g>
	</g>
	<g id="XMLID_792_">
		<g id="XMLID_793_">
			<polygon id="XMLID_794_" class="st4" points="27,43.2 27,52.7 25.9,52.7 25.9,45.4 			"/>
		</g>
	</g>
	<g id="XMLID_789_">
		<g id="XMLID_790_">
			<polygon id="XMLID_791_" class="st6" points="26.4,38 25.9,38 27.2,38 27.7,38 			"/>
		</g>
	</g>
	<g id="XMLID_609_">
		<g id="XMLID_787_">
			<polygon id="XMLID_788_" class="st1" points="24,47.2 23.7,47.2 22.9,45.6 23.4,45.6 			"/>
		</g>
		<g id="XMLID_784_">
			<g id="XMLID_785_">
				<rect id="XMLID_786_" x="20" y="51.1" class="st1" width="0.5" height="1.7"/>
			</g>
		</g>
		<g id="XMLID_781_">
			<g id="XMLID_782_">
				<polygon id="XMLID_783_" class="st1" points="20.5,51.1 20,51.1 21.1,48.9 21.6,48.9 				"/>
			</g>
		</g>
		<g id="XMLID_778_">
			<g id="XMLID_779_">
				<rect id="XMLID_780_" x="21.9" y="47.5" class="st1" width="0.5" height="5.2"/>
			</g>
		</g>
		<g id="XMLID_775_">
			<g id="XMLID_776_">
				<polygon id="XMLID_777_" class="st1" points="22.3,47.5 21.9,47.5 22.4,46.4 22.9,46.4 				"/>
			</g>
		</g>
		<g id="XMLID_760_">
			<g id="XMLID_772_">
				<polygon id="XMLID_774_" class="st1" points="25,47.3 24.4,47.3 24.7,46.8 25.1,46.8 				"/>
			</g>
		</g>
		<g id="XMLID_745_">
			<g id="XMLID_757_">
				<polygon id="XMLID_759_" class="st1" points="24.3,48.9 23.7,48.9 24.4,47.3 25,47.3 				"/>
			</g>
		</g>
		<g id="XMLID_730_">
			<g id="XMLID_742_">
				<polygon id="XMLID_744_" class="st1" points="24,49.1 23.7,49.1 23.7,48.9 24.3,48.9 				"/>
			</g>
		</g>
		<g id="XMLID_726_">
			<g id="XMLID_727_">
				<rect id="XMLID_729_" x="23.7" y="49.1" class="st1" width="0.5" height="3.8"/>
			</g>
		</g>
		<g id="XMLID_721_">
			<g id="XMLID_723_">
				<rect id="XMLID_724_" x="25.5" y="45.4" class="st1" width="0.5" height="7.3"/>
			</g>
		</g>
		<g id="XMLID_717_">
			<g id="XMLID_718_">
				<polygon id="XMLID_720_" class="st1" points="25.9,45.4 25.5,45.4 26.6,43.2 27,43.2 				"/>
			</g>
		</g>
		<g id="XMLID_712_">
			<g id="XMLID_714_">
				<polygon id="XMLID_715_" class="st1" points="27.7,41 27.2,41 27,40.2 27.5,40.2 				"/>
			</g>
		</g>
		<g id="XMLID_703_">
			<g id="XMLID_706_">
				<polygon id="XMLID_709_" class="st1" points="26.7,38.6 26.2,38.6 25.9,38 26.4,38 				"/>
			</g>
		</g>
		<g id="XMLID_694_">
			<g id="XMLID_697_">
				<polygon id="XMLID_700_" class="st1" points="24,43.9 23.7,43.9 26.2,38.6 26.7,38.6 				"/>
			</g>
		</g>
		<g id="XMLID_678_">
			<g id="XMLID_682_">
				<polygon id="XMLID_685_" class="st1" points="23.4,45.6 22.9,45.6 22.4,44.6 23,44.6 				"/>
			</g>
		</g>
		<g id="XMLID_661_">
			<g id="XMLID_666_">
				<polygon id="XMLID_670_" class="st1" points="22.2,43 21.7,43 22.4,41.5 23,41.5 				"/>
			</g>
		</g>
		<g id="XMLID_637_">
			<g id="XMLID_651_">
				<polygon id="XMLID_657_" class="st1" points="19.6,48.6 19,48.6 21.7,43 22.2,43 				"/>
			</g>
		</g>
		<g id="XMLID_615_">
			<g id="XMLID_627_">
				<polygon id="XMLID_633_" class="st1" points="20.3,50 19.8,50 19,48.6 19.6,48.6 				"/>
			</g>
		</g>
	</g>
	<g id="XMLID_602_">
		<g id="XMLID_606_">
			<polygon id="XMLID_608_" class="st4" points="26.4,38 27.7,38 27.7,41 27.5,40.2 24.9,45.6 24,47.2 23.4,45.6 23,44.6 20.3,50 
				19.6,48.6 22.2,43 23,41.5 23.7,43 24,43.9 26.7,38.6 			"/>
		</g>
	</g>
</g>
<g id="XMLID_1_">
	<path id="XMLID_195_" class="st0" d="M41.3,71.6h-1.4l2.4-6.3h1.4l2.4,6.3h-1.4l-0.4-1.1h-2.6L41.3,71.6z M43,66.9L43,66.9
		l-0.9,2.5h1.8L43,66.9z"/>
	<path id="XMLID_193_" class="st0" d="M47.2,70.1h1.3c0,0.4,0.3,0.6,0.8,0.6s0.7-0.2,0.7-0.4c0-0.2-0.4-0.4-0.9-0.5
		c-0.3,0-0.5-0.1-0.7-0.2c-0.5-0.1-0.9-0.6-0.9-1.2c0-0.4,0.2-0.8,0.5-1.1c0.3-0.3,0.8-0.4,1.4-0.4c0.6,0,1.1,0.2,1.4,0.5
		c0.3,0.3,0.5,0.7,0.5,1.1H50c0-0.3-0.3-0.6-0.7-0.6s-0.7,0.2-0.7,0.4c0,0.2,0.4,0.4,0.9,0.5c0.3,0,0.5,0.1,0.7,0.2
		c0.5,0.1,0.9,0.6,0.9,1.3c0,0.4-0.2,0.8-0.5,1.1c-0.4,0.3-0.8,0.4-1.4,0.4C48,71.7,47.3,71.2,47.2,70.1z"/>
	<path id="XMLID_190_" class="st0" d="M57.4,69.7H54c0.1,0.7,0.5,1,1.1,1c0.4,0,0.7-0.2,0.9-0.5h1.3c-0.1,0.5-0.4,0.8-0.8,1.1
		c-0.4,0.3-0.9,0.4-1.4,0.4c-0.7,0-1.3-0.2-1.7-0.7c-0.4-0.4-0.7-1.1-0.7-1.8c0-0.7,0.2-1.3,0.7-1.7c0.4-0.5,1-0.7,1.7-0.7
		s1.2,0.2,1.7,0.7c0.4,0.5,0.7,1.1,0.7,1.8L57.4,69.7z M54.1,68.7h2.1c-0.1-0.5-0.5-0.9-1.1-0.9S54.2,68.2,54.1,68.7z"/>
	<path id="XMLID_188_" class="st0" d="M61.5,70.5v1.1c-0.1,0-0.4,0-0.6,0c-1,0-1.4-0.5-1.4-1.4v-2.3h-0.6v-1h0.6v-1.1h1.3v1.1h0.8v1
		h-0.7V70c0,0.3,0.2,0.4,0.5,0.4L61.5,70.5z"/>
	<path id="XMLID_186_" class="st0" d="M70.8,71.6h-1.3v-2.8c0-0.6-0.3-0.9-0.7-0.9c-0.6,0-0.9,0.4-0.9,1v2.7h-1.3V67h1.2v0.6
		c0.2-0.4,0.7-0.7,1.4-0.7c0.6,0,1.1,0.2,1.4,0.7c0.4-0.4,0.9-0.7,1.5-0.7c1.1,0,1.7,0.7,1.7,1.8v2.9h-1.3v-2.8
		c0-0.6-0.3-0.9-0.7-0.9c-0.6,0-0.9,0.4-0.9,1L70.8,71.6L70.8,71.6z"/>
	<path id="XMLID_183_" class="st0" d="M75.6,70.2c0-0.8,0.6-1.3,1.8-1.5l1.2-0.2l0,0c0-0.4-0.3-0.7-0.8-0.7S77,68,76.9,68.4h-1.2
		c0-0.4,0.2-0.8,0.6-1.1c0.4-0.3,0.8-0.5,1.5-0.5c1.4,0,2.1,0.6,2.1,1.7v2.2c0,0.4,0,0.6,0.1,0.8h-1.2c0,0,0-0.2,0-0.5
		c-0.3,0.4-0.8,0.6-1.5,0.6C76.2,71.7,75.6,71.1,75.6,70.2z M78.6,69.5l-1.1,0.2c-0.5,0.1-0.7,0.3-0.7,0.6c0,0.3,0.2,0.5,0.7,0.5
		c0.7,0,1.1-0.4,1.1-1.1V69.5z"/>
	<path id="XMLID_181_" class="st0" d="M81.6,70.1h1.3c0,0.4,0.3,0.6,0.8,0.6s0.7-0.2,0.7-0.4c0-0.2-0.4-0.4-0.9-0.5
		c-0.3,0-0.5-0.1-0.7-0.2c-0.5-0.1-0.9-0.6-0.9-1.2c0-0.4,0.2-0.8,0.5-1.1c0.4-0.3,0.8-0.4,1.4-0.4s1.1,0.2,1.4,0.5
		c0.3,0.3,0.5,0.7,0.5,1.1h-1.2c0-0.3-0.3-0.6-0.7-0.6c-0.4,0-0.7,0.2-0.7,0.4c0,0.2,0.4,0.4,0.9,0.5c0.3,0,0.5,0.1,0.7,0.2
		c0.5,0.1,0.9,0.6,0.9,1.3c0,0.4-0.2,0.8-0.5,1.1c-0.4,0.3-0.8,0.4-1.4,0.4C82.4,71.7,81.7,71.2,81.6,70.1z"/>
	<path id="XMLID_178_" class="st0" d="M87.2,70.2c0-0.8,0.6-1.3,1.8-1.5l1.2-0.2l0,0c0-0.4-0.3-0.7-0.8-0.7s-0.8,0.2-0.9,0.6h-1.2
		c0-0.4,0.2-0.8,0.6-1.1c0.4-0.3,0.8-0.5,1.5-0.5c1.4,0,2.1,0.6,2.1,1.7v2.2c0,0.4,0,0.6,0.1,0.8h-1.2c0,0,0-0.2,0-0.5
		c-0.3,0.4-0.8,0.6-1.5,0.6C87.8,71.7,87.2,71.1,87.2,70.2z M90.3,69.5l-1.1,0.2c-0.5,0.1-0.7,0.3-0.7,0.6c0,0.3,0.2,0.5,0.7,0.5
		c0.7,0,1.1-0.4,1.1-1.1V69.5z"/>
	<path id="XMLID_176_" class="st0" d="M99.9,67h1.6l-1.8,2l1.9,2.7h-1.5l-1.2-1.8l-0.7,0.8v1.1h-1.3v-6.7h1.3v4.1L99.9,67z"/>
	<path id="XMLID_173_" class="st0" d="M103.6,66.4c-0.2,0-0.4-0.1-0.6-0.2c-0.1-0.1-0.2-0.3-0.2-0.5c0-0.2,0.1-0.4,0.2-0.6
		c0.1-0.1,0.3-0.2,0.6-0.2c0.2,0,0.4,0.1,0.6,0.2c0.1,0.1,0.2,0.3,0.2,0.6c0,0.2-0.1,0.4-0.2,0.5C104.1,66.3,103.9,66.4,103.6,66.4z
		 M103,71.6V67h1.3v4.6H103z"/>
	<path id="XMLID_171_" class="st0" d="M107.6,67v0.6c0.2-0.4,0.7-0.7,1.4-0.7c1.1,0,1.7,0.7,1.7,1.8v2.9h-1.3v-2.8
		c0-0.6-0.3-0.9-0.8-0.9c-0.6,0-1,0.4-1,1v2.7h-1.3V67H107.6z"/>
	<path id="XMLID_168_" class="st0" d="M113.5,66.4c-0.2,0-0.4-0.1-0.6-0.2c-0.1-0.1-0.2-0.3-0.2-0.5c0-0.2,0.1-0.4,0.2-0.6
		c0.1-0.1,0.3-0.2,0.6-0.2c0.2,0,0.4,0.1,0.6,0.2c0.1,0.1,0.2,0.3,0.2,0.6c0,0.2-0.1,0.4-0.2,0.5C113.9,66.3,113.7,66.4,113.5,66.4z
		 M112.8,71.6V67h1.3v4.6H112.8z"/>
	<path id="XMLID_166_" class="st0" d="M116.3,70.2h1.4l-0.8,2.7h-1.1L116.3,70.2z"/>
	<path id="XMLID_164_" class="st0" d="M125.9,67h1.6l-1.8,2l1.9,2.7h-1.5l-1.2-1.8l-0.7,0.8v1.1h-1.3v-6.7h1.3v4.1L125.9,67z"/>
	<path id="XMLID_161_" class="st0" d="M128.7,70.2c0-0.8,0.6-1.3,1.8-1.5l1.2-0.2l0,0c0-0.4-0.3-0.7-0.8-0.7s-0.8,0.2-0.9,0.6h-1.2
		c0-0.4,0.2-0.8,0.6-1.1c0.4-0.3,0.8-0.5,1.5-0.5c1.4,0,2.1,0.6,2.1,1.7v2.2c0,0.4,0,0.6,0.1,0.8h-1.2c0,0,0-0.2,0-0.5
		c-0.3,0.4-0.8,0.6-1.5,0.6C129.3,71.7,128.7,71.1,128.7,70.2z M131.7,69.5l-1.1,0.2c-0.5,0.1-0.7,0.3-0.7,0.6
		c0,0.3,0.2,0.5,0.7,0.5c0.7,0,1.1-0.4,1.1-1.1V69.5z"/>
	<path id="XMLID_159_" class="st0" d="M135.3,73.5l0.8-1.9l-1.8-4.6h1.4l1.1,3.1l1.1-3.1h1.3l-2.6,6.5H135.3L135.3,73.5z"/>
	<path id="XMLID_156_" class="st0" d="M140.3,70.2c0-0.8,0.6-1.3,1.8-1.5l1.2-0.2l0,0c0-0.4-0.3-0.7-0.8-0.7s-0.8,0.2-0.9,0.6h-1.2
		c0-0.4,0.2-0.8,0.6-1.1c0.4-0.3,0.8-0.5,1.5-0.5c1.4,0,2.1,0.6,2.1,1.7v2.2c0,0.4,0,0.6,0.1,0.8h-1.2c0,0,0-0.2,0-0.5
		c-0.3,0.4-0.8,0.6-1.5,0.6C140.9,71.7,140.3,71.1,140.3,70.2z M143.4,69.5l-1.1,0.2c-0.5,0.1-0.7,0.3-0.7,0.6
		c0,0.3,0.2,0.5,0.7,0.5c0.7,0,1.1-0.4,1.1-1.1V69.5z"/>
	<path id="XMLID_154_" class="st0" d="M154.2,71.6H153v-2.8c0-0.6-0.3-0.9-0.7-0.9c-0.6,0-0.9,0.4-0.9,1v2.7H150V67h1.2v0.6
		c0.2-0.4,0.7-0.7,1.4-0.7c0.6,0,1.1,0.2,1.4,0.7c0.4-0.4,0.9-0.7,1.5-0.7c1.1,0,1.7,0.7,1.7,1.8v2.9H156v-2.8
		c0-0.6-0.3-0.9-0.7-0.9c-0.6,0-0.9,0.4-0.9,1v2.7H154.2z"/>
	<path id="XMLID_151_" class="st0" d="M159.1,70.2c0-0.8,0.6-1.3,1.8-1.5l1.2-0.2l0,0c0-0.4-0.3-0.7-0.8-0.7s-0.8,0.2-0.9,0.6h-1.2
		c0-0.4,0.2-0.8,0.6-1.1c0.4-0.3,0.8-0.5,1.5-0.5c1.4,0,2.1,0.6,2.1,1.7v2.2c0,0.4,0,0.6,0.1,0.8h-1.2c0,0,0-0.2,0-0.5
		c-0.3,0.4-0.8,0.6-1.5,0.6C159.6,71.7,159.1,71.1,159.1,70.2z M162.1,69.5l-1.1,0.2c-0.5,0.1-0.7,0.3-0.7,0.6
		c0,0.3,0.2,0.5,0.7,0.5c0.7,0,1.1-0.4,1.1-1.1V69.5z"/>
	<path id="XMLID_149_" class="st0" d="M165.1,70.1h1.3c0,0.4,0.3,0.6,0.8,0.6s0.7-0.2,0.7-0.4c0-0.2-0.4-0.4-0.9-0.5
		c-0.3,0-0.5-0.1-0.7-0.2c-0.5-0.1-0.9-0.6-0.9-1.2c0-0.4,0.2-0.8,0.5-1.1c0.3-0.3,0.8-0.4,1.4-0.4c0.6,0,1.1,0.2,1.4,0.5
		c0.3,0.3,0.5,0.7,0.5,1.1H168c0-0.3-0.3-0.6-0.7-0.6s-0.7,0.2-0.7,0.4c0,0.2,0.4,0.4,0.9,0.5c0.3,0,0.5,0.1,0.7,0.2
		c0.5,0.1,0.9,0.6,0.9,1.3c0,0.4-0.2,0.8-0.5,1.1c-0.4,0.3-0.8,0.4-1.4,0.4C165.8,71.7,165.2,71.2,165.1,70.1z"/>
	<path id="XMLID_146_" class="st0" d="M170.7,70.2c0-0.8,0.6-1.3,1.8-1.5l1.2-0.2l0,0c0-0.4-0.3-0.7-0.8-0.7s-0.8,0.2-0.9,0.6h-1.2
		c0-0.4,0.2-0.8,0.6-1.1c0.4-0.3,0.8-0.5,1.5-0.5c1.4,0,2.1,0.6,2.1,1.7v2.2c0,0.4,0,0.6,0.1,0.8h-1.2c0,0,0-0.2,0-0.5
		c-0.3,0.4-0.8,0.6-1.5,0.6C171.2,71.7,170.7,71.1,170.7,70.2z M173.7,69.5l-1.1,0.2c-0.5,0.1-0.7,0.3-0.7,0.6
		c0,0.3,0.2,0.5,0.7,0.5c0.7,0,1.1-0.4,1.1-1.1V69.5z"/>
	<path id="XMLID_13_" class="st0" d="M183.6,64.9h1.3v6.7h-1.2v-0.5c-0.3,0.4-0.8,0.7-1.5,0.7s-1.2-0.2-1.6-0.7
		c-0.4-0.5-0.6-1.1-0.6-1.8s0.2-1.3,0.6-1.8c0.4-0.5,0.9-0.7,1.6-0.7c0.6,0,1.1,0.3,1.4,0.6V64.9L183.6,64.9z M183.7,69.3
		c0-0.4-0.1-0.7-0.3-1c-0.2-0.3-0.5-0.4-0.8-0.4s-0.6,0.1-0.8,0.4c-0.2,0.3-0.3,0.6-0.3,1c0,0.4,0.1,0.7,0.3,1
		c0.2,0.3,0.5,0.4,0.8,0.4s0.6-0.1,0.8-0.4C183.5,70,183.7,69.7,183.7,69.3z"/>
	<path id="XMLID_10_" class="st0" d="M191.4,69.7H188c0.1,0.7,0.5,1,1.1,1c0.4,0,0.7-0.2,0.9-0.5h1.3c-0.1,0.5-0.4,0.8-0.8,1.1
		c-0.4,0.3-0.9,0.4-1.4,0.4c-0.7,0-1.3-0.2-1.7-0.7c-0.4-0.4-0.7-1.1-0.7-1.8c0-0.7,0.2-1.3,0.7-1.7c0.4-0.5,1-0.7,1.7-0.7
		s1.2,0.2,1.7,0.7s0.7,1.1,0.7,1.8L191.4,69.7z M188,68.7h2.1c-0.1-0.5-0.5-0.9-1.1-0.9C188.5,67.8,188.1,68.2,188,68.7z"/>
	<path id="XMLID_7_" class="st0" d="M194.5,73.5h-1.3V67h1.2v0.6c0.3-0.4,0.8-0.7,1.5-0.7s1.2,0.2,1.6,0.7c0.4,0.5,0.6,1.1,0.6,1.8
		c0,0.7-0.2,1.3-0.6,1.8c-0.4,0.5-0.9,0.7-1.6,0.7c-0.6,0-1.1-0.3-1.4-0.6V73.5L194.5,73.5L194.5,73.5z M194.5,69.3
		c0,0.4,0.1,0.7,0.3,1c0.2,0.3,0.5,0.4,0.8,0.4c0.4,0,0.6-0.1,0.8-0.4s0.3-0.6,0.3-1c0-0.4-0.1-0.7-0.3-1c-0.2-0.3-0.5-0.4-0.8-0.4
		c-0.4,0-0.6,0.1-0.8,0.4S194.5,68.9,194.5,69.3z"/>
	<path id="XMLID_4_" class="st0" d="M199.7,70.2c0-0.8,0.6-1.3,1.8-1.5l1.2-0.2l0,0c0-0.4-0.3-0.7-0.8-0.7s-0.8,0.2-0.9,0.6h-1.2
		c0-0.4,0.2-0.8,0.6-1.1c0.4-0.3,0.8-0.5,1.5-0.5c1.4,0,2.1,0.6,2.1,1.7v2.2c0,0.4,0,0.6,0.1,0.8h-1.2c0,0,0-0.2,0-0.5
		c-0.3,0.4-0.8,0.6-1.5,0.6C200.3,71.7,199.7,71.1,199.7,70.2z M202.7,69.5l-1.1,0.2c-0.5,0.1-0.7,0.3-0.7,0.6
		c0,0.3,0.2,0.5,0.7,0.5c0.7,0,1.1-0.4,1.1-1.1V69.5z"/>
	<path id="XMLID_2_" class="st0" d="M207.2,67v0.6c0.2-0.4,0.7-0.7,1.4-0.7c1.1,0,1.7,0.7,1.7,1.8v2.9H209v-2.8
		c0-0.6-0.3-0.9-0.8-0.9c-0.6,0-1,0.4-1,1v2.7h-1.3V67H207.2z"/>
</g>
</svg>
