<svg width="215" height="42" viewBox="0 0 215 42" fill="none" xmlns="http://www.w3.org/2000/svg">
<path d="M46.0791 18.0994C46.0791 14.7994 47.0918 12.0994 49.1173 9.99942C51.1427 7.89942 53.7758 6.89941 56.9152 6.89941C59.6495 6.89941 61.9788 7.69943 63.9029 9.19943C65.8271 10.6994 66.9411 12.7994 67.3462 15.2994H62.5864C61.9788 12.5994 59.7508 11.0994 56.8139 11.0994C52.8643 11.0994 50.6363 13.7994 50.6363 17.9994C50.6363 22.1994 52.9656 24.8994 56.8139 24.8994C59.7508 24.8994 61.8775 23.3994 62.5864 20.6994H67.5487C67.1436 23.2994 66.0296 25.2994 64.1055 26.7994C62.1813 28.2994 59.8521 29.0994 57.1177 29.0994C53.9783 29.0994 51.3452 28.0994 49.3198 25.9994C47.0918 24.0994 46.0791 21.3994 46.0791 18.0994Z" fill="#1E386B"/>
<path d="M77.9798 29.1996C75.448 29.1996 73.4226 28.3996 71.9035 26.7996C70.3844 25.1996 69.5742 23.2996 69.5742 20.8996C69.5742 18.4996 70.3844 16.5996 71.9035 14.9996C73.4226 13.3996 75.448 12.5996 77.9798 12.5996C80.5116 12.5996 82.537 13.3996 84.0561 14.9996C85.5752 16.5996 86.3853 18.5996 86.3853 20.8996C86.3853 23.1996 85.5752 25.1996 84.0561 26.7996C82.4357 28.3996 80.4103 29.1996 77.9798 29.1996ZM73.9289 20.9996C73.9289 22.3996 74.334 23.4996 75.0429 24.2996C75.8531 25.0996 76.7645 25.4996 77.9798 25.4996C79.195 25.4996 80.1065 25.0996 80.9167 24.2996C81.7268 23.4996 82.0307 22.3996 82.0307 20.9996C82.0307 19.5996 81.6256 18.4996 80.9167 17.6996C80.2078 16.8996 79.195 16.4996 77.9798 16.4996C76.7645 16.4996 75.8531 16.8996 75.0429 17.6996C74.2327 18.4996 73.9289 19.5996 73.9289 20.9996Z" fill="#1E386B"/>
<path d="M89.3218 28.8998V13.0998H93.6765V28.8998H89.3218ZM91.4485 10.9998C90.6383 10.9998 90.0307 10.7998 89.5243 10.2998C89.1192 9.7998 88.8154 9.19981 88.8154 8.39981C88.8154 7.59981 89.018 6.99982 89.5243 6.49982C90.0307 5.99982 90.6383 5.7998 91.4485 5.7998C92.2587 5.7998 92.8663 5.99982 93.3727 6.49982C93.879 7.09982 94.0816 7.69981 94.0816 8.39981C94.0816 9.19981 93.879 9.79983 93.3727 10.1998C92.8663 10.7998 92.2587 10.9998 91.4485 10.9998Z" fill="#1E386B"/>
<path d="M101.677 13.1002V15.0002C102.487 13.5002 104.107 12.7002 106.437 12.7002C110.184 12.7002 112.31 15.1002 112.31 19.0002V28.9002H107.956V19.5002C107.956 17.4002 107.044 16.4002 105.221 16.4002C103.095 16.4002 101.981 17.7002 101.981 19.8002V28.9002H97.626V13.1002H101.677Z" fill="#1E386B"/>
<path d="M121.932 23.7L125.882 13H130.337L123.957 28.8H119.906L113.526 13H118.084L121.932 23.7Z" fill="#1E386B"/>
<path d="M146.541 22.2002H134.895C135.199 24.4002 136.616 25.6002 138.743 25.6002C140.161 25.6002 141.376 25.0002 141.781 23.9002H146.136C145.63 25.5002 144.718 26.8002 143.402 27.8002C141.984 28.8002 140.363 29.3002 138.541 29.3002C136.211 29.3002 134.186 28.5002 132.768 27.0002C131.249 25.5002 130.54 23.5002 130.54 21.0002C130.54 18.6002 131.35 16.7002 132.768 15.1002C134.186 13.5002 136.211 12.7002 138.541 12.7002C140.87 12.7002 142.794 13.5002 144.313 15.0002C145.731 16.6002 146.541 18.5002 146.541 20.9002V22.2002ZM134.996 19.1002H142.288C141.984 17.3002 140.667 16.1002 138.642 16.1002C136.718 16.1002 135.401 17.3002 134.996 19.1002Z" fill="#1E386B"/>
<path d="M148.363 23.6998H152.718C152.819 24.8998 153.629 25.7998 155.351 25.7998C156.971 25.7998 157.883 25.1998 157.883 24.3998C157.883 23.3998 156.465 22.9998 154.743 22.7998C153.832 22.5998 153.022 22.4998 152.11 22.1998C150.389 21.6998 148.971 20.2998 148.971 17.9998C148.971 16.4998 149.579 15.2998 150.794 14.2998C152.009 13.2998 153.528 12.7998 155.452 12.7998C157.579 12.7998 159.199 13.2998 160.313 14.3998C161.427 15.4998 161.934 16.6998 162.035 18.0998H157.883C157.782 16.9998 156.971 16.1998 155.452 16.1998C154.034 16.1998 153.224 16.8998 153.224 17.6998C153.224 18.6998 154.642 18.9998 156.364 19.2998C157.174 19.4998 158.085 19.5998 158.997 19.8998C160.718 20.3998 162.136 21.7998 162.136 24.1998C162.136 25.6998 161.529 26.8998 160.313 27.7998C159.098 28.7998 157.478 29.1998 155.351 29.1998C150.895 29.1998 148.566 27.3998 148.363 23.6998Z" fill="#1E386B"/>
<path d="M172.365 25.0996V28.7996C171.859 28.8996 171.251 28.9996 170.34 28.9996C167.099 28.9996 165.378 27.3996 165.378 24.1996V16.3996H163.251V12.9996H165.378V9.09961H169.732V12.9996H172.365V16.3996H169.834V23.5996C169.834 24.5996 170.34 25.0996 171.454 25.0996H172.365Z" fill="#1E386B"/>
<path d="M174.289 24.4002C174.289 21.6002 176.213 20.0002 180.467 19.4002L184.72 18.8002V18.6002C184.72 17.1002 183.809 16.3002 181.884 16.3002C180.062 16.3002 179.15 16.9002 178.948 18.2002H174.694C174.897 16.7002 175.504 15.4002 176.618 14.3002C177.732 13.2002 179.555 12.7002 181.884 12.7002C186.543 12.7002 188.872 14.8002 188.872 18.6002V26.1002C188.872 27.3002 189.075 28.2002 189.379 28.9002H185.226C185.226 28.9002 185.024 28.1002 185.024 27.1002C184.011 28.5002 182.29 29.2002 179.96 29.2002C176.314 29.2002 174.289 27.3002 174.289 24.4002ZM184.72 21.7002L180.872 22.3002C179.251 22.6002 178.441 23.2002 178.441 24.2002C178.441 25.3002 179.251 25.9002 180.872 25.9002C183.302 25.9002 184.72 24.5002 184.72 22.4002V21.7002Z" fill="#1E386B"/>
<path d="M191.506 23.6998H195.861C195.962 24.8998 196.772 25.7998 198.494 25.7998C200.114 25.7998 201.025 25.1998 201.025 24.3998C201.025 23.3998 199.608 22.9998 197.886 22.7998C196.975 22.5998 196.164 22.4998 195.253 22.1998C193.531 21.6998 192.113 20.2998 192.113 17.9998C192.113 16.4998 192.721 15.2998 193.936 14.2998C195.152 13.2998 196.671 12.7998 198.595 12.7998C200.722 12.7998 202.342 13.2998 203.456 14.3998C204.57 15.4998 205.076 16.6998 205.178 18.0998H201.025C200.924 16.9998 200.114 16.1998 198.595 16.1998C197.177 16.1998 196.367 16.8998 196.367 17.6998C196.367 18.6998 197.785 18.9998 199.506 19.2998C200.317 19.4998 201.228 19.5998 202.139 19.8998C203.861 20.3998 205.279 21.7998 205.279 24.1998C205.279 25.6998 204.671 26.8998 203.456 27.7998C202.241 28.7998 200.62 29.1998 198.494 29.1998C194.038 29.1998 191.81 27.3998 191.506 23.6998Z" fill="#1E386B"/>
<path d="M208.114 28.8994V13.0994H212.468V28.8994H208.114ZM210.24 10.9994C209.43 10.9994 208.823 10.7994 208.316 10.2994C207.81 9.79941 207.607 9.19942 207.607 8.49942C207.607 7.69942 207.81 7.09943 208.316 6.59943C208.823 6.09943 209.43 5.89941 210.24 5.89941C211.051 5.89941 211.658 6.09943 212.165 6.59943C212.671 7.09943 212.874 7.69942 212.874 8.49942C212.874 9.29942 212.671 9.89941 212.165 10.2994C211.658 10.7994 211.051 10.9994 210.24 10.9994Z" fill="#1E386B"/>
<path d="M16.7097 1.90039H13.0639C10.127 1.90039 7.39269 3.5004 5.36726 6.5004C3.34182 9.4004 2.3291 13.2004 2.3291 17.3004C2.3291 21.5004 3.44309 25.4004 5.5698 28.3004C7.59523 31.1004 10.2283 32.7004 13.0639 32.7004H16.7097C19.3428 32.5004 21.8745 30.9004 23.6974 28.1004C25.7229 25.2004 26.7356 21.4004 26.7356 17.3004C26.7356 13.4004 25.7229 9.60041 23.7987 6.70041C21.9758 3.90041 19.444 2.20039 16.7097 1.90039Z" fill="#875D27"/>
<path d="M23.0913 17.3006C23.0913 13.3006 21.9773 9.80059 20.2557 7.10059C19.0404 5.30059 17.6226 3.90059 15.901 3.20059V2.60059H12.9641C7.39414 2.60059 2.83691 9.20057 2.83691 17.3006C2.83691 21.5006 4.05217 25.3006 5.97633 28.0006C7.79922 30.5006 10.2298 32.1006 12.9641 32.1006H15.901V31.4006C20.1544 29.5006 23.0913 23.9006 23.0913 17.3006Z" fill="#FCBA2C"/>
<path d="M16.1022 32.2004H12.9628C10.3298 32.2004 7.79797 30.7004 5.87381 28.0004C3.84837 25.2004 2.73438 21.4004 2.73438 17.3004C2.73438 9.10038 7.39287 2.40039 13.0641 2.40039H16.2035V3.1004C17.8239 3.9004 19.3429 5.2004 20.4569 7.0004C22.2798 9.8004 23.2926 13.4004 23.2926 17.3004C23.2926 23.8004 20.4569 29.5004 16.2035 31.5004L16.1022 32.2004ZM13.0641 2.70041C7.59542 2.70041 3.13947 9.20038 3.13947 17.3004C3.13947 21.3004 4.25346 25.1004 6.17762 27.9004C8.00052 30.5004 10.431 31.9004 13.0641 31.9004H15.8997V31.3004H16.001C18.0264 30.4004 19.748 28.6004 21.0646 26.1004C22.3811 23.6004 23.09 20.5004 23.09 17.3004C23.09 13.5004 22.0773 9.90041 20.3557 7.20041C19.0391 5.40041 17.5201 4.10039 15.8997 3.40039H15.7984V2.70041H13.0641Z" fill="#B48545"/>
<path d="M23.2937 7.10001C21.4708 4.30001 18.8378 2.5 16.0022 2.5C10.4322 2.5 5.875 9.10001 5.875 17.2C5.875 21.4 7.09025 25.2 9.01442 27.9C10.8373 30.4 13.2678 32 16.0022 32C21.5721 32 26.1294 25.4 26.1294 17.3C26.0281 13.4 25.0154 9.80001 23.2937 7.10001ZM16.5085 28.4C16.306 28.4 16.2047 28.4 16.0022 28.4C13.9767 28.4 12.1539 27.2 10.736 25.4C9.31824 23.5 8.40679 20.8 8.30552 17.8C8.30552 17.6 8.30552 17.5 8.30552 17.3C8.30552 11.2 11.7488 6.20001 15.9009 6.20001C16.1034 6.20001 16.2047 6.20001 16.4073 6.20001C20.3569 6.60001 23.4963 11.4 23.4963 17.3C23.4963 17.5 23.4963 17.6 23.4963 17.8C23.395 23.5 20.3569 28 16.5085 28.4Z" fill="#F7E343"/>
<path d="M16.0009 32.2004C13.3679 32.2004 10.8361 30.7004 8.91189 28.0004C6.88646 25.2004 5.77246 21.4004 5.77246 17.3004C5.77246 9.10038 10.3297 2.40039 16.0009 2.40039C18.8365 2.40039 21.4696 4.0004 23.3938 7.0004C25.2167 9.8004 26.2294 13.4004 26.2294 17.3004C26.2294 25.5004 21.6721 32.2004 16.0009 32.2004ZM16.0009 2.70041C10.5322 2.70041 6.07628 9.20038 6.07628 17.3004C6.07628 21.3004 7.19027 25.1004 9.11443 27.9004C10.9373 30.5004 13.3679 31.9004 16.0009 31.9004C21.4696 31.9004 25.9256 25.4004 25.9256 17.3004C25.9256 13.5004 24.9128 9.90041 23.1912 7.20041C21.267 4.30041 18.7353 2.70041 16.0009 2.70041ZM16.0009 28.6004C13.9755 28.6004 12.0513 27.5004 10.6335 25.5004C9.11443 23.5004 8.30426 20.7004 8.20299 17.8004C8.20299 17.6004 8.20299 17.5004 8.20299 17.3004C8.20299 11.1004 11.6462 6.0004 16.0009 6.0004C16.2035 6.0004 16.3047 6.0004 16.5073 6.0004C20.5581 6.4004 23.7988 11.3004 23.7988 17.3004C23.7988 17.5004 23.7988 17.6004 23.7988 17.8004C23.5963 23.6004 20.5581 28.2004 16.5073 28.6004C16.3047 28.6004 16.2035 28.6004 16.0009 28.6004ZM16.0009 6.30038C11.8488 6.30038 8.5068 11.2004 8.5068 17.3004C8.5068 17.5004 8.5068 17.6004 8.5068 17.8004C8.60807 20.7004 9.41824 23.4004 10.836 25.3004C12.2539 27.2004 14.0767 28.3004 15.8996 28.3004C16.1022 28.3004 16.2035 28.3004 16.406 28.3004C20.2543 27.9004 23.1912 23.4004 23.3938 17.8004C23.3938 17.6004 23.3938 17.5004 23.3938 17.3004C23.3938 11.5004 20.3556 6.70038 16.406 6.30038C16.3047 6.30038 16.1022 6.30038 16.0009 6.30038Z" fill="#B48545"/>
<path d="M16.5072 6.2002C16.3046 6.2002 16.2033 6.2002 16.0008 6.2002C15.8995 6.2002 15.697 6.2002 15.5957 6.2002H15.697C19.6466 6.6002 22.786 11.4002 22.786 17.3002C22.786 17.5002 22.786 17.6002 22.786 17.8002C22.5835 23.5002 19.5453 28.1002 15.697 28.4002H15.5957C15.697 28.4002 15.8995 28.4002 16.0008 28.4002C16.2033 28.4002 16.3046 28.4002 16.5072 28.4002C20.3555 28.0002 23.4949 23.4002 23.5962 17.8002C23.5962 17.6002 23.5962 17.5002 23.5962 17.3002C23.5962 11.4002 20.4568 6.6002 16.5072 6.2002Z" fill="#FCB316"/>
<path d="M16.0008 28.6C15.8995 28.6 15.697 28.6 15.5957 28.6V28.3H15.697C19.5453 27.9 22.4822 23.4 22.6847 17.8C22.6847 17.6 22.6847 17.5 22.6847 17.3C22.6847 11.5 19.6466 6.69999 15.697 6.29999H15.5957V6C15.8995 6 16.2033 6 16.6084 6C20.6593 6.4 23.9 11.3 23.9 17.3C23.9 17.5 23.9 17.6 23.9 17.8C23.6975 23.6 20.6593 28.2 16.6084 28.6C16.3046 28.6 16.2033 28.6 16.0008 28.6ZM17.5199 6.60001C20.6593 8.10001 22.8873 12.4 22.8873 17.3C22.8873 17.5 22.8873 17.6 22.8873 17.8C22.786 22.6 20.558 26.6 17.5199 28.1C20.7606 27.1 23.2924 22.9 23.3936 17.8C23.3936 17.6 23.3936 17.5 23.3936 17.3C23.4949 12.1 20.9631 7.60001 17.5199 6.60001Z" fill="#B48545"/>
<path d="M20.2546 1.90039H16.6088C13.6719 1.90039 10.9376 3.5004 8.91218 6.5004C6.88674 9.4004 5.87402 13.2004 5.87402 17.3004C5.87402 21.5004 6.98801 25.4004 9.11472 28.3004C11.1402 31.1004 13.7732 32.7004 16.6088 32.7004H20.2546C22.8877 32.5004 25.4195 30.9004 27.2424 28.1004C29.2678 25.2004 30.2805 21.4004 30.2805 17.3004C30.2805 13.4004 29.2678 9.60041 27.3436 6.70041C25.5207 3.90041 22.989 2.20039 20.2546 1.90039Z" fill="#875D27"/>
<path d="M26.6352 17.3006C26.6352 13.3006 25.5212 9.80059 23.7996 7.10059C22.5843 5.30059 21.1665 3.90059 19.4449 3.20059V2.60059H16.508C10.9381 2.60059 6.38086 9.20057 6.38086 17.3006C6.38086 21.5006 7.59611 25.3006 9.52028 28.0006C11.3432 30.5006 13.7737 32.1006 16.508 32.1006H19.4449V31.4006C23.6983 29.5006 26.6352 23.9006 26.6352 17.3006Z" fill="#FCBA2C"/>
<path d="M19.7487 32.2004H16.6093C13.9762 32.2004 11.4444 30.7004 9.52028 28.0004C7.49484 25.2004 6.38086 21.3004 6.38086 17.3004C6.38086 9.10038 10.9381 2.40039 16.6093 2.40039H19.7487V3.1004C21.3691 3.9004 22.8882 5.2004 24.0021 7.0004C25.825 9.8004 26.8378 13.4004 26.8378 17.3004C26.8378 20.5004 26.1289 23.6004 24.8123 26.2004C23.4958 28.7004 21.7742 30.5004 19.7487 31.5004V32.2004ZM16.6093 2.70041C11.1406 2.70041 6.68468 9.20038 6.68468 17.3004C6.68468 21.3004 7.79867 25.1004 9.72283 27.9004C11.5457 30.5004 13.9762 31.9004 16.6093 31.9004H19.4449V31.3004H19.5462C21.5716 30.4004 23.2932 28.6004 24.6098 26.1004C25.9263 23.6004 26.6352 20.5004 26.6352 17.3004C26.6352 13.5004 25.6225 9.90041 23.9009 7.20041C22.5843 5.40041 21.0653 4.10039 19.5462 3.40039H19.4449V2.70041H16.6093Z" fill="#B48545"/>
<path d="M26.8387 7.10001C25.0158 4.30001 22.3827 2.5 19.5471 2.5C13.9772 2.5 9.41992 9.10001 9.41992 17.2C9.41992 21.4 10.6352 25.2 12.5593 27.9C14.3822 30.4 16.8128 32 19.5471 32C25.117 32 29.6743 25.4 29.6743 17.3C29.6743 13.4 28.5603 9.80001 26.8387 7.10001ZM20.0535 28.4C19.8509 28.4 19.7496 28.4 19.5471 28.4C17.5217 28.4 15.6988 27.2 14.281 25.4C12.8632 23.5 11.9517 20.8 11.8504 17.8C11.8504 17.6 11.8504 17.5 11.8504 17.3C11.8504 11.2 15.2937 6.20001 19.4458 6.20001C19.6484 6.20001 19.7496 6.20001 19.9522 6.20001C23.9018 6.60001 27.0412 11.4 27.0412 17.3C27.0412 17.5 27.0412 17.6 27.0412 17.8C27.0412 23.5 23.9018 28 20.0535 28.4Z" fill="#F7E343"/>
<path d="M19.5458 32.2004C16.9128 32.2004 14.381 30.7004 12.4568 28.0004C10.4314 25.2004 9.31738 21.3004 9.31738 17.3004C9.31738 9.10038 13.8746 2.40039 19.5458 2.40039C22.3814 2.40039 25.0145 4.0004 26.9387 7.0004C28.7616 9.8004 29.7743 13.4004 29.7743 17.3004C29.7743 25.5004 25.2171 32.2004 19.5458 32.2004ZM19.5458 2.70041C14.0772 2.70041 9.6212 9.20038 9.6212 17.3004C9.6212 21.3004 10.7352 25.1004 12.6594 27.9004C14.4822 30.5004 16.9128 31.9004 19.5458 31.9004C25.0145 31.9004 29.4705 25.4004 29.4705 17.3004C29.4705 13.5004 28.4577 9.90041 26.7361 7.20041C24.812 4.30041 22.2802 2.70041 19.5458 2.70041ZM19.5458 28.6004C17.5204 28.6004 15.5962 27.5004 14.1784 25.5004C12.6594 23.5004 11.8492 20.7004 11.7479 17.8004C11.7479 17.6004 11.7479 17.5004 11.7479 17.3004C11.7479 11.1004 15.1912 6.0004 19.5458 6.0004C19.7484 6.0004 19.8497 6.0004 20.0522 6.0004C24.1031 6.4004 27.3438 11.3004 27.3438 17.3004C27.3438 17.5004 27.3438 17.6004 27.3438 17.8004C27.1412 23.6004 24.1031 28.2004 20.0522 28.6004C19.9509 28.6004 19.7484 28.6004 19.5458 28.6004ZM19.5458 6.30038C15.3937 6.30038 12.0517 11.2004 12.0517 17.3004C12.0517 17.5004 12.0517 17.6004 12.0517 17.8004C12.153 20.7004 12.9632 23.4004 14.381 25.3004C15.7988 27.2004 17.6217 28.3004 19.4446 28.3004C19.6471 28.3004 19.7484 28.3004 19.9509 28.3004C23.7992 27.9004 26.7361 23.4004 26.9387 17.8004C26.9387 17.6004 26.9387 17.5004 26.9387 17.3004C26.9387 11.5004 23.9005 6.70038 19.9509 6.30038C19.8496 6.30038 19.7484 6.30038 19.5458 6.30038Z" fill="#B48545"/>
<path d="M20.0531 6.2002C19.8505 6.2002 19.7492 6.2002 19.5467 6.2002C19.4454 6.2002 19.2429 6.2002 19.1416 6.2002H19.2429C23.1925 6.6002 26.3319 11.4002 26.3319 17.3002C26.3319 17.5002 26.3319 17.6002 26.3319 17.8002C26.1294 23.5002 23.0912 28.1002 19.2429 28.4002H19.1416C19.2429 28.4002 19.4454 28.4002 19.5467 28.4002C19.7492 28.4002 19.8505 28.4002 20.0531 28.4002C23.9014 28.0002 27.0408 23.4002 27.1421 17.8002C27.1421 17.6002 27.1421 17.5002 27.1421 17.3002C27.1421 11.4002 24.0027 6.6002 20.0531 6.2002Z" fill="#FCB316"/>
<path d="M19.5454 28.6C19.4441 28.6 19.2416 28.6 19.1403 28.6V28.3H19.2416C22.9887 27.9 26.0268 23.4 26.1281 17.8C26.1281 17.6 26.1281 17.5 26.1281 17.3C26.1281 11.5 23.0899 6.69999 19.1403 6.29999H19.0391V6C19.3429 6 19.6467 6 20.0518 6C24.1027 6.4 27.3433 11.3 27.3433 17.3C27.3433 17.5 27.3433 17.6 27.3433 17.8C27.1408 23.6 24.1027 28.2 20.0518 28.6C19.9505 28.6 19.748 28.6 19.5454 28.6ZM21.1658 6.60001C24.3052 8.10001 26.5332 12.4 26.5332 17.3C26.5332 17.5 26.5332 17.6 26.5332 17.8C26.4319 22.6 24.2039 26.6 21.1658 28.1C24.4065 27.1 26.9383 22.9 27.0395 17.8C27.0395 17.6 27.0395 17.5 27.0395 17.3C27.0395 12.1 24.5077 7.60001 21.1658 6.60001Z" fill="#B48545"/>
<path d="M23.697 1.90039H20.0512C17.1143 1.90039 14.38 3.5004 12.3546 6.5004C10.3291 9.4004 9.31641 13.2004 9.31641 17.3004C9.31641 21.5004 10.4304 25.4004 12.5571 28.3004C14.5825 31.1004 17.2156 32.7004 20.0512 32.7004H23.697C26.3301 32.5004 28.8619 30.9004 30.6848 28.1004C32.7102 25.2004 33.7229 21.4004 33.7229 17.3004C33.7229 13.4004 32.7102 9.60041 30.786 6.70041C28.9631 3.90041 26.4313 2.20039 23.697 1.90039Z" fill="#875D27"/>
<path d="M30.0786 17.3006C30.0786 13.3006 28.9646 9.80059 27.243 7.10059C26.0277 5.30059 24.6099 3.90059 22.8883 3.20059V2.60059H19.9514C14.3814 2.60059 9.82422 9.20057 9.82422 17.3006C9.82422 21.5006 11.0395 25.3006 12.9637 28.0006C14.7865 30.5006 17.2171 32.1006 19.9514 32.1006H22.9896V31.4006C27.0404 29.5006 30.0786 23.9006 30.0786 17.3006Z" fill="#FCBA2C"/>
<path d="M23.0896 32.2004H19.9501C17.3171 32.2004 14.7853 30.7004 12.8611 28.0004C10.8357 25.2004 9.72168 21.3004 9.72168 17.3004C9.72168 9.10038 14.3802 2.40039 19.9501 2.40039H23.0896V3.1004C24.7099 3.9004 26.229 5.2004 27.343 7.0004C29.1659 9.8004 30.1786 13.4004 30.1786 17.3004C30.1786 23.8004 27.343 29.5004 23.0896 31.5004V32.2004ZM19.9501 2.70041C14.4814 2.70041 10.0255 9.20038 10.0255 17.3004C10.0255 21.3004 11.1395 25.1004 13.0636 27.9004C14.8865 30.5004 17.3171 31.9004 19.9501 31.9004H22.7857V31.3004H22.887C24.9125 30.4004 26.6341 28.6004 27.9506 26.1004C29.2671 23.6004 29.976 20.5004 29.976 17.3004C29.976 13.5004 28.9633 9.90041 27.2417 7.20041C26.0264 5.40041 24.5074 4.10039 22.887 3.40039H22.7857V2.70041H19.9501Z" fill="#B48545"/>
<path d="M30.281 7.10001C28.4582 4.30001 25.8251 2.5 22.9895 2.5C17.4195 2.5 12.8623 9.10001 12.8623 17.2C12.8623 21.4 14.0776 25.2 16.0017 27.9C17.8246 30.4 20.2551 32 22.9895 32C28.5594 32 33.1167 25.4 33.1167 17.3C33.0154 13.4 32.0027 9.80001 30.281 7.10001ZM23.4958 28.4C23.2933 28.4 23.192 28.4 22.9895 28.4C20.964 28.4 19.1412 27.2 17.7234 25.4C16.3055 23.5 15.3941 20.8 15.2928 17.8C15.2928 17.6 15.2928 17.5 15.2928 17.3C15.2928 11.2 18.7361 6.20001 22.8882 6.20001C23.0908 6.20001 23.192 6.20001 23.3946 6.20001C27.3442 6.60001 30.4836 11.4 30.4836 17.3C30.4836 17.5 30.4836 17.6 30.4836 17.8C30.3823 23.5 27.3442 28 23.4958 28.4Z" fill="#F7E343"/>
<path d="M22.9882 32.2004C20.3551 32.2004 17.8233 30.7004 15.8992 28.0004C13.8737 25.2004 12.7598 21.3004 12.7598 17.3004C12.7598 9.10038 17.317 2.40039 22.9882 2.40039C25.8238 2.40039 28.4569 4.0004 30.3811 7.0004C32.2039 9.8004 33.2167 13.4004 33.2167 17.3004C33.2167 25.5004 28.6594 32.2004 22.9882 32.2004ZM22.9882 2.70041C17.5195 2.70041 13.0636 9.20038 13.0636 17.3004C13.0636 21.3004 14.1776 25.1004 16.1017 27.9004C17.9246 30.5004 20.3551 31.9004 22.9882 31.9004C28.4569 31.9004 32.9128 25.4004 32.9128 17.3004C32.9128 13.5004 31.9001 9.90041 30.1785 7.20041C28.2543 4.30041 25.7225 2.70041 22.9882 2.70041ZM22.9882 28.6004C20.9628 28.6004 19.0386 27.5004 17.6208 25.5004C16.1017 23.5004 15.2916 20.7004 15.1903 17.8004C15.1903 17.6004 15.1903 17.5004 15.1903 17.3004C15.1903 11.1004 18.6335 6.0004 22.9882 6.0004C23.1908 6.0004 23.292 6.0004 23.4946 6.0004C27.5454 6.4004 30.7861 11.3004 30.7861 17.3004C30.7861 17.5004 30.7861 17.6004 30.7861 17.8004C30.5836 23.6004 27.5454 28.2004 23.4946 28.6004C23.292 28.6004 23.0895 28.6004 22.9882 28.6004ZM22.9882 6.30038C18.8361 6.30038 15.4941 11.2004 15.4941 17.3004C15.4941 17.5004 15.4941 17.6004 15.4941 17.8004C15.5954 20.7004 16.4056 23.4004 17.8234 25.3004C19.2412 27.2004 21.0641 28.3004 22.8869 28.3004C23.0895 28.3004 23.1908 28.3004 23.3933 28.3004C27.2416 27.9004 30.1785 23.4004 30.3811 17.8004C30.3811 17.6004 30.3811 17.5004 30.3811 17.3004C30.3811 11.5004 27.3429 6.70038 23.3933 6.30038C23.292 6.30038 23.0895 6.30038 22.9882 6.30038Z" fill="#B48545"/>
<path d="M23.4944 6.2002C23.2919 6.2002 23.1906 6.2002 22.9881 6.2002C22.8868 6.2002 22.6843 6.2002 22.583 6.2002H22.6843C26.6339 6.6002 29.7733 11.4002 29.7733 17.3002C29.7733 17.5002 29.7733 17.6002 29.7733 17.8002C29.5708 23.5002 26.5326 28.1002 22.6843 28.4002H22.583C22.6843 28.4002 22.8868 28.4002 22.9881 28.4002C23.1906 28.4002 23.2919 28.4002 23.4944 28.4002C27.3428 28.0002 30.4822 23.4002 30.5835 17.8002C30.5835 17.6002 30.5835 17.5002 30.5835 17.3002C30.5835 11.4002 27.444 6.6002 23.4944 6.2002Z" fill="#FCB316"/>
<path d="M22.9881 28.6C22.8868 28.6 22.6843 28.6 22.583 28.6V28.3H22.6843C26.5326 27.9 29.4695 23.4 29.672 17.8C29.672 17.6 29.672 17.5 29.672 17.3C29.672 11.5 26.6339 6.69999 22.6843 6.29999H22.583V6C22.8868 6 23.1906 6 23.5957 6C27.6466 6.4 30.8873 11.3 30.8873 17.3C30.8873 17.5 30.8873 17.6 30.8873 17.8C30.6847 23.6 27.6466 28.2 23.5957 28.6C23.2919 28.6 23.0894 28.6 22.9881 28.6ZM24.5072 6.60001C27.6466 8.10001 29.8746 12.4 29.8746 17.3C29.8746 17.5 29.8746 17.6 29.8746 17.8C29.7733 22.6 27.5453 26.6 24.5072 28.1C27.7479 27.1 30.2797 22.9 30.3809 17.8C30.3809 17.6 30.3809 17.5 30.3809 17.3C30.3809 12.1 27.9504 7.60001 24.5072 6.60001Z" fill="#B48545"/>
<path d="M20.7608 20.5V24.1H19.748V22.6L20.7608 20.5Z" fill="#F7E343"/>
<path d="M21.9761 18.1006L22.4824 19.0006V19.1006V24.1006H21.4697V19.2006L21.9761 18.1006Z" fill="#F7E343"/>
<path d="M24.2041 18.5V24.1H23.1914V20.6L23.2927 20.5L24.0016 19L24.2041 18.5Z" fill="#F7E343"/>
<path d="M25.9258 15.1006V24.1006H24.9131V17.2006L25.9258 15.1006Z" fill="#F7E343"/>
<path d="M23.1908 18.7998H22.7858L21.9756 17.2998H22.4819L23.1908 18.7998Z" fill="#875D27"/>
<path d="M19.7476 22.6006H19.2412V24.2006H19.7476V22.6006Z" fill="#875D27"/>
<path d="M19.7476 22.6H19.2412L20.2539 20.5H20.7603L19.7476 22.6Z" fill="#875D27"/>
<path d="M21.5708 19.2002H21.0645V24.1002H21.5708V19.2002Z" fill="#875D27"/>
<path d="M21.4695 19.2006H21.0645L21.5708 18.1006H21.9759L21.4695 19.2006Z" fill="#875D27"/>
<path d="M24.0015 19H23.4951L23.7989 18.5H24.204L24.0015 19Z" fill="#875D27"/>
<path d="M23.2925 20.5H22.7861L23.495 19H24.0014L23.2925 20.5Z" fill="#875D27"/>
<path d="M23.1912 20.6H22.7861V20.5H23.2925L23.1912 20.6Z" fill="#875D27"/>
<path d="M23.2925 20.6006H22.7861V24.2006H23.2925V20.6006Z" fill="#875D27"/>
<path d="M25.0142 17.2002H24.5078V24.1002H25.0142V17.2002Z" fill="#875D27"/>
<path d="M24.9129 17.2006H24.5078L25.5205 15.1006H25.9256L24.9129 17.2006Z" fill="#875D27"/>
<path d="M26.7359 12.9998H26.2296L25.9258 12.2998H26.3309L26.7359 12.9998Z" fill="#875D27"/>
<path d="M25.622 10.8002H25.2169L24.9131 10.2002H25.3182L25.622 10.8002Z" fill="#875D27"/>
<path d="M23.1912 15.7998H22.7861L25.2166 10.7998H25.6217L23.1912 15.7998Z" fill="#875D27"/>
<path d="M22.4818 17.3004H21.9754L21.5703 16.4004H22.0767L22.4818 17.3004Z" fill="#875D27"/>
<path d="M21.3687 14.9H20.8623L21.5712 13.5H22.0776L21.3687 14.9Z" fill="#875D27"/>
<path d="M18.8364 20.2004H18.3301L20.8619 14.9004H21.3682L18.8364 20.2004Z" fill="#875D27"/>
<path d="M19.5453 21.6002H19.039L18.3301 20.2002H18.8364L19.5453 21.6002Z" fill="#875D27"/>
<path d="M25.3173 10.2002H26.7351V13.0002L26.33 12.3002L23.8995 17.3002L23.1906 18.8002L22.4817 17.3002L22.0766 16.4002L19.5448 21.6002L18.8359 20.2002L21.3677 14.9002L22.0766 13.5002L22.7855 14.9002L23.1906 15.8002L25.6211 10.8002L25.3173 10.2002Z" fill="#F7E343"/>
<path d="M111.703 36.9996C111.703 35.9996 110.893 35.7996 109.981 35.5996C109.374 35.4996 108.766 35.2996 108.26 35.0996C107.753 34.8996 107.45 34.2996 107.45 33.5996C107.45 32.9996 107.652 32.5996 108.159 32.1996C108.665 31.7996 109.171 31.5996 109.981 31.5996C110.792 31.5996 111.399 31.7996 111.804 32.1996C112.209 32.5996 112.513 33.1996 112.513 33.8996H111.804C111.804 32.8996 111.095 32.2996 110.083 32.2996C108.969 32.2996 108.361 32.7996 108.361 33.5996C108.361 34.4996 109.171 34.6996 110.083 34.8996C110.69 34.9996 111.298 35.1996 111.804 35.3996C112.311 35.5996 112.614 36.1996 112.614 36.9996C112.614 37.5996 112.412 38.0996 111.906 38.4996C111.399 38.8996 110.792 39.0996 109.981 39.0996C109.07 39.0996 108.462 38.8996 107.956 38.3996C107.45 37.8996 107.247 37.3996 107.247 36.7996H107.956C108.057 37.8996 108.766 38.3996 109.981 38.3996C110.994 38.3996 111.703 37.8996 111.703 36.9996Z" fill="#1E386B"/>
<path d="M118.59 36.5H114.337C114.337 37 114.539 37.5 114.843 37.8C115.147 38.1 115.653 38.3 116.159 38.3C116.97 38.3 117.577 37.9 117.78 37.2H118.489C118.286 37.7 118.084 38.1 117.577 38.4C117.172 38.7 116.666 38.9 116.058 38.9C115.248 38.9 114.64 38.6 114.235 38.1C113.729 37.6 113.526 37 113.526 36.2C113.526 35.5 113.729 34.8 114.235 34.3C114.742 33.8 115.349 33.5 116.058 33.5C116.767 33.5 117.375 33.8 117.881 34.2C118.387 34.7 118.59 35.3 118.59 36.1V36.5ZM114.944 34.8C114.64 35.1 114.438 35.5 114.337 36H117.881C117.78 35 117.071 34.3 116.159 34.3C115.653 34.3 115.248 34.5 114.944 34.8Z" fill="#1E386B"/>
<path d="M124.26 38.8992H123.551V35.7992C123.551 34.8992 123.146 34.2992 122.235 34.2992C121.323 34.2992 120.716 34.8992 120.716 35.8992V38.8992H120.007V33.7992H120.716V34.5992C121.02 33.9992 121.627 33.6992 122.336 33.6992C123.146 33.6992 123.754 33.9992 124.058 34.6992C124.362 34.0992 125.07 33.6992 125.881 33.6992C126.488 33.6992 126.995 33.8992 127.298 34.2992C127.602 34.6992 127.805 35.0992 127.805 35.6992V38.9992H127.096V35.8992C127.096 34.9992 126.691 34.3992 125.779 34.3992C124.969 34.3992 124.26 34.9992 124.26 35.9992V38.8992Z" fill="#1E386B"/>
<path d="M132.97 33.7998H133.679V38.8998H132.97V38.1998C132.767 38.5998 132.16 39.0998 131.248 39.0998C130.033 39.0998 129.324 38.2998 129.324 37.0998V33.7998H130.033V36.8998C130.033 37.8998 130.438 38.3998 131.35 38.3998C132.261 38.3998 132.869 37.7998 132.869 36.7998V33.7998H132.97Z" fill="#1E386B"/>
<path d="M135.198 37.4998C135.198 36.5998 135.806 36.0998 137.122 35.9998L138.945 35.7998V35.6998C138.945 34.7998 138.439 34.3998 137.527 34.3998C136.717 34.3998 136.211 34.6998 136.11 35.3998H135.401C135.603 34.3998 136.211 33.7998 137.629 33.7998C139.047 33.7998 139.755 34.4998 139.755 35.6998V37.8998C139.755 38.3998 139.755 38.7998 139.958 38.9998H139.249C139.148 38.7998 139.148 38.4998 139.148 38.0998C138.743 38.7998 138.135 39.0998 137.122 39.0998C135.806 38.9998 135.198 38.3998 135.198 37.4998ZM138.945 36.2998L137.224 36.4998C136.312 36.5998 135.907 36.9998 135.907 37.4998C135.907 38.1998 136.414 38.3998 137.122 38.3998C137.73 38.3998 138.135 38.1998 138.439 37.8998C138.743 37.5998 138.945 37.1998 138.945 36.7998V36.2998Z" fill="#1E386B"/>
<path d="M146.135 38.1998V38.7998C146.034 38.7998 145.832 38.8998 145.629 38.8998C144.718 38.8998 144.313 38.3998 144.313 37.4998V34.3998H143.3V33.7998H144.313V32.2998H145.021V33.7998H146.237V34.3998H145.021V37.4998C145.021 37.9998 145.224 38.2998 145.73 38.2998L146.135 38.1998Z" fill="#1E386B"/>
<path d="M151.807 36.5H147.553C147.553 37 147.756 37.5 148.06 37.8C148.364 38.1 148.87 38.3 149.376 38.3C150.186 38.3 150.794 37.9 150.997 37.2H151.705C151.503 37.7 151.3 38.1 150.794 38.4C150.389 38.7 149.883 38.9 149.275 38.9C148.465 38.9 147.857 38.6 147.452 38.1C146.946 37.6 146.743 37 146.743 36.2C146.743 35.5 146.946 34.8 147.452 34.3C147.958 33.8 148.566 33.5 149.275 33.5C149.984 33.5 150.591 33.8 151.098 34.2C151.604 34.7 151.807 35.3 151.807 36.1V36.5ZM148.161 34.8C147.857 35.1 147.655 35.5 147.553 36H151.098C150.997 35 150.288 34.3 149.376 34.3C148.87 34.3 148.465 34.5 148.161 34.8Z" fill="#1E386B"/>
<path d="M153.934 33.7992V34.5992C154.136 34.0992 154.744 33.6992 155.655 33.6992C156.871 33.6992 157.58 34.4992 157.58 35.6992V38.9992H156.871V35.8992C156.871 34.8992 156.364 34.3992 155.554 34.3992C154.744 34.3992 154.035 34.9992 154.035 35.9992V38.9992H153.326V33.8992H153.934V33.7992Z" fill="#1E386B"/>
<path d="M161.427 38.1998V38.7998C161.326 38.7998 161.124 38.8998 160.921 38.8998C160.01 38.8998 159.605 38.3998 159.605 37.4998V34.3998H158.592V33.7998H159.605V32.2998H160.313V33.7998H161.529V34.3998H160.313V37.4998C160.313 37.9998 160.516 38.2998 161.022 38.2998L161.427 38.1998Z" fill="#1E386B"/>
<path d="M162.237 37.4998C162.237 36.5998 162.845 36.0998 164.161 35.9998L165.984 35.7998V35.6998C165.984 34.7998 165.478 34.3998 164.567 34.3998C163.756 34.3998 163.25 34.6998 163.149 35.3998H162.44C162.642 34.3998 163.25 33.7998 164.668 33.7998C166.086 33.7998 166.795 34.4998 166.795 35.6998V37.8998C166.795 38.3998 166.795 38.7998 166.997 38.9998H166.288C166.187 38.7998 166.187 38.4998 166.187 38.0998C165.782 38.7998 165.174 39.0998 164.161 39.0998C162.845 38.9998 162.237 38.3998 162.237 37.4998ZM165.984 36.2998L164.263 36.4998C163.351 36.5998 162.946 36.9998 162.946 37.4998C162.946 38.1998 163.453 38.3998 164.161 38.3998C164.769 38.3998 165.174 38.1998 165.478 37.8998C165.782 37.5998 165.984 37.1998 165.984 36.7998V36.2998Z" fill="#1E386B"/>
<path d="M169.124 33.7992V34.5992C169.327 34.0992 169.934 33.6992 170.846 33.6992C172.061 33.6992 172.77 34.4992 172.77 35.6992V38.9992H172.061V35.8992C172.061 34.8992 171.555 34.3992 170.745 34.3992C169.833 34.3992 169.226 34.9992 169.226 35.9992V38.9992H168.517V33.8992H169.124V33.7992Z" fill="#1E386B"/>
<path d="M178.542 33.7998H179.251V38.6998C179.251 39.3998 179.048 39.9998 178.643 40.4998C178.238 40.9998 177.63 41.1998 176.82 41.1998C176.111 41.1998 175.605 40.9998 175.2 40.6998C174.795 40.3998 174.592 39.9998 174.491 39.5998H175.2C175.402 40.1998 176.01 40.5998 176.82 40.5998C177.833 40.5998 178.542 39.8998 178.542 38.9998V37.9998C178.137 38.6998 177.529 38.9998 176.618 38.9998C175.909 38.9998 175.301 38.6998 174.795 38.1998C174.39 37.6998 174.086 37.0998 174.086 36.3998C174.086 35.6998 174.288 35.0998 174.795 34.5998C175.301 34.0998 175.808 33.7998 176.618 33.7998C177.529 33.7998 178.137 34.1998 178.542 34.8998V33.7998ZM178.542 36.2998C178.542 35.6998 178.339 35.2998 178.036 34.8998C177.732 34.4998 177.225 34.2998 176.719 34.2998C176.111 34.2998 175.706 34.4998 175.402 34.8998C175.099 35.2998 174.896 35.6998 174.896 36.2998C174.896 36.8998 175.099 37.2998 175.402 37.6998C175.706 38.0998 176.213 38.2998 176.719 38.2998C177.327 38.2998 177.732 38.0998 178.036 37.6998C178.339 37.2998 178.542 36.7998 178.542 36.2998Z" fill="#1E386B"/>
<path d="M183.201 36.2996C183.201 35.5996 183.404 34.8996 183.91 34.3996C184.416 33.8996 185.024 33.5996 185.733 33.5996C186.442 33.5996 186.948 33.7996 187.353 34.1996C187.758 34.5996 188.062 34.9996 188.163 35.5996H187.455C187.252 34.7996 186.644 34.2996 185.733 34.2996C185.227 34.2996 184.72 34.4996 184.416 34.8996C184.113 35.2996 183.91 35.7996 183.91 36.3996C183.91 36.9996 184.113 37.4996 184.416 37.8996C184.72 38.2996 185.227 38.4996 185.733 38.4996C186.644 38.4996 187.252 37.9996 187.455 37.1996H188.163C188.062 37.7996 187.758 38.1996 187.353 38.5996C186.948 38.9996 186.341 39.1996 185.733 39.1996C184.923 39.1996 184.315 38.8996 183.91 38.3996C183.404 37.6996 183.201 37.0996 183.201 36.2996Z" fill="#1E386B"/>
<path d="M192.011 33.6992V34.3992C191.91 34.3992 191.809 34.3992 191.707 34.3992C190.796 34.3992 190.188 34.9992 190.188 35.9992V38.8992H189.479V33.7992H190.188V34.5992C190.391 34.1992 190.999 33.7992 191.809 33.7992L192.011 33.6992Z" fill="#1E386B"/>
<path d="M193.632 40.9998L194.544 38.8998L192.417 33.7998H193.227L194.949 38.0998L196.772 33.7998H197.582L194.544 40.9998H193.632Z" fill="#1E386B"/>
<path d="M199.202 40.9996H198.493V33.7996H199.202V34.6996C199.607 33.9996 200.215 33.5996 201.126 33.5996C201.936 33.5996 202.443 33.8996 202.949 34.3996C203.354 34.8996 203.557 35.5996 203.557 36.2996C203.557 36.9996 203.354 37.6996 202.949 38.1996C202.544 38.6996 201.936 38.9996 201.126 38.9996C200.215 38.9996 199.607 38.5996 199.202 37.9996V40.9996ZM199.607 37.7996C199.911 38.1996 200.417 38.3996 200.924 38.3996C201.531 38.3996 201.936 38.1996 202.24 37.7996C202.544 37.3996 202.747 36.8996 202.747 36.3996C202.747 35.7996 202.544 35.2996 202.24 34.8996C201.936 34.4996 201.43 34.2996 200.924 34.2996C200.316 34.2996 199.911 34.4996 199.607 34.8996C199.303 35.2996 199.101 35.7996 199.101 36.3996C199.202 36.8996 199.303 37.3996 199.607 37.7996Z" fill="#1E386B"/>
<path d="M207 38.1998V38.7998C206.898 38.7998 206.696 38.8998 206.493 38.8998C205.582 38.8998 205.177 38.3998 205.177 37.4998V34.3998H204.164V33.7998H205.177V32.2998H205.886V33.7998H207.101V34.3998H205.886V37.4998C205.886 37.9998 206.088 38.2998 206.595 38.2998L207 38.1998Z" fill="#1E386B"/>
<path d="M208.418 38.1996C207.912 37.6996 207.709 37.0996 207.709 36.2996C207.709 35.5996 207.912 34.8996 208.418 34.3996C208.924 33.8996 209.532 33.5996 210.342 33.5996C211.152 33.5996 211.76 33.8996 212.266 34.3996C212.773 34.8996 212.975 35.5996 212.975 36.2996C212.975 36.9996 212.773 37.6996 212.266 38.1996C211.76 38.6996 211.152 38.9996 210.342 38.9996C209.532 38.9996 208.924 38.7996 208.418 38.1996ZM209.026 37.7996C209.431 38.1996 209.836 38.3996 210.443 38.3996C211.051 38.3996 211.456 38.1996 211.861 37.7996C212.266 37.3996 212.367 36.8996 212.367 36.3996C212.367 35.7996 212.165 35.2996 211.861 34.8996C211.456 34.4996 211.051 34.2996 210.443 34.2996C209.836 34.2996 209.431 34.4996 209.026 34.8996C208.62 35.2996 208.519 35.7996 208.519 36.3996C208.418 36.8996 208.62 37.3996 209.026 37.7996Z" fill="#1E386B"/>
</svg>
